<?xml version="1.0" encoding="utf-8"?>
<!-- Generator: Adobe Illustrator 22.0.0, SVG Export Plug-In . SVG Version: 6.00 Build 0)  -->
<svg version="1.1" id="Ebene_1" xmlns="http://www.w3.org/2000/svg" xmlns:xlink="http://www.w3.org/1999/xlink" x="0px" y="0px"
	 viewBox="0 0 1024 500" style="enable-background:new 0 0 1024 500;" xml:space="preserve">
<style type="text/css">
	.st0{fill:#233033;}
	.st1{fill:#F2F2F2;}
	.st2{fill:#F8C143;}
	.st3{fill:#F9CE64;}
	.st4{fill:#E1A61A;}
	.st5{opacity:0.1;fill:#233033;enable-background:new    ;}
	.st6{fill:#4A4A4A;}
	.st7{fill:#FFFFFF;}
	.st8{fill:#E09500;}
	.st9{font-family:'MyriadPro-Regular';}
	.st10{font-size:80px;}
	.st11{font-size:50px;}
	.st12{font-size:38px;}
</style>
<rect x="-19.9" y="-17.1" class="st0" width="1059.4" height="530.1"/>
<circle class="st1" cx="108.4" cy="300.4" r="11.1"/>
<circle class="st1" cx="183.1" cy="274.7" r="5.3"/>
<circle class="st1" cx="25.3" cy="236.4" r="5.4"/>
<circle class="st1" cx="947.2" cy="414.2" r="5.4"/>
<circle class="st1" cx="91.3" cy="398.5" r="5.4"/>
<circle class="st1" cx="208.8" cy="135" r="5.3"/>
<circle class="st1" cx="150.5" cy="35.3" r="5.3"/>
<circle class="st2" cx="85.9" cy="123.7" r="16.2"/>
<circle class="st1" cx="1977.6" cy="174.6" r="3.9"/>
<circle class="st1" cx="986.5" cy="457.1" r="3.9"/>
<circle class="st3" cx="592.4" cy="464.8" r="18.3"/>
<circle class="st1" cx="1935.8" cy="85.8" r="8"/>
<circle class="st3" cx="153.2" cy="451.6" r="13.2"/>
<circle class="st1" cx="612.6" cy="342.6" r="5.4"/>
<circle class="st1" cx="542.1" cy="424.9" r="5.4"/>
<circle class="st1" cx="232.9" cy="396" r="3.9"/>
<g>
	<path class="st4" d="M405.4,250c0,0-1.5,15.8-3.7,38.6c-0.7,7.3-1.8,15.4-2.9,24.2c-1.5,12.1-3.3,24.6-5.1,37.5
		c-1.1,8.1-2.6,15.8-3.7,23.5c-7,41.5-16.5,78.2-27.6,81.6c-24.6,6.6-116.1-147.3-126.4-164.6c-0.7-1.1-0.7-1.5-0.7-1.5L405.4,250z"
		/>
	<path class="st5" d="M401.4,288.6c-0.7,7.3-1.8,15.4-2.9,24.2l-79.4-43l33.1-7.7L401.4,288.6z"/>
	<path class="st5" d="M393.3,350.3c-1.1,8.1-2.6,15.8-3.7,23.5l-153.6-83c-0.7-1.1-0.7-1.5-0.7-1.5l32-7.3L393.3,350.3z"/>
	<path class="st3" d="M289.3,121.4c-6.2,8.1-19.1,8.4-25.3,16.9c-4,5.5-3.7,13.6-0.7,19.8c2.9,6.2,8.1,11.4,13.2,16.2
		c3.3,3.3,7,6.6,11.4,8.8c5.9,2.9,12.9,3.3,19.8,3.7c14.7,0,29.4-1.1,43.7-3.7c6.2-1.1,13.6-3.3,16.9-8.8c1.8-3.3,1.8-7.3,1.8-11
		c0-5.9-1.1-12.1-4.4-16.9c-2.9-4-7.3-6.2-12.1-8.4c-14-6.2-29.8-10.7-40-22c-4-4.4-7.3-10.3-12.5-13.2c-7-4-20.2-3.3-26.1,1.8
		C276.5,106.4,293,116.7,289.3,121.4z"/>
	<path class="st3" d="M237.9,197.8c-0.4,8.4-0.7,17.6,3.3,25.3c5.1,9.9,16.2,15.8,27.6,17.6c11.4,1.5,22.4-0.7,33.4-2.6l58-11
		c7.3-1.5,14.7-2.9,22-1.8c6.2,0.7,13.6,2.6,17.3-2.2c1.8-2.2,2.2-5.1,2.2-7.7c0.4-9.2-0.4-18.7-5.5-26.1
		c-5.9-8.4-16.5-12.5-26.8-13.2c-10.3-0.7-20.6,1.5-30.9,2.6s-20.9,1.5-31.6,1.1c-8.8-0.4-17.6-1.8-25.3-6.2
		c-4-2.6-7.3-5.9-11.4-8.4C248.2,148.6,238.6,181.7,237.9,197.8z"/>
	<path class="st3" d="M233.5,237.5c-16.2,12.1-19.5,35.3-7,51.1c3.7,4.8,8.1,8.4,13.6,11c10.3,4.8,22.4,4.8,33.8,2.9
		c11-1.8,21.7-4.8,32.7-7.7l95.1-27.2c5.5-1.5,11.8-3.7,14.3-8.8c1.8-4,0.7-8.4-0.7-12.5c-5.5-14.3-20.2-25.3-35.6-26.5
		c-5.9-0.4-11.8,0.4-17.6,1.1l-42.2,5.5c-5.5,0.7-11.4,1.5-16.9,1.1c-17.3-0.7-34.9-10.3-51.1-4.4c-11,4-18.7,14-25,23.9"/>
	<path class="st5" d="M272.4,160.4c0,0,19.1,21.3,90.4,15.1"/>
	<path class="st5" d="M248.9,232.7c0,0,30.9,19.5,134.1-4.4"/>
	
		<ellipse transform="matrix(0.9745 -0.2244 0.2244 0.9745 -24.3247 68.4407)" class="st4" cx="288.9" cy="141.2" rx="6.6" ry="2.2"/>
	
		<ellipse transform="matrix(0.9745 -0.2244 0.2244 0.9745 -25.8216 74.3725)" class="st4" cx="314.3" cy="150.8" rx="6.6" ry="2.2"/>
	
		<ellipse transform="matrix(0.9745 -0.2244 0.2244 0.9745 -27.2342 81.0462)" class="st4" cx="342.9" cy="160.3" rx="6.6" ry="2.2"/>
	
		<ellipse transform="matrix(0.9745 -0.2244 0.2244 0.9745 -35.4539 62.3573)" class="st4" cx="256.6" cy="187.2" rx="6.6" ry="2.2"/>
	
		<ellipse transform="matrix(0.9745 -0.2244 0.2244 0.9745 -35.6298 76.2387)" class="st4" cx="317.6" cy="194.9" rx="6.6" ry="2.2"/>
	
		<ellipse transform="matrix(0.9745 -0.2244 0.2244 0.9745 -51.0852 62.2132)" class="st4" cx="248.2" cy="255.9" rx="6.6" ry="2.2"/>
	
		<ellipse transform="matrix(0.9745 -0.2244 0.2244 0.9745 -39.0492 68.1936)" class="st4" cx="280.5" cy="205.9" rx="6.6" ry="2.2"/>
	
		<ellipse transform="matrix(0.9745 -0.2244 0.2244 0.9745 -53.4552 67.0752)" class="st4" cx="268.4" cy="268.7" rx="6.6" ry="2.2"/>
	
		<ellipse transform="matrix(0.9745 -0.2244 0.2244 0.9745 -47.9636 75.7198)" class="st4" cx="309.1" cy="248.9" rx="6.6" ry="2.2"/>
	<ellipse transform="matrix(0.9745 -0.2244 0.2244 0.9745 -54.7403 84.4228)" class="st3" cx="344" cy="283" rx="7.3" ry="15.1"/>
	<ellipse transform="matrix(0.9745 -0.2244 0.2244 0.9745 -55.2293 86.7329)" class="st3" cx="354" cy="286.3" rx="7.3" ry="15.1"/>
	<path class="st4" d="M372.4,432.6c0-0.4,0-7.7,5.1-19.5c5.1-11,15.8-28.3,38.9-47.4c43.7-36.4,44.1-86,44.1-86.7h1.5
		c0,0,0,12.9-5.5,29.8c-7.3,22.8-20.9,42.6-39.3,57.7c-43.7,36.4-43.7,65.8-43.7,66.1C373.5,432.6,372.4,432.6,372.4,432.6z"/>
	<ellipse class="st3" cx="460.2" cy="264.7" rx="9.2" ry="9.2"/>
	<ellipse class="st4" cx="468.2" cy="307.7" rx="9.2" ry="9.2"/>
	<ellipse class="st3" cx="440" cy="317.6" rx="9.2" ry="9.2"/>
	<ellipse class="st3" cx="451.3" cy="345.5" rx="9.2" ry="9.2"/>
	<ellipse class="st4" cx="410.2" cy="355.8" rx="9.2" ry="9.2"/>
	<path class="st4" d="M376.8,435.9c0,0,3.3-23.9,35.3-25L376.8,435.9z"/>
	<path class="st4" d="M367.6,429.7c0,0,8.1-22.8-19.5-38.6L367.6,429.7z"/>
</g>
<path class="st4" d="M534.6,383c-0.7,0-1.4-0.4-1.8-0.4l-4.3-3.2c-0.7-0.4-1.8-0.4-2.5,0l-4.3,3.2c-1.4,1.1-3.2,0.7-4.3-0.7
	c-0.4-0.7-0.7-1.8-0.4-2.9l1.8-5c0.4-0.7,0-1.8-0.7-2.2l-4.3-3.2c-1.4-1.1-1.8-3.2-0.7-4.3c0.4-0.7,1.4-1.4,2.5-1.4h5.4
	c1.1,0,1.8-0.4,2.2-1.4l1.8-5c0.4-1.4,2.2-2.5,4-2.2c1.1,0.4,1.8,1.1,2.2,2.2l1.8,5c0.4,0.7,1.1,1.4,2.2,1.4h5.4
	c1.8,0,3.2,1.4,3.2,3.2c0,1.1-0.4,2.2-1.4,2.5l-4.3,3.2c-0.7,0.4-1.1,1.4-0.7,2.2l1.8,5c0.4,1.4,0,2.5-1.1,3.6
	C536,383,535.3,383,534.6,383z"/>
<path class="st4" d="M238.8,71.3c-0.7,0-1.4-0.4-1.8-0.4l-4.2-3.2c-0.7-0.4-1.8-0.4-2.5,0l-4.2,3.2c-1.4,1.1-3.2,0.7-4.2-0.7
	c-0.4-0.7-0.7-1.8-0.4-2.8l1.8-4.9c0.4-0.7,0-1.8-0.7-2.1l-4.2-3.2c-1.4-1.1-1.8-3.2-0.7-4.2c0.4-0.7,1.4-1.4,2.5-1.4h4.9
	c1.1,0,1.8-0.4,2.1-1.4l1.8-4.9c0.4-1.4,2.1-2.5,3.9-2.1c1.1,0.4,1.8,1.1,2.1,2.1l1.8,4.9c0.4,0.7,1.1,1.4,2.1,1.4h5.3
	c1.8,0,3.2,1.4,3.2,3.2c0,1.1-0.4,2.1-1.4,2.5l-4.2,3.2c-0.7,0.4-1.1,1.4-0.7,2.1l1.8,4.9c0.4,1.4,0,2.5-1.1,3.5
	C240.3,70.9,239.6,71.3,238.8,71.3z"/>
<path class="st4" d="M159.5,368.3c-0.5,0-1-0.3-1.3-0.3l-3.1-2.3c-0.5-0.3-1.3-0.3-1.8,0l-3.1,2.3c-1,0.8-2.3,0.5-3.1-0.5
	c-0.3-0.5-0.5-1.3-0.3-2.1l1.3-3.6c0.3-0.5,0-1.3-0.5-1.6l-3.1-2.3c-1-0.8-1.3-2.3-0.5-3.1c0.3-0.5,1-1,1.8-1h3.9
	c0.8,0,1.3-0.3,1.6-1l1.3-3.6c0.3-1,1.6-1.8,2.9-1.6c0.8,0.3,1.3,0.8,1.6,1.6l1.3,3.6c0.3,0.5,0.8,1,1.6,1h3.9c1.3,0,2.3,1,2.3,2.3
	c0,0.8-0.3,1.6-1,1.8l-3.1,2.3c-0.5,0.3-0.8,1-0.5,1.6l1.3,3.6c0.3,1,0,1.8-0.8,2.6C160.5,368,160,368.3,159.5,368.3z"/>
<path class="st3" d="M457.3,484.6c-0.7,0-1.4-0.4-2.2-0.7c-1.4-0.7-1.8-2.2-1.4-4l1.8-5c0.4-0.7,0-1.4-0.7-2.2l-4.3-3.2
	c-1.4-1.1-1.8-3.2-0.7-5c0.7-0.7,1.8-1.4,2.9-1.4h5.4c0.7,0,1.4-0.4,1.8-1.4l1.8-5c0.4-1.8,2.5-2.9,4.3-2.2c1.1,0.4,1.8,1.1,2.2,2.2
	l1.8,5c0.4,0.7,1.1,1.4,1.8,1.4h5.4c1.8,0,3.2,1.4,3.2,3.2c0,1.1-0.4,2.2-1.4,2.9l-4.3,3.2c-0.7,0.4-1.1,1.4-0.7,2.2l1.8,5
	c0.4,1.8-0.4,3.6-2.2,4.3c-1.1,0.4-2.2,0.4-3.2-0.4l-4.3-3.2c-0.7-0.4-1.4-0.4-2.2,0l-4.3,3.2C458.8,484.6,458,484.6,457.3,484.6z
	 M464.9,479.2c0.7,0,1.4,0.4,2.2,0.7l4.3,3.2c0.7,0.4,2.2,0.4,2.5-0.4c0.4-0.4,0.4-1.1,0.4-1.4l-1.8-5c-0.4-1.4,0-2.9,1.4-4l4.3-3.2
	c0.7-0.4,1.1-1.8,0.4-2.5c-0.4-0.4-0.7-0.7-1.4-0.7h-5.4c-1.4,0-2.9-1.1-3.2-2.2l-1.8-5c-0.4-1.1-1.4-1.4-2.2-1.4
	c-0.4,0.4-1.1,0.4-1.4,1.4l-1.8,5c-0.4,1.4-1.8,2.2-3.2,2.2h-5.8c-1.1,0-1.8,0.7-1.8,1.8c0,0.4,0.4,1.1,0.7,1.4l4.3,3.2
	c1.4,0.7,1.8,2.2,1.4,4l-1.8,5c-0.4,1.1,0.4,2.2,1.4,2.2c0.4,0.4,1.4,0,1.4-0.4l4.3-3.2C463.4,479.2,464.1,479.2,464.9,479.2z"/>
<path class="st4" d="M1000.3,375.8c-0.5,0-1-0.3-1.3-0.3l-3.1-2.3c-0.5-0.3-1.3-0.3-1.8,0l-3.1,2.3c-1,0.8-2.3,0.5-3.1-0.5
	c-0.3-0.5-0.5-1.3-0.3-2.1l1.3-3.6c0.3-0.5,0-1.3-0.5-1.6l-3.1-2.3c-1-0.8-1.3-2.3-0.5-3.1c0.3-0.5,1-1,1.8-1h3.9
	c0.8,0,1.3-0.3,1.6-1l1.3-3.6c0.3-1,1.6-1.8,2.9-1.6c0.8,0.3,1.3,0.8,1.6,1.6l1.3,3.6c0.3,0.5,0.8,1,1.6,1h3.9c1.3,0,2.3,1,2.3,2.3
	c0,0.8-0.3,1.6-1,1.8l-3.1,2.3c-0.5,0.3-0.8,1-0.5,1.6l1.3,3.6c0.3,1,0,1.8-0.8,2.6C1001.3,375.8,1001,375.8,1000.3,375.8z"/>
<path class="st3" d="M1962.8,285.7c-0.5,0-1-0.3-1.6-0.5c-1-0.5-1.3-1.6-1-2.9l1.3-3.6c0.3-0.5,0-1-0.5-1.6l-3.1-2.3
	c-1-0.8-1.3-2.3-0.5-3.6c0.5-0.5,1.3-1,2.1-1h3.9c0.5,0,1-0.3,1.3-1l1.3-3.6c0.3-1.3,1.8-2.1,3.1-1.6c0.8,0.3,1.3,0.8,1.6,1.6
	l1.3,3.6c0.3,0.5,0.8,1,1.3,1h3.9c1.3,0,2.3,1,2.3,2.3c0,0.8-0.3,1.6-1,2.1l-3.1,2.3c-0.5,0.3-0.8,1-0.5,1.6l1.3,3.6
	c0.3,1.3-0.3,2.6-1.6,3.1c-0.8,0.3-1.6,0.3-2.3-0.3l-3.1-2.3c-0.5-0.3-1-0.3-1.6,0l-3.1,2.3C1963.9,285.5,1963.3,285.7,1962.8,285.7
	z M1968.3,281.6c0.5,0,1,0.3,1.6,0.5l3.1,2.3c0.5,0.3,1.6,0.3,1.8-0.3c0.3-0.3,0.3-0.8,0.3-1l-1.3-3.6c-0.3-1,0-2.1,1-2.9l3.1-2.3
	c0.5-0.3,0.8-1.3,0.3-1.8c-0.3-0.3-0.5-0.5-1-0.5h-3.9c-1,0-2.1-0.8-2.3-1.6l-1.3-3.6c-0.3-0.8-1-1-1.6-1c-0.3,0.3-0.8,0.3-1,1
	l-1.3,3.6c-0.3,1-1.3,1.6-2.3,1.6h-3.9c-0.8,0-1.3,0.5-1.3,1.3c0,0.3,0.3,0.8,0.5,1l3.1,2.3c1,0.5,1.3,1.6,1,2.9l-1.3,3.6
	c-0.3,0.8,0.3,1.6,1,1.6c0.3,0.3,1,0,1-0.3l3.1-2.3C1967.2,281.6,1967.8,281.6,1968.3,281.6z"/>
<g>
	<circle class="st3" cx="938.6" cy="228" r="34.3"/>
	<path class="st6" d="M854.2,387.7c-0.5,4.9-1,9.9-1.6,14.5h13.8c0.5-4.9,1-9.6,1.8-14.5H854.2z"/>
	<path class="st6" d="M865.6,439.1c-0.3-4.9-0.5-9.6-0.3-14.5h-14C851,430,851,435,851,439.1H865.6z"/>
	<path class="st6" d="M889.2,310.3c11.4-30.6,22.6-51.2,22.6-51.2l-11.7-7c-12.2,18.4-21.3,38.2-28.3,58.2H889.2z"/>
	<path class="st6" d="M852.3,406.1c-0.5,5.2-0.8,10.1-1,14.5h13.8c0.3-4.9,0.5-9.6,0.8-14.5H852.3z"/>
	<path class="st6" d="M857,369.3c-0.8,4.9-1.6,9.9-2.3,14.5H869c0.8-4.9,1.8-9.6,2.9-14.5H857z"/>
	<path class="st6" d="M870.5,314.2c-1.6,4.9-3.1,9.6-4.4,14.5h16.6c1.6-4.9,3.4-9.9,4.9-14.5H870.5z"/>
	<path class="st6" d="M860.4,351.1c-1,4.9-2.1,9.9-2.9,14.5h15.1c1-4.9,2.3-9.9,3.6-14.5H860.4z"/>
	<path class="st6" d="M850.8,442.8c0,6.2,0.3,9.9,0.3,9.9l-0.3,2.9h16.4c-0.8-4.2-1-8.3-1.6-12.7H850.8z"/>
	<path class="st6" d="M865.1,332.7c-1.3,4.9-2.6,9.6-3.6,14.5h15.8c1.3-4.9,2.9-9.9,4.4-14.5C881.7,332.7,865.1,332.7,865.1,332.7z"
		/>
	<path class="st4" d="M981.9,272.7c-5.7-12.2-11.7-21.3-17.4-27.8l-2.9,4.7l0.3-7.5c-2.1-2.1-4.2-3.9-6.2-5.7l-4.2,6.2l0.3-8.8
		c-2.3-1.6-4.9-2.9-7.8-3.9l-3.1,4.7l0.3-5.5c-10.4-2.6-19,1-23.9,3.9l-2.9-0.5l5.2-2.1c-0.5-2.9-1.3-5.7-2.3-8.3l-8.8-1.3l6.8-2.9
		c-1.3-2.6-2.9-4.9-4.4-7.3l-7.5-1l4.9-2.1c-5.5-6.8-13.5-14.3-24.1-22.1c0,0-0.8,7-1.3,16.9l7.3,7.5l-7.5-2.1c0,3.1,0,6.2,0,9.3
		l5.5,5.5l-5.5-1.3c0,2.6,0.3,4.9,0.3,7.5c-4.7-1-9.3-1-14,0l0.3,5.5l-3.1-4.7c-2.6,1-5.2,2.3-7.8,3.9l0.3,8.8l-4.2-6.2
		c-2.3,1.8-4.4,3.6-6.2,5.7l0.3,7.5l-2.9-4.7c-5.7,6.8-11.4,15.8-17.4,27.8c0,0,7-0.5,16.9-1.8l6-8.6l-0.5,7.8c2.9-0.5,6-1,9.3-1.6
		l4.4-6.2l-0.5,5.5c4.4-1,8.8-2.1,13-3.4l3.1,2.9l-5.5-1c-1.3,2.6-2.1,5.5-2.9,8l6.5,6l-7.3-1.6c-0.3,2.9-0.5,5.7-0.3,8.6l5.5,5.2
		l-5.5-1c0.8,8.8,3.1,19.2,7.5,31.9c0,0,4.7-5.5,10.6-13.2l-1.8-10.4l5.2,6c1.8-2.3,3.6-4.9,5.5-7.8l-1.3-7.5l3.6,4.2
		c3.6-5.7,7-11.7,9.6-17.4c3.1,4.2,6.8,8.3,10.4,12.2l2.9-4.7v7.8c2.3,2.3,4.7,4.4,6.8,6.5l3.9-6.8l0.3,10.6
		c7.3,6.5,12.7,10.9,12.7,10.9c2.1-13.2,2.3-24.1,1.3-32.7l-4.9,2.1l4.4-6.2c-0.5-2.9-1-5.5-1.8-8.3l-6.8,2.9l3.4-4.4
		c1.3,0.3,2.9,0.8,4.2,1l-0.5-5.5l4.4,6.2c3.1,0.5,6.2,1,9.3,1.6l-0.5-7.8l6,8.6C974.6,272.2,981.9,272.7,981.9,272.7z"/>
	<path class="st6" d="M829.8,378.9c0.5,3.6,0.8,7,1,10.1h-9.6c-0.3-3.4-0.8-6.8-1.3-10.1H829.8z"/>
	<path class="st6" d="M822,415c0.3-3.4,0.3-6.8,0.3-10.1h9.9c0.3,3.9,0.3,7.3,0.3,10.1H822z"/>
	<path class="st6" d="M805.1,324.3c-8-21.6-16.1-36.1-16.1-36.1l8.3-4.9c8.6,13,15.1,27,20,41C817.3,324.3,805.1,324.3,805.1,324.3z
		"/>
	<path class="st6" d="M831.1,391.9c0.3,3.6,0.5,7,0.8,10.1H822c0-3.4-0.3-6.8-0.5-10.1H831.1z"/>
	<path class="st6" d="M827.9,365.9c0.5,3.6,1,7,1.6,10.1h-10.1c-0.5-3.4-1.3-6.8-2.1-10.1H827.9z"/>
	<path class="st6" d="M818.3,326.9c1,3.4,2.3,6.8,3.1,10.1h-11.7c-1-3.6-2.3-7-3.6-10.1H818.3z"/>
	<path class="st6" d="M825.3,352.9c0.8,3.4,1.6,7,2.1,10.1h-10.6c-0.8-3.4-1.6-7-2.6-10.1H825.3z"/>
	<path class="st6" d="M832.1,417.8c0,4.4-0.3,7-0.3,7v2.1h-11.4c0.5-2.9,0.8-6,1-8.8L832.1,417.8z"/>
	<path class="st6" d="M822.2,339.9c1,3.4,1.8,6.8,2.6,10.1h-11.2c-1-3.4-2.1-7-3.1-10.1H822.2z"/>
	<path class="st4" d="M739.7,297.6c4.2-8.6,8.3-15.1,12.2-19.7l2.1,3.1l-0.3-5.5c1.3-1.6,2.9-2.9,4.4-4.2l2.9,4.4l-0.3-6.2
		c1.8-1,3.6-2.1,5.5-2.6l2.1,3.4v-3.9c7.3-1.8,13.2,0.8,16.9,2.9l2.1-0.3l-3.6-1.6c0.3-2.1,0.8-3.9,1.6-5.7l6.2-1l-4.9-2.1
		c1-1.8,2.1-3.4,3.1-5.2l5.2-0.8l-3.6-1.6c3.9-4.7,9.3-10.1,17.1-15.6c0,0,0.5,4.9,0.8,11.9l-5.2,5.2l5.5-1.3c0,2.1,0,4.4,0,6.8
		l-3.9,3.9l3.9-1c0,1.8-0.3,3.4-0.3,5.2c3.4-0.8,6.8-0.8,9.9,0v3.9l2.1-3.4c1.8,0.8,3.6,1.6,5.5,2.6l-0.3,6.2l2.9-4.4
		c1.6,1.3,3.1,2.6,4.4,4.2l-0.3,5.5l2.1-3.1c3.9,4.7,8,11.2,12.2,19.7c0,0-4.9-0.3-11.9-1.3l-4.4-6l0.5,5.5c-2.1-0.3-4.4-0.8-6.5-1
		l-3.1-4.4l0.3,3.9c-3.1-0.8-6.2-1.6-9.3-2.3l-2.1,2.1l3.9-0.8c0.8,1.8,1.6,3.9,1.8,5.7l-4.7,4.4l5.2-1c0.3,2.1,0.3,3.9,0.3,6
		l-3.9,3.6l3.6-0.8c-0.5,6.2-2.1,13.5-5.2,22.6c0,0-3.4-3.9-7.5-9.3l1.3-7.3L802,321c-1.3-1.8-2.6-3.6-3.9-5.5l1-5.5l-2.6,2.9
		c-2.6-3.9-4.9-8-6.8-12.2c-2.3,3.1-4.7,6-7.3,8.6l-2.1-3.4v5.5c-1.6,1.6-3.1,3.1-4.7,4.7l-2.1-4.9v7.5c-5.2,4.7-9.1,7.8-9.1,7.8
		c-1.6-9.3-1.6-16.9-1-23.1l3.6,1.6l-3.1-4.4c0.3-2.1,0.8-3.9,1.3-6l4.9,2.1l-2.3-3.1c-1,0.3-2.1,0.5-2.9,0.8l0.3-3.9l-3.1,4.4
		c-2.3,0.5-4.4,0.8-6.5,1l0.5-5.5l-4.4,6C744.8,297.3,739.7,297.6,739.7,297.6z"/>
	<ellipse class="st6" cx="715.8" cy="456.5" rx="55.6" ry="5.2"/>
	<ellipse class="st6" cx="849.5" cy="456.5" rx="55.6" ry="5.2"/>
	<path class="st3" d="M891.6,402.8c0,0,3.9,27.8-15.3,44.4c-12.5,10.6-30.1,12.5-44.9,4.9c-5.5-2.9-11.2-7-16.6-13.5
		c-2.1-2.3-3.9-4.9-5.7-7.5c-2.6-3.9-4.7-8-6.8-12.2c-1.3-2.6-2.3-5.5-3.4-8.6c-0.3-0.5-0.5-1-0.5-1.8c-9.9-29.6,9.3-38.4,27.3-40.5
		c3.6-0.5,7.5-0.5,11.2-0.5c4.4,0,8.8,0.3,13.2,1c0,0,0.3,0,1,0c3.4,0.3,6.8,0.5,10.1,1C875.2,372.1,896.2,379.7,891.6,402.8z"/>
	<path class="st3" d="M769,410.3c-8.8,24.1-21.6,35.8-32.5,41.5c-14.5,7.5-32.5,5.7-44.9-4.9c-1.3-1-2.3-2.1-3.4-3.4
		c-2.1-2.3-4.2-4.9-5.7-7.8c-2.1-3.6-3.6-7.3-4.7-11.4c-1-4.4-1.8-8.8-1.8-13.2c-0.3-2.9,0-5.7,0.3-8.6
		c-4.4-21.8,13.8-29.6,27.5-32.5c3.9-0.8,8-1.3,11.9-1.6c1.3,0,1.8,0,1.8,0c7.3-1,14.5-1.3,21.6-0.5
		C758.4,369.5,780.9,377.6,769,410.3z"/>
	<path class="st4" d="M715.8,368.5l-37.9,56.1c-1-4.4-1.8-8.8-1.8-13.2l27.8-41.3C707.7,369.3,711.9,368.8,715.8,368.5z"/>
	<path class="st4" d="M739.4,368l-51.2,75.8c-2.1-2.3-4.2-4.9-5.7-7.8l46.2-68.3C732.4,367.5,735.8,367.7,739.4,368z"/>
	<path class="st4" d="M837,367.7l-34.5,51.2c-1.3-2.6-2.3-5.5-3.4-8.6c-0.3-0.5-0.5-1-0.5-1.8l27.3-40.2
		C829.5,367.7,833.1,367.5,837,367.7z"/>
	<path class="st4" d="M861.4,369.8L815,438.6c-2.1-2.3-3.9-4.9-5.7-7.5l42.1-62.3C854.7,368.8,858.1,369,861.4,369.8z"/>
	<path class="st6" d="M900.6,400.2h-8.6c3.9-31.2-41.8-31.7-41.8-31.7c-7.3-1-14.5-1.3-21.8-0.5l0,0h-89.3l0,0
		c-7.3-0.5-14.3-0.3-21.6,0.8c0,0-45.7,0.3-41.8,31.7h-8.3v8.3h8.3c0,9.1,1.8,26.7,15.6,38.7c12.5,10.6,30.1,12.5,44.9,4.9
		c11.2-5.7,23.9-17.7,32.5-41.5c3.1-8.3,3.9-15.1,3.1-20.5c8-0.5,16.1-0.5,24.1,0c-0.8,5.5,0,12.2,3.1,20.5
		c8.8,24.1,21.6,35.8,32.5,41.5c14.5,7.5,32.5,5.7,44.9-4.9c13.8-11.9,15.6-29.6,15.6-38.7h8.6V400.2z M764.8,410.6
		c-8.3,22.8-20.5,33.8-30.9,38.7c-12.7,6-27.8,4.4-38.9-4.4c-13.2-10.6-15.1-27.3-14.8-35.6c0-3.4,0-6.8-0.3-10.1
		c-1-26.2,38.4-26.5,38.4-26.5S782.5,362.5,764.8,410.6L764.8,410.6z M796.3,388c-8.3-0.5-16.6-0.5-24.7,0
		c-2.1-9.3-9.1-14.5-17.4-17.1h59.2C805.3,373.7,798.3,378.9,796.3,388z M888.4,398.9c-0.3,3.4-0.3,6.8-0.3,10.1
		c0,8.6-1.8,25.2-15.1,36.1c-10.9,9.1-26.2,10.6-39.2,4.7c-10.6-4.9-22.8-15.8-31.4-38.9c-17.7-48.6,47-38.4,47-38.4
		S889.5,372.4,888.4,398.9z"/>
	<path class="st6" d="M725.1,453.4c0,0-1-1.8-1.3-5.2c-0.3-3.1,0-8.6,2.6-16.1c5.2-14.3-1.3-25.7-1.3-26l0.3-0.3
		c1.3,2.3,2.1,4.9,2.6,7.5c1.3,6.2,0.8,12.7-1.3,18.4c-5.2,14.3-1.3,21-1.3,21L725.1,453.4z"/>
	<circle class="st6" cx="723" cy="403" r="2.3"/>
	<circle class="st6" cx="730.6" cy="412.1" r="2.3"/>
	<circle class="st5" cx="725.4" cy="417.8" r="2.3"/>
	<circle class="st5" cx="731.6" cy="423" r="2.3"/>
	<circle class="st6" cx="723.6" cy="430.8" r="2.3"/>
	<path class="st6" d="M726.4,453.7c0,0-2.3-6,4.9-10.4L726.4,453.7z"/>
	<path class="st6" d="M723.6,453.4c0,0-1-6.2-9.6-6.2L723.6,453.4z"/>
	<path class="st7" d="M950.4,353.7c0,0.8-0.5,1.6-1,2.1l0,0h-40.2l0.3-0.5c0,0,2.9-8.6,16.1-7c1.3-0.5,13.2-4.4,20.5,0
		C948.9,350.1,950.4,351.9,950.4,353.7z"/>
	<path class="st7" d="M775,342.5c0,0.8-0.5,1.6-1,2.1l0,0h-40.2l0.3-0.5c0,0,2.9-8.6,16.1-7c1.3-0.5,13.2-4.4,20.5,0
		C773.4,339.1,775,341,775,342.5z"/>
	<path class="st7" d="M792.1,225.9c0,0.8-0.5,1.6-1,2.1l0,0h-40.2l0.3-0.5c0,0,2.9-8.6,16.1-7c1.3-0.5,13.2-4.4,20.5,0
		C790.3,222.6,792.1,224.4,792.1,225.9z"/>
</g>
<circle class="st3" cx="911.1" cy="48.9" r="13.2"/>
<circle class="st1" cx="1910.4" cy="227.3" r="3.9"/>
<path class="st4" d="M791.9,41.4C785.9,23.7,768,14.1,756,18s-20.5,22.6-14.5,40.2c5.5,16.4,21.8,25.7,33.2,23.9
	c0,0.3-0.3,0.3-0.3,0.5l-0.5,2.9c0,0.8,0.5,1.3,1,1.6c0.3,0,0.5,0,0.5,0l5.7-2.1c0.8-0.3,1-1,0.8-1.6c0-0.3-0.3-0.3-0.3-0.5
	l-2.1-2.1c0,0-0.3,0-0.3-0.3C789.5,75.1,797.1,57.4,791.9,41.4z"/>
<path class="st7" d="M770.6,28.4c10.1,5.2,14.3,17.4,9.6,27.8c-0.5,1,1.3,1.8,1.8,0.5c4.9-11.2,0.3-24.4-10.4-30.1
	C770.6,26.3,769.3,27.8,770.6,28.4z"/>
<path class="st8" d="M1027.2,46.8c-6-17.7-23.9-27.3-35.8-23.4S970.9,46,976.8,63.6c5.5,16.4,21.8,25.7,33.2,23.9
	c0,0.3-0.3,0.3-0.3,0.5l-0.3,2.9c0,0.8,0.5,1.3,1,1.6c0.3,0,0.5,0,0.5,0l5.7-2.1c0.8-0.3,1-1,0.8-1.6c0-0.3-0.3-0.3-0.3-0.5
	l-2.1-2.1c0,0-0.3,0-0.3-0.3C1025.1,80.5,1032.7,63.1,1027.2,46.8z"/>
<path class="st7" d="M1006.2,34c10.1,5.2,14.3,17.4,9.6,27.8c-0.5,1,1.3,1.8,1.8,0.5c4.9-11.2,0.3-24.4-10.4-30.1
	C1005.9,31.7,1004.9,33.3,1006.2,34z"/>
<circle class="st7" cx="860" cy="75.6" r="1.3"/>
<circle class="st7" cx="882.8" cy="182.3" r="2.9"/>
<circle class="st7" cx="818.7" cy="197" r="1.6"/>
<circle class="st7" cx="812.2" cy="153.2" r="1.8"/>
<circle class="st7" cx="945.9" cy="196.1" r="1.3"/>
<circle class="st7" cx="770.4" cy="176.3" r="2.9"/>
<circle class="st7" cx="848.6" cy="130.9" r="1.6"/>
<circle class="st7" cx="916.1" cy="164.9" r="1.8"/>
<path class="st4" d="M1013.4,101.6c-0.8-23.6-16.9-42.1-36.1-41.5c-42.6,1.3-43.6,79.2-2.6,84.9l-0.8,7l12.7-0.5l-1.3-6.8
	C1001.8,141,1014,122.8,1013.4,101.6z"/>
<path class="st7" d="M956.3,114.5l-4.7,0.3c-1.8-8.8-2.1-18.2-0.8-27.3l4.7-0.3C953.5,96.9,953.7,106,956.3,114.5z"/>
<rect x="973" y="144.7" transform="matrix(0.9995 -3.235565e-02 3.235565e-02 0.9995 -4.218 31.7888)" class="st6" width="14.3" height="3.1"/>
<path class="st3" d="M1042.8,121.3c8.6-21.8,1.3-45.4-16.4-52.5c-39.5-15.8-71.7,55.3-36.1,76.9l-3.6,6l11.7,4.7l1.6-6.8
	C1016.6,153,1035,141.3,1042.8,121.3z"/>
<path class="st7" d="M985.1,110.6l-4.4-1.8c1.8-8.8,5.2-17.4,10.1-25.2l4.4,1.8C989.8,93.2,986.4,101.8,985.1,110.6z"/>
<rect x="992.9" y="142.1" transform="matrix(0.3693 -0.9293 0.9293 0.3693 488.5328 1018.3235)" class="st6" width="3.1" height="14.3"/>
<path class="st3" d="M774.7,72c-9.3-21.6-31.2-33-48.8-25.2c-38.9,16.9-11.2,89.8,29.1,79.7l1.8,6.8l11.7-5.2l-3.6-6
	C778.6,112.8,783.3,91.5,774.7,72z"/>
<path class="st7" d="M726.4,105.2L722,107c-4.9-7.5-8.8-16.1-10.9-24.9l4.4-1.8C717.4,89.6,721,98,726.4,105.2z"/>
<rect x="753.2" y="124.2" transform="matrix(0.9167 -0.3995 0.3995 0.9167 13.0671 314.2189)" class="st6" width="14.3" height="3.1"/>
<text transform="matrix(1 0 0 1 345.0002 103.1649)"><tspan x="0" y="0" class="st8 st9 st10">Eis mit Stil</tspan><tspan x="98.7" y="60" class="st4 st9 st11">veganes Eis</tspan><tspan x="171" y="105.6" class="st3 st9 st12">entdecken</tspan><tspan x="188.9" y="151.2" class="st2 st9 st12">genießen</tspan><tspan x="185.4" y="196.8" class="st4 st9 st12">eintragen</tspan></text>
</svg>
