<?xml version="1.0" encoding="utf-8"?>
<!-- Generator: Adobe Illustrator 22.0.0, SVG Export Plug-In . SVG Version: 6.00 Build 0)  -->
<svg version="1.1" id="Ebene_1" xmlns="http://www.w3.org/2000/svg" xmlns:xlink="http://www.w3.org/1999/xlink" x="0px" y="0px"
	 viewBox="0 0 750 120" style="enable-background:new 0 0 750 120;" xml:space="preserve">
<style type="text/css">
	.st0{fill:#FCE6B3;}
	.st1{fill:#E1A61A;}
	.st2{fill:#233033;}
	.st3{fill:#F8C143;}
	.st4{fill:#4A4A4A;}
	.st5{opacity:0.2;fill:#FFFFFF;enable-background:new    ;}
	.st6{fill:#FFFFFF;}
	.st7{fill:#F9CE64;}
</style>
<rect class="st0" width="750" height="120"/>
<circle class="st1" cx="153.3" cy="27.8" r="5.1"/>
<circle class="st2" cx="282.7" cy="56.3" r="3.1"/>
<circle class="st2" cx="68.3" cy="82.3" r="1.5"/>
<circle class="st2" cx="199.6" cy="38.5" r="1.5"/>
<circle class="st2" cx="649" cy="13.5" r="1.5"/>
<circle class="st2" cx="267.4" cy="24.2" r="1.5"/>
<circle class="st2" cx="135" cy="87.4" r="1.5"/>
<circle class="st2" cx="191" cy="74.6" r="1.5"/>
<circle class="st2" cx="115.6" cy="42.5" r="1.5"/>
<circle class="st2" cx="49" cy="24.1" r="1.5"/>
<circle class="st3" cx="20.6" cy="59.3" r="4.6"/>
<circle class="st2" cx="441.5" cy="34.4" r="3.1"/>
<circle class="st2" cx="661.4" cy="96" r="1.5"/>
<circle class="st2" cx="696.6" cy="82.3" r="1.5"/>
<circle class="st1" cx="246.2" cy="85.8" r="5.1"/>
<circle class="st2" cx="693.5" cy="35.4" r="3.1"/>
<circle class="st2" cx="377.7" cy="75.3" r="3.1"/>
<circle class="st1" cx="664.9" cy="56.3" r="5.1"/>
<circle class="st2" cx="327.6" cy="45.5" r="1.5"/>
<circle class="st2" cx="348" cy="88.4" r="1.5"/>
<circle class="st2" cx="428" cy="85.4" r="1.5"/>
<circle class="st2" cx="374.6" cy="22.7" r="1.5"/>
<circle class="st2" cx="300" cy="109" r="1.5"/>
<g>
	<circle class="st3" cx="580.5" cy="24" r="13.2"/>
	<path class="st4" d="M548,85.5c-0.2,1.9-0.4,3.8-0.6,5.6h5.3c0.2-1.9,0.4-3.7,0.7-5.6H548z"/>
	<path class="st4" d="M552.4,105.3c-0.1-1.9-0.2-3.7-0.1-5.6h-5.4c-0.1,2.1-0.1,4-0.1,5.6H552.4z"/>
	<path class="st4" d="M561.5,55.7c4.4-11.8,8.7-19.7,8.7-19.7l-4.5-2.7c-4.7,7.1-8.2,14.7-10.9,22.4L561.5,55.7z"/>
	<path class="st4" d="M547.3,92.6c-0.2,2-0.3,3.9-0.4,5.6h5.3c0.1-1.9,0.2-3.7,0.3-5.6H547.3z"/>
	<path class="st4" d="M549.1,78.4c-0.3,1.9-0.6,3.8-0.9,5.6h5.5c0.3-1.9,0.7-3.7,1.1-5.6H549.1z"/>
	<path class="st4" d="M554.3,57.2c-0.6,1.9-1.2,3.7-1.7,5.6h6.4c0.6-1.9,1.3-3.8,1.9-5.6H554.3z"/>
	<path class="st4" d="M550.4,71.4c-0.4,1.9-0.8,3.8-1.1,5.6h5.8c0.4-1.9,0.9-3.8,1.4-5.6H550.4z"/>
	<path class="st4" d="M546.7,106.7c0,2.4,0.1,3.8,0.1,3.8l-0.1,1.1h6.3c-0.3-1.6-0.4-3.2-0.6-4.9H546.7z"/>
	<path class="st4" d="M552.2,64.3c-0.5,1.9-1,3.7-1.4,5.6h6.1c0.5-1.9,1.1-3.8,1.7-5.6H552.2z"/>
	<path class="st1" d="M597.2,41.2c-2.2-4.7-4.5-8.2-6.7-10.7l-1.1,1.8l0.1-2.9c-0.8-0.8-1.6-1.5-2.4-2.2l-1.6,2.4l0.1-3.4
		c-0.9-0.6-1.9-1.1-3-1.5l-1.2,1.8l0.1-2.1c-4-1-7.3,0.4-9.2,1.5l-1.1-0.2l2-0.8c-0.2-1.1-0.5-2.2-0.9-3.2l-3.4-0.5l2.6-1.1
		c-0.5-1-1.1-1.9-1.7-2.8l-2.9-0.4l1.9-0.8c-2.1-2.6-5.2-5.5-9.3-8.5c0,0-0.3,2.7-0.5,6.5l2.8,2.9l-2.9-0.8c0,1.2,0,2.4,0,3.6
		l2.1,2.1l-2.1-0.5c0,1,0.1,1.9,0.1,2.9c-1.8-0.4-3.6-0.4-5.4,0l0.1,2.1l-1.2-1.8c-1,0.4-2,0.9-3,1.5l0.1,3.4l-1.6-2.4
		c-0.9,0.7-1.7,1.4-2.4,2.2l0.1,2.9l-1.1-1.8c-2.2,2.6-4.4,6.1-6.7,10.7c0,0,2.7-0.2,6.5-0.7l2.3-3.3l-0.2,3
		c1.1-0.2,2.3-0.4,3.6-0.6l1.7-2.4l-0.2,2.1c1.7-0.4,3.4-0.8,5-1.3l1.2,1.1l-2.1-0.4c-0.5,1-0.8,2.1-1.1,3.1l2.5,2.3l-2.8-0.6
		c-0.1,1.1-0.2,2.2-0.1,3.3l2.1,2l-2.1-0.4c0.3,3.4,1.2,7.4,2.9,12.3c0,0,1.8-2.1,4.1-5.1l-0.7-4l2,2.3c0.7-0.9,1.4-1.9,2.1-3
		l-0.5-2.9l1.4,1.6c1.4-2.2,2.7-4.5,3.7-6.7c1.2,1.6,2.6,3.2,4,4.7l1.1-1.8v3c0.9,0.9,1.8,1.7,2.6,2.5l1.5-2.6l0.1,4.1
		c2.8,2.5,4.9,4.2,4.9,4.2c0.8-5.1,0.9-9.3,0.5-12.6l-1.9,0.8l1.7-2.4c-0.2-1.1-0.4-2.1-0.7-3.2l-2.6,1.1l1.3-1.7
		c0.5,0.1,1.1,0.3,1.6,0.4l-0.2-2.1l1.7,2.4c1.2,0.2,2.4,0.4,3.6,0.6l-0.2-3l2.3,3.3C594.4,41,597.2,41.2,597.2,41.2z"/>
	<path class="st4" d="M538.6,82.1c0.2,1.4,0.3,2.7,0.4,3.9h-3.7c-0.1-1.3-0.3-2.6-0.5-3.9H538.6z"/>
	<path class="st4" d="M535.6,96c0.1-1.3,0.1-2.6,0.1-3.9h3.8c0.1,1.5,0.1,2.8,0.1,3.9H535.6z"/>
	<path class="st4" d="M529.1,61.1c-3.1-8.3-6.2-13.9-6.2-13.9l3.2-1.9c3.3,5,5.8,10.4,7.7,15.8C533.8,61.1,529.1,61.1,529.1,61.1z"
		/>
	<path class="st4" d="M539.1,87.1c0.1,1.4,0.2,2.7,0.3,3.9h-3.8c0-1.3-0.1-2.6-0.2-3.9H539.1z"/>
	<path class="st4" d="M537.9,77.1c0.2,1.4,0.4,2.7,0.6,3.9h-3.9c-0.2-1.3-0.5-2.6-0.8-3.9H537.9z"/>
	<path class="st4" d="M534.2,62.1c0.4,1.3,0.9,2.6,1.2,3.9h-4.5c-0.4-1.4-0.9-2.7-1.4-3.9H534.2z"/>
	<path class="st4" d="M536.9,72.1c0.3,1.3,0.6,2.7,0.8,3.9h-4.1c-0.3-1.3-0.6-2.7-1-3.9H536.9z"/>
	<path class="st4" d="M539.5,97.1c0,1.7-0.1,2.7-0.1,2.7v0.8H535c0.2-1.1,0.3-2.3,0.4-3.4L539.5,97.1z"/>
	<path class="st4" d="M535.7,67.1c0.4,1.3,0.7,2.6,1,3.9h-4.3c-0.4-1.3-0.8-2.7-1.2-3.9H535.7z"/>
	<path class="st1" d="M503.9,50.8c1.6-3.3,3.2-5.8,4.7-7.6l0.8,1.2l-0.1-2.1c0.5-0.6,1.1-1.1,1.7-1.6l1.1,1.7L512,40
		c0.7-0.4,1.4-0.8,2.1-1l0.8,1.3v-1.5c2.8-0.7,5.1,0.3,6.5,1.1l0.8-0.1l-1.4-0.6c0.1-0.8,0.3-1.5,0.6-2.2l2.4-0.4l-1.9-0.8
		c0.4-0.7,0.8-1.3,1.2-2l2-0.3l-1.4-0.6c1.5-1.8,3.6-3.9,6.6-6c0,0,0.2,1.9,0.3,4.6l-2,2l2.1-0.5c0,0.8,0,1.7,0,2.6l-1.5,1.5
		l1.5-0.4c0,0.7-0.1,1.3-0.1,2c1.3-0.3,2.6-0.3,3.8,0v1.5l0.8-1.3c0.7,0.3,1.4,0.6,2.1,1l-0.1,2.4l1.1-1.7c0.6,0.5,1.2,1,1.7,1.6
		l-0.1,2.1l0.8-1.2c1.5,1.8,3.1,4.3,4.7,7.6c0,0-1.9-0.1-4.6-0.5l-1.7-2.3l0.2,2.1c-0.8-0.1-1.7-0.3-2.5-0.4l-1.2-1.7l0.1,1.5
		c-1.2-0.3-2.4-0.6-3.6-0.9l-0.8,0.8l1.5-0.3c0.3,0.7,0.6,1.5,0.7,2.2l-1.8,1.7l2-0.4c0.1,0.8,0.1,1.5,0.1,2.3l-1.5,1.4l1.4-0.3
		c-0.2,2.4-0.8,5.2-2,8.7c0,0-1.3-1.5-2.9-3.6l0.5-2.8l-1.4,1.6c-0.5-0.7-1-1.4-1.5-2.1l0.4-2.1l-1,1.1c-1-1.5-1.9-3.1-2.6-4.7
		c-0.9,1.2-1.8,2.3-2.8,3.3l-0.8-1.3v2.1c-0.6,0.6-1.2,1.2-1.8,1.8L517,56v2.9c-2,1.8-3.5,3-3.5,3c-0.6-3.6-0.6-6.5-0.4-8.9l1.4,0.6
		l-1.2-1.7c0.1-0.8,0.3-1.5,0.5-2.3l1.9,0.8l-0.9-1.2c-0.4,0.1-0.8,0.2-1.1,0.3l0.1-1.5l-1.2,1.7c-0.9,0.2-1.7,0.3-2.5,0.4l0.2-2.1
		l-1.7,2.3C505.9,50.7,503.9,50.8,503.9,50.8z"/>
	<ellipse class="st4" cx="494.7" cy="112" rx="21.4" ry="2"/>
	<ellipse class="st4" cx="546.2" cy="112" rx="21.4" ry="2"/>
	<path class="st1" d="M562.4,91.3c0,0,1.5,10.7-5.9,17.1c-4.8,4.1-11.6,4.8-17.3,1.9c-2.1-1.1-4.3-2.7-6.4-5.2
		c-0.8-0.9-1.5-1.9-2.2-2.9c-1-1.5-1.8-3.1-2.6-4.7c-0.5-1-0.9-2.1-1.3-3.3c-0.1-0.2-0.2-0.4-0.2-0.7c-3.8-11.4,3.6-14.8,10.5-15.6
		c1.4-0.2,2.9-0.2,4.3-0.2c1.7,0,3.4,0.1,5.1,0.4c0,0,0.1,0,0.4,0c1.3,0.1,2.6,0.2,3.9,0.4C556.1,79.5,564.2,82.4,562.4,91.3z"/>
	<path class="st1" d="M515.2,94.2c-3.4,9.3-8.3,13.8-12.5,16c-5.6,2.9-12.5,2.2-17.3-1.9c-0.5-0.4-0.9-0.8-1.3-1.3
		c-0.8-0.9-1.6-1.9-2.2-3c-0.8-1.4-1.4-2.8-1.8-4.4c-0.4-1.7-0.7-3.4-0.7-5.1c-0.1-1.1,0-2.2,0.1-3.3c-1.7-8.4,5.3-11.4,10.6-12.5
		c1.5-0.3,3.1-0.5,4.6-0.6c0.5,0,0.7,0,0.7,0c2.8-0.4,5.6-0.5,8.3-0.2C511.1,78.5,519.8,81.6,515.2,94.2z"/>
	<path class="st5" d="M494.7,78.1l-14.6,21.6c-0.4-1.7-0.7-3.4-0.7-5.1l10.7-15.9C491.6,78.4,493.2,78.2,494.7,78.1z"/>
	<path class="st5" d="M503.8,77.9l-19.7,29.2c-0.8-0.9-1.6-1.9-2.2-3l17.8-26.3C501.1,77.7,502.4,77.8,503.8,77.9z"/>
	<path class="st5" d="M541.4,77.8l-13.3,19.7c-0.5-1-0.9-2.1-1.3-3.3c-0.1-0.2-0.2-0.4-0.2-0.7L537.1,78
		C538.5,77.8,539.9,77.7,541.4,77.8z"/>
	<path class="st5" d="M550.8,78.6l-17.9,26.5c-0.8-0.9-1.5-1.9-2.2-2.9l16.2-24C548.2,78.2,549.5,78.3,550.8,78.6z"/>
	<path class="st4" d="M565.9,90.3h-3.3c1.5-12-16.1-12.2-16.1-12.2c-2.8-0.4-5.6-0.5-8.4-0.2l0,0h-34.4l0,0
		c-2.8-0.2-5.5-0.1-8.3,0.3c0,0-17.6,0.1-16.1,12.2h-3.2v3.2h3.2c0,3.5,0.7,10.3,6,14.9c4.8,4.1,11.6,4.8,17.3,1.9
		c4.3-2.2,9.2-6.8,12.5-16c1.2-3.2,1.5-5.8,1.2-7.9c3.1-0.2,6.2-0.2,9.3,0c-0.3,2.1,0,4.7,1.2,7.9c3.4,9.3,8.3,13.8,12.5,16
		c5.6,2.9,12.5,2.2,17.3-1.9c5.3-4.6,6-11.4,6-14.9h3.3V90.3z M513.6,94.3c-3.2,8.8-7.9,13-11.9,14.9c-4.9,2.3-10.7,1.7-15-1.7
		c-5.1-4.1-5.8-10.5-5.7-13.7c0-1.3,0-2.6-0.1-3.9c-0.4-10.1,14.8-10.2,14.8-10.2S520.4,75.8,513.6,94.3L513.6,94.3z M525.7,85.6
		c-3.2-0.2-6.4-0.2-9.5,0c-0.8-3.6-3.5-5.6-6.7-6.6h22.8C529.2,80.1,526.5,82.1,525.7,85.6z M561.2,89.8c-0.1,1.3-0.1,2.6-0.1,3.9
		c0,3.3-0.7,9.7-5.8,13.9c-4.2,3.5-10.1,4.1-15.1,1.8c-4.1-1.9-8.8-6.1-12.1-15c-6.8-18.7,18.1-14.8,18.1-14.8
		S561.6,79.6,561.2,89.8z"/>
	<path class="st4" d="M498.3,110.8c0,0-0.4-0.7-0.5-2c-0.1-1.2,0-3.3,1-6.2c2-5.5-0.5-9.9-0.5-10l0.1-0.1c0.5,0.9,0.8,1.9,1,2.9
		c0.5,2.4,0.3,4.9-0.5,7.1c-2,5.5-0.5,8.1-0.5,8.1L498.3,110.8z"/>
	<circle class="st4" cx="497.5" cy="91.4" r="0.9"/>
	<circle class="st4" cx="500.4" cy="94.9" r="0.9"/>
	<circle class="st6" cx="498.4" cy="97.1" r="0.9"/>
	<circle class="st6" cx="500.8" cy="99.1" r="0.9"/>
	<circle class="st4" cx="497.7" cy="102.1" r="0.9"/>
	<path class="st4" d="M498.8,110.9c0,0-0.9-2.3,1.9-4L498.8,110.9z"/>
	<path class="st4" d="M497.7,110.8c0,0-0.4-2.4-3.7-2.4L497.7,110.8z"/>
	<path class="st7" d="M488.8,57c0,0.3-0.2,0.6-0.4,0.8l0,0h-15.5l0.1-0.2c0,0,1.1-3.3,6.2-2.7c0.5-0.2,5.1-1.7,7.9,0
		C488.2,55.6,488.8,56.3,488.8,57z"/>
	<path class="st7" d="M517.5,68.1c0,0.3-0.2,0.6-0.4,0.8l0,0h-15.5l0.1-0.2c0,0,1.1-3.3,6.2-2.7c0.5-0.2,5.1-1.7,7.9,0
		C516.9,66.8,517.5,67.5,517.5,68.1z"/>
	<path class="st7" d="M524.1,23.2c0,0.3-0.2,0.6-0.4,0.8l0,0h-15.5l0.1-0.2c0,0,1.1-3.3,6.2-2.7c0.5-0.2,5.1-1.7,7.9,0
		C523.4,21.9,524.1,22.6,524.1,23.2z"/>
</g>
</svg>
