<?xml version="1.0" encoding="utf-8"?>
<!-- Generator: Adobe Illustrator 22.0.0, SVG Export Plug-In . SVG Version: 6.00 Build 0)  -->
<svg version="1.1" id="Ebene_1" xmlns="http://www.w3.org/2000/svg" xmlns:xlink="http://www.w3.org/1999/xlink" x="0px" y="0px"
	 viewBox="0 0 750 120" style="enable-background:new 0 0 750 120;" xml:space="preserve">
<style type="text/css">
	.st0{fill:#FCE6B3;}
	.st1{fill:#F9CE64;}
	.st2{fill:#233033;}
	.st3{fill:#F8C143;}
	.st4{fill:#E1A61A;}
	.st5{opacity:0.1;fill:#233033;enable-background:new    ;}
	.st6{fill:#FF6584;}
	.st7{opacity:0.1;enable-background:new    ;}
	.st8{opacity:0.1;fill:#F7A500;enable-background:new    ;}
</style>
<rect class="st0" width="750" height="120"/>
<circle class="st1" cx="153.3" cy="27.8" r="5.1"/>
<circle class="st2" cx="282.7" cy="56.3" r="3.1"/>
<circle class="st2" cx="68.3" cy="82.3" r="1.5"/>
<circle class="st2" cx="199.6" cy="38.5" r="1.5"/>
<circle class="st2" cx="649" cy="13.5" r="1.5"/>
<circle class="st2" cx="267.4" cy="24.2" r="1.5"/>
<circle class="st2" cx="135" cy="87.4" r="1.5"/>
<circle class="st2" cx="191" cy="74.6" r="1.5"/>
<circle class="st2" cx="115.6" cy="42.5" r="1.5"/>
<circle class="st2" cx="49" cy="24.1" r="1.5"/>
<circle class="st3" cx="20.6" cy="59.3" r="4.6"/>
<circle class="st2" cx="441.5" cy="34.4" r="3.1"/>
<circle class="st2" cx="661.4" cy="96" r="1.5"/>
<circle class="st2" cx="696.6" cy="82.3" r="1.5"/>
<circle class="st1" cx="246.2" cy="85.8" r="5.1"/>
<circle class="st2" cx="693.5" cy="35.4" r="3.1"/>
<circle class="st2" cx="377.7" cy="75.3" r="3.1"/>
<circle class="st1" cx="664.9" cy="56.3" r="5.1"/>
<circle class="st2" cx="327.6" cy="45.5" r="1.5"/>
<circle class="st2" cx="348" cy="88.4" r="1.5"/>
<circle class="st2" cx="428" cy="85.4" r="1.5"/>
<circle class="st2" cx="374.6" cy="22.7" r="1.5"/>
<circle class="st2" cx="300" cy="109" r="1.5"/>
<g>
	<circle class="st2" cx="541.6" cy="4.1" r="1.3"/>
	<circle class="st2" cx="501.7" cy="46.1" r="0.5"/>
	<circle class="st2" cx="576.7" cy="70" r="0.5"/>
	<circle class="st2" cx="444.1" cy="63.6" r="0.5"/>
	<circle class="st2" cx="642.6" cy="45.6" r="0.5"/>
	<circle class="st2" cx="479.3" cy="50.9" r="0.5"/>
	<circle class="st2" cx="562.7" cy="40.7" r="0.5"/>
	<circle class="st2" cx="579.5" cy="4.1" r="0.5"/>
	<rect x="473.2" y="64.1" class="st2" width="0.5" height="0.3"/>
	<rect x="488.2" y="25.2" class="st2" width="0.5" height="0.3"/>
	<rect x="524.8" y="54.2" class="st2" width="0.5" height="0.3"/>
	<rect x="622" y="65.4" class="st2" width="0.5" height="0.3"/>
	<rect x="591.7" y="26.5" class="st2" width="0.5" height="0.3"/>
	<rect x="476.5" y="83.3" class="st4" width="0.9" height="35.4"/>
	<path class="st4" d="M485.7,77.1c0.1,12.4-8.6,22.4-8.6,22.4s-8.8-10-8.9-22.4s8.6-22.4,8.6-22.4S485.6,64.7,485.7,77.1z"/>
	<rect x="465.2" y="72.8" class="st4" width="1.2" height="45.9"/>
	<path class="st4" d="M477.1,67.9c0.1,16-11.2,29.1-11.2,29.1s-11.4-12.9-11.5-29s11.2-29,11.2-29S477,51.9,477.1,67.9z"/>
	<rect x="600.5" y="83.3" class="st3" width="0.9" height="35.4"/>
	<path class="st4" d="M609.6,87.8c0.1,12.4-8.6,22.4-8.6,22.4s-8.8-10-8.9-22.4s8.6-22.4,8.6-22.4S609.6,75.4,609.6,87.8z"/>
	<rect x="455.2" y="83.3" class="st4" width="0.9" height="35.4"/>
	<path class="st4" d="M464.3,77.1c0.1,12.4-8.6,22.4-8.6,22.4s-8.8-10-8.9-22.4s8.6-22.4,8.6-22.4S464.3,64.7,464.3,77.1z"/>
	<rect x="534" y="83.3" class="st4" width="0.9" height="35.4"/>
	<path class="st4" d="M543.2,77.1c0.1,12.4-8.6,22.4-8.6,22.4s-8.8-10-8.9-22.4s8.6-22.4,8.6-22.4S543.1,64.7,543.2,77.1z"/>
	<rect x="522.7" y="72.8" class="st4" width="1.2" height="45.9"/>
	<path class="st4" d="M534.6,67.9c0.1,16-11.2,29.1-11.2,29.1S512,84.1,511.9,68s11.2-29,11.2-29S534.5,51.9,534.6,67.9z"/>
	<rect x="512.7" y="83.3" class="st4" width="0.9" height="35.4"/>
	<path class="st4" d="M521.8,77.1c0.1,12.4-8.6,22.4-8.6,22.4s-8.8-10-8.9-22.4s8.6-22.4,8.6-22.4S521.8,64.7,521.8,77.1z"/>
	<path class="st3" d="M607.1,99.7l-15-13.8c0,0.6-0.1,1.2-0.1,1.9c0.1,12.4,8.9,22.4,8.9,22.4C603.5,107,605.6,103.5,607.1,99.7z"/>
	<path class="st4" d="M495.8,115.5c0.5,1.9,2.3,3.1,2.3,3.1s0.9-1.9,0.4-3.8s-2.3-3.1-2.3-3.1S495.3,113.6,495.8,115.5z"/>
	<path class="st4" d="M496.5,115.1c1.4,1.4,1.6,3.5,1.6,3.5s-2.1-0.1-3.5-1.5s-1.6-3.5-1.6-3.5S495.1,113.7,496.5,115.1z"/>
	<path class="st3" d="M568,115.5c0.5,1.9,2.3,3.1,2.3,3.1s0.9-1.9,0.4-3.8s-2.3-3.1-2.3-3.1S567.5,113.6,568,115.5z"/>
	<path class="st3" d="M568.8,115.1c1.4,1.4,1.6,3.5,1.6,3.5s-2.1-0.1-3.5-1.5s-1.6-3.5-1.6-3.5S567.4,113.7,568.8,115.1z"/>
	<path class="st4" d="M438.8,115.5c0.5,1.9,2.3,3.1,2.3,3.1s0.9-1.9,0.4-3.8s-2.3-3.1-2.3-3.1S438.2,113.6,438.8,115.5z"/>
	<path class="st4" d="M439.5,115.1c1.4,1.4,1.6,3.5,1.6,3.5s-2.1-0.1-3.5-1.5s-1.6-3.5-1.6-3.5S438.1,113.7,439.5,115.1z"/>
	<path class="st3" d="M517.8,46.9L542.4,84c0.5-2.2,0.8-4.6,0.8-6.9c0-6-2.1-11.5-4.3-15.5l-1.1,0.3l1.1-0.4
		c-1.3-2.4-2.8-4.6-4.5-6.7c0,0-0.6,0.7-1.5,2c-3.2-10.5-9.7-17.8-9.7-17.8C521.1,41.4,519.3,44.1,517.8,46.9z"/>
	<path class="st5" d="M659.1,117.1c0.4,0,0.7-0.3,0.7-0.7c0-0.4-0.3-0.7-0.7-0.7h-6c0.4,0.8,0.1,1.8-0.7,2.2c0,0.4,0.3,0.7,0.7,0.7
		l0,0h6c0.4,0,0.7-0.3,0.7-0.7C659.9,117.5,659.5,117.1,659.1,117.1L659.1,117.1z"/>
	<path class="st4" d="M644.8,115.6c0.1,4-2.3,3-5.2,3s-5.3,0.5-5.4-3c0-1.7,2.4-2.1,5.3-2.1S644.8,113.9,644.8,115.6z"/>
	<path class="st4" d="M651.7,117.2c0,0-0.1,0-0.2,0c-0.3,0-0.5-0.1-0.8-0.2s-0.5-0.2-0.7-0.4c-0.1-0.1-0.2-0.2-0.2-0.2
		c-0.1-0.1-0.2-0.1-0.3,0l0,0c0,0-0.1,0-0.1-0.1c-0.2-0.1-0.4-0.3-0.6-0.4l0,0v-0.1c0-0.1-0.1-0.2-0.2-0.2c0.3,0,0.5,0,0.8-0.1
		c0.2,0,0.5-0.1,0.6-0.3v-0.1c0-0.1-0.1-0.1-0.2-0.2c-0.1,0-0.2-0.1-0.3-0.1s-0.1,0-0.2,0c-0.1,0-0.1-0.1-0.2-0.1
		c-0.1-0.1-0.2-0.1-0.4-0.2c-0.1,0-0.1-0.1-0.1-0.1c-0.1-0.1-0.1-0.2-0.2-0.2c-0.1-0.1-0.3-0.1-0.3,0c0,0,0,0.1,0,0.2
		c-0.1-0.1-0.2-0.1-0.3-0.1l0,0c-0.4-0.3-0.7-0.8-1-1.2h0.1c0.1,0,0.1,0,0.2,0c0,0,0.1-0.1,0.1-0.2s0-0.1,0-0.2
		c-0.1-0.2-0.1-0.3-0.2-0.4c-0.1-0.1-0.2-0.2-0.4-0.3l0,0v-0.1c-0.1-0.2-0.2-0.3-0.3-0.5c-0.1-0.3-0.2-0.5-0.3-0.8
		c0-0.2-0.1-0.3-0.2-0.5c-0.2-0.2-0.5-0.2-0.8-0.2c-0.2,0-0.3,0-0.5,0.1l0,0v-0.1v-0.1c0-0.1,0-0.2-0.1-0.2l0,0v-0.1v-0.1
		c0-0.1,0-0.2,0-0.3c0-0.2,0-0.5,0-0.7c0-0.1,0-0.1-0.1-0.2l0,0c0-0.1,0.1-0.1,0.2-0.2c0.1-0.1,0.3-0.2,0.4-0.3c0,0,0.1,0,0.1-0.1
		h0.1c0.6,0,1.1-0.5,1.1-1.1c0-0.1,0-0.3-0.1-0.4c0.1,0,0.2-0.1,0.2-0.2c0.1-0.1,0.1-0.2,0.1-0.3c0-0.1,0-0.2,0-0.3l-0.1-0.1
		c-0.1,0-0.1-0.1-0.2-0.2c0-0.1-0.1-0.1-0.1-0.2c-0.1-0.2-0.3-0.3-0.5-0.4c-0.1,0-0.2,0-0.3,0.1c-0.4,0.1-0.7-0.1-1.1,0
		c-0.1,0-0.2,0.1-0.2,0.1c-0.1,0.1-0.2,0.2-0.3,0.2c-0.1,0.1-0.1,0.1-0.2,0.2c0,0.2,0.1,0.4,0,0.5l-0.1,0.1c-0.1,0.1,0,0.5,0,0.7
		c0,0.1,0,0.1,0,0.2l0,0c-0.6,0.2-1.1,0.4-1.6,0.7c-0.6,0.3-1.2,0.8-1.5,1.4c-0.1,0.2-0.2,0.4-0.2,0.5c-0.1,0.2-0.2,0.5-0.4,0.7
		c-0.2,0.3-0.3,0.6-0.5,0.8c-0.1,0.1-0.2,0.3-0.3,0.4c0,0,0,0,0,0.1c0,0,0,0,0,0.1c0,0,0,0-0.1,0l0,0c0,0.1-0.1,0.3-0.1,0.4
		c-0.1,0.2-0.1,0.4-0.2,0.7c-0.1,0.1,0,0.2,0,0.2h0.1c0.2,0.1,0.4,0.2,0.6,0.3l0,0c0,0.3,0.1,0.6,0.4,0.7c0.3,0.1,0.5,0.2,0.8,0.2
		c0.1,0,0.2,0,0.3,0c0.2,0.1,0.3,0.2,0.5,0.2h0.1c0.1,0,0.2-0.1,0.3-0.2c0.9,0.1,1.9,0,2.8-0.1c0.3-0.1,0.5,0,0.8,0.1
		c0.2,0.2,0.2,0.5,0.4,0.7c0.1,0.1,0.2,0.3,0.4,0.4c0.3,0.3,0.5,0.6,0.7,0.9s0.5,0.6,0.9,0.8c0.1-0.1,0.2-0.2,0.3-0.2
		c0,0,0.1,0,0.1-0.1c0,0.1,0.1,0.1,0.1,0.2l0.1,0.1l0,0l-0.1,0.1c0,0.2,0,0.4-0.1,0.6v0.1l0.1,0.1c0.2,0.1,0.4,0.1,0.6,0.1
		c0.1,0,0.2,0,0.3,0c0.2,0,0.3,0.1,0.5,0.1c0.4,0.1,0.9,0.1,1.3,0.1c0.1,0,0.2,0,0.3-0.1c0.1,0,0.2-0.1,0.3-0.2s0.2-0.2,0.2-0.3
		C651.8,117.4,651.8,117.3,651.7,117.2z"/>
	<path class="st6" d="M644.6,104.4L644.6,104.4c0,0-0.2,0-0.3,0C644.4,104.4,644.5,104.4,644.6,104.4z"/>
	<path class="st6" d="M645.5,104.7c0,0.1,0.1,0.1,0.1,0.2s0.1,0.1,0.2,0.2c0.1,0,0.1,0.1,0.1,0.1c0,0.1,0.1,0.2,0,0.3
		c0,0.1,0,0.2-0.1,0.3c-0.1,0.1-0.1,0.2-0.2,0.2c0.2,0.6,0,1.2-0.6,1.5c-0.2,0.1-0.4,0.1-0.6,0.1c0,0-0.1,0-0.1,0.1
		c-0.1,0.1-0.3,0.2-0.4,0.3c-0.1,0.1-0.1,0.1-0.2,0.2l0,0c0,0.1,0.1,0.1,0.1,0.2c0,0.2,0,0.5,0,0.7c0,0.1,0,0.2,0,0.3v0.1v0.1l0,0
		c0.1,0.1,0.1,0.1,0.1,0.2v0.1v0.1l0,0c0.2,0,0.3,0,0.5-0.1c0.1,0,0.2,0,0.2,0s0,0,0-0.1v-0.1c0-0.1,0-0.2-0.1-0.2l0,0v-0.1v-0.1
		c0-0.1,0-0.2,0-0.3c0-0.2,0-0.5,0-0.7c0-0.1,0-0.1-0.1-0.2l0,0c0-0.1,0.1-0.1,0.2-0.2c0.1-0.1,0.3-0.2,0.4-0.3c0,0,0.1,0,0.1-0.1
		h0.1c0.6,0,1.1-0.5,1.1-1.1c0-0.1,0-0.3-0.1-0.4c0.1,0,0.2-0.1,0.2-0.2c0.1-0.1,0.1-0.2,0.1-0.3c0-0.1,0-0.2,0-0.3l-0.1-0.1
		c-0.1,0-0.1-0.1-0.2-0.2c0-0.1-0.1-0.1-0.1-0.2c-0.1-0.2-0.3-0.3-0.5-0.4c-0.1,0-0.2,0-0.3,0.1c-0.1,0-0.1,0-0.2,0
		C645.3,104.5,645.4,104.6,645.5,104.7z"/>
	<path class="st6" d="M651.7,117.2c0,0-0.1,0-0.2,0c-0.3,0-0.5-0.1-0.8-0.2s-0.5-0.2-0.7-0.4c-0.1-0.1-0.2-0.2-0.2-0.2
		c-0.1-0.1-0.2-0.1-0.3,0l0,0c0,0-0.1,0-0.1-0.1c-0.2-0.1-0.4-0.3-0.6-0.4l0,0v-0.1c0-0.1-0.1-0.2-0.2-0.2c0.3,0,0.5,0,0.8-0.1
		c0.2,0,0.5-0.1,0.6-0.3v-0.1c0-0.1-0.1-0.1-0.2-0.2c-0.1,0-0.2-0.1-0.3-0.1s-0.1,0-0.2,0c-0.1,0-0.1-0.1-0.2-0.1
		c-0.1-0.1-0.2-0.1-0.4-0.2c-0.1,0-0.1-0.1-0.1-0.1c-0.1-0.1-0.1-0.2-0.2-0.2c-0.1-0.1-0.3-0.1-0.3,0c0,0,0,0.1,0,0.2
		c-0.1-0.1-0.2-0.1-0.3-0.1l0,0c-0.4-0.3-0.7-0.8-1-1.2h0.1c0.1,0,0.1,0,0.2,0c0,0,0.1-0.1,0.1-0.2s0-0.1,0-0.2
		c-0.1-0.2-0.1-0.3-0.2-0.4c-0.1-0.1-0.2-0.2-0.4-0.3l0,0v-0.1c-0.1-0.2-0.2-0.3-0.3-0.5c-0.1-0.3-0.2-0.5-0.3-0.8
		c0-0.2-0.1-0.3-0.2-0.5c-0.2-0.2-0.5-0.2-0.8-0.2c-0.1,0-0.1,0-0.2,0c0.1,0,0.2,0.1,0.2,0.1c0.1,0.1,0.2,0.3,0.2,0.5
		c0.1,0.3,0.2,0.6,0.3,0.8c0.1,0.2,0.2,0.3,0.3,0.5v0.1l0,0c0.1,0.1,0.3,0.2,0.4,0.3c0.1,0.1,0.2,0.3,0.2,0.4s0,0.1,0,0.2
		s0,0.1-0.1,0.2c-0.1,0-0.1,0-0.2,0H646c0.2,0.5,0.5,0.9,1,1.2l0,0c0.1,0,0.2,0.1,0.3,0.1c0-0.1-0.1-0.1,0-0.2c0-0.1,0.3,0,0.3,0
		c0.1,0.1,0.1,0.2,0.2,0.2l0.1,0.1c0.1,0.1,0.2,0.1,0.4,0.2c0.1,0,0.1,0.1,0.2,0.1c0.1,0,0.1,0,0.2,0c0.1,0,0.2,0,0.3,0.1
		c0.1,0,0.2,0.1,0.2,0.2v0.1c-0.2,0.2-0.4,0.3-0.6,0.3c-0.3,0-0.5,0-0.8,0.1c0.1,0.1,0.2,0.1,0.2,0.2v0.1l0,0
		c0.2,0.1,0.4,0.3,0.6,0.4c0,0,0.1,0,0.1,0.1l0,0c0.1-0.1,0.2,0,0.3,0c0.1,0.1,0.2,0.1,0.2,0.2c0.2,0.2,0.4,0.3,0.7,0.4
		s0.5,0.1,0.8,0.2c0.1,0,0.1,0,0.2,0c0.1,0.1,0.1,0.2,0.1,0.3c0,0.1-0.1,0.2-0.2,0.3c-0.1,0.1-0.2,0.2-0.3,0.2s-0.1,0-0.2,0
		c0.2,0,0.5,0,0.7,0c0.1,0,0.2,0,0.3-0.1c0.1,0,0.2-0.1,0.3-0.2s0.2-0.2,0.2-0.3C651.8,117.4,651.8,117.3,651.7,117.2z"/>
	<path class="st6" d="M647.4,116.6C647.4,116.6,647.5,116.6,647.4,116.6C647.5,116.6,647.5,116.6,647.4,116.6L647.4,116.6z"/>
	<path class="st6" d="M658.8,114.5c0,2.7-1.2,2-2.7,2s-2.7,0.7-2.7-2s2.7-7.8,2.7-7.8S658.8,111.8,658.8,114.5z"/>
	<path class="st7" d="M657.3,115.5c0,1.2-0.5,0.9-1.2,0.9s-1.2,0.3-1.2-0.9s1.2-3.6,1.2-3.6S657.3,114.3,657.3,115.5z"/>
	<path class="st6" d="M659.5,107.3c0,0,0.6-0.6,0.5-1.1"/>
	<path class="st6" d="M653.8,102.4c0,0-0.2-0.8-0.7-1"/>
	<path class="st6" d="M648.2,92c0,0-0.2-0.8-0.7-1"/>
	<path class="st6" d="M654.8,106c0,0-0.2-0.8-0.7-1"/>
	<path class="st6" d="M654,93.5c0,0-0.2-0.8-0.7-1"/>
	<path class="st6" d="M652.5,98.1c0,0-0.2-0.8-0.7-1"/>
	<path class="st6" d="M659,115.1c0,0,0.6-0.6,0.5-1.1"/>
	<path class="st6" d="M660,110.8c0,0,0.6-0.6,0.5-1.1"/>
	
		<rect x="646.8" y="111.1" transform="matrix(0.9487 -0.3162 0.3162 0.9487 -1.8334 211.2425)" class="st6" width="6.4" height="0.3"/>
	<path class="st6" d="M652.6,110.3c0.2,0.9-0.2,0.7-0.5,0.8s-0.3,0.4-0.8-0.5c-0.3-0.6,0.2-0.7,0.5-0.8S652.4,109.7,652.6,110.3z"/>
	<polygon class="st8" points="565.5,61.5 565.5,61.5 565.5,61.5 560,56.3 559.9,56.4 557.7,54.3 557.6,54.3 557.7,54.3 534,32.5 
		534,32.5 511.2,11.5 499.6,17.7 498.6,17.9 512.6,39 565.3,118.6 627.7,118.6 	"/>
	<circle class="st3" cx="504.5" cy="14.3" r="6.9"/>
</g>
</svg>
