<?xml version="1.0" encoding="utf-8"?>
<!-- Generator: Adobe Illustrator 22.0.0, SVG Export Plug-In . SVG Version: 6.00 Build 0)  -->
<svg version="1.1" id="Ebene_1" xmlns="http://www.w3.org/2000/svg" xmlns:xlink="http://www.w3.org/1999/xlink" x="0px" y="0px"
	 viewBox="0 0 750 120" style="enable-background:new 0 0 750 120;" xml:space="preserve">
<style type="text/css">
	.st0{fill:#233033;}
	.st1{fill:#F2F2F2;}
	.st2{fill:#F8C143;}
	.st3{fill:#F9CE64;}
	.st4{fill:#E1A61A;}
	.st5{opacity:0.1;fill:#233033;enable-background:new    ;}
	.st6{fill:#4A4A4A;}
	.st7{fill:#FFFFFF;}
	.st8{fill:#E09500;}
</style>
<rect class="st0" width="750" height="120"/>
<circle class="st1" cx="192.7" cy="56.3" r="3.1"/>
<circle class="st1" cx="58.3" cy="92.3" r="1.5"/>
<circle class="st1" cx="169.6" cy="38.5" r="1.5"/>
<circle class="st1" cx="537.8" cy="88.8" r="1.5"/>
<circle class="st1" cx="257.4" cy="24.2" r="1.5"/>
<circle class="st1" cx="161" cy="83.6" r="1.5"/>
<circle class="st1" cx="65.6" cy="52.5" r="1.5"/>
<circle class="st1" cx="49" cy="24.1" r="1.5"/>
<circle class="st2" cx="30.6" cy="49.3" r="4.6"/>
<circle class="st1" cx="301.5" cy="24.4" r="3.1"/>
<circle class="st1" cx="738.6" cy="59.6" r="1.5"/>
<circle class="st1" cx="537.9" cy="64.4" r="1.5"/>
<circle class="st3" cx="226.2" cy="25.8" r="5.1"/>
<circle class="st1" cx="722.5" cy="25.4" r="3.1"/>
<circle class="st1" cx="437.7" cy="85.3" r="3.1"/>
<circle class="st3" cx="467.3" cy="56.8" r="5.1"/>
<circle class="st1" cx="237.6" cy="65.5" r="1.5"/>
<circle class="st1" cx="218" cy="88.4" r="1.5"/>
<circle class="st1" cx="258" cy="85.4" r="1.5"/>
<circle class="st1" cx="498" cy="35.4" r="1.5"/>
<circle class="st1" cx="504" cy="76.4" r="1.5"/>
<g>
	<path class="st4" d="M131.3,51.8c0,0-0.4,4.3-1,10.5c-0.2,2-0.5,4.2-0.8,6.6c-0.4,3.3-0.9,6.7-1.4,10.2c-0.3,2.2-0.7,4.3-1,6.4
		c-1.9,11.3-4.5,21.3-7.5,22.2c-6.7,1.8-31.6-40.1-34.4-44.8C85,62.6,85,62.5,85,62.5L131.3,51.8z"/>
	<path class="st5" d="M130.2,62.3c-0.2,2-0.5,4.2-0.8,6.6l-21.6-11.7l9-2.1L130.2,62.3z"/>
	<path class="st5" d="M128,79.1c-0.3,2.2-0.7,4.3-1,6.4L85.2,62.9C85,62.6,85,62.5,85,62.5l8.7-2L128,79.1z"/>
	<path class="st3" d="M99.7,16.8c-1.7,2.2-5.2,2.3-6.9,4.6c-1.1,1.5-1,3.7-0.2,5.4c0.8,1.7,2.2,3.1,3.6,4.4c0.9,0.9,1.9,1.8,3.1,2.4
		c1.6,0.8,3.5,0.9,5.4,1c4,0,8-0.3,11.9-1c1.7-0.3,3.7-0.9,4.6-2.4c0.5-0.9,0.5-2,0.5-3c0-1.6-0.3-3.3-1.2-4.6
		c-0.8-1.1-2-1.7-3.3-2.3c-3.8-1.7-8.1-2.9-10.9-6c-1.1-1.2-2-2.8-3.4-3.6c-1.9-1.1-5.5-0.9-7.1,0.5C96.2,12.7,100.7,15.5,99.7,16.8
		z"/>
	<path class="st3" d="M85.7,37.6c-0.1,2.3-0.2,4.8,0.9,6.9c1.4,2.7,4.4,4.3,7.5,4.8c3.1,0.4,6.1-0.2,9.1-0.7l15.8-3
		c2-0.4,4-0.8,6-0.5c1.7,0.2,3.7,0.7,4.7-0.6c0.5-0.6,0.6-1.4,0.6-2.1c0.1-2.5-0.1-5.1-1.5-7.1c-1.6-2.3-4.5-3.4-7.3-3.6
		c-2.8-0.2-5.6,0.4-8.4,0.7c-2.8,0.3-5.7,0.4-8.6,0.3c-2.4-0.1-4.8-0.5-6.9-1.7c-1.1-0.7-2-1.6-3.1-2.3
		C88.5,24.2,85.9,33.2,85.7,37.6z"/>
	<path class="st3" d="M84.5,48.4c-4.4,3.3-5.3,9.6-1.9,13.9c1,1.3,2.2,2.3,3.7,3c2.8,1.3,6.1,1.3,9.2,0.8c3-0.5,5.9-1.3,8.9-2.1
		l25.9-7.4c1.5-0.4,3.2-1,3.9-2.4c0.5-1.1,0.2-2.3-0.2-3.4c-1.5-3.9-5.5-6.9-9.7-7.2c-1.6-0.1-3.2,0.1-4.8,0.3L108,45.4
		c-1.5,0.2-3.1,0.4-4.6,0.3c-4.7-0.2-9.5-2.8-13.9-1.2c-3,1.1-5.1,3.8-6.8,6.5"/>
	<path class="st5" d="M95.1,27.4c0,0,5.2,5.8,24.6,4.1"/>
	<path class="st5" d="M88.7,47.1c0,0,8.4,5.3,36.5-1.2"/>
	<ellipse transform="matrix(0.9745 -0.2244 0.2244 0.9745 -2.4483 22.9068)" class="st4" cx="99.6" cy="22.2" rx="1.8" ry="0.6"/>
	<ellipse transform="matrix(0.9745 -0.2244 0.2244 0.9745 -2.8558 24.5214)" class="st4" cx="106.5" cy="24.8" rx="1.8" ry="0.6"/>
	<ellipse transform="matrix(0.9745 -0.2244 0.2244 0.9745 -3.2403 26.3381)" class="st4" cx="114.3" cy="27.4" rx="1.8" ry="0.6"/>
	<ellipse transform="matrix(0.9745 -0.2244 0.2244 0.9745 -5.4777 21.2509)" class="st4" cx="90.8" cy="34.7" rx="1.8" ry="0.6"/>
	<ellipse transform="matrix(0.9745 -0.2244 0.2244 0.9745 -5.5256 25.0294)" class="st4" cx="107.4" cy="36.8" rx="1.8" ry="0.6"/>
	<ellipse transform="matrix(0.9745 -0.2244 0.2244 0.9745 -9.7327 21.2116)" class="st4" cx="88.5" cy="53.4" rx="1.8" ry="0.6"/>
	<ellipse transform="matrix(0.9745 -0.2244 0.2244 0.9745 -6.4564 22.8395)" class="st4" cx="97.3" cy="39.8" rx="1.8" ry="0.6"/>
	<ellipse transform="matrix(0.9745 -0.2244 0.2244 0.9745 -10.3778 22.5351)" class="st4" cx="94" cy="56.9" rx="1.8" ry="0.6"/>
	<ellipse transform="matrix(0.9745 -0.2244 0.2244 0.9745 -8.883 24.8882)" class="st4" cx="105.1" cy="51.5" rx="1.8" ry="0.6"/>
	<ellipse transform="matrix(0.9745 -0.2244 0.2244 0.9745 -10.7276 27.2572)" class="st3" cx="114.6" cy="60.8" rx="2" ry="4.1"/>
	<ellipse transform="matrix(0.9745 -0.2244 0.2244 0.9745 -10.8607 27.886)" class="st3" cx="117.3" cy="61.7" rx="2" ry="4.1"/>
	<path class="st4" d="M122.3,101.5c0-0.1,0-2.1,1.4-5.3c1.4-3,4.3-7.7,10.6-12.9c11.9-9.9,12-23.4,12-23.6h0.4c0,0,0,3.5-1.5,8.1
		c-2,6.2-5.7,11.6-10.7,15.7c-11.9,9.9-11.9,17.9-11.9,18C122.6,101.5,122.3,101.5,122.3,101.5z"/>
	<ellipse class="st3" cx="146.2" cy="55.8" rx="2.5" ry="2.5"/>
	<ellipse class="st4" cx="148.4" cy="67.5" rx="2.5" ry="2.5"/>
	<ellipse class="st3" cx="140.7" cy="70.2" rx="2.5" ry="2.5"/>
	<ellipse class="st3" cx="143.8" cy="77.8" rx="2.5" ry="2.5"/>
	<ellipse class="st4" cx="132.6" cy="80.6" rx="2.5" ry="2.5"/>
	<path class="st4" d="M123.5,102.4c0,0,0.9-6.5,9.6-6.8L123.5,102.4z"/>
	<path class="st4" d="M121,100.7c0,0,2.2-6.2-5.3-10.5L121,100.7z"/>
</g>
<path class="st4" d="M192.8,20.7c-0.2,0-0.4-0.1-0.5-0.1l-1.2-0.9c-0.2-0.1-0.5-0.1-0.7,0l-1.2,0.9c-0.4,0.3-0.9,0.2-1.2-0.2
	c-0.1-0.2-0.2-0.5-0.1-0.8l0.5-1.4c0.1-0.2,0-0.5-0.2-0.6l-1.2-0.9c-0.4-0.3-0.5-0.9-0.2-1.2c0.1-0.2,0.4-0.4,0.7-0.4h1.5
	c0.3,0,0.5-0.1,0.6-0.4l0.5-1.4c0.1-0.4,0.6-0.7,1.1-0.6c0.3,0.1,0.5,0.3,0.6,0.6l0.5,1.4c0.1,0.2,0.3,0.4,0.6,0.4h1.5
	c0.5,0,0.9,0.4,0.9,0.9c0,0.3-0.1,0.6-0.4,0.7l-1.2,0.9c-0.2,0.1-0.3,0.4-0.2,0.6l0.5,1.4c0.1,0.4,0,0.7-0.3,1
	C193.2,20.7,193,20.7,192.8,20.7z"/>
<path class="st4" d="M22.9,108.4c-0.2,0-0.4-0.1-0.5-0.1l-1.2-0.9c-0.2-0.1-0.5-0.1-0.7,0l-1.2,0.9c-0.4,0.3-0.9,0.2-1.2-0.2
	c-0.1-0.2-0.2-0.5-0.1-0.8l0.5-1.4c0.1-0.2,0-0.5-0.2-0.6l-1.2-0.9c-0.4-0.3-0.5-0.9-0.2-1.2c0.1-0.2,0.4-0.4,0.7-0.4H19
	c0.3,0,0.5-0.1,0.6-0.4l0.5-1.4c0.1-0.4,0.6-0.7,1.1-0.6c0.3,0.1,0.5,0.3,0.6,0.6l0.5,1.4c0.1,0.2,0.3,0.4,0.6,0.4h1.5
	c0.5,0,0.9,0.4,0.9,0.9c0,0.3-0.1,0.6-0.4,0.7l-1.2,0.9c-0.2,0.1-0.3,0.4-0.2,0.6l0.5,1.4c0.1,0.4,0,0.7-0.3,1
	C23.3,108.3,23.1,108.4,22.9,108.4z"/>
<path class="st4" d="M469.7,24.7c-0.2,0-0.4-0.1-0.5-0.1l-1.2-0.9c-0.2-0.1-0.5-0.1-0.7,0l-1.2,0.9c-0.4,0.3-0.9,0.2-1.2-0.2
	c-0.1-0.2-0.2-0.5-0.1-0.8l0.5-1.4c0.1-0.2,0-0.5-0.2-0.6l-1.2-0.9c-0.4-0.3-0.5-0.9-0.2-1.2c0.1-0.2,0.4-0.4,0.7-0.4h1.5
	c0.3,0,0.5-0.1,0.6-0.4l0.5-1.4c0.1-0.4,0.6-0.7,1.1-0.6c0.3,0.1,0.5,0.3,0.6,0.6l0.5,1.4c0.1,0.2,0.3,0.4,0.6,0.4h1.5
	c0.5,0,0.9,0.4,0.9,0.9c0,0.3-0.1,0.6-0.4,0.7l-1.2,0.9c-0.2,0.1-0.3,0.4-0.2,0.6l0.5,1.4c0.1,0.4,0,0.7-0.3,1
	C470.1,24.6,469.9,24.7,469.7,24.7z"/>
<path class="st3" d="M194.4,105c-0.2,0-0.4-0.1-0.6-0.2c-0.4-0.2-0.5-0.6-0.4-1.1l0.5-1.4c0.1-0.2,0-0.4-0.2-0.6l-1.2-0.9
	c-0.4-0.3-0.5-0.9-0.2-1.4c0.2-0.2,0.5-0.4,0.8-0.4h1.5c0.2,0,0.4-0.1,0.5-0.4l0.5-1.4c0.1-0.5,0.7-0.8,1.2-0.6
	c0.3,0.1,0.5,0.3,0.6,0.6l0.5,1.4c0.1,0.2,0.3,0.4,0.5,0.4h1.5c0.5,0,0.9,0.4,0.9,0.9c0,0.3-0.1,0.6-0.4,0.8l-1.2,0.9
	c-0.2,0.1-0.3,0.4-0.2,0.6l0.5,1.4c0.1,0.5-0.1,1-0.6,1.2c-0.3,0.1-0.6,0.1-0.9-0.1l-1.2-0.9c-0.2-0.1-0.4-0.1-0.6,0l-1.2,0.9
	C194.8,105,194.6,105,194.4,105z M196.5,103.5c0.2,0,0.4,0.1,0.6,0.2l1.2,0.9c0.2,0.1,0.6,0.1,0.7-0.1c0.1-0.1,0.1-0.3,0.1-0.4
	l-0.5-1.4c-0.1-0.4,0-0.8,0.4-1.1l1.2-0.9c0.2-0.1,0.3-0.5,0.1-0.7c-0.1-0.1-0.2-0.2-0.4-0.2h-1.5c-0.4,0-0.8-0.3-0.9-0.6l-0.5-1.4
	c-0.1-0.3-0.4-0.4-0.6-0.4c-0.1,0.1-0.3,0.1-0.4,0.4l-0.5,1.4c-0.1,0.4-0.5,0.6-0.9,0.6H193c-0.3,0-0.5,0.2-0.5,0.5
	c0,0.1,0.1,0.3,0.2,0.4l1.2,0.9c0.4,0.2,0.5,0.6,0.4,1.1l-0.5,1.4c-0.1,0.3,0.1,0.6,0.4,0.6c0.1,0.1,0.4,0,0.4-0.1l1.2-0.9
	C196.1,103.5,196.3,103.5,196.5,103.5z"/>
<path class="st3" d="M274.3,62.2c-0.2,0-0.4-0.1-0.6-0.2c-0.4-0.2-0.5-0.6-0.4-1.1l0.5-1.4c0.1-0.2,0-0.4-0.2-0.6l-1.2-0.9
	c-0.4-0.3-0.5-0.9-0.2-1.4c0.2-0.2,0.5-0.4,0.8-0.4h1.5c0.2,0,0.4-0.1,0.5-0.4l0.5-1.4c0.1-0.5,0.7-0.8,1.2-0.6
	c0.3,0.1,0.5,0.3,0.6,0.6l0.5,1.4c0.1,0.2,0.3,0.4,0.5,0.4h1.5c0.5,0,0.9,0.4,0.9,0.9c0,0.3-0.1,0.6-0.4,0.8l-1.2,0.9
	c-0.2,0.1-0.3,0.4-0.2,0.6l0.5,1.4c0.1,0.5-0.1,1-0.6,1.2c-0.3,0.1-0.6,0.1-0.9-0.1l-1.2-0.9c-0.2-0.1-0.4-0.1-0.6,0l-1.1,1
	C274.7,62.1,274.5,62.2,274.3,62.2z M276.4,60.5c0.2,0,0.4,0.1,0.6,0.2l1.2,0.9c0.2,0.1,0.6,0.1,0.7-0.1c0.1-0.1,0.1-0.3,0.1-0.4
	l-0.5-1.4c-0.1-0.4,0-0.8,0.4-1.1l1.2-0.9c0.2-0.1,0.3-0.5,0.1-0.7c-0.1-0.1-0.2-0.2-0.4-0.2h-1.5c-0.4,0-0.8-0.3-0.9-0.6l-0.5-1.4
	c-0.1-0.3-0.4-0.4-0.6-0.4c-0.1,0.1-0.3,0.1-0.4,0.4l-0.5,1.4c-0.1,0.4-0.5,0.6-0.9,0.6H273c-0.3,0-0.5,0.2-0.5,0.5
	c0,0.1,0.1,0.3,0.2,0.4l1.2,0.9c0.4,0.2,0.5,0.6,0.4,1.1l-0.5,1.4c-0.1,0.3,0.1,0.6,0.4,0.6c0.1,0.1,0.4,0,0.4-0.1l1.2-0.9
	C276,60.6,276.2,60.5,276.4,60.5z"/>
<path class="st4" d="M481.6,106.3c-0.2,0-0.4-0.1-0.5-0.1l-1.2-0.9c-0.2-0.1-0.5-0.1-0.7,0l-1.2,0.9c-0.4,0.3-0.9,0.2-1.2-0.2
	c-0.1-0.2-0.2-0.5-0.1-0.8l0.5-1.4c0.1-0.2,0-0.5-0.2-0.6l-1.2-0.9c-0.4-0.3-0.5-0.9-0.2-1.2c0.1-0.2,0.4-0.4,0.7-0.4h1.5
	c0.3,0,0.5-0.1,0.6-0.4l0.5-1.4c0.1-0.4,0.6-0.7,1.1-0.6c0.3,0.1,0.5,0.3,0.6,0.6l0.5,1.4c0.1,0.2,0.3,0.4,0.6,0.4h1.5
	c0.5,0,0.9,0.4,0.9,0.9c0,0.3-0.1,0.6-0.4,0.7l-1.2,0.9c-0.2,0.1-0.3,0.4-0.2,0.6l0.5,1.4c0.1,0.4,0,0.7-0.3,1
	C481.9,106.2,481.8,106.3,481.6,106.3z"/>
<path class="st4" d="M543.2,33.1c-0.2,0-0.4-0.1-0.5-0.1l-1.2-0.9c-0.2-0.1-0.5-0.1-0.7,0l-1.2,0.9c-0.4,0.3-0.9,0.2-1.2-0.2
	c-0.1-0.2-0.2-0.5-0.1-0.8l0.5-1.4c0.1-0.2,0-0.5-0.2-0.6l-1.2-0.9c-0.4-0.3-0.5-0.9-0.2-1.2c0.1-0.2,0.4-0.4,0.7-0.4h1.5
	c0.3,0,0.5-0.1,0.6-0.4l0.5-1.4c0.1-0.4,0.6-0.7,1.1-0.6c0.3,0.1,0.5,0.3,0.6,0.6l0.5,1.4c0.1,0.2,0.3,0.4,0.6,0.4h1.5
	c0.5,0,0.9,0.4,0.9,0.9c0,0.3-0.1,0.6-0.4,0.7l-1.2,0.9c-0.2,0.1-0.3,0.4-0.2,0.6l0.5,1.4c0.1,0.4,0,0.7-0.3,1
	C543.6,33.1,543.5,33.1,543.2,33.1z"/>
<path class="st3" d="M732.9,102.4c-0.2,0-0.4-0.1-0.6-0.2c-0.4-0.2-0.5-0.6-0.4-1.1l0.5-1.4c0.1-0.2,0-0.4-0.2-0.6l-1.2-0.9
	c-0.4-0.3-0.5-0.9-0.2-1.4c0.2-0.2,0.5-0.4,0.8-0.4h1.5c0.2,0,0.4-0.1,0.5-0.4l0.5-1.4c0.1-0.5,0.7-0.8,1.2-0.6
	c0.3,0.1,0.5,0.3,0.6,0.6l0.5,1.4c0.1,0.2,0.3,0.4,0.5,0.4h1.5c0.5,0,0.9,0.4,0.9,0.9c0,0.3-0.1,0.6-0.4,0.8l-1.2,0.9
	c-0.2,0.1-0.3,0.4-0.2,0.6l0.5,1.4c0.1,0.5-0.1,1-0.6,1.2c-0.3,0.1-0.6,0.1-0.9-0.1l-1.2-0.9c-0.2-0.1-0.4-0.1-0.6,0l-1.2,0.9
	C733.3,102.3,733.1,102.4,732.9,102.4z M735,100.8c0.2,0,0.4,0.1,0.6,0.2l1.2,0.9c0.2,0.1,0.6,0.1,0.7-0.1c0.1-0.1,0.1-0.3,0.1-0.4
	l-0.5-1.4c-0.1-0.4,0-0.8,0.4-1.1l1.2-0.9c0.2-0.1,0.3-0.5,0.1-0.7c-0.1-0.1-0.2-0.2-0.4-0.2h-1.5c-0.4,0-0.8-0.3-0.9-0.6l-0.5-1.4
	c-0.1-0.3-0.4-0.4-0.6-0.4c-0.1,0.1-0.3,0.1-0.4,0.4l-0.5,1.4c-0.1,0.4-0.5,0.6-0.9,0.6h-1.5c-0.3,0-0.5,0.2-0.5,0.5
	c0,0.1,0.1,0.3,0.2,0.4l1.2,0.9c0.4,0.2,0.5,0.6,0.4,1.1l-0.5,1.4c-0.1,0.3,0.1,0.6,0.4,0.6c0.1,0.1,0.4,0,0.4-0.1l1.2-0.9
	C734.6,100.8,734.8,100.8,735,100.8z"/>
<g>
	<circle class="st3" cx="411.6" cy="22.4" r="13.2"/>
	<path class="st6" d="M379.1,83.9c-0.2,1.9-0.4,3.8-0.6,5.6h5.3c0.2-1.9,0.4-3.7,0.7-5.6H379.1z"/>
	<path class="st6" d="M383.5,103.7c-0.1-1.9-0.2-3.7-0.1-5.6H378c-0.1,2.1-0.1,4-0.1,5.6H383.5z"/>
	<path class="st6" d="M392.6,54.1c4.4-11.8,8.7-19.7,8.7-19.7l-4.5-2.7c-4.7,7.1-8.2,14.7-10.9,22.4H392.6z"/>
	<path class="st6" d="M378.4,91c-0.2,2-0.3,3.9-0.4,5.6h5.3c0.1-1.9,0.2-3.7,0.3-5.6H378.4z"/>
	<path class="st6" d="M380.2,76.8c-0.3,1.9-0.6,3.8-0.9,5.6h5.5c0.3-1.9,0.7-3.7,1.1-5.6H380.2z"/>
	<path class="st6" d="M385.4,55.6c-0.6,1.9-1.2,3.7-1.7,5.6h6.4c0.6-1.9,1.3-3.8,1.9-5.6H385.4z"/>
	<path class="st6" d="M381.5,69.8c-0.4,1.9-0.8,3.8-1.1,5.6h5.8c0.4-1.9,0.9-3.8,1.4-5.6H381.5z"/>
	<path class="st6" d="M377.8,105.1c0,2.4,0.1,3.8,0.1,3.8l-0.1,1.1h6.3c-0.3-1.6-0.4-3.2-0.6-4.9H377.8z"/>
	<path class="st6" d="M383.3,62.7c-0.5,1.9-1,3.7-1.4,5.6h6.1c0.5-1.9,1.1-3.8,1.7-5.6C389.7,62.7,383.3,62.7,383.3,62.7z"/>
	<path class="st4" d="M428.3,39.6c-2.2-4.7-4.5-8.2-6.7-10.7l-1.1,1.8l0.1-2.9c-0.8-0.8-1.6-1.5-2.4-2.2l-1.6,2.4l0.1-3.4
		c-0.9-0.6-1.9-1.1-3-1.5l-1.2,1.8l0.1-2.1c-4-1-7.3,0.4-9.2,1.5l-1.1-0.2l2-0.8c-0.2-1.1-0.5-2.2-0.9-3.2l-3.4-0.5l2.6-1.1
		c-0.5-1-1.1-1.9-1.7-2.8l-2.9-0.4l1.9-0.8c-2.1-2.6-5.2-5.5-9.3-8.5c0,0-0.3,2.7-0.5,6.5l2.8,2.9l-2.9-0.8c0,1.2,0,2.4,0,3.6
		l2.1,2.1l-2.1-0.5c0,1,0.1,1.9,0.1,2.9c-1.8-0.4-3.6-0.4-5.4,0l0.1,2.1l-1.2-1.8c-1,0.4-2,0.9-3,1.5l0.1,3.4l-1.6-2.4
		c-0.9,0.7-1.7,1.4-2.4,2.2l0.1,2.9l-1.1-1.8c-2.2,2.6-4.4,6.1-6.7,10.7c0,0,2.7-0.2,6.5-0.7l2.3-3.3l-0.2,3
		c1.1-0.2,2.3-0.4,3.6-0.6l1.7-2.4l-0.2,2.1c1.7-0.4,3.4-0.8,5-1.3l1.2,1.1l-2.1-0.4c-0.5,1-0.8,2.1-1.1,3.1l2.5,2.3l-2.8-0.6
		c-0.1,1.1-0.2,2.2-0.1,3.3l2.1,2l-2.1-0.4c0.3,3.4,1.2,7.4,2.9,12.3c0,0,1.8-2.1,4.1-5.1l-0.7-4l2,2.3c0.7-0.9,1.4-1.9,2.1-3
		l-0.5-2.9l1.4,1.6c1.4-2.2,2.7-4.5,3.7-6.7c1.2,1.6,2.6,3.2,4,4.7l1.1-1.8v3c0.9,0.9,1.8,1.7,2.6,2.5l1.5-2.6l0.1,4.1
		c2.8,2.5,4.9,4.2,4.9,4.2c0.8-5.1,0.9-9.3,0.5-12.6l-1.9,0.8l1.7-2.4c-0.2-1.1-0.4-2.1-0.7-3.2l-2.6,1.1l1.3-1.7
		c0.5,0.1,1.1,0.3,1.6,0.4l-0.2-2.1l1.7,2.4c1.2,0.2,2.4,0.4,3.6,0.6l-0.2-3l2.3,3.3C425.5,39.4,428.3,39.6,428.3,39.6z"/>
	<path class="st6" d="M369.7,80.5c0.2,1.4,0.3,2.7,0.4,3.9h-3.7c-0.1-1.3-0.3-2.6-0.5-3.9H369.7z"/>
	<path class="st6" d="M366.7,94.4c0.1-1.3,0.1-2.6,0.1-3.9h3.8c0.1,1.5,0.1,2.8,0.1,3.9H366.7z"/>
	<path class="st6" d="M360.2,59.5c-3.1-8.3-6.2-13.9-6.2-13.9l3.2-1.9c3.3,5,5.8,10.4,7.7,15.8C364.9,59.5,360.2,59.5,360.2,59.5z"
		/>
	<path class="st6" d="M370.2,85.5c0.1,1.4,0.2,2.7,0.3,3.9h-3.8c0-1.3-0.1-2.6-0.2-3.9H370.2z"/>
	<path class="st6" d="M369,75.5c0.2,1.4,0.4,2.7,0.6,3.9h-3.9c-0.2-1.3-0.5-2.6-0.8-3.9H369z"/>
	<path class="st6" d="M365.3,60.5c0.4,1.3,0.9,2.6,1.2,3.9H362c-0.4-1.4-0.9-2.7-1.4-3.9H365.3z"/>
	<path class="st6" d="M368,70.5c0.3,1.3,0.6,2.7,0.8,3.9h-4.1c-0.3-1.3-0.6-2.7-1-3.9H368z"/>
	<path class="st6" d="M370.6,95.5c0,1.7-0.1,2.7-0.1,2.7V99h-4.4c0.2-1.1,0.3-2.3,0.4-3.4L370.6,95.5z"/>
	<path class="st6" d="M366.8,65.5c0.4,1.3,0.7,2.6,1,3.9h-4.3c-0.4-1.3-0.8-2.7-1.2-3.9H366.8z"/>
	<path class="st4" d="M335,49.2c1.6-3.3,3.2-5.8,4.7-7.6l0.8,1.2l-0.1-2.1c0.5-0.6,1.1-1.1,1.7-1.6l1.1,1.7l-0.1-2.4
		c0.7-0.4,1.4-0.8,2.1-1l0.8,1.3v-1.5c2.8-0.7,5.1,0.3,6.5,1.1l0.8-0.1l-1.4-0.6c0.1-0.8,0.3-1.5,0.6-2.2l2.4-0.4l-1.9-0.8
		c0.4-0.7,0.8-1.3,1.2-2l2-0.3l-1.4-0.6c1.5-1.8,3.6-3.9,6.6-6c0,0,0.2,1.9,0.3,4.6l-2,2l2.1-0.5c0,0.8,0,1.7,0,2.6l-1.5,1.5
		l1.5-0.4c0,0.7-0.1,1.3-0.1,2c1.3-0.3,2.6-0.3,3.8,0v1.5l0.8-1.3c0.7,0.3,1.4,0.6,2.1,1l-0.1,2.4l1.1-1.7c0.6,0.5,1.2,1,1.7,1.6
		l-0.1,2.1l0.8-1.2c1.5,1.8,3.1,4.3,4.7,7.6c0,0-1.9-0.1-4.6-0.5l-1.7-2.3l0.2,2.1c-0.8-0.1-1.7-0.3-2.5-0.4l-1.2-1.7l0.1,1.5
		c-1.2-0.3-2.4-0.6-3.6-0.9l-0.8,0.8l1.5-0.3c0.3,0.7,0.6,1.5,0.7,2.2l-1.8,1.7l2-0.4c0.1,0.8,0.1,1.5,0.1,2.3l-1.5,1.4l1.4-0.3
		c-0.2,2.4-0.8,5.2-2,8.7c0,0-1.3-1.5-2.9-3.6l0.5-2.8l-1.4,1.6c-0.5-0.7-1-1.4-1.5-2.1l0.4-2.1l-1,1.1c-1-1.5-1.9-3.1-2.6-4.7
		c-0.9,1.2-1.8,2.3-2.8,3.3l-0.8-1.3v2.1c-0.6,0.6-1.2,1.2-1.8,1.8l-0.8-1.9v2.9c-2,1.8-3.5,3-3.5,3c-0.6-3.6-0.6-6.5-0.4-8.9
		l1.4,0.6l-1.2-1.7c0.1-0.8,0.3-1.5,0.5-2.3l1.9,0.8l-0.9-1.2c-0.4,0.1-0.8,0.2-1.1,0.3l0.1-1.5l-1.2,1.7c-0.9,0.2-1.7,0.3-2.5,0.4
		l0.2-2.1l-1.7,2.3C337,49.1,335,49.2,335,49.2z"/>
	<ellipse class="st6" cx="325.8" cy="110.4" rx="21.4" ry="2"/>
	<ellipse class="st6" cx="377.3" cy="110.4" rx="21.4" ry="2"/>
	<path class="st3" d="M393.5,89.7c0,0,1.5,10.7-5.9,17.1c-4.8,4.1-11.6,4.8-17.3,1.9c-2.1-1.1-4.3-2.7-6.4-5.2
		c-0.8-0.9-1.5-1.9-2.2-2.9c-1-1.5-1.8-3.1-2.6-4.7c-0.5-1-0.9-2.1-1.3-3.3c-0.1-0.2-0.2-0.4-0.2-0.7c-3.8-11.4,3.6-14.8,10.5-15.6
		c1.4-0.2,2.9-0.2,4.3-0.2c1.7,0,3.4,0.1,5.1,0.4c0,0,0.1,0,0.4,0c1.3,0.1,2.6,0.2,3.9,0.4C387.2,77.9,395.3,80.8,393.5,89.7z"/>
	<path class="st3" d="M346.3,92.6c-3.4,9.3-8.3,13.8-12.5,16c-5.6,2.9-12.5,2.2-17.3-1.9c-0.5-0.4-0.9-0.8-1.3-1.3
		c-0.8-0.9-1.6-1.9-2.2-3c-0.8-1.4-1.4-2.8-1.8-4.4c-0.4-1.7-0.7-3.4-0.7-5.1c-0.1-1.1,0-2.2,0.1-3.3c-1.7-8.4,5.3-11.4,10.6-12.5
		c1.5-0.3,3.1-0.5,4.6-0.6c0.5,0,0.7,0,0.7,0c2.8-0.4,5.6-0.5,8.3-0.2C342.2,76.9,350.9,80,346.3,92.6z"/>
	<path class="st4" d="M325.8,76.5l-14.6,21.6c-0.4-1.7-0.7-3.4-0.7-5.1l10.7-15.9C322.7,76.8,324.3,76.6,325.8,76.5z"/>
	<path class="st4" d="M334.9,76.3l-19.7,29.2c-0.8-0.9-1.6-1.9-2.2-3l17.8-26.3C332.2,76.1,333.5,76.2,334.9,76.3z"/>
	<path class="st4" d="M372.5,76.2l-13.3,19.7c-0.5-1-0.9-2.1-1.3-3.3c-0.1-0.2-0.2-0.4-0.2-0.7l10.5-15.5
		C369.6,76.2,371,76.1,372.5,76.2z"/>
	<path class="st4" d="M381.9,77L364,103.5c-0.8-0.9-1.5-1.9-2.2-2.9l16.2-24C379.3,76.6,380.6,76.7,381.9,77z"/>
	<path class="st6" d="M397,88.7h-3.3c1.5-12-16.1-12.2-16.1-12.2c-2.8-0.4-5.6-0.5-8.4-0.2l0,0h-34.4l0,0c-2.8-0.2-5.5-0.1-8.3,0.3
		c0,0-17.6,0.1-16.1,12.2h-3.2V92h3.2c0,3.5,0.7,10.3,6,14.9c4.8,4.1,11.6,4.8,17.3,1.9c4.3-2.2,9.2-6.8,12.5-16
		c1.2-3.2,1.5-5.8,1.2-7.9c3.1-0.2,6.2-0.2,9.3,0c-0.3,2.1,0,4.7,1.2,7.9c3.4,9.3,8.3,13.8,12.5,16c5.6,2.9,12.5,2.2,17.3-1.9
		c5.3-4.6,6-11.4,6-14.9h3.3V88.7z M344.7,92.7c-3.2,8.8-7.9,13-11.9,14.9c-4.9,2.3-10.7,1.7-15-1.7c-5.1-4.1-5.8-10.5-5.7-13.7
		c0-1.3,0-2.6-0.1-3.9c-0.4-10.1,14.8-10.2,14.8-10.2S351.5,74.2,344.7,92.7L344.7,92.7z M356.8,84c-3.2-0.2-6.4-0.2-9.5,0
		c-0.8-3.6-3.5-5.6-6.7-6.6h22.8C360.3,78.5,357.6,80.5,356.8,84z M392.3,88.2c-0.1,1.3-0.1,2.6-0.1,3.9c0,3.3-0.7,9.7-5.8,13.9
		c-4.2,3.5-10.1,4.1-15.1,1.8c-4.1-1.9-8.8-6.1-12.1-15C352.4,74.1,377.3,78,377.3,78S392.7,78,392.3,88.2z"/>
	<path class="st6" d="M329.4,109.2c0,0-0.4-0.7-0.5-2c-0.1-1.2,0-3.3,1-6.2c2-5.5-0.5-9.9-0.5-10l0.1-0.1c0.5,0.9,0.8,1.9,1,2.9
		c0.5,2.4,0.3,4.9-0.5,7.1c-2,5.5-0.5,8.1-0.5,8.1L329.4,109.2z"/>
	<circle class="st6" cx="328.6" cy="89.8" r="0.9"/>
	<circle class="st6" cx="331.5" cy="93.3" r="0.9"/>
	<circle class="st5" cx="329.5" cy="95.5" r="0.9"/>
	<circle class="st5" cx="331.9" cy="97.5" r="0.9"/>
	<circle class="st6" cx="328.8" cy="100.5" r="0.9"/>
	<path class="st6" d="M329.9,109.3c0,0-0.9-2.3,1.9-4L329.9,109.3z"/>
	<path class="st6" d="M328.8,109.2c0,0-0.4-2.4-3.7-2.4L328.8,109.2z"/>
	<path class="st7" d="M319.9,55.4c0,0.3-0.2,0.6-0.4,0.8l0,0H304l0.1-0.2c0,0,1.1-3.3,6.2-2.7c0.5-0.2,5.1-1.7,7.9,0
		C319.3,54,319.9,54.7,319.9,55.4z"/>
	<path class="st7" d="M348.6,66.5c0,0.3-0.2,0.6-0.4,0.8l0,0h-15.5l0.1-0.2c0,0,1.1-3.3,6.2-2.7c0.5-0.2,5.1-1.7,7.9,0
		C348,65.2,348.6,65.9,348.6,66.5z"/>
	<path class="st7" d="M355.2,21.6c0,0.3-0.2,0.6-0.4,0.8l0,0h-15.5l0.1-0.2c0,0,1.1-3.3,6.2-2.7c0.5-0.2,5.1-1.7,7.9,0
		C354.5,20.3,355.2,21,355.2,21.6z"/>
</g>
<circle class="st3" cx="660" cy="27.3" r="5.1"/>
<circle class="st1" cx="712.7" cy="79.9" r="1.5"/>
<path class="st4" d="M597.9,37.5c-2.3-6.8-9.2-10.5-13.8-9c-4.6,1.5-7.9,8.7-5.6,15.5c2.1,6.3,8.4,9.9,12.8,9.2
	c0,0.1-0.1,0.1-0.1,0.2l-0.2,1.1c0,0.3,0.2,0.5,0.4,0.6c0.1,0,0.2,0,0.2,0l2.2-0.8c0.3-0.1,0.4-0.4,0.3-0.6c0-0.1-0.1-0.1-0.1-0.2
	l-0.8-0.8c0,0-0.1,0-0.1-0.1C597,50.5,599.9,43.7,597.9,37.5z"/>
<path class="st7" d="M589.7,32.5c3.9,2,5.5,6.7,3.7,10.7c-0.2,0.4,0.5,0.7,0.7,0.2c1.9-4.3,0.1-9.4-4-11.6
	C589.7,31.7,589.2,32.3,589.7,32.5z"/>
<path class="st8" d="M689.3,49.6c-2.3-6.8-9.2-10.5-13.8-9c-4.6,1.5-7.9,8.7-5.6,15.5c2.1,6.3,8.4,9.9,12.8,9.2
	c0,0.1-0.1,0.1-0.1,0.2l-0.1,1.1c0,0.3,0.2,0.5,0.4,0.6c0.1,0,0.2,0,0.2,0l2.2-0.8c0.3-0.1,0.4-0.4,0.3-0.6c0-0.1-0.1-0.1-0.1-0.2
	l-0.8-0.8c0,0-0.1,0-0.1-0.1C688.5,62.6,691.4,55.9,689.3,49.6z"/>
<path class="st7" d="M681.2,44.7c3.9,2,5.5,6.7,3.7,10.7c-0.2,0.4,0.5,0.7,0.7,0.2c1.9-4.3,0.1-9.4-4-11.6
	C681.1,43.8,680.7,44.4,681.2,44.7z"/>
<path class="st4" d="M636.2,24.8c-2.3-6.8-9.2-10.5-13.8-9c-4.6,1.5-7.9,8.7-5.6,15.5c2.1,6.3,8.4,9.9,12.8,9.2
	c0,0.1-0.1,0.1-0.1,0.2l-0.1,1.1c0,0.3,0.2,0.5,0.4,0.6c0.1,0,0.2,0,0.2,0l2.2-0.8c0.3-0.1,0.4-0.4,0.3-0.6c0-0.1-0.1-0.1-0.1-0.2
	l-0.8-0.8c0,0-0.1,0-0.1-0.1C635.4,37.7,638.3,31,636.2,24.8z"/>
<path class="st7" d="M628,19.8c3.9,2,5.5,6.7,3.7,10.7c-0.2,0.4,0.5,0.7,0.7,0.2c1.9-4.3,0.1-9.4-4-11.6
	C628,18.9,627.6,19.6,628,19.8z"/>
<circle class="st7" cx="624.9" cy="60.7" r="0.5"/>
<circle class="st7" cx="633.7" cy="101.8" r="1.1"/>
<circle class="st7" cx="585.9" cy="88.2" r="0.6"/>
<circle class="st7" cx="606.5" cy="90.6" r="0.7"/>
<circle class="st7" cx="658" cy="107.1" r="0.5"/>
<circle class="st7" cx="590.4" cy="99.5" r="1.1"/>
<circle class="st7" cx="620.5" cy="82" r="0.6"/>
<circle class="st7" cx="646.5" cy="95.1" r="0.7"/>
<path class="st4" d="M684,70.7c-0.3-9.1-6.5-16.2-13.9-16c-16.4,0.5-16.8,30.5-1,32.7l-0.3,2.7l4.9-0.2l-0.5-2.6
	C679.5,85.9,684.2,78.9,684,70.7z"/>
<path class="st7" d="M662,75.7l-1.8,0.1c-0.7-3.4-0.8-7-0.3-10.5l1.8-0.1C660.9,68.9,661,72.4,662,75.7z"/>
<rect x="668.4" y="87.3" transform="matrix(0.9995 -3.235641e-02 3.235641e-02 0.9995 -2.4928 21.7627)" class="st6" width="5.5" height="1.2"/>
<path class="st3" d="M695.3,78.3c3.3-8.4,0.5-17.5-6.3-20.2c-15.2-6.1-27.6,21.3-13.9,29.6l-1.4,2.3l4.5,1.8l0.6-2.6
	C685.2,90.5,692.3,86,695.3,78.3z"/>
<path class="st7" d="M673.1,74.2l-1.7-0.7c0.7-3.4,2-6.7,3.9-9.7l1.7,0.7C674.9,67.5,673.6,70.8,673.1,74.2z"/>
<rect x="676.1" y="86.3" transform="matrix(0.3693 -0.9293 0.9293 0.3693 344.0454 685.0369)" class="st6" width="1.2" height="5.5"/>
<path class="st3" d="M591.3,49.3c-3.6-8.3-12-12.7-18.8-9.7c-15,6.5-4.3,34.6,11.2,30.7l0.7,2.6l4.5-2l-1.4-2.3
	C592.8,65,594.6,56.8,591.3,49.3z"/>
<path class="st7" d="M572.7,62.1l-1.7,0.7c-1.9-2.9-3.4-6.2-4.2-9.6l1.7-0.7C569.2,56.1,570.6,59.3,572.7,62.1z"/>
<rect x="583" y="69.4" transform="matrix(0.9167 -0.3995 0.3995 0.9167 20.8142 239.8478)" class="st6" width="5.5" height="1.2"/>
</svg>
