<?xml version="1.0" encoding="utf-8"?>
<!-- Generator: Adobe Illustrator 22.0.0, SVG Export Plug-In . SVG Version: 6.00 Build 0)  -->
<svg version="1.1" id="Ebene_1" xmlns="http://www.w3.org/2000/svg" xmlns:xlink="http://www.w3.org/1999/xlink" x="0px" y="0px"
	 viewBox="0 0 750 120" style="enable-background:new 0 0 750 120;" xml:space="preserve">
<style type="text/css">
	.st0{fill:#FCE6B3;}
	.st1{fill:#F9CE64;}
	.st2{fill:#4A4A4A;}
	.st3{fill:#F8C143;}
	.st4{fill:#E1A61A;}
	.st5{fill:#E6E6E6;}
	.st6{fill:#FFFFFF;}
	.st7{opacity:0.2;fill:#DE9C01;enable-background:new    ;}
</style>
<rect class="st0" width="750" height="120"/>
<circle class="st1" cx="153.3" cy="27.8" r="5.1"/>
<circle class="st2" cx="282.7" cy="56.3" r="3.1"/>
<circle class="st2" cx="68.3" cy="82.3" r="1.5"/>
<circle class="st2" cx="199.6" cy="38.5" r="1.5"/>
<circle class="st2" cx="728.8" cy="21.8" r="1.5"/>
<circle class="st2" cx="267.4" cy="24.2" r="1.5"/>
<circle class="st2" cx="135" cy="87.4" r="1.5"/>
<circle class="st2" cx="191" cy="74.6" r="1.5"/>
<circle class="st2" cx="115.6" cy="42.5" r="1.5"/>
<circle class="st2" cx="49" cy="24.1" r="1.5"/>
<circle class="st3" cx="20.6" cy="59.3" r="4.6"/>
<circle class="st2" cx="441.5" cy="34.4" r="3.1"/>
<circle class="st2" cx="709.6" cy="75.6" r="1.5"/>
<circle class="st2" cx="668.9" cy="64.4" r="1.5"/>
<circle class="st1" cx="246.2" cy="85.8" r="5.1"/>
<circle class="st2" cx="693.5" cy="35.4" r="3.1"/>
<ellipse transform="matrix(0.2076 -0.9782 0.9782 0.2076 386.2242 519.3876)" class="st2" cx="513.7" cy="21.3" rx="3.1" ry="3.1"/>
<circle class="st1" cx="377.3" cy="26.8" r="5.1"/>
<circle class="st2" cx="327.6" cy="45.5" r="1.5"/>
<circle class="st2" cx="348" cy="88.4" r="1.5"/>
<circle class="st2" cx="408" cy="75.4" r="1.5"/>
<circle class="st2" cx="448" cy="105.4" r="1.5"/>
<circle class="st2" cx="534" cy="82.4" r="1.5"/>
<g>
	<path class="st4" d="M650,117.3c-8.1-1.2-15.9-2.2-23.3-3.1l3-4.8c-1-0.3-5.4,2.4-5.4,2.4l3.9-13.9c-5,0.5-7.6,14.7-7.6,14.7
		l-5.6-4.8l2.7,5.4c-22.9-2.4-42.6-3.3-59.2-3.4l2.5-4.1c-1-0.3-5.4,2.4-5.4,2.4l3.9-13.9c-5,0.5-7.6,14.7-7.6,14.7l-5.6-4.8
		l2.9,5.7c-13.9,0.2-25.3,0.9-34,1.8c2.6-6.4,11.2-12.4,11.2-12.4c-6.6,1.6-10.1,4.4-11.9,6.9c-0.1-7.9,0.8-22.5,7.7-38.7
		c0,0-13.7,24.9-12,41.7l0.2,3c-11.6,1.3-17.5,2.8-17.5,2.8L650,117.3z"/>
	<path class="st1" d="M619.5,8.9v100.6c0,2.5-2,4.5-4.5,4.5h-40.9c-2.5,0-4.5-2-4.5-4.5l0,0V8.9c0-2.5,2-4.5,4.5-4.5l0,0h6.1v0.8
		c0,2.1,1.7,3.7,3.7,3.7h20.8c0.8,0,1.6-0.3,2.2-0.7c0.1-0.1,0.3-0.2,0.4-0.3c0.7-0.7,1.2-1.7,1.1-2.7V4.3h6.5
		C617.5,4.3,619.5,6.4,619.5,8.9L619.5,8.9z"/>
	<circle class="st2" cx="581" cy="21.1" r="1.1"/>
	<path class="st4" d="M607.3,7.8c-0.1,0.1-0.2,0.2-0.4,0.3c2.7,4.7,7.2,8.1,12.6,9.3V17C614.4,15.8,610,12.4,607.3,7.8z"/>
	<path class="st4" d="M598.1,8.8h-0.5c3.7,9.3,12.1,16,22,17.6v-0.5C609.9,24.4,601.7,17.9,598.1,8.8z"/>
	<path class="st4" d="M588.7,8.8h-0.5c4.1,14.2,16.5,24.8,31.3,26.6v-0.5C604.9,33.2,592.8,22.8,588.7,8.8z"/>
	<polygon class="st2" points="577.4,29.1 577.2,29.1 577.2,28.9 577.1,28.9 577.1,29.1 576.8,29.1 576.8,29.2 577.1,29.2 
		577.1,29.5 577.2,29.5 577.2,29.2 577.4,29.2 	"/>
	<polygon class="st2" points="596.5,15 596.3,15 596.3,14.7 596.2,14.7 596.2,15 595.9,15 595.9,15.1 596.2,15.1 596.2,15.4 
		596.3,15.4 596.3,15.1 596.5,15.1 	"/>
	<polygon class="st2" points="580.2,40.3 580,40.3 580,40 579.9,40 579.9,40.3 579.6,40.3 579.6,40.4 579.9,40.4 579.9,40.7 
		580,40.7 580,40.4 580.2,40.4 	"/>
	<polygon class="st2" points="593.3,32.1 593,32.1 593,31.8 592.9,31.8 592.9,32.1 592.7,32.1 592.7,32.2 592.9,32.2 592.9,32.4 
		593,32.4 593,32.2 593.3,32.2 	"/>
	<polygon class="st2" points="611.9,37.2 611.6,37.2 611.6,36.9 611.6,36.9 611.6,37.2 611.3,37.2 611.3,37.3 611.6,37.3 
		611.6,37.6 611.6,37.6 611.6,37.3 611.9,37.3 	"/>
	<path class="st5" d="M586.4,38.3l-0.4,0.1c0.1,0.7,0.2,1.4,0.3,2.1h0.4C586.6,39.7,586.5,39,586.4,38.3z"/>
	<path class="st5" d="M585.4,34.1l-0.3,0.1c0.2,0.7,0.4,1.4,0.5,2.1l0.3-0.1C585.8,35.5,585.6,34.8,585.4,34.1z"/>
	<path class="st5" d="M583.9,30l-0.3,0.1c0.3,0.7,0.6,1.3,0.8,2l0.3-0.1C584.5,31.3,584.2,30.6,583.9,30z"/>
	<path class="st5" d="M581.8,26.2l-0.3,0.2c0.4,0.6,0.8,1.2,1.1,1.9l0.3-0.2C582.6,27.4,582.2,26.8,581.8,26.2z"/>
	<path class="st5" d="M579.2,22.7l-0.3,0.2c0.5,0.5,0.9,1.1,1.3,1.7l0.3-0.2C580.2,23.8,579.7,23.2,579.2,22.7z"/>
	<path class="st5" d="M576.2,19.6l-0.2,0.3c0.5,0.5,1.1,1,1.6,1.5l0.3-0.2C577.3,20.5,576.7,20,576.2,19.6z"/>
	<path class="st5" d="M572.8,16.9l-0.2,0.3c0.6,0.4,1.2,0.8,1.7,1.3l0.2-0.3C574,17.7,573.4,17.3,572.8,16.9z"/>
	<path class="st5" d="M569.6,15v0.4c0.4,0.2,0.7,0.4,1.1,0.6l0.2-0.3C570.5,15.5,570.1,15.3,569.6,15z"/>
	<path class="st5" d="M586.3,71.8c0.1-0.3,0.1-0.7,0.2-1.1h0.4c0,0.4-0.1,0.7-0.2,1.1H586.3z"/>
	<path class="st5" d="M585.3,76l0.3,0.1c0.2-0.7,0.4-1.4,0.6-2.1l-0.3-0.1C585.7,74.7,585.5,75.3,585.3,76z"/>
	<path class="st5" d="M583.8,80l0.3,0.2c0.3-0.7,0.6-1.3,0.9-2l-0.3-0.1C584.4,78.7,584.1,79.4,583.8,80z"/>
	<path class="st5" d="M581.7,83.8L582,84c0.4-0.6,0.8-1.2,1.1-1.9l-0.3-0.2C582.4,82.6,582.1,83.2,581.7,83.8z"/>
	<path class="st5" d="M579.1,87.2l0.3,0.2c0.5-0.5,0.9-1.1,1.4-1.7l-0.3-0.2C580,86.1,579.5,86.7,579.1,87.2z"/>
	<path class="st5" d="M576,90.3l0.2,0.3c0.5-0.5,1.1-1,1.6-1.5l-0.3-0.3C577.1,89.3,576.6,89.8,576,90.3z"/>
	<path class="st5" d="M572.6,92.9l0.2,0.3c0.6-0.4,1.2-0.8,1.8-1.3l-0.2-0.3C573.8,92.1,573.2,92.5,572.6,92.9z"/>
	<path class="st5" d="M571,94.3c-0.4,0.2-0.9,0.5-1.3,0.7v-0.4c0.4-0.2,0.8-0.4,1.1-0.6L571,94.3z"/>
	<path class="st5" d="M586.4,42.7h0.4c0,0.4,0,0.7,0,1.1h-0.4C586.4,43.4,586.4,43.1,586.4,42.7z"/>
	<path class="st6" d="M571.2,51.2h36.5c5.7,0,10.2,4.6,10.2,10.2v1.4l0,0h-36.5c-5.7,0-10.2-4.6-10.2-10.2l0,0V51.2L571.2,51.2z"/>
	<path class="st6" d="M595.4,113.9c0-0.1-0.9-1.5-1.2-4.4c-0.3-2.7-0.1-7.2,2.2-13.5c4.4-11.9-1-21.5-1.1-21.6l0.3-0.2
		c0,0,1.4,2.5,2.2,6.4c1.1,5.2,0.7,10.5-1.2,15.5c-4.4,11.9-1.1,17.5-1.1,17.6L595.4,113.9z"/>
	<circle class="st4" cx="593.7" cy="71.7" r="2"/>
	<circle class="st6" cx="600.1" cy="79.2" r="2"/>
	<circle class="st4" cx="595.7" cy="84.1" r="2"/>
	<circle class="st4" cx="601" cy="88.3" r="2"/>
	<circle class="st6" cx="594.2" cy="94.9" r="2"/>
	<path class="st6" d="M596.7,114c0,0-2-5,4-8.7L596.7,114z"/>
	<path class="st6" d="M594.2,113.9c0,0-0.9-5.3-8-5.2L594.2,113.9z"/>
	<circle class="st7" cx="586.1" cy="57" r="12.4"/>
	<circle class="st7" cx="586.1" cy="57" r="8.7"/>
	<circle class="st4" cx="586.1" cy="57" r="5.8"/>
	<path class="st6" d="M587.2,55.7c0-0.6-0.5-1-1-1c-0.6,0-1,0.5-1,1c0,0.3,0.1,0.6,0.4,0.8l-0.4,2.7h2.1l-0.4-2.7
		C587,56.3,587.2,56,587.2,55.7z"/>
	<path class="st4" d="M487.8,64.3c-4.1-7.1-13.2-9.6-20.4-5.5c-7.1,4.1-9.6,13.2-5.5,20.4c4.1,7.1,13.2,9.6,20.4,5.5
		c4.7-2.7,7.6-7.8,7.5-13.2l48.7-14.3l2.3,7.7l2.8-0.5l1.2,3.9l-2.7,0.8l1.2,3.9l4.2-1.2l-0.7-2.4l4.5-1.3l0.7,2.4l6.5-2l-1.1-3.6
		l-2.4,0.7l-1.2-3.9l3-0.9l-2.1-7.1l7.1-2.1l-2.6-8.6L487.8,64.3z M470.2,80.4c-4.8-2.6-6.6-8.6-4-13.4s8.6-6.6,13.4-4
		s6.6,8.6,4,13.4C481,81.2,475,83,470.2,80.4L470.2,80.4z"/>
</g>
</svg>
