<?xml version="1.0" encoding="utf-8"?>
<!-- Generator: Adobe Illustrator 22.0.0, SVG Export Plug-In . SVG Version: 6.00 Build 0)  -->
<svg version="1.1" id="Ebene_1" xmlns="http://www.w3.org/2000/svg" xmlns:xlink="http://www.w3.org/1999/xlink" x="0px" y="0px"
	 viewBox="0 0 300 120" style="enable-background:new 0 0 300 120;" xml:space="preserve">
<style type="text/css">
	.st0{fill:#FCE6B3;}
	.st1{fill:#FFFFFF;}
	.st2{fill:#F9CE64;}
	.st3{fill:#E1A61A;}
	.st4{fill:#4A4A4A;}
	.st5{opacity:0.1;fill:#233033;enable-background:new    ;}
	.st6{enable-background:new    ;}
</style>
<rect y="0.2" class="st0" width="300" height="120"/>
<circle class="st1" cx="135" cy="60.5" r="3.1"/>
<circle class="st2" cx="276.2" cy="94.4" r="5.1"/>
<circle class="st1" cx="267.2" cy="15.9" r="1.5"/>
<circle class="st1" cx="245.3" cy="107.6" r="1.5"/>
<path class="st3" d="M140,84.9c-0.2,0-0.4-0.1-0.5-0.1l-1.2-0.9c-0.2-0.1-0.5-0.1-0.7,0l-1.2,0.9c-0.4,0.3-0.9,0.2-1.2-0.2
	c-0.1-0.2-0.2-0.5-0.1-0.8l0.5-1.4c0.1-0.2,0-0.5-0.2-0.6l-1.2-0.9c-0.4-0.3-0.5-0.9-0.2-1.2c0.1-0.2,0.4-0.4,0.7-0.4h1.5
	c0.3,0,0.5-0.1,0.6-0.4l0.5-1.4c0.1-0.4,0.6-0.7,1.1-0.6c0.3,0.1,0.5,0.3,0.6,0.6l0.5,1.4c0.1,0.2,0.3,0.4,0.6,0.4h1.5
	c0.5,0,0.9,0.4,0.9,0.9c0,0.3-0.1,0.6-0.4,0.7l-1.2,0.9c-0.2,0.1-0.3,0.4-0.2,0.6l0.5,1.4c0.1,0.4,0,0.7-0.3,1
	C140.4,84.8,140.2,84.9,140,84.9z"/>
<path class="st3" d="M209.9,66.5c-0.2,0-0.4-0.1-0.5-0.1l-1.2-0.9c-0.2-0.1-0.5-0.1-0.7,0l-1.2,0.9c-0.4,0.3-0.9,0.2-1.2-0.2
	c-0.1-0.2-0.2-0.5-0.1-0.8l0.5-1.4c0.1-0.2,0-0.5-0.2-0.6l-1.2-0.9c-0.4-0.3-0.5-0.9-0.2-1.2c0.1-0.2,0.4-0.4,0.7-0.4h1.5
	c0.3,0,0.5-0.1,0.6-0.4l0.5-1.4c0.1-0.4,0.6-0.7,1.1-0.6c0.3,0.1,0.5,0.3,0.6,0.6l0.5,1.4c0.1,0.2,0.3,0.4,0.6,0.4h1.5
	c0.5,0,0.9,0.4,0.9,0.9c0,0.3-0.1,0.6-0.4,0.7l-1.2,0.9c-0.2,0.1-0.3,0.4-0.2,0.6l0.5,1.4c0.1,0.4,0,0.7-0.3,1
	C210.2,66.4,210.1,66.5,209.9,66.5z"/>
<path class="st3" d="M276.5,49.3c-0.2,0-0.4-0.1-0.5-0.1l-1.2-0.9c-0.2-0.1-0.5-0.1-0.7,0l-1.2,0.9c-0.4,0.3-0.9,0.2-1.2-0.2
	c-0.1-0.2-0.2-0.5-0.1-0.8l0.5-1.4c0.1-0.2,0-0.5-0.2-0.6l-1.2-0.9c-0.4-0.3-0.5-0.9-0.2-1.2c0.1-0.2,0.4-0.4,0.7-0.4h1.5
	c0.3,0,0.5-0.1,0.6-0.4l0.5-1.4c0.1-0.4,0.6-0.7,1.1-0.6c0.3,0.1,0.5,0.3,0.6,0.6l0.5,1.4c0.1,0.2,0.3,0.4,0.6,0.4h1.5
	c0.5,0,0.9,0.4,0.9,0.9c0,0.3-0.1,0.6-0.4,0.7l-1.2,0.9c-0.2,0.1-0.3,0.4-0.2,0.6l0.5,1.4c0.1,0.4,0,0.7-0.3,1
	C276.9,49.3,276.8,49.3,276.5,49.3z"/>
<g>
	<circle class="st2" cx="112.9" cy="23.6" r="13.2"/>
	<path class="st4" d="M80.4,85.1c-0.2,1.9-0.4,3.8-0.6,5.6h5.3c0.2-1.9,0.4-3.7,0.7-5.6H80.4z"/>
	<path class="st4" d="M84.8,104.9c-0.1-1.9-0.2-3.7-0.1-5.6h-5.4c-0.1,2.1-0.1,4-0.1,5.6H84.8z"/>
	<path class="st4" d="M93.9,55.3c4.4-11.8,8.7-19.7,8.7-19.7l-4.5-2.7c-4.7,7.1-8.2,14.7-10.9,22.4H93.9z"/>
	<path class="st4" d="M79.7,92.2c-0.2,2-0.3,3.9-0.4,5.6h5.3c0.1-1.9,0.2-3.7,0.3-5.6H79.7z"/>
	<path class="st4" d="M81.5,78c-0.3,1.9-0.6,3.8-0.9,5.6h5.5c0.3-1.9,0.7-3.7,1.1-5.6H81.5z"/>
	<path class="st4" d="M86.7,56.8c-0.6,1.9-1.2,3.7-1.7,5.6h6.4c0.6-1.9,1.3-3.8,1.9-5.6H86.7z"/>
	<path class="st4" d="M82.8,71c-0.4,1.9-0.8,3.8-1.1,5.6h5.8c0.4-1.9,0.9-3.8,1.4-5.6H82.8z"/>
	<path class="st4" d="M79.1,106.3c0,2.4,0.1,3.8,0.1,3.8l-0.1,1.1h6.3c-0.3-1.6-0.4-3.2-0.6-4.9H79.1z"/>
	<path class="st4" d="M84.6,63.9c-0.5,1.9-1,3.7-1.4,5.6h6.1c0.5-1.9,1.1-3.8,1.7-5.6C91,63.9,84.6,63.9,84.6,63.9z"/>
	<path class="st3" d="M129.6,40.8c-2.2-4.7-4.5-8.2-6.7-10.7l-1.1,1.8l0.1-2.9c-0.8-0.8-1.6-1.5-2.4-2.2l-1.6,2.4l0.1-3.4
		c-0.9-0.6-1.9-1.1-3-1.5l-1.2,1.8l0.1-2.1c-4-1-7.3,0.4-9.2,1.5l-1.1-0.2l2-0.8c-0.2-1.1-0.5-2.2-0.9-3.2l-3.4-0.5l2.6-1.1
		c-0.5-1-1.1-1.9-1.7-2.8l-2.9-0.4l1.9-0.8c-2.1-2.6-5.2-5.5-9.3-8.5c0,0-0.3,2.7-0.5,6.5l2.8,2.9l-2.9-0.8c0,1.2,0,2.4,0,3.6
		l2.1,2.1L91.3,21c0,1,0.1,1.9,0.1,2.9c-1.8-0.4-3.6-0.4-5.4,0l0.1,2.1l-1.2-1.8c-1,0.4-2,0.9-3,1.5l0.1,3.4l-1.6-2.4
		c-0.9,0.7-1.7,1.4-2.4,2.2l0.1,2.9L77,30c-2.2,2.6-4.4,6.1-6.7,10.7c0,0,2.7-0.2,6.5-0.7l2.3-3.3l-0.2,3c1.1-0.2,2.3-0.4,3.6-0.6
		l1.7-2.4L84,38.8c1.7-0.4,3.4-0.8,5-1.3l1.2,1.1l-2.1-0.4c-0.5,1-0.8,2.1-1.1,3.1l2.5,2.3L86.7,43c-0.1,1.1-0.2,2.2-0.1,3.3l2.1,2
		l-2.1-0.4c0.3,3.4,1.2,7.4,2.9,12.3c0,0,1.8-2.1,4.1-5.1l-0.7-4l2,2.3c0.7-0.9,1.4-1.9,2.1-3l-0.5-2.9l1.4,1.6
		c1.4-2.2,2.7-4.5,3.7-6.7c1.2,1.6,2.6,3.2,4,4.7l1.1-1.8v3c0.9,0.9,1.8,1.7,2.6,2.5l1.5-2.6l0.1,4.1c2.8,2.5,4.9,4.2,4.9,4.2
		c0.8-5.1,0.9-9.3,0.5-12.6l-1.9,0.8l1.7-2.4c-0.2-1.1-0.4-2.1-0.7-3.2l-2.6,1.1l1.3-1.7c0.5,0.1,1.1,0.3,1.6,0.4l-0.2-2.1l1.7,2.4
		c1.2,0.2,2.4,0.4,3.6,0.6l-0.2-3l2.3,3.3C126.8,40.6,129.6,40.8,129.6,40.8z"/>
	<path class="st4" d="M71,81.7c0.2,1.4,0.3,2.7,0.4,3.9h-3.7c-0.1-1.3-0.3-2.6-0.5-3.9H71z"/>
	<path class="st4" d="M68,95.6c0.1-1.3,0.1-2.6,0.1-3.9h3.8c0.1,1.5,0.1,2.8,0.1,3.9H68z"/>
	<path class="st4" d="M61.5,60.7c-3.1-8.3-6.2-13.9-6.2-13.9l3.2-1.9c3.3,5,5.8,10.4,7.7,15.8C66.2,60.7,61.5,60.7,61.5,60.7z"/>
	<path class="st4" d="M71.5,86.7c0.1,1.4,0.2,2.7,0.3,3.9H68c0-1.3-0.1-2.6-0.2-3.9H71.5z"/>
	<path class="st4" d="M70.3,76.7c0.2,1.4,0.4,2.7,0.6,3.9H67c-0.2-1.3-0.5-2.6-0.8-3.9H70.3z"/>
	<path class="st4" d="M66.6,61.7c0.4,1.3,0.9,2.6,1.2,3.9h-4.5c-0.4-1.4-0.9-2.7-1.4-3.9H66.6z"/>
	<path class="st4" d="M69.3,71.7c0.3,1.3,0.6,2.7,0.8,3.9H66c-0.3-1.3-0.6-2.7-1-3.9H69.3z"/>
	<path class="st4" d="M71.9,96.7c0,1.7-0.1,2.7-0.1,2.7v0.8h-4.4c0.2-1.1,0.3-2.3,0.4-3.4L71.9,96.7z"/>
	<path class="st4" d="M68.1,66.7c0.4,1.3,0.7,2.6,1,3.9h-4.3c-0.4-1.3-0.8-2.7-1.2-3.9H68.1z"/>
	<path class="st3" d="M36.3,50.4c1.6-3.3,3.2-5.8,4.7-7.6l0.8,1.2l-0.1-2.1c0.5-0.6,1.1-1.1,1.7-1.6l1.1,1.7l-0.1-2.4
		c0.7-0.4,1.4-0.8,2.1-1l0.8,1.3v-1.5c2.8-0.7,5.1,0.3,6.5,1.1l0.8-0.1l-1.4-0.6c0.1-0.8,0.3-1.5,0.6-2.2l2.4-0.4l-1.9-0.8
		c0.4-0.7,0.8-1.3,1.2-2l2-0.3l-1.4-0.6c1.5-1.8,3.6-3.9,6.6-6c0,0,0.2,1.9,0.3,4.6l-2,2l2.1-0.5c0,0.8,0,1.7,0,2.6l-1.5,1.5
		l1.5-0.4c0,0.7-0.1,1.3-0.1,2c1.3-0.3,2.6-0.3,3.8,0v1.5l0.8-1.3c0.7,0.3,1.4,0.6,2.1,1l-0.1,2.4l1.1-1.7c0.6,0.5,1.2,1,1.7,1.6
		l-0.1,2.1l0.8-1.2c1.5,1.8,3.1,4.3,4.7,7.6c0,0-1.9-0.1-4.6-0.5l-1.7-2.3l0.2,2.1c-0.8-0.1-1.7-0.3-2.5-0.4L68,47.5l0.1,1.5
		c-1.2-0.3-2.4-0.6-3.6-0.9l-0.8,0.8l1.5-0.3c0.3,0.7,0.6,1.5,0.7,2.2l-1.8,1.7l2-0.4c0.1,0.8,0.1,1.5,0.1,2.3l-1.5,1.4l1.4-0.3
		c-0.2,2.4-0.8,5.2-2,8.7c0,0-1.3-1.5-2.9-3.6l0.5-2.8l-1.4,1.6c-0.5-0.7-1-1.4-1.5-2.1l0.4-2.1l-1,1.1c-1-1.5-1.9-3.1-2.6-4.7
		c-0.9,1.2-1.8,2.3-2.8,3.3L52,53.6v2.1c-0.6,0.6-1.2,1.2-1.8,1.8l-0.8-1.9v2.9c-2,1.8-3.5,3-3.5,3c-0.6-3.6-0.6-6.5-0.4-8.9
		l1.4,0.6l-1.2-1.7c0.1-0.8,0.3-1.5,0.5-2.3l1.9,0.8l-0.9-1.2c-0.4,0.1-0.8,0.2-1.1,0.3l0.1-1.5L45,49.3c-0.9,0.2-1.7,0.3-2.5,0.4
		l0.2-2.1L41,49.9C38.3,50.3,36.3,50.4,36.3,50.4z"/>
	<ellipse class="st4" cx="27.1" cy="111.6" rx="21.4" ry="2"/>
	<ellipse class="st4" cx="78.6" cy="111.6" rx="21.4" ry="2"/>
	<path class="st2" d="M94.8,90.9c0,0,1.5,10.7-5.9,17.1c-4.8,4.1-11.6,4.8-17.3,1.9c-2.1-1.1-4.3-2.7-6.4-5.2
		c-0.8-0.9-1.5-1.9-2.2-2.9c-1-1.5-1.8-3.1-2.6-4.7c-0.5-1-0.9-2.1-1.3-3.3c-0.1-0.2-0.2-0.4-0.2-0.7c-3.8-11.4,3.6-14.8,10.5-15.6
		c1.4-0.2,2.9-0.2,4.3-0.2c1.7,0,3.4,0.1,5.1,0.4c0,0,0.1,0,0.4,0c1.3,0.1,2.6,0.2,3.9,0.4C88.5,79.1,96.6,82,94.8,90.9z"/>
	<path class="st2" d="M47.6,93.8c-3.4,9.3-8.3,13.8-12.5,16c-5.6,2.9-12.5,2.2-17.3-1.9c-0.5-0.4-0.9-0.8-1.3-1.3
		c-0.8-0.9-1.6-1.9-2.2-3c-0.8-1.4-1.4-2.8-1.8-4.4c-0.4-1.7-0.7-3.4-0.7-5.1c-0.1-1.1,0-2.2,0.1-3.3c-1.7-8.4,5.3-11.4,10.6-12.5
		c1.5-0.3,3.1-0.5,4.6-0.6c0.5,0,0.7,0,0.7,0c2.8-0.4,5.6-0.5,8.3-0.2C43.5,78.1,52.2,81.2,47.6,93.8z"/>
	<path class="st3" d="M27.1,77.7L12.5,99.3c-0.4-1.7-0.7-3.4-0.7-5.1l10.7-15.9C24,78,25.6,77.8,27.1,77.7z"/>
	<path class="st3" d="M36.2,77.5l-19.7,29.2c-0.8-0.9-1.6-1.9-2.2-3l17.8-26.3C33.5,77.3,34.8,77.4,36.2,77.5z"/>
	<path class="st3" d="M73.8,77.4L60.5,97.1c-0.5-1-0.9-2.1-1.3-3.3c-0.1-0.2-0.2-0.4-0.2-0.7l10.5-15.5
		C70.9,77.4,72.3,77.3,73.8,77.4z"/>
	<path class="st3" d="M83.2,78.2l-17.9,26.5c-0.8-0.9-1.5-1.9-2.2-2.9l16.2-24C80.6,77.8,81.9,77.9,83.2,78.2z"/>
	<path class="st4" d="M98.3,89.9H95c1.5-12-16.1-12.2-16.1-12.2c-2.8-0.4-5.6-0.5-8.4-0.2l0,0H36.1l0,0c-2.8-0.2-5.5-0.1-8.3,0.3
		c0,0-17.6,0.1-16.1,12.2H8.5v3.2h3.2c0,3.5,0.7,10.3,6,14.9c4.8,4.1,11.6,4.8,17.3,1.9c4.3-2.2,9.2-6.8,12.5-16
		c1.2-3.2,1.5-5.8,1.2-7.9c3.1-0.2,6.2-0.2,9.3,0c-0.3,2.1,0,4.7,1.2,7.9c3.4,9.3,8.3,13.8,12.5,16c5.6,2.9,12.5,2.2,17.3-1.9
		c5.3-4.6,6-11.4,6-14.9h3.3V89.9z M46,93.9c-3.2,8.8-7.9,13-11.9,14.9c-4.9,2.3-10.7,1.7-15-1.7c-5.1-4.1-5.8-10.5-5.7-13.7
		c0-1.3,0-2.6-0.1-3.9c-0.4-10.1,14.8-10.2,14.8-10.2S52.8,75.4,46,93.9L46,93.9z M58.1,85.2c-3.2-0.2-6.4-0.2-9.5,0
		c-0.8-3.6-3.5-5.6-6.7-6.6h22.8C61.6,79.7,58.9,81.7,58.1,85.2z M93.6,89.4c-0.1,1.3-0.1,2.6-0.1,3.9c0,3.3-0.7,9.7-5.8,13.9
		c-4.2,3.5-10.1,4.1-15.1,1.8c-4.1-1.9-8.8-6.1-12.1-15c-6.8-18.7,18.1-14.8,18.1-14.8S94,79.2,93.6,89.4z"/>
	<path class="st4" d="M30.7,110.4c0,0-0.4-0.7-0.5-2c-0.1-1.2,0-3.3,1-6.2c2-5.5-0.5-9.9-0.5-10l0.1-0.1c0.5,0.9,0.8,1.9,1,2.9
		c0.5,2.4,0.3,4.9-0.5,7.1c-2,5.5-0.5,8.1-0.5,8.1L30.7,110.4z"/>
	<circle class="st4" cx="29.9" cy="91" r="0.9"/>
	<circle class="st4" cx="32.8" cy="94.5" r="0.9"/>
	<circle class="st5" cx="30.8" cy="96.7" r="0.9"/>
	<circle class="st5" cx="33.2" cy="98.7" r="0.9"/>
	<circle class="st4" cx="30.1" cy="101.7" r="0.9"/>
	<path class="st4" d="M31.2,110.5c0,0-0.9-2.3,1.9-4L31.2,110.5z"/>
	<path class="st4" d="M30.1,110.4c0,0-0.4-2.4-3.7-2.4L30.1,110.4z"/>
	<path class="st1" d="M21.2,56.6c0,0.3-0.2,0.6-0.4,0.8l0,0H5.3l0.1-0.2c0,0,1.1-3.3,6.2-2.7c0.5-0.2,5.1-1.7,7.9,0
		C20.6,55.2,21.2,55.9,21.2,56.6z"/>
	<path class="st1" d="M49.9,67.7c0,0.3-0.2,0.6-0.4,0.8l0,0H34l0.1-0.2c0,0,1.1-3.3,6.2-2.7c0.5-0.2,5.1-1.7,7.9,0
		C49.3,66.4,49.9,67.1,49.9,67.7z"/>
	<path class="st1" d="M56.5,22.8c0,0.3-0.2,0.6-0.4,0.8l0,0H40.6l0.1-0.2c0,0,1.1-3.3,6.2-2.7c0.5-0.2,5.1-1.7,7.9,0
		C55.8,21.5,56.5,22.2,56.5,22.8z"/>
</g>
<path class="st3" d="M242.2,14.7c-2.3-6.8-9.2-10.5-13.8-9s-7.9,8.7-5.6,15.5c2.1,6.3,8.4,9.9,12.8,9.2c0,0.1-0.1,0.1-0.1,0.2
	l-0.2,1.1c0,0.3,0.2,0.5,0.4,0.6c0.1,0,0.2,0,0.2,0l2.2-0.8c0.3-0.1,0.4-0.4,0.3-0.6c0-0.1-0.1-0.1-0.1-0.2l-0.8-0.8
	c0,0-0.1,0-0.1-0.1C241.3,27.7,244.2,20.9,242.2,14.7z"/>
<path class="st1" d="M234,9.7c3.9,2,5.5,6.7,3.7,10.7c-0.2,0.4,0.5,0.7,0.7,0.2c1.9-4.3,0.1-9.4-4-11.6C234,8.9,233.5,9.5,234,9.7z"
	/>
<path class="st2" d="M235.6,26.5c-3.6-8.3-12-12.7-18.8-9.7c-15,6.5-4.3,34.6,11.2,30.7l0.7,2.6l4.5-2l-1.4-2.3
	C237.1,42.2,238.9,34,235.6,26.5z"/>
<path class="st1" d="M217,39.3l-1.7,0.7c-1.9-2.9-3.4-6.2-4.2-9.6l1.7-0.7C213.5,33.3,214.9,36.5,217,39.3z"/>
<rect x="227.3" y="46.6" transform="matrix(0.9167 -0.3995 0.3995 0.9167 0.3024 95.8436)" class="st4" width="5.5" height="1.2"/>
<g>
	<g class="st6">
		<path class="st3" d="M134.3,96l-10.9,2.9L126,109l12.2-3.1l0.7,3l-15.7,4.1l-7.3-28l15.2-4l0.7,3l-11.4,3l2.3,8.9l10.9-2.9
			L134.3,96z"/>
		<path class="st3" d="M140.8,80.8c0.3,1.3-0.3,2.4-1.7,2.9c-1.3,0.3-2.4-0.4-2.9-1.7c-0.3-1.3,0.3-2.6,1.7-2.9
			C139.4,78.8,140.5,79.5,140.8,80.8z M143.4,107.7l-5.3-20l3.6-1l5.3,20L143.4,107.7z"/>
		<path class="st3" d="M151.7,101.6c1.3,0.4,3.4,0.7,5.1,0.1c2.7-0.7,3.6-2.3,3.1-4c-0.4-1.7-1.7-2.4-4.7-2.7
			c-4-0.4-6.1-1.9-6.9-4.3c-0.9-3.3,1.1-6.6,5.4-7.7c2-0.6,4-0.4,5.3,0l-0.3,2.9c-0.9-0.3-2.6-0.6-4.4-0.1c-2.1,0.6-3,2.1-2.6,3.6
			c0.4,1.7,1.9,2.1,4.7,2.4c3.9,0.4,6,1.7,6.9,4.7c0.9,3.6-1.1,6.7-6,8c-2.1,0.6-4.4,0.6-6,0L151.7,101.6z"/>
		<path class="st3" d="M174.6,83.8c-0.6-2.1-1-3.7-1.6-5.4l3.1-0.9l1,3.1h0.1c0.6-2.1,2-4.4,5.4-5.3c2.7-0.7,5.3,0.4,6.7,2.6h0.1
			c0.3-1.3,0.9-2.4,1.6-3.1c1-1.3,2.1-2,4-2.6c2.7-0.7,7,0,8.9,7l3,11.9l-3.6,0.9l-3-11.3c-1-3.9-3-5.9-6-5
			c-2.1,0.6-3.3,2.4-3.4,4.4c0,0.6,0,1.3,0.1,1.9l3.3,12.4l-3.6,0.9l-3.1-12c-0.9-3.1-2.9-5.1-5.6-4.4c-2.3,0.6-3.4,2.9-3.6,4.9
			c0,0.6,0,1.3,0.1,1.9l3.1,12.2l-3.6,0.9L174.6,83.8z"/>
		<path class="st3" d="M210.5,62.7c0.3,1.3-0.3,2.4-1.7,2.9c-1.3,0.3-2.4-0.4-2.9-1.7c-0.3-1.3,0.3-2.6,1.7-2.9
			C209.1,60.7,210.2,61.5,210.5,62.7z M213.1,89.6l-5.3-20l3.6-1l5.3,20L213.1,89.6z"/>
		<path class="st3" d="M220.5,60l1.6,5.7l5.3-1.4l0.7,2.7l-5.3,1.4l2.9,10.9c0.7,2.4,1.7,3.7,3.7,3.1c1-0.3,1.6-0.6,2-0.9l0.9,2.7
			c-0.6,0.4-1.7,1-3.1,1.3c-1.7,0.4-3.1,0.3-4.3-0.6c-1.3-0.9-2.1-2.6-2.7-4.9l-2.9-11l-3.1,0.9l-0.7-2.7l3.1-0.9l-1.3-4.9L220.5,60
			z"/>
		<path class="st3" d="M243.8,76.8c1.9,0.6,4.4,0.7,6.9,0.1c3.7-1,5.4-3.4,4.6-6.3c-0.7-2.6-2.6-3.7-6.7-4.1c-5-0.4-8.4-2.1-9.4-6
			c-1.1-4.3,1.7-8.6,7.2-10c2.9-0.7,5.1-0.6,6.6-0.3l-0.3,3.3c-1-0.3-3.1-0.6-5.6,0c-3.9,1-4.7,3.7-4.1,5.6c0.7,2.6,2.7,3.4,7,3.9
			c5.3,0.6,8.2,2.3,9.3,6.4c1.1,4.3-1,8.9-7.7,10.6c-2.7,0.7-5.9,0.7-7.6,0V76.8z"/>
		<path class="st3" d="M263.5,48.8l1.6,5.7l5.3-1.4l0.7,2.7l-5.3,1.4l2.9,10.9c0.7,2.6,1.7,3.7,3.7,3.1c1-0.3,1.6-0.6,2-0.9l0.9,2.7
			c-0.6,0.4-1.7,1-3.1,1.3c-1.7,0.4-3.1,0.3-4.3-0.6c-1.3-0.9-2.1-2.6-2.7-4.9l-2.9-11l-3.1,0.9l-0.7-2.7l3.1-0.9l-1.3-4.9
			L263.5,48.8z"/>
		<path class="st3" d="M277,45.5c0.3,1.3-0.3,2.4-1.7,2.9c-1.3,0.3-2.4-0.4-2.9-1.7c-0.3-1.3,0.3-2.6,1.7-2.9
			C275.6,43.4,276.7,44.2,277,45.5z M279.6,72.3l-5.3-20l3.6-1l5.3,20L279.6,72.3z"/>
		<path class="st3" d="M281.7,40.2l3.6-1l7.7,29.5l-3.7,1L281.7,40.2z"/>
	</g>
</g>
<circle class="st1" cx="172.1" cy="36" r="1.5"/>
<circle class="st1" cx="170.2" cy="11.6" r="1.5"/>
<circle class="st1" cx="185.2" cy="20.4" r="0.6"/>
<circle class="st1" cx="158.8" cy="23.8" r="0.7"/>
<circle class="st1" cx="189.7" cy="31.7" r="1.1"/>
<path class="st3" d="M154,44.9c-0.2,0-0.4-0.1-0.5-0.1l-1.2-0.9c-0.2-0.1-0.5-0.1-0.7,0l-1.2,0.9c-0.4,0.3-0.9,0.2-1.2-0.2
	c-0.1-0.2-0.2-0.5-0.1-0.8l0.5-1.4c0.1-0.2,0-0.5-0.2-0.6l-1.2-0.9c-0.4-0.3-0.5-0.9-0.2-1.2c0.1-0.2,0.4-0.4,0.7-0.4h1.5
	c0.3,0,0.5-0.1,0.6-0.4l0.5-1.4c0.1-0.4,0.6-0.7,1.1-0.6c0.3,0.1,0.5,0.3,0.6,0.6l0.5,1.4c0.1,0.2,0.3,0.4,0.6,0.4h1.5
	c0.5,0,0.9,0.4,0.9,0.9c0,0.3-0.1,0.6-0.4,0.7l-1.2,0.9c-0.2,0.1-0.3,0.4-0.2,0.6l0.5,1.4c0.1,0.4,0,0.7-0.3,1
	C154.4,44.8,154.2,44.9,154,44.9z"/>
</svg>
