<?xml version="1.0" encoding="utf-8"?>
<!-- Generator: Adobe Illustrator 22.0.0, SVG Export Plug-In . SVG Version: 6.00 Build 0)  -->
<svg version="1.1" id="Ebene_1" xmlns="http://www.w3.org/2000/svg" xmlns:xlink="http://www.w3.org/1999/xlink" x="0px" y="0px"
	 viewBox="0 0 750 120" style="enable-background:new 0 0 750 120;" xml:space="preserve">
<style type="text/css">
	.st0{fill:#233033;}
	.st1{fill:#F9CE64;}
	.st2{fill:#F2F2F2;}
	.st3{fill:#F8C143;}
	.st4{fill:#E1A61A;}
	.st5{opacity:0.1;fill:#233033;enable-background:new    ;}
</style>
<rect class="st0" width="750" height="120"/>
<circle class="st1" cx="153.3" cy="27.8" r="5.1"/>
<circle class="st2" cx="282.7" cy="56.3" r="3.1"/>
<circle class="st2" cx="68.3" cy="82.3" r="1.5"/>
<circle class="st2" cx="199.6" cy="38.5" r="1.5"/>
<circle class="st2" cx="608.8" cy="28.8" r="1.5"/>
<circle class="st2" cx="267.4" cy="24.2" r="1.5"/>
<circle class="st2" cx="135" cy="87.4" r="1.5"/>
<circle class="st2" cx="191" cy="74.6" r="1.5"/>
<circle class="st2" cx="115.6" cy="42.5" r="1.5"/>
<circle class="st2" cx="49" cy="24.1" r="1.5"/>
<circle class="st3" cx="20.6" cy="59.3" r="4.6"/>
<circle class="st2" cx="441.5" cy="34.4" r="3.1"/>
<circle class="st2" cx="629.6" cy="75.6" r="1.5"/>
<circle class="st2" cx="668.9" cy="64.4" r="1.5"/>
<circle class="st1" cx="246.2" cy="85.8" r="5.1"/>
<circle class="st2" cx="693.5" cy="35.4" r="3.1"/>
<circle class="st2" cx="377.7" cy="75.3" r="3.1"/>
<circle class="st1" cx="477.3" cy="56.8" r="5.1"/>
<circle class="st2" cx="327.6" cy="45.5" r="1.5"/>
<circle class="st2" cx="348" cy="88.4" r="1.5"/>
<circle class="st2" cx="428" cy="85.4" r="1.5"/>
<circle class="st2" cx="508" cy="35.4" r="1.5"/>
<circle class="st2" cx="524" cy="82.4" r="1.5"/>
<g>
	<path class="st4" d="M592.4,53.4c0,0-0.4,4.3-1,10.5c-0.2,2-0.5,4.2-0.8,6.6c-0.4,3.3-0.9,6.7-1.4,10.2c-0.3,2.2-0.7,4.3-1,6.4
		c-1.9,11.3-4.5,21.3-7.5,22.2c-6.7,1.8-31.6-40.1-34.4-44.8c-0.2-0.3-0.2-0.4-0.2-0.4L592.4,53.4z"/>
	<path class="st5" d="M591.3,63.9c-0.2,2-0.5,4.2-0.8,6.6l-21.6-11.7l9-2.1L591.3,63.9z"/>
	<path class="st5" d="M589.1,80.7c-0.3,2.2-0.7,4.3-1,6.4l-41.8-22.6c-0.2-0.3-0.2-0.4-0.2-0.4l8.7-2L589.1,80.7z"/>
	<path class="st1" d="M560.8,18.4c-1.7,2.2-5.2,2.3-6.9,4.6c-1.1,1.5-1,3.7-0.2,5.4c0.8,1.7,2.2,3.1,3.6,4.4
		c0.9,0.9,1.9,1.8,3.1,2.4c1.6,0.8,3.5,0.9,5.4,1c4,0,8-0.3,11.9-1c1.7-0.3,3.7-0.9,4.6-2.4c0.5-0.9,0.5-2,0.5-3
		c0-1.6-0.3-3.3-1.2-4.6c-0.8-1.1-2-1.7-3.3-2.3c-3.8-1.7-8.1-2.9-10.9-6c-1.1-1.2-2-2.8-3.4-3.6c-1.9-1.1-5.5-0.9-7.1,0.5
		C557.3,14.3,561.8,17.1,560.8,18.4z"/>
	<path class="st1" d="M546.8,39.2c-0.1,2.3-0.2,4.8,0.9,6.9c1.4,2.7,4.4,4.3,7.5,4.8c3.1,0.4,6.1-0.2,9.1-0.7l15.8-3
		c2-0.4,4-0.8,6-0.5c1.7,0.2,3.7,0.7,4.7-0.6c0.5-0.6,0.6-1.4,0.6-2.1c0.1-2.5-0.1-5.1-1.5-7.1c-1.6-2.3-4.5-3.4-7.3-3.6
		c-2.8-0.2-5.6,0.4-8.4,0.7c-2.8,0.3-5.7,0.4-8.6,0.3c-2.4-0.1-4.8-0.5-6.9-1.7c-1.1-0.7-2-1.6-3.1-2.3
		C549.6,25.8,547,34.8,546.8,39.2z"/>
	<path class="st1" d="M545.6,50c-4.4,3.3-5.3,9.6-1.9,13.9c1,1.3,2.2,2.3,3.7,3c2.8,1.3,6.1,1.3,9.2,0.8c3-0.5,5.9-1.3,8.9-2.1
		l25.9-7.4c1.5-0.4,3.2-1,3.9-2.4c0.5-1.1,0.2-2.3-0.2-3.4c-1.5-3.9-5.5-6.9-9.7-7.2c-1.6-0.1-3.2,0.1-4.8,0.3L569.1,47
		c-1.5,0.2-3.1,0.4-4.6,0.3c-4.7-0.2-9.5-2.8-13.9-1.2c-3,1.1-5.1,3.8-6.8,6.5"/>
	<path class="st5" d="M556.2,29c0,0,5.2,5.8,24.6,4.1"/>
	<path class="st5" d="M549.8,48.7c0,0,8.4,5.3,36.5-1.2"/>
	<ellipse transform="matrix(0.9745 -0.2244 0.2244 0.9745 8.9593 126.4281)" class="st4" cx="560.7" cy="23.8" rx="1.8" ry="0.6"/>
	<ellipse transform="matrix(0.9745 -0.2244 0.2244 0.9745 8.5509 128.0434)" class="st4" cx="567.6" cy="26.4" rx="1.8" ry="0.6"/>
	<ellipse transform="matrix(0.9745 -0.2244 0.2244 0.9745 8.1662 129.8596)" class="st4" cx="575.4" cy="29" rx="1.8" ry="0.6"/>
	<ellipse transform="matrix(0.9745 -0.2244 0.2244 0.9745 5.9288 124.7721)" class="st4" cx="551.9" cy="36.3" rx="1.8" ry="0.6"/>
	<ellipse transform="matrix(0.9745 -0.2244 0.2244 0.9745 5.8818 128.5511)" class="st4" cx="568.5" cy="38.4" rx="1.8" ry="0.6"/>
	<ellipse transform="matrix(0.9745 -0.2244 0.2244 0.9745 1.6746 124.7325)" class="st4" cx="549.6" cy="55" rx="1.8" ry="0.6"/>
	<ellipse transform="matrix(0.9745 -0.2244 0.2244 0.9745 4.9501 126.3605)" class="st4" cx="558.4" cy="41.4" rx="1.8" ry="0.6"/>
	<ellipse transform="matrix(0.9745 -0.2244 0.2244 0.9745 1.0288 126.056)" class="st4" cx="555.1" cy="58.5" rx="1.8" ry="0.6"/>
	<ellipse transform="matrix(0.9745 -0.2244 0.2244 0.9745 2.5243 128.4098)" class="st4" cx="566.2" cy="53.1" rx="1.8" ry="0.6"/>
	<ellipse transform="matrix(0.9745 -0.2244 0.2244 0.9745 0.6792 130.7785)" class="st1" cx="575.7" cy="62.4" rx="2" ry="4.1"/>
	<ellipse transform="matrix(0.9745 -0.2244 0.2244 0.9745 0.5467 131.4068)" class="st1" cx="578.4" cy="63.3" rx="2" ry="4.1"/>
	<path class="st4" d="M583.4,103.1c0-0.1,0-2.1,1.4-5.3c1.4-3,4.3-7.7,10.6-12.9c11.9-9.9,12-23.4,12-23.6h0.4c0,0,0,3.5-1.5,8.1
		c-2,6.2-5.7,11.6-10.7,15.7c-11.9,9.9-11.9,17.9-11.9,18C583.7,103.1,583.4,103.1,583.4,103.1z"/>
	<ellipse class="st1" cx="607.3" cy="57.4" rx="2.5" ry="2.5"/>
	<ellipse class="st4" cx="609.5" cy="69.1" rx="2.5" ry="2.5"/>
	<ellipse class="st1" cx="601.8" cy="71.8" rx="2.5" ry="2.5"/>
	<ellipse class="st1" cx="604.9" cy="79.4" rx="2.5" ry="2.5"/>
	<ellipse class="st4" cx="593.7" cy="82.2" rx="2.5" ry="2.5"/>
	<path class="st4" d="M584.6,104c0,0,0.9-6.5,9.6-6.8L584.6,104z"/>
	<path class="st4" d="M582.1,102.3c0,0,2.2-6.2-5.3-10.5L582.1,102.3z"/>
</g>
<g>
	<circle class="st2" cx="96" cy="50.1" r="25.5"/>
	<path class="st1" d="M158.5,82.9l-26.7-26.7c8.4-13.1,4.6-30.6-8.5-39c-0.3-0.2-0.5-0.3-0.7-0.5c-12.7-7.6-29-4.2-37.6,7.8
		c-9,12.7-6,30.4,6.7,39.4c9.4,6.7,22,7,31.7,0.8l26.7,26.7c2.3,2.3,6.1,2.3,8.5,0C160.9,89,160.9,85.2,158.5,82.9z M122.4,55.2
		c-7.9,7.9-20.7,7.9-28.6,0s-7.9-20.7,0-28.6s20.7-7.9,28.6,0c3.8,3.8,5.9,8.9,5.9,14.3S126.2,51.4,122.4,55.2z"/>
</g>
<g>
	<path class="st3" d="M345.4,48.2c0,10.5-16.2,34.9-20.9,41.8c-0.5,0.7-1.5,0.9-2.1,0.4c-0.2-0.1-0.3-0.3-0.4-0.4
		c-4.7-6.9-20.9-31.3-20.9-41.8C301,36,311,26,323.2,26C335.4,26,345.4,36,345.4,48.2L345.4,48.2z"/>
	<circle class="st2" cx="323.2" cy="46.7" r="11.3"/>
	<ellipse class="st1" cx="323" cy="100.3" rx="13" ry="2.5"/>
</g>
<path class="st4" d="M222.8,20.7c-0.2,0-0.4-0.1-0.5-0.1l-1.2-0.9c-0.2-0.1-0.5-0.1-0.7,0l-1.2,0.9c-0.4,0.3-0.9,0.2-1.2-0.2
	c-0.1-0.2-0.2-0.5-0.1-0.8l0.5-1.4c0.1-0.2,0-0.5-0.2-0.6l-1.2-0.9c-0.4-0.3-0.5-0.9-0.2-1.2c0.1-0.2,0.4-0.4,0.7-0.4h1.5
	c0.3,0,0.5-0.1,0.6-0.4l0.5-1.4c0.1-0.4,0.6-0.7,1.1-0.6c0.3,0.1,0.5,0.3,0.6,0.6l0.5,1.4c0.1,0.2,0.3,0.4,0.6,0.4h1.5
	c0.5,0,0.9,0.4,0.9,0.9c0,0.3-0.1,0.6-0.4,0.7l-1.2,0.9c-0.2,0.1-0.3,0.4-0.2,0.6l0.5,1.4c0.1,0.4,0,0.7-0.3,1
	C223.2,20.7,223,20.7,222.8,20.7z"/>
<path class="st4" d="M42.9,108.4c-0.2,0-0.4-0.1-0.5-0.1l-1.2-0.9c-0.2-0.1-0.5-0.1-0.7,0l-1.2,0.9c-0.4,0.3-0.9,0.2-1.2-0.2
	c-0.1-0.2-0.2-0.5-0.1-0.8l0.5-1.4c0.1-0.2,0-0.5-0.2-0.6l-1.2-0.9c-0.4-0.3-0.5-0.9-0.2-1.2c0.1-0.2,0.4-0.4,0.7-0.4H39
	c0.3,0,0.5-0.1,0.6-0.4l0.5-1.4c0.1-0.4,0.6-0.7,1.1-0.6c0.3,0.1,0.5,0.3,0.6,0.6l0.5,1.4c0.1,0.2,0.3,0.4,0.6,0.4h1.5
	c0.5,0,0.9,0.4,0.9,0.9c0,0.3-0.1,0.6-0.4,0.7l-1.2,0.9c-0.2,0.1-0.3,0.4-0.2,0.6l0.5,1.4c0.1,0.4,0,0.7-0.3,1
	C43.3,108.3,43.1,108.4,42.9,108.4z"/>
<path class="st4" d="M379.7,24.7c-0.2,0-0.4-0.1-0.5-0.1l-1.2-0.9c-0.2-0.1-0.5-0.1-0.7,0l-1.2,0.9c-0.4,0.3-0.9,0.2-1.2-0.2
	c-0.1-0.2-0.2-0.5-0.1-0.8l0.5-1.4c0.1-0.2,0-0.5-0.2-0.6l-1.2-0.9c-0.4-0.3-0.5-0.9-0.2-1.2c0.1-0.2,0.4-0.4,0.7-0.4h1.5
	c0.3,0,0.5-0.1,0.6-0.4l0.5-1.4c0.1-0.4,0.6-0.7,1.1-0.6c0.3,0.1,0.5,0.3,0.6,0.6l0.5,1.4c0.1,0.2,0.3,0.4,0.6,0.4h1.5
	c0.5,0,0.9,0.4,0.9,0.9c0,0.3-0.1,0.6-0.4,0.7l-1.2,0.9c-0.2,0.1-0.3,0.4-0.2,0.6l0.5,1.4c0.1,0.4,0,0.7-0.3,1
	C380.1,24.6,379.9,24.7,379.7,24.7z"/>
<path class="st1" d="M214.4,95c-0.2,0-0.4-0.1-0.6-0.2c-0.4-0.2-0.5-0.6-0.4-1.1l0.5-1.4c0.1-0.2,0-0.4-0.2-0.6l-1.2-0.9
	c-0.4-0.3-0.5-0.9-0.2-1.4c0.2-0.2,0.5-0.4,0.8-0.4h1.5c0.2,0,0.4-0.1,0.5-0.4l0.5-1.4c0.1-0.5,0.7-0.8,1.2-0.6
	c0.3,0.1,0.5,0.3,0.6,0.6l0.5,1.4c0.1,0.2,0.3,0.4,0.5,0.4h1.5c0.5,0,0.9,0.4,0.9,0.9c0,0.3-0.1,0.6-0.4,0.8l-1.2,0.9
	c-0.2,0.1-0.3,0.4-0.2,0.6l0.5,1.4c0.1,0.5-0.1,1-0.6,1.2c-0.3,0.1-0.6,0.1-0.9-0.1l-1.2-0.9c-0.2-0.1-0.4-0.1-0.6,0l-1.2,0.9
	C214.8,95,214.6,95,214.4,95z M216.5,93.5c0.2,0,0.4,0.1,0.6,0.2l1.2,0.9c0.2,0.1,0.6,0.1,0.7-0.1c0.1-0.1,0.1-0.3,0.1-0.4l-0.5-1.4
	c-0.1-0.4,0-0.8,0.4-1.1l1.2-0.9c0.2-0.1,0.3-0.5,0.1-0.7c-0.1-0.1-0.2-0.2-0.4-0.2h-1.5c-0.4,0-0.8-0.3-0.9-0.6l-0.5-1.4
	c-0.1-0.3-0.4-0.4-0.6-0.4c-0.1,0.1-0.3,0.1-0.4,0.4l-0.5,1.4c-0.1,0.4-0.5,0.6-0.9,0.6H213c-0.3,0-0.5,0.2-0.5,0.5
	c0,0.1,0.1,0.3,0.2,0.4l1.2,0.9c0.4,0.2,0.5,0.6,0.4,1.1l-0.5,1.4c-0.1,0.3,0.1,0.6,0.4,0.6c0.1,0.1,0.4,0,0.4-0.1l1.2-0.9
	C216.1,93.5,216.3,93.5,216.5,93.5z"/>
<path class="st1" d="M414.3,72.2c-0.2,0-0.4-0.1-0.6-0.2c-0.4-0.2-0.5-0.6-0.4-1.1l0.5-1.4c0.1-0.2,0-0.4-0.2-0.6l-1.2-0.9
	c-0.4-0.3-0.5-0.9-0.2-1.4c0.2-0.2,0.5-0.4,0.8-0.4h1.5c0.2,0,0.4-0.1,0.5-0.4l0.5-1.4c0.1-0.5,0.7-0.8,1.2-0.6
	c0.3,0.1,0.5,0.3,0.6,0.6l0.5,1.4c0.1,0.2,0.3,0.4,0.5,0.4h1.5c0.5,0,0.9,0.4,0.9,0.9c0,0.3-0.1,0.6-0.4,0.8l-1.2,0.9
	c-0.2,0.1-0.3,0.4-0.2,0.6l0.5,1.4c0.1,0.5-0.1,1-0.6,1.2c-0.3,0.1-0.6,0.1-0.9-0.1l-1.2-0.9c-0.2-0.1-0.4-0.1-0.6,0L415,72
	C414.7,72.1,414.5,72.2,414.3,72.2z M416.4,70.5c0.2,0,0.4,0.1,0.6,0.2l1.2,0.9c0.2,0.1,0.6,0.1,0.7-0.1c0.1-0.1,0.1-0.3,0.1-0.4
	l-0.5-1.4c-0.1-0.4,0-0.8,0.4-1.1l1.2-0.9c0.2-0.1,0.3-0.5,0.1-0.7c-0.1-0.1-0.2-0.2-0.4-0.2h-1.5c-0.4,0-0.8-0.3-0.9-0.6l-0.5-1.4
	c-0.1-0.3-0.4-0.4-0.6-0.4c-0.1,0.1-0.3,0.1-0.4,0.4l-0.5,1.4c-0.1,0.4-0.5,0.6-0.9,0.6h-1.5c-0.3,0-0.5,0.2-0.5,0.5
	c0,0.1,0.1,0.3,0.2,0.4l1.2,0.9c0.4,0.2,0.5,0.6,0.4,1.1l-0.5,1.4c-0.1,0.3,0.1,0.6,0.4,0.6c0.1,0.1,0.4,0,0.4-0.1l1.2-0.9
	C416,70.6,416.2,70.5,416.4,70.5z"/>
<path class="st4" d="M491.6,106.3c-0.2,0-0.4-0.1-0.5-0.1l-1.2-0.9c-0.2-0.1-0.5-0.1-0.7,0l-1.2,0.9c-0.4,0.3-0.9,0.2-1.2-0.2
	c-0.1-0.2-0.2-0.5-0.1-0.8l0.5-1.4c0.1-0.2,0-0.5-0.2-0.6l-1.2-0.9c-0.4-0.3-0.5-0.9-0.2-1.2c0.1-0.2,0.4-0.4,0.7-0.4h1.5
	c0.3,0,0.5-0.1,0.6-0.4l0.5-1.4c0.1-0.4,0.6-0.7,1.1-0.6c0.3,0.1,0.5,0.3,0.6,0.6l0.5,1.4c0.1,0.2,0.3,0.4,0.6,0.4h1.5
	c0.5,0,0.9,0.4,0.9,0.9c0,0.3-0.1,0.6-0.4,0.7l-1.2,0.9c-0.2,0.1-0.3,0.4-0.2,0.6l0.5,1.4c0.1,0.4,0,0.7-0.3,1
	C491.9,106.2,491.8,106.3,491.6,106.3z"/>
<path class="st4" d="M644.2,43.1c-0.2,0-0.4-0.1-0.5-0.1l-1.2-0.9c-0.2-0.1-0.5-0.1-0.7,0l-1.2,0.9c-0.4,0.3-0.9,0.2-1.2-0.2
	c-0.1-0.2-0.2-0.5-0.1-0.8l0.5-1.4c0.1-0.2,0-0.5-0.2-0.6l-1.2-0.9c-0.4-0.3-0.5-0.9-0.2-1.2c0.1-0.2,0.4-0.4,0.7-0.4h1.5
	c0.3,0,0.5-0.1,0.6-0.4l0.5-1.4c0.1-0.4,0.6-0.7,1.1-0.6c0.3,0.1,0.5,0.3,0.6,0.6l0.5,1.4c0.1,0.2,0.3,0.4,0.6,0.4h1.5
	c0.5,0,0.9,0.4,0.9,0.9c0,0.3-0.1,0.6-0.4,0.7l-1.2,0.9c-0.2,0.1-0.3,0.4-0.2,0.6l0.5,1.4c0.1,0.4,0,0.7-0.3,1
	C644.6,43.1,644.5,43.1,644.2,43.1z"/>
<path class="st1" d="M713.9,102.4c-0.2,0-0.4-0.1-0.6-0.2c-0.4-0.2-0.5-0.6-0.4-1.1l0.5-1.4c0.1-0.2,0-0.4-0.2-0.6l-1.2-0.9
	c-0.4-0.3-0.5-0.9-0.2-1.4c0.2-0.2,0.5-0.4,0.8-0.4h1.5c0.2,0,0.4-0.1,0.5-0.4l0.5-1.4c0.1-0.5,0.7-0.8,1.2-0.6
	c0.3,0.1,0.5,0.3,0.6,0.6l0.5,1.4c0.1,0.2,0.3,0.4,0.5,0.4h1.5c0.5,0,0.9,0.4,0.9,0.9c0,0.3-0.1,0.6-0.4,0.8l-1.2,0.9
	c-0.2,0.1-0.3,0.4-0.2,0.6l0.5,1.4c0.1,0.5-0.1,1-0.6,1.2c-0.3,0.1-0.6,0.1-0.9-0.1l-1.2-0.9c-0.2-0.1-0.4-0.1-0.6,0l-1.2,0.9
	C714.3,102.3,714.1,102.4,713.9,102.4z M716,100.8c0.2,0,0.4,0.1,0.6,0.2l1.2,0.9c0.2,0.1,0.6,0.1,0.7-0.1c0.1-0.1,0.1-0.3,0.1-0.4
	l-0.5-1.4c-0.1-0.4,0-0.8,0.4-1.1l1.2-0.9c0.2-0.1,0.3-0.5,0.1-0.7c-0.1-0.1-0.2-0.2-0.4-0.2h-1.5c-0.4,0-0.8-0.3-0.9-0.6l-0.5-1.4
	c-0.1-0.3-0.4-0.4-0.6-0.4c-0.1,0.1-0.3,0.1-0.4,0.4l-0.5,1.4c-0.1,0.4-0.5,0.6-0.9,0.6h-1.5c-0.3,0-0.5,0.2-0.5,0.5
	c0,0.1,0.1,0.3,0.2,0.4l1.2,0.9c0.4,0.2,0.5,0.6,0.4,1.1l-0.5,1.4c-0.1,0.3,0.1,0.6,0.4,0.6c0.1,0.1,0.4,0,0.4-0.1l1.2-0.9
	C715.6,100.8,715.8,100.8,716,100.8z"/>
</svg>
