<?xml version="1.0" encoding="utf-8"?>
<!-- Generator: Adobe Illustrator 22.0.0, SVG Export Plug-In . SVG Version: 6.00 Build 0)  -->
<svg version="1.1" id="Ebene_1" xmlns="http://www.w3.org/2000/svg" xmlns:xlink="http://www.w3.org/1999/xlink" x="0px" y="0px"
	 viewBox="0 0 750 120" style="enable-background:new 0 0 750 120;" xml:space="preserve">
<style type="text/css">
	.st0{fill:#FCE6B3;}
	.st1{fill:#F9CE64;}
	.st2{fill:#233033;}
	.st3{fill:#F8C143;}
	.st4{fill:#FFFFFF;}
	.st5{fill:#F9D387;}
	.st6{fill:#3F3D56;}
	.st7{fill:#E1A61A;}
	.st8{opacity:0.1;fill:#233033;enable-background:new    ;}
</style>
<rect class="st0" width="750" height="120"/>
<circle class="st1" cx="323.3" cy="17.8" r="5.1"/>
<circle class="st2" cx="282.7" cy="56.3" r="3.1"/>
<circle class="st2" cx="60.5" cy="79.4" r="1.5"/>
<circle class="st2" cx="211.5" cy="42.1" r="1.5"/>
<circle class="st2" cx="622" cy="27.3" r="1.5"/>
<circle class="st2" cx="418.4" cy="54.2" r="1.5"/>
<circle class="st2" cx="295" cy="97.4" r="1.5"/>
<circle class="st2" cx="246.2" cy="26.4" r="1.5"/>
<circle class="st2" cx="119.1" cy="35.9" r="1.2"/>
<circle class="st2" cx="49" cy="24.1" r="1.5"/>
<circle class="st3" cx="29.8" cy="55" r="4.6"/>
<circle class="st2" cx="491.5" cy="14.4" r="3.1"/>
<circle class="st2" cx="631.1" cy="81.4" r="1.5"/>
<circle class="st2" cx="668.9" cy="64.4" r="1.5"/>
<circle class="st1" cx="246.2" cy="85.8" r="5.1"/>
<circle class="st2" cx="693.5" cy="35.4" r="3.1"/>
<circle class="st2" cx="391.7" cy="95.3" r="3.1"/>
<circle class="st1" cx="477.3" cy="56.8" r="5.1"/>
<circle class="st2" cx="375" cy="30.3" r="1.5"/>
<circle class="st2" cx="348" cy="88.4" r="1.5"/>
<circle class="st2" cx="428" cy="85.4" r="1.5"/>
<circle class="st2" cx="508" cy="35.4" r="1.5"/>
<circle class="st2" cx="524" cy="82.4" r="1.5"/>
<circle class="st2" cx="714.4" cy="89.2" r="1.5"/>
<circle class="st4" cx="119.1" cy="64.6" r="41.2"/>
<path class="st0" d="M145.8,72C145.8,71.9,145.8,71.9,145.8,72C145.8,71.9,145.8,71.9,145.8,72L145.8,72c-0.4-2.3-12.5-4.1-26.7-4.1
	s-26.3,1.8-26.7,4l0,0l0,0c0,0,0,0,0,0.1l0,0l0,0c0,14.7,12,26.7,26.8,26.6C133.9,98.6,145.8,86.7,145.8,72L145.8,72L145.8,72z"/>
<ellipse class="st5" cx="119.1" cy="72" rx="26.7" ry="4.1"/>
<circle class="st6" cx="119.1" cy="41.2" r="1.1"/>
<g>
	<path class="st7" d="M138.7,26.3c0,9.2-14.3,30.8-18.5,36.9c-0.4,0.6-1.3,0.8-1.8,0.4c-0.2-0.1-0.3-0.2-0.4-0.4
		c-4.2-6.1-18.5-27.6-18.5-36.9c0-10.8,8.8-19.6,19.6-19.6C130,6.8,138.7,15.5,138.7,26.3L138.7,26.3z"/>
	<circle class="st4" cx="119.2" cy="24.9" r="9.9"/>
	<ellipse class="st7" cx="119" cy="72.2" rx="11.5" ry="2.2"/>
</g>
<g>
	<path class="st7" d="M589,48.7c0,0-0.4,4.3-1,10.5c-0.2,2-0.5,4.2-0.8,6.6c-0.4,3.3-0.9,6.8-1.4,10.2c-0.3,2.2-0.7,4.3-1,6.4
		c-1.9,11.3-4.5,21.3-7.5,22.2c-6.7,1.8-31.7-40.2-34.4-44.8c-0.2-0.3-0.2-0.4-0.2-0.4L589,48.7z"/>
	<path class="st8" d="M587.9,59.2c-0.2,2-0.5,4.2-0.8,6.6l-21.6-11.7l9-2.1L587.9,59.2z"/>
	<path class="st8" d="M585.8,76c-0.3,2.2-0.7,4.3-1,6.4l-41.9-22.6c-0.2-0.3-0.2-0.4-0.2-0.4l8.7-2L585.8,76z"/>
	<path class="st1" d="M557.3,13.7c-1.7,2.2-5.2,2.3-6.9,4.6c-1.1,1.6-1,3.7-0.2,5.4c0.8,1.7,2.2,3.1,3.6,4.4
		c0.9,0.9,1.9,1.8,3.1,2.4c1.6,0.8,3.5,0.9,5.4,1c4,0,8-0.3,11.9-1c1.7-0.3,3.7-0.9,4.6-2.4c0.5-0.9,0.5-2,0.5-3
		c0-1.6-0.3-3.3-1.2-4.6c-0.8-1.1-2-1.7-3.3-2.3c-3.8-1.7-8.1-2.9-10.9-6c-1.1-1.2-2-2.8-3.4-3.6c-1.9-1.1-5.5-0.9-7.1,0.5
		C553.9,9.6,558.4,12.4,557.3,13.7z"/>
	<path class="st1" d="M543.3,34.5c-0.1,2.3-0.2,4.8,0.9,6.9c1.4,2.8,4.4,4.3,7.5,4.8c3.1,0.4,6.1-0.2,9.2-0.7l15.8-3
		c2-0.4,4-0.8,6-0.5c1.7,0.2,3.7,0.7,4.7-0.6c0.5-0.6,0.6-1.4,0.6-2.1c0.1-2.5-0.1-5.1-1.5-7.1c-1.6-2.3-4.5-3.4-7.3-3.6
		s-5.6,0.4-8.4,0.7c-2.8,0.3-5.7,0.4-8.6,0.3c-2.4-0.1-4.8-0.5-6.9-1.7c-1.1-0.7-2-1.6-3.1-2.3C546.1,21.1,543.6,30.1,543.3,34.5z"
		/>
	<path class="st1" d="M542.2,45.3c-4.4,3.3-5.3,9.6-1.9,14c1,1.3,2.3,2.3,3.7,3c2.8,1.3,6.1,1.3,9.2,0.8c3-0.5,5.9-1.3,8.9-2.1
		l25.9-7.4c1.5-0.4,3.2-1,3.9-2.4c0.5-1.1,0.2-2.3-0.2-3.4c-1.6-4-5.5-6.9-9.7-7.2c-1.6-0.1-3.2,0.1-4.8,0.3l-11.5,1.5
		c-1.6,0.2-3.1,0.4-4.7,0.3c-4.7-0.2-9.5-2.8-14-1.2c-3,1.1-5.1,3.8-6.8,6.5"/>
	<path class="st8" d="M546.4,44c0,0,8.4,5.3,36.5-1.2"/>
	<ellipse transform="matrix(0.9745 -0.2244 0.2244 0.9745 6.8927 123.8881)" class="st7" cx="548.5" cy="31.6" rx="1.8" ry="0.6"/>
	<ellipse transform="matrix(0.9745 -0.2244 0.2244 0.9745 6.8386 127.6418)" class="st7" cx="565" cy="33.7" rx="1.8" ry="0.6"/>
	<ellipse transform="matrix(0.9745 -0.2244 0.2244 0.9745 2.6151 123.852)" class="st7" cx="546.2" cy="50.4" rx="1.8" ry="0.6"/>
	<ellipse transform="matrix(0.9745 -0.2244 0.2244 0.9745 5.9122 125.4766)" class="st7" cx="555" cy="36.7" rx="1.8" ry="0.6"/>
	<ellipse transform="matrix(0.9745 -0.2244 0.2244 0.9745 1.9905 125.1708)" class="st7" cx="551.7" cy="53.8" rx="1.8" ry="0.6"/>
	<ellipse transform="matrix(0.9745 -0.2244 0.2244 0.9745 3.4808 127.5004)" class="st7" cx="562.7" cy="48.4" rx="1.8" ry="0.6"/>
	<ellipse transform="matrix(0.9745 -0.2244 0.2244 0.9745 1.6417 129.892)" class="st1" cx="572.3" cy="57.7" rx="2" ry="4.2"/>
	<ellipse transform="matrix(0.9745 -0.2244 0.2244 0.9745 1.4849 130.5257)" class="st1" cx="575" cy="58.7" rx="2" ry="4.2"/>
	<path class="st7" d="M580,98.5c0-0.1,0-2.1,1.4-5.4c1.4-3,4.3-7.7,10.6-12.9c11.9-9.9,12-23.5,12-23.6h0.4c0,0,0,3.5-1.5,8.1
		c-2,6.2-5.7,11.6-10.7,15.8c-11.9,9.9-11.9,17.9-11.9,18H580z"/>
	<ellipse class="st1" cx="603.9" cy="52.7" rx="2.5" ry="2.5"/>
	<ellipse class="st7" cx="606.1" cy="64.5" rx="2.5" ry="2.5"/>
	<ellipse class="st1" cx="598.4" cy="67.1" rx="2.5" ry="2.5"/>
	<ellipse class="st1" cx="601.5" cy="74.8" rx="2.5" ry="2.5"/>
	<ellipse class="st7" cx="590.3" cy="77.5" rx="2.5" ry="2.5"/>
	<path class="st7" d="M581.3,99.3c0,0,0.9-6.5,9.6-6.8L581.3,99.3z"/>
	<path class="st7" d="M578.7,97.7c0,0,2.3-6.2-5.3-10.5L578.7,97.7z"/>
</g>
</svg>
