<?xml version="1.0" encoding="utf-8"?>
<!-- Generator: Adobe Illustrator 22.0.0, SVG Export Plug-In . SVG Version: 6.00 Build 0)  -->
<svg version="1.1" id="Ebene_1" xmlns="http://www.w3.org/2000/svg" xmlns:xlink="http://www.w3.org/1999/xlink" x="0px" y="0px"
	 viewBox="0 0 750 120" style="enable-background:new 0 0 750 120;" xml:space="preserve">
<style type="text/css">
	.st0{fill:#FCE6B3;}
	.st1{fill:#F9CE64;}
	.st2{fill:#233033;}
	.st3{fill:#F8C143;}
	.st4{fill:#E1A61A;}
	.st5{fill:#E1A61A;stroke:#E1A61A;stroke-miterlimit:10;}
	.st6{fill:#FFFFFF;}
	.st7{opacity:0.1;fill:#233033;enable-background:new    ;}
</style>
<rect class="st0" width="750" height="120"/>
<circle class="st1" cx="323.3" cy="17.8" r="5.1"/>
<circle class="st2" cx="282.7" cy="56.3" r="3.1"/>
<circle class="st2" cx="38.3" cy="92.3" r="1.5"/>
<circle class="st2" cx="199.6" cy="17.5" r="1.5"/>
<circle class="st2" cx="608.8" cy="28.8" r="1.5"/>
<circle class="st2" cx="418.4" cy="54.2" r="1.5"/>
<circle class="st2" cx="295" cy="97.4" r="1.5"/>
<circle class="st2" cx="231" cy="54.6" r="1.5"/>
<circle class="st2" cx="105.6" cy="19.5" r="1.5"/>
<circle class="st2" cx="49" cy="24.1" r="1.5"/>
<circle class="st3" cx="20.6" cy="59.3" r="4.6"/>
<circle class="st2" cx="491.5" cy="14.4" r="3.1"/>
<circle class="st2" cx="629.6" cy="75.6" r="1.5"/>
<circle class="st2" cx="668.9" cy="64.4" r="1.5"/>
<circle class="st1" cx="246.2" cy="85.8" r="5.1"/>
<circle class="st2" cx="693.5" cy="35.4" r="3.1"/>
<circle class="st2" cx="391.7" cy="95.3" r="3.1"/>
<circle class="st1" cx="477.3" cy="56.8" r="5.1"/>
<circle class="st2" cx="337.6" cy="45.5" r="1.5"/>
<circle class="st2" cx="348" cy="88.4" r="1.5"/>
<circle class="st2" cx="428" cy="85.4" r="1.5"/>
<circle class="st2" cx="508" cy="35.4" r="1.5"/>
<circle class="st2" cx="524" cy="82.4" r="1.5"/>
<path class="st4" d="M698,87.8c-0.2,0-0.5-0.1-0.7-0.2l-1.6-1.2c-0.3-0.2-0.6-0.2-0.9,0l-1.6,1.2c-0.5,0.4-1.2,0.3-1.6-0.3
	c-0.2-0.3-0.3-0.7-0.2-1.1l0.6-2c0.1-0.3,0-0.7-0.3-0.9l-1.6-1.2c-0.5-0.4-0.6-1.1-0.2-1.7c0.2-0.3,0.6-0.5,0.9-0.5h2
	c0.3,0,0.6-0.2,0.7-0.6l0.6-2c0.2-0.6,0.8-1,1.4-0.8c0.3,0.1,0.6,0.4,0.7,0.8l0.6,2c0.1,0.3,0.4,0.6,0.7,0.6h2
	c0.6,0,1.1,0.5,1.1,1.2c0,0.4-0.2,0.7-0.5,1l-1.6,1.2c-0.3,0.2-0.4,0.6-0.3,0.9l0.6,2c0.2,0.5,0,1-0.4,1.3
	C698.5,87.8,698.2,87.8,698,87.8z"/>
<path class="st4" d="M434.2,27.8c-0.2,0-0.5-0.1-0.7-0.2l-1.6-1.2c-0.3-0.2-0.6-0.2-0.9,0l-1.6,1.2c-0.5,0.4-1.2,0.3-1.6-0.3
	c-0.2-0.3-0.3-0.7-0.2-1.1l0.6-2c0.1-0.3,0-0.7-0.3-0.9l-1.6-1.2c-0.5-0.4-0.6-1.1-0.2-1.7c0.2-0.3,0.6-0.5,0.9-0.5h2
	c0.3,0,0.6-0.2,0.7-0.6l0.6-2c0.2-0.6,0.8-1,1.4-0.8c0.3,0.1,0.6,0.4,0.7,0.8l0.6,2c0.1,0.3,0.4,0.6,0.7,0.6h2
	c0.6,0,1.1,0.5,1.1,1.2c0,0.4-0.2,0.7-0.5,1l-1.6,1.2c-0.3,0.2-0.4,0.6-0.3,0.9l0.6,2c0.2,0.5,0,1-0.4,1.3
	C434.6,27.8,434.4,27.8,434.2,27.8z"/>
<path class="st4" d="M240.3,37.8c-0.2,0-0.5-0.1-0.7-0.2l-1.6-1.2c-0.3-0.2-0.6-0.2-0.9,0l-1.6,1.2c-0.5,0.4-1.2,0.3-1.6-0.3
	c-0.2-0.3-0.3-0.7-0.2-1.1l0.6-2c0.1-0.3,0-0.7-0.3-0.9l-1.6-1.2c-0.5-0.4-0.6-1.1-0.2-1.7c0.2-0.3,0.6-0.5,0.9-0.5h2
	c0.3,0,0.6-0.2,0.7-0.6l0.6-2c0.2-0.6,0.8-1,1.4-0.8c0.3,0.1,0.6,0.4,0.7,0.8l0.6,2c0.1,0.3,0.4,0.6,0.7,0.6h2
	c0.6,0,1.1,0.5,1.1,1.2c0,0.4-0.2,0.7-0.5,1l-1.6,1.2c-0.3,0.2-0.4,0.6-0.3,0.9l0.6,2c0.2,0.5,0,1-0.4,1.3
	C240.8,37.8,240.6,37.8,240.3,37.8z"/>
<path class="st4" d="M466.5,97.8c-0.2,0-0.5-0.1-0.7-0.2l-1.6-1.2c-0.3-0.2-0.6-0.2-0.9,0l-1.6,1.2c-0.5,0.4-1.2,0.3-1.6-0.3
	c-0.2-0.3-0.3-0.7-0.2-1.1l0.6-2c0.1-0.3,0-0.7-0.3-0.9l-1.6-1.2c-0.5-0.4-0.6-1.1-0.2-1.7c0.2-0.3,0.6-0.5,0.9-0.5h2
	c0.3,0,0.6-0.2,0.7-0.6l0.6-2c0.2-0.6,0.8-1,1.4-0.8c0.3,0.1,0.6,0.4,0.7,0.8l0.6,2c0.1,0.3,0.4,0.6,0.7,0.6h2
	c0.6,0,1.1,0.5,1.1,1.2c0,0.4-0.2,0.7-0.5,1l-1.6,1.2c-0.3,0.2-0.4,0.6-0.3,0.9l0.6,2c0.2,0.5,0,1-0.4,1.3
	C467,97.8,466.7,97.8,466.5,97.8z"/>
<path class="st5" d="M377.3,58c-0.3,0-0.5-0.1-0.7-0.3c-0.4-0.3-0.6-0.9-0.4-1.5l0.6-2c0.1-0.3,0-0.6-0.2-0.8l-1.6-1.2
	c-0.6-0.4-0.7-1.2-0.3-1.8c0.2-0.3,0.6-0.5,1-0.5h2c0.3,0,0.5-0.2,0.6-0.5l0.6-2c0.2-0.7,0.9-1.1,1.6-0.8c0.4,0.1,0.7,0.4,0.8,0.8
	l0.6,2c0.1,0.3,0.3,0.5,0.6,0.5h2c0.7,0,1.2,0.6,1.2,1.3c0,0.4-0.2,0.8-0.5,1.1l-1.6,1.2c-0.2,0.2-0.3,0.5-0.2,0.8l0.6,2
	c0.2,0.7-0.1,1.4-0.8,1.7c-0.4,0.1-0.8,0.1-1.1-0.2l-1.6-1.2c-0.2-0.2-0.5-0.2-0.8,0l-1.6,1.2C377.8,57.9,377.5,58,377.3,58z
	 M380,55.7c0.3,0,0.5,0.1,0.7,0.3l1.6,1.2c0.3,0.2,0.7,0.2,0.9-0.2c0.1-0.2,0.2-0.4,0.1-0.6l-0.6-2c-0.2-0.5,0-1.1,0.4-1.5l1.6-1.2
	c0.3-0.2,0.4-0.7,0.1-1c-0.1-0.2-0.3-0.3-0.5-0.3h-2c-0.5,0-1-0.4-1.2-0.9l-0.6-2c-0.1-0.4-0.5-0.6-0.8-0.5
	c-0.2,0.1-0.4,0.2-0.4,0.5l-0.6,2c-0.2,0.5-0.6,0.9-1.2,0.9h-2c-0.4,0-0.7,0.3-0.7,0.7c0,0.2,0.1,0.4,0.3,0.6l1.6,1.2
	c0.4,0.3,0.6,0.9,0.4,1.5l-0.6,2c-0.1,0.4,0.1,0.8,0.4,0.9c0.2,0.1,0.4,0,0.6-0.1l1.6-1.2C379.4,55.8,379.7,55.7,380,55.7z"/>
<g>
	<path class="st4" d="M196.3,84.6H65.7c-1.2,0-2.2-1-2.2-2.2v-39c0-1.2,1-2.2,2.2-2.2h130.7c1.2,0,2.2,1,2.2,2.2v39.1
		C198.5,83.7,197.5,84.6,196.3,84.6z M65.7,41.9c-0.8,0-1.5,0.7-1.5,1.5v39.1c0,0.8,0.7,1.5,1.5,1.5h130.7c0.8,0,1.5-0.7,1.5-1.5
		V43.4c0-0.8-0.7-1.5-1.5-1.5H65.7z"/>
	<path class="st4" d="M122.8,101.1c-0.3,0-0.5-0.1-0.7-0.2l-1.7-1.2c-0.3-0.2-0.7-0.2-1,0l-1.7,1.2c-0.5,0.4-1.3,0.3-1.7-0.3
		c-0.2-0.3-0.3-0.7-0.2-1.1l0.7-2c0.1-0.3,0-0.7-0.3-0.9l-1.7-1.2c-0.5-0.4-0.7-1.2-0.3-1.7c0.2-0.3,0.6-0.5,1-0.5h2.1
		c0.4,0,0.7-0.2,0.8-0.6l0.7-2c0.2-0.6,0.9-1,1.5-0.8c0.4,0.1,0.7,0.4,0.8,0.8l0.7,2c0.1,0.3,0.4,0.6,0.8,0.6h2.1
		c0.7,0,1.2,0.5,1.2,1.2c0,0.4-0.2,0.8-0.5,1l-1.7,1.2c-0.3,0.2-0.4,0.6-0.3,0.9l0.7,2c0.2,0.5,0,1-0.4,1.4
		C123.3,101,123.1,101.1,122.8,101.1z"/>
	<path class="st4" d="M140.2,101.1c-0.3,0-0.5-0.1-0.7-0.2l-1.7-1.2c-0.3-0.2-0.7-0.2-1,0l-1.7,1.2c-0.5,0.4-1.3,0.3-1.7-0.3
		c-0.2-0.3-0.3-0.7-0.2-1.1l0.7-2c0.1-0.3,0-0.7-0.3-0.9l-1.7-1.2c-0.5-0.4-0.7-1.2-0.3-1.7c0.2-0.3,0.6-0.5,1-0.5h2.1
		c0.4,0,0.7-0.2,0.8-0.6l0.7-2c0.2-0.6,0.9-1,1.5-0.8c0.4,0.1,0.7,0.4,0.8,0.8l0.7,2c0.1,0.3,0.4,0.6,0.8,0.6h2.1
		c0.7,0,1.2,0.5,1.2,1.2c0,0.4-0.2,0.8-0.5,1l-1.7,1.2c-0.3,0.2-0.4,0.6-0.3,0.9l0.7,2c0.2,0.5,0,1-0.4,1.4
		C140.7,101,140.5,101.1,140.2,101.1z"/>
	<path class="st4" d="M157.6,101.1c-0.3,0-0.5-0.1-0.7-0.2l-1.7-1.2c-0.3-0.2-0.7-0.2-1,0l-1.7,1.2c-0.5,0.4-1.3,0.3-1.7-0.3
		c-0.2-0.3-0.3-0.7-0.2-1.1l0.7-2c0.1-0.3,0-0.7-0.3-0.9l-1.7-1.2c-0.5-0.4-0.7-1.2-0.3-1.7c0.2-0.3,0.6-0.5,1-0.5h2.1
		c0.4,0,0.7-0.2,0.8-0.6l0.7-2c0.2-0.6,0.9-1,1.5-0.8c0.4,0.1,0.7,0.4,0.8,0.8l0.7,2c0.1,0.3,0.4,0.6,0.8,0.6h2.1
		c0.7,0,1.2,0.5,1.2,1.2c0,0.4-0.2,0.8-0.5,1l-1.7,1.2c-0.3,0.2-0.4,0.6-0.3,0.9l0.7,2c0.2,0.5,0,1-0.4,1.4
		C158.1,101,157.9,101.1,157.6,101.1z"/>
	<path class="st5" d="M186.5,100.5c-0.3,0-0.6-0.1-0.8-0.3c-0.5-0.3-0.7-0.8-0.5-1.4l0.7-1.9c0.1-0.3,0-0.6-0.3-0.8l-1.7-1.1
		c-0.6-0.4-0.7-1.2-0.3-1.8c0.3-0.3,0.7-0.5,1.1-0.5h2.1c0.3,0,0.6-0.2,0.7-0.5l0.7-1.9c0.2-0.7,1-1,1.7-0.8
		c0.4,0.1,0.7,0.4,0.9,0.8l0.7,1.9c0.1,0.3,0.4,0.5,0.7,0.5h2.1c0.7,0,1.3,0.6,1.3,1.2c0,0.4-0.2,0.8-0.5,1l-1.7,1.1
		c-0.3,0.2-0.4,0.5-0.3,0.8l0.7,1.9c0.2,0.7-0.2,1.3-0.9,1.6c-0.4,0.1-0.8,0.1-1.2-0.2l-1.7-1.1c-0.3-0.2-0.6-0.2-0.8,0l-1.7,1.1
		C187.1,100.4,186.8,100.5,186.5,100.5z M189.4,98.4c0.3,0,0.6,0.1,0.8,0.3l1.7,1.1c0.3,0.2,0.8,0.2,1-0.2c0.1-0.2,0.2-0.4,0.1-0.6
		l-0.7-1.9c-0.2-0.5,0-1,0.5-1.4l1.7-1.1c0.3-0.2,0.4-0.7,0.2-0.9c-0.1-0.2-0.3-0.3-0.6-0.3H192c-0.6,0-1.1-0.4-1.3-0.8l-0.7-1.9
		c-0.1-0.4-0.5-0.6-0.9-0.5c-0.2,0.1-0.4,0.2-0.5,0.5l-0.7,1.9c-0.2,0.5-0.7,0.8-1.3,0.8h-2.1c-0.4,0-0.7,0.3-0.7,0.7
		c0,0.2,0.1,0.4,0.3,0.6l1.7,1.1c0.5,0.3,0.7,0.8,0.5,1.4l-0.7,1.9c-0.1,0.4,0.1,0.8,0.5,0.8c0.2,0.1,0.5,0,0.6-0.1l1.7-1.1
		C188.9,98.4,189.2,98.4,189.4,98.4z"/>
	<path class="st5" d="M168.8,101.1c-0.3,0-0.6-0.1-0.8-0.3c-0.5-0.3-0.7-0.9-0.4-1.5l0.8-2c0.1-0.3,0-0.6-0.3-0.8l-1.6-1.3
		c-0.6-0.4-0.6-1.3-0.2-1.9c0.3-0.3,0.7-0.5,1.1-0.5l2.1,0.1c0.3,0,0.6-0.2,0.7-0.5l0.8-2c0.2-0.7,1-1.1,1.7-0.8
		c0.4,0.1,0.7,0.4,0.9,0.9l0.6,2c0.1,0.3,0.4,0.5,0.7,0.5l2.1,0.1c0.7,0,1.3,0.7,1.2,1.4c0,0.4-0.2,0.8-0.5,1.1l-1.7,1.1
		c-0.3,0.2-0.4,0.5-0.3,0.8l0.6,2c0.2,0.7-0.3,1.4-1,1.7c-0.4,0.1-0.8,0.1-1.2-0.3l-1.6-1.3c-0.3-0.2-0.6-0.2-0.8,0l-1.7,1.1
		C169.3,101,169.1,101.1,168.8,101.1z M171.8,98.9c0.3,0,0.6,0.1,0.8,0.3l1.6,1.3c0.3,0.2,0.8,0.2,1-0.2c0.1-0.2,0.2-0.4,0.1-0.6
		l-0.6-2c-0.2-0.5,0-1.1,0.6-1.5l1.7-1.1c0.3-0.2,0.4-0.7,0.2-1c-0.1-0.2-0.3-0.3-0.6-0.3l-2.1-0.1c-0.6,0-1.1-0.4-1.3-1l-0.6-2
		c-0.1-0.4-0.5-0.6-0.9-0.5c-0.2,0.1-0.4,0.2-0.5,0.5l-0.8,2c-0.2,0.5-0.7,0.9-1.3,0.8l-2.1-0.1c-0.4,0-0.7,0.3-0.7,0.7
		c0,0.2,0.1,0.4,0.3,0.6l1.6,1.3c0.5,0.3,0.7,0.9,0.4,1.5l-0.8,2c-0.1,0.4,0.1,0.8,0.5,0.9c0.2,0.1,0.5,0,0.6-0.1l1.7-1.1
		C171.2,99,171.5,98.9,171.8,98.9z"/>
	<path class="st2" d="M80.4,50.5c-1.1,0-2,0.9-2,2s0.9,2,2,2h101.2c1.1,0,2-0.9,2-2s-0.9-2-2-2H80.4z"/>
	<path class="st2" d="M80.4,61c-1.1,0-2,0.9-2,2s0.9,2,2,2h101.2c1.1,0,2-0.9,2-2s-0.9-2-2-2H80.4z"/>
	<path class="st2" d="M80.4,71.4c-1.1,0-2,0.9-2,2s0.9,2,2,2h101.2c1.1,0,2-0.9,2-2s-0.9-2-2-2H80.4z"/>
	<path class="st6" d="M80.4,50.5c-1.1,0-2,0.9-2,2s0.9,2,2,2h101.2c1.1,0,2-0.9,2-2s-0.9-2-2-2H80.4z"/>
	<path class="st6" d="M80.4,61c-1.1,0-2,0.9-2,2s0.9,2,2,2h101.2c1.1,0,2-0.9,2-2s-0.9-2-2-2H80.4z"/>
	<path class="st6" d="M80.4,71.4c-1.1,0-2,0.9-2,2s0.9,2,2,2h101.2c1.1,0,2-0.9,2-2s-0.9-2-2-2H80.4z"/>
</g>
<g>
	<path class="st4" d="M588.4,49.8c0,0-0.4,4.3-1,10.5c-0.2,2-0.5,4.2-0.8,6.6c-0.4,3.3-0.9,6.8-1.4,10.2c-0.3,2.2-0.7,4.3-1,6.4
		c-1.9,11.3-4.5,21.3-7.5,22.2c-6.7,1.8-31.7-40.2-34.4-44.8c-0.2-0.3-0.2-0.4-0.2-0.4L588.4,49.8z"/>
	<path class="st7" d="M587.3,60.3c-0.2,2-0.5,4.2-0.8,6.6l-21.6-11.7l9-2.1L587.3,60.3z"/>
	<path class="st7" d="M585.2,77.1c-0.3,2.2-0.7,4.3-1,6.4l-41.9-22.6c-0.2-0.3-0.2-0.4-0.2-0.4l8.7-2L585.2,77.1z"/>
	<path class="st1" d="M556.7,14.8c-1.7,2.2-5.2,2.3-6.9,4.6c-1.1,1.6-1,3.7-0.2,5.4c0.8,1.7,2.2,3.1,3.6,4.4
		c0.9,0.9,1.9,1.8,3.1,2.4c1.6,0.8,3.5,0.9,5.4,1c4,0,8-0.3,11.9-1c1.7-0.3,3.7-0.9,4.6-2.4c0.5-0.9,0.5-2,0.5-3
		c0-1.6-0.3-3.3-1.2-4.6c-0.8-1.1-2-1.7-3.3-2.3c-3.8-1.7-8.1-2.9-10.9-6c-1.1-1.2-2-2.8-3.4-3.6c-1.9-1.1-5.5-0.9-7.1,0.5
		C553.3,10.7,557.8,13.5,556.7,14.8z"/>
	<path class="st1" d="M542.7,35.6c-0.1,2.3-0.2,4.8,0.9,6.9c1.4,2.8,4.4,4.3,7.5,4.8c3.1,0.4,6.1-0.2,9.2-0.7l15.8-3
		c2-0.4,4-0.8,6-0.5c1.7,0.2,3.7,0.7,4.7-0.6c0.5-0.6,0.6-1.4,0.6-2.1c0.1-2.5-0.1-5.1-1.5-7.1c-1.6-2.3-4.5-3.4-7.3-3.6
		s-5.6,0.4-8.4,0.7c-2.8,0.3-5.7,0.4-8.6,0.3c-2.4-0.1-4.8-0.5-6.9-1.7c-1.1-0.7-2-1.6-3.1-2.3C545.5,22.2,543,31.2,542.7,35.6z"/>
	<path class="st1" d="M541.6,46.4c-4.4,3.3-5.3,9.6-1.9,14c1,1.3,2.3,2.3,3.7,3c2.8,1.3,6.1,1.3,9.2,0.8c3-0.5,5.9-1.3,8.9-2.1
		l25.9-7.4c1.5-0.4,3.2-1,3.9-2.4c0.5-1.1,0.2-2.3-0.2-3.4c-1.6-4-5.5-6.9-9.7-7.2c-1.6-0.1-3.2,0.1-4.8,0.3l-11.5,1.5
		c-1.6,0.2-3.1,0.4-4.7,0.3c-4.7-0.2-9.5-2.8-14-1.2c-3,1.1-5.1,3.8-6.8,6.5"/>
	<path class="st7" d="M545.8,45.1c0,0,8.4,5.3,36.5-1.2"/>
	<ellipse transform="matrix(0.9745 -0.2244 0.2244 0.9745 6.6432 123.7775)" class="st4" cx="547.9" cy="32.7" rx="1.8" ry="0.6"/>
	<ellipse transform="matrix(0.9745 -0.2244 0.2244 0.9745 6.5802 127.5483)" class="st4" cx="564.4" cy="34.8" rx="1.8" ry="0.6"/>
	<ellipse transform="matrix(0.9745 -0.2244 0.2244 0.9745 2.3683 123.7419)" class="st4" cx="545.6" cy="51.5" rx="1.8" ry="0.6"/>
	<ellipse transform="matrix(0.9745 -0.2244 0.2244 0.9745 5.6629 125.3738)" class="st4" cx="554.4" cy="37.8" rx="1.8" ry="0.6"/>
	<ellipse transform="matrix(0.9745 -0.2244 0.2244 0.9745 1.7352 125.0701)" class="st4" cx="551.1" cy="54.9" rx="1.8" ry="0.6"/>
	<ellipse transform="matrix(0.9745 -0.2244 0.2244 0.9745 3.222 127.409)" class="st4" cx="562.1" cy="49.5" rx="1.8" ry="0.6"/>
	<ellipse transform="matrix(0.9745 -0.2244 0.2244 0.9745 1.3822 129.7874)" class="st1" cx="571.7" cy="58.8" rx="2" ry="4.2"/>
	<ellipse transform="matrix(0.9745 -0.2244 0.2244 0.9745 1.2361 130.4256)" class="st1" cx="574.4" cy="59.8" rx="2" ry="4.2"/>
	<path class="st4" d="M579.4,99.6c0-0.1,0-2.1,1.4-5.4c1.4-3,4.3-7.7,10.6-12.9c11.9-9.9,12-23.5,12-23.6h0.4c0,0,0,3.5-1.5,8.1
		c-2,6.2-5.7,11.6-10.7,15.8c-11.9,9.9-11.9,17.9-11.9,18H579.4z"/>
	<ellipse class="st1" cx="603.3" cy="53.8" rx="2.5" ry="2.5"/>
	<ellipse class="st4" cx="605.5" cy="65.6" rx="2.5" ry="2.5"/>
	<ellipse class="st1" cx="597.8" cy="68.2" rx="2.5" ry="2.5"/>
	<ellipse class="st1" cx="600.9" cy="75.9" rx="2.5" ry="2.5"/>
	<ellipse class="st4" cx="589.7" cy="78.6" rx="2.5" ry="2.5"/>
	<path class="st4" d="M580.7,100.4c0,0,0.9-6.5,9.6-6.8L580.7,100.4z"/>
	<path class="st4" d="M578.1,98.8c0,0,2.3-6.2-5.3-10.5L578.1,98.8z"/>
</g>
<path class="st5" d="M146,29.5c-0.3,0-0.5-0.1-0.7-0.3c-0.4-0.3-0.6-0.9-0.4-1.5l0.6-2c0.1-0.3,0-0.6-0.2-0.8l-1.6-1.2
	c-0.6-0.4-0.7-1.2-0.3-1.8c0.2-0.3,0.6-0.5,1-0.5h2c0.3,0,0.5-0.2,0.6-0.5l0.6-2c0.2-0.7,0.9-1.1,1.6-0.8c0.4,0.1,0.7,0.4,0.8,0.8
	l0.6,2c0.1,0.3,0.3,0.5,0.6,0.5h2c0.7,0,1.2,0.6,1.2,1.3c0,0.4-0.2,0.8-0.5,1.1l-1.6,1.2c-0.2,0.2-0.3,0.5-0.2,0.8l0.6,2
	c0.2,0.7-0.1,1.4-0.8,1.7c-0.4,0.1-0.8,0.1-1.1-0.2l-1.6-1.2c-0.2-0.2-0.5-0.2-0.8,0l-1.6,1.2C146.5,29.4,146.2,29.5,146,29.5z
	 M148.7,27.2c0.3,0,0.5,0.1,0.7,0.3l1.6,1.2c0.3,0.2,0.7,0.2,0.9-0.2c0.1-0.2,0.2-0.4,0.1-0.6l-0.6-2c-0.2-0.5,0-1.1,0.4-1.5
	l1.6-1.2c0.3-0.2,0.4-0.7,0.1-1c-0.1-0.2-0.3-0.3-0.5-0.3h-2c-0.5,0-1-0.4-1.2-0.9l-0.6-2c-0.1-0.4-0.5-0.6-0.8-0.5
	c-0.2,0.1-0.4,0.2-0.4,0.5l-0.6,2c-0.2,0.5-0.6,0.9-1.2,0.9h-2c-0.4,0-0.7,0.3-0.7,0.7c0,0.2,0.1,0.4,0.3,0.6l1.6,1.2
	c0.4,0.3,0.6,0.9,0.4,1.5l-0.6,2c-0.1,0.4,0.1,0.8,0.4,0.9c0.2,0.1,0.4,0,0.6-0.1l1.6-1.2C148.1,27.3,148.4,27.2,148.7,27.2z"/>
</svg>
