<?xml version="1.0" encoding="utf-8"?>
<!-- Generator: Adobe Illustrator 22.0.0, SVG Export Plug-In . SVG Version: 6.00 Build 0)  -->
<svg version="1.1" id="Ebene_1" xmlns="http://www.w3.org/2000/svg" xmlns:xlink="http://www.w3.org/1999/xlink" x="0px" y="0px"
	 viewBox="0 0 750 120" style="enable-background:new 0 0 750 120;" xml:space="preserve">
<style type="text/css">
	.st0{fill:#233033;}
	.st1{fill:#F9CE64;}
	.st2{fill:#F2F2F2;}
	.st3{fill:#F8C143;}
	.st4{fill:#E1A61A;}
	.st5{opacity:0.1;fill:#233033;enable-background:new    ;}
	.st6{fill:#4A4A4A;}
	.st7{opacity:0.2;fill:#FFFFFF;enable-background:new    ;}
	.st8{fill:#FFFFFF;}
	.st9{fill:#E09500;}
</style>
<rect class="st0" width="750" height="120"/>
<circle class="st1" cx="153.3" cy="17.8" r="5.1"/>
<circle class="st2" cx="222.7" cy="56.3" r="3.1"/>
<circle class="st2" cx="58.3" cy="92.3" r="1.5"/>
<circle class="st2" cx="199.6" cy="38.5" r="1.5"/>
<circle class="st2" cx="608.8" cy="28.8" r="1.5"/>
<circle class="st2" cx="267.4" cy="24.2" r="1.5"/>
<circle class="st2" cx="186" cy="106.4" r="1.5"/>
<circle class="st2" cx="211" cy="73.6" r="1.5"/>
<circle class="st2" cx="35.6" cy="82.5" r="1.5"/>
<circle class="st2" cx="49" cy="24.1" r="1.5"/>
<circle class="st3" cx="20.6" cy="59.3" r="4.6"/>
<circle class="st2" cx="441.5" cy="34.4" r="3.1"/>
<circle class="st2" cx="629.6" cy="75.6" r="1.5"/>
<circle class="st2" cx="668.9" cy="64.4" r="1.5"/>
<circle class="st1" cx="246.2" cy="85.8" r="5.1"/>
<circle class="st2" cx="693.5" cy="35.4" r="3.1"/>
<circle class="st2" cx="447.7" cy="85.3" r="3.1"/>
<circle class="st1" cx="477.3" cy="56.8" r="5.1"/>
<circle class="st2" cx="397.6" cy="55.5" r="1.5"/>
<circle class="st2" cx="418" cy="98.4" r="1.5"/>
<circle class="st2" cx="428" cy="85.4" r="1.5"/>
<circle class="st2" cx="508" cy="35.4" r="1.5"/>
<circle class="st2" cx="524" cy="82.4" r="1.5"/>
<g>
	<path class="st4" d="M592.4,53.4c0,0-0.4,4.3-1,10.5c-0.2,2-0.5,4.2-0.8,6.6c-0.4,3.3-0.9,6.7-1.4,10.2c-0.3,2.2-0.7,4.3-1,6.4
		c-1.9,11.3-4.5,21.3-7.5,22.2c-6.7,1.8-31.6-40.1-34.4-44.8c-0.2-0.3-0.2-0.4-0.2-0.4L592.4,53.4z"/>
	<path class="st5" d="M591.3,63.9c-0.2,2-0.5,4.2-0.8,6.6l-21.6-11.7l9-2.1L591.3,63.9z"/>
	<path class="st5" d="M589.1,80.7c-0.3,2.2-0.7,4.3-1,6.4l-41.8-22.6c-0.2-0.3-0.2-0.4-0.2-0.4l8.7-2L589.1,80.7z"/>
	<path class="st1" d="M560.8,18.4c-1.7,2.2-5.2,2.3-6.9,4.6c-1.1,1.5-1,3.7-0.2,5.4c0.8,1.7,2.2,3.1,3.6,4.4
		c0.9,0.9,1.9,1.8,3.1,2.4c1.6,0.8,3.5,0.9,5.4,1c4,0,8-0.3,11.9-1c1.7-0.3,3.7-0.9,4.6-2.4c0.5-0.9,0.5-2,0.5-3
		c0-1.6-0.3-3.3-1.2-4.6c-0.8-1.1-2-1.7-3.3-2.3c-3.8-1.7-8.1-2.9-10.9-6c-1.1-1.2-2-2.8-3.4-3.6c-1.9-1.1-5.5-0.9-7.1,0.5
		C557.3,14.3,561.8,17.1,560.8,18.4z"/>
	<path class="st1" d="M546.8,39.2c-0.1,2.3-0.2,4.8,0.9,6.9c1.4,2.7,4.4,4.3,7.5,4.8c3.1,0.4,6.1-0.2,9.1-0.7l15.8-3
		c2-0.4,4-0.8,6-0.5c1.7,0.2,3.7,0.7,4.7-0.6c0.5-0.6,0.6-1.4,0.6-2.1c0.1-2.5-0.1-5.1-1.5-7.1c-1.6-2.3-4.5-3.4-7.3-3.6
		c-2.8-0.2-5.6,0.4-8.4,0.7c-2.8,0.3-5.7,0.4-8.6,0.3c-2.4-0.1-4.8-0.5-6.9-1.7c-1.1-0.7-2-1.6-3.1-2.3
		C549.6,25.8,547,34.8,546.8,39.2z"/>
	<path class="st1" d="M545.6,50c-4.4,3.3-5.3,9.6-1.9,13.9c1,1.3,2.2,2.3,3.7,3c2.8,1.3,6.1,1.3,9.2,0.8c3-0.5,5.9-1.3,8.9-2.1
		l25.9-7.4c1.5-0.4,3.2-1,3.9-2.4c0.5-1.1,0.2-2.3-0.2-3.4c-1.5-3.9-5.5-6.9-9.7-7.2c-1.6-0.1-3.2,0.1-4.8,0.3L569.1,47
		c-1.5,0.2-3.1,0.4-4.6,0.3c-4.7-0.2-9.5-2.8-13.9-1.2c-3,1.1-5.1,3.8-6.8,6.5"/>
	<path class="st5" d="M556.2,29c0,0,5.2,5.8,24.6,4.1"/>
	<path class="st5" d="M549.8,48.7c0,0,8.4,5.3,36.5-1.2"/>
	<ellipse transform="matrix(0.9745 -0.2244 0.2244 0.9745 8.9587 126.4282)" class="st4" cx="560.7" cy="23.8" rx="1.8" ry="0.6"/>
	<ellipse transform="matrix(0.9745 -0.2244 0.2244 0.9745 8.5511 128.0426)" class="st4" cx="567.6" cy="26.4" rx="1.8" ry="0.6"/>
	<ellipse transform="matrix(0.9745 -0.2244 0.2244 0.9745 8.1666 129.8592)" class="st4" cx="575.4" cy="29" rx="1.8" ry="0.6"/>
	<ellipse transform="matrix(0.9745 -0.2244 0.2244 0.9745 5.9293 124.772)" class="st4" cx="551.9" cy="36.3" rx="1.8" ry="0.6"/>
	<ellipse transform="matrix(0.9745 -0.2244 0.2244 0.9745 5.8813 128.5508)" class="st4" cx="568.5" cy="38.4" rx="1.8" ry="0.6"/>
	<ellipse transform="matrix(0.9745 -0.2244 0.2244 0.9745 1.6744 124.7329)" class="st4" cx="549.6" cy="55" rx="1.8" ry="0.6"/>
	<ellipse transform="matrix(0.9745 -0.2244 0.2244 0.9745 4.9507 126.3607)" class="st4" cx="558.4" cy="41.4" rx="1.8" ry="0.6"/>
	<ellipse transform="matrix(0.9745 -0.2244 0.2244 0.9745 1.0293 126.0563)" class="st4" cx="555.1" cy="58.5" rx="1.8" ry="0.6"/>
	<ellipse transform="matrix(0.9745 -0.2244 0.2244 0.9745 2.524 128.4095)" class="st4" cx="566.2" cy="53.1" rx="1.8" ry="0.6"/>
	<ellipse transform="matrix(0.9745 -0.2244 0.2244 0.9745 0.6794 130.7784)" class="st1" cx="575.7" cy="62.4" rx="2" ry="4.1"/>
	<ellipse transform="matrix(0.9745 -0.2244 0.2244 0.9745 0.5464 131.4074)" class="st1" cx="578.4" cy="63.3" rx="2" ry="4.1"/>
	<path class="st4" d="M583.4,103.1c0-0.1,0-2.1,1.4-5.3c1.4-3,4.3-7.7,10.6-12.9c11.9-9.9,12-23.4,12-23.6h0.4c0,0,0,3.5-1.5,8.1
		c-2,6.2-5.7,11.6-10.7,15.7c-11.9,9.9-11.9,17.9-11.9,18C583.7,103.1,583.4,103.1,583.4,103.1z"/>
	<ellipse class="st1" cx="607.3" cy="57.4" rx="2.5" ry="2.5"/>
	<ellipse class="st4" cx="609.5" cy="69.1" rx="2.5" ry="2.5"/>
	<ellipse class="st1" cx="601.8" cy="71.8" rx="2.5" ry="2.5"/>
	<ellipse class="st1" cx="604.9" cy="79.4" rx="2.5" ry="2.5"/>
	<ellipse class="st4" cx="593.7" cy="82.2" rx="2.5" ry="2.5"/>
	<path class="st4" d="M584.6,104c0,0,0.9-6.5,9.6-6.8L584.6,104z"/>
	<path class="st4" d="M582.1,102.3c0,0,2.2-6.2-5.3-10.5L582.1,102.3z"/>
</g>
<path class="st4" d="M222.8,20.7c-0.2,0-0.4-0.1-0.5-0.1l-1.2-0.9c-0.2-0.1-0.5-0.1-0.7,0l-1.2,0.9c-0.4,0.3-0.9,0.2-1.2-0.2
	c-0.1-0.2-0.2-0.5-0.1-0.8l0.5-1.4c0.1-0.2,0-0.5-0.2-0.6l-1.2-0.9c-0.4-0.3-0.5-0.9-0.2-1.2c0.1-0.2,0.4-0.4,0.7-0.4h1.5
	c0.3,0,0.5-0.1,0.6-0.4l0.5-1.4c0.1-0.4,0.6-0.7,1.1-0.6c0.3,0.1,0.5,0.3,0.6,0.6l0.5,1.4c0.1,0.2,0.3,0.4,0.6,0.4h1.5
	c0.5,0,0.9,0.4,0.9,0.9c0,0.3-0.1,0.6-0.4,0.7l-1.2,0.9c-0.2,0.1-0.3,0.4-0.2,0.6l0.5,1.4c0.1,0.4,0,0.7-0.3,1
	C223.2,20.7,223,20.7,222.8,20.7z"/>
<path class="st4" d="M42.9,108.4c-0.2,0-0.4-0.1-0.5-0.1l-1.2-0.9c-0.2-0.1-0.5-0.1-0.7,0l-1.2,0.9c-0.4,0.3-0.9,0.2-1.2-0.2
	c-0.1-0.2-0.2-0.5-0.1-0.8l0.5-1.4c0.1-0.2,0-0.5-0.2-0.6l-1.2-0.9c-0.4-0.3-0.5-0.9-0.2-1.2c0.1-0.2,0.4-0.4,0.7-0.4H39
	c0.3,0,0.5-0.1,0.6-0.4l0.5-1.4c0.1-0.4,0.6-0.7,1.1-0.6c0.3,0.1,0.5,0.3,0.6,0.6l0.5,1.4c0.1,0.2,0.3,0.4,0.6,0.4h1.5
	c0.5,0,0.9,0.4,0.9,0.9c0,0.3-0.1,0.6-0.4,0.7l-1.2,0.9c-0.2,0.1-0.3,0.4-0.2,0.6l0.5,1.4c0.1,0.4,0,0.7-0.3,1
	C43.3,108.3,43.1,108.4,42.9,108.4z"/>
<path class="st4" d="M479.7,24.7c-0.2,0-0.4-0.1-0.5-0.1l-1.2-0.9c-0.2-0.1-0.5-0.1-0.7,0l-1.2,0.9c-0.4,0.3-0.9,0.2-1.2-0.2
	c-0.1-0.2-0.2-0.5-0.1-0.8l0.5-1.4c0.1-0.2,0-0.5-0.2-0.6l-1.2-0.9c-0.4-0.3-0.5-0.9-0.2-1.2c0.1-0.2,0.4-0.4,0.7-0.4h1.5
	c0.3,0,0.5-0.1,0.6-0.4l0.5-1.4c0.1-0.4,0.6-0.7,1.1-0.6c0.3,0.1,0.5,0.3,0.6,0.6l0.5,1.4c0.1,0.2,0.3,0.4,0.6,0.4h1.5
	c0.5,0,0.9,0.4,0.9,0.9c0,0.3-0.1,0.6-0.4,0.7l-1.2,0.9c-0.2,0.1-0.3,0.4-0.2,0.6l0.5,1.4c0.1,0.4,0,0.7-0.3,1
	C480.1,24.6,479.9,24.7,479.7,24.7z"/>
<path class="st1" d="M214.4,95c-0.2,0-0.4-0.1-0.6-0.2c-0.4-0.2-0.5-0.6-0.4-1.1l0.5-1.4c0.1-0.2,0-0.4-0.2-0.6l-1.2-0.9
	c-0.4-0.3-0.5-0.9-0.2-1.4c0.2-0.2,0.5-0.4,0.8-0.4h1.5c0.2,0,0.4-0.1,0.5-0.4l0.5-1.4c0.1-0.5,0.7-0.8,1.2-0.6
	c0.3,0.1,0.5,0.3,0.6,0.6l0.5,1.4c0.1,0.2,0.3,0.4,0.5,0.4h1.5c0.5,0,0.9,0.4,0.9,0.9c0,0.3-0.1,0.6-0.4,0.8l-1.2,0.9
	c-0.2,0.1-0.3,0.4-0.2,0.6l0.5,1.4c0.1,0.5-0.1,1-0.6,1.2c-0.3,0.1-0.6,0.1-0.9-0.1l-1.2-0.9c-0.2-0.1-0.4-0.1-0.6,0l-1.2,0.9
	C214.8,95,214.6,95,214.4,95z M216.5,93.5c0.2,0,0.4,0.1,0.6,0.2l1.2,0.9c0.2,0.1,0.6,0.1,0.7-0.1c0.1-0.1,0.1-0.3,0.1-0.4l-0.5-1.4
	c-0.1-0.4,0-0.8,0.4-1.1l1.2-0.9c0.2-0.1,0.3-0.5,0.1-0.7c-0.1-0.1-0.2-0.2-0.4-0.2h-1.5c-0.4,0-0.8-0.3-0.9-0.6l-0.5-1.4
	c-0.1-0.3-0.4-0.4-0.6-0.4c-0.1,0.1-0.3,0.1-0.4,0.4l-0.5,1.4c-0.1,0.4-0.5,0.6-0.9,0.6H213c-0.3,0-0.5,0.2-0.5,0.5
	c0,0.1,0.1,0.3,0.2,0.4l1.2,0.9c0.4,0.2,0.5,0.6,0.4,1.1l-0.5,1.4c-0.1,0.3,0.1,0.6,0.4,0.6c0.1,0.1,0.4,0,0.4-0.1l1.2-0.9
	C216.1,93.5,216.3,93.5,216.5,93.5z"/>
<path class="st1" d="M414.3,72.2c-0.2,0-0.4-0.1-0.6-0.2c-0.4-0.2-0.5-0.6-0.4-1.1l0.5-1.4c0.1-0.2,0-0.4-0.2-0.6l-1.2-0.9
	c-0.4-0.3-0.5-0.9-0.2-1.4c0.2-0.2,0.5-0.4,0.8-0.4h1.5c0.2,0,0.4-0.1,0.5-0.4l0.5-1.4c0.1-0.5,0.7-0.8,1.2-0.6
	c0.3,0.1,0.5,0.3,0.6,0.6l0.5,1.4c0.1,0.2,0.3,0.4,0.5,0.4h1.5c0.5,0,0.9,0.4,0.9,0.9c0,0.3-0.1,0.6-0.4,0.8l-1.2,0.9
	c-0.2,0.1-0.3,0.4-0.2,0.6l0.5,1.4c0.1,0.5-0.1,1-0.6,1.2c-0.3,0.1-0.6,0.1-0.9-0.1l-1.2-0.9c-0.2-0.1-0.4-0.1-0.6,0l-1.1,1
	C414.7,72.1,414.5,72.2,414.3,72.2z M416.4,70.5c0.2,0,0.4,0.1,0.6,0.2l1.2,0.9c0.2,0.1,0.6,0.1,0.7-0.1c0.1-0.1,0.1-0.3,0.1-0.4
	l-0.5-1.4c-0.1-0.4,0-0.8,0.4-1.1l1.2-0.9c0.2-0.1,0.3-0.5,0.1-0.7c-0.1-0.1-0.2-0.2-0.4-0.2h-1.5c-0.4,0-0.8-0.3-0.9-0.6l-0.5-1.4
	c-0.1-0.3-0.4-0.4-0.6-0.4c-0.1,0.1-0.3,0.1-0.4,0.4l-0.5,1.4c-0.1,0.4-0.5,0.6-0.9,0.6H413c-0.3,0-0.5,0.2-0.5,0.5
	c0,0.1,0.1,0.3,0.2,0.4l1.2,0.9c0.4,0.2,0.5,0.6,0.4,1.1l-0.5,1.4c-0.1,0.3,0.1,0.6,0.4,0.6c0.1,0.1,0.4,0,0.4-0.1l1.2-0.9
	C416,70.6,416.2,70.5,416.4,70.5z"/>
<path class="st4" d="M491.6,106.3c-0.2,0-0.4-0.1-0.5-0.1l-1.2-0.9c-0.2-0.1-0.5-0.1-0.7,0l-1.2,0.9c-0.4,0.3-0.9,0.2-1.2-0.2
	c-0.1-0.2-0.2-0.5-0.1-0.8l0.5-1.4c0.1-0.2,0-0.5-0.2-0.6l-1.2-0.9c-0.4-0.3-0.5-0.9-0.2-1.2c0.1-0.2,0.4-0.4,0.7-0.4h1.5
	c0.3,0,0.5-0.1,0.6-0.4l0.5-1.4c0.1-0.4,0.6-0.7,1.1-0.6c0.3,0.1,0.5,0.3,0.6,0.6l0.5,1.4c0.1,0.2,0.3,0.4,0.6,0.4h1.5
	c0.5,0,0.9,0.4,0.9,0.9c0,0.3-0.1,0.6-0.4,0.7l-1.2,0.9c-0.2,0.1-0.3,0.4-0.2,0.6l0.5,1.4c0.1,0.4,0,0.7-0.3,1
	C491.9,106.2,491.8,106.3,491.6,106.3z"/>
<path class="st4" d="M644.2,43.1c-0.2,0-0.4-0.1-0.5-0.1l-1.2-0.9c-0.2-0.1-0.5-0.1-0.7,0l-1.2,0.9c-0.4,0.3-0.9,0.2-1.2-0.2
	c-0.1-0.2-0.2-0.5-0.1-0.8l0.5-1.4c0.1-0.2,0-0.5-0.2-0.6l-1.2-0.9c-0.4-0.3-0.5-0.9-0.2-1.2c0.1-0.2,0.4-0.4,0.7-0.4h1.5
	c0.3,0,0.5-0.1,0.6-0.4l0.5-1.4c0.1-0.4,0.6-0.7,1.1-0.6c0.3,0.1,0.5,0.3,0.6,0.6l0.5,1.4c0.1,0.2,0.3,0.4,0.6,0.4h1.5
	c0.5,0,0.9,0.4,0.9,0.9c0,0.3-0.1,0.6-0.4,0.7l-1.2,0.9c-0.2,0.1-0.3,0.4-0.2,0.6l0.5,1.4c0.1,0.4,0,0.7-0.3,1
	C644.6,43.1,644.5,43.1,644.2,43.1z"/>
<path class="st1" d="M713.9,102.4c-0.2,0-0.4-0.1-0.6-0.2c-0.4-0.2-0.5-0.6-0.4-1.1l0.5-1.4c0.1-0.2,0-0.4-0.2-0.6l-1.2-0.9
	c-0.4-0.3-0.5-0.9-0.2-1.4c0.2-0.2,0.5-0.4,0.8-0.4h1.5c0.2,0,0.4-0.1,0.5-0.4l0.5-1.4c0.1-0.5,0.7-0.8,1.2-0.6
	c0.3,0.1,0.5,0.3,0.6,0.6l0.5,1.4c0.1,0.2,0.3,0.4,0.5,0.4h1.5c0.5,0,0.9,0.4,0.9,0.9c0,0.3-0.1,0.6-0.4,0.8l-1.2,0.9
	c-0.2,0.1-0.3,0.4-0.2,0.6l0.5,1.4c0.1,0.5-0.1,1-0.6,1.2c-0.3,0.1-0.6,0.1-0.9-0.1l-1.2-0.9c-0.2-0.1-0.4-0.1-0.6,0l-1.2,0.9
	C714.3,102.3,714.1,102.4,713.9,102.4z M716,100.8c0.2,0,0.4,0.1,0.6,0.2l1.2,0.9c0.2,0.1,0.6,0.1,0.7-0.1c0.1-0.1,0.1-0.3,0.1-0.4
	l-0.5-1.4c-0.1-0.4,0-0.8,0.4-1.1l1.2-0.9c0.2-0.1,0.3-0.5,0.1-0.7c-0.1-0.1-0.2-0.2-0.4-0.2h-1.5c-0.4,0-0.8-0.3-0.9-0.6l-0.5-1.4
	c-0.1-0.3-0.4-0.4-0.6-0.4c-0.1,0.1-0.3,0.1-0.4,0.4l-0.5,1.4c-0.1,0.4-0.5,0.6-0.9,0.6h-1.5c-0.3,0-0.5,0.2-0.5,0.5
	c0,0.1,0.1,0.3,0.2,0.4l1.2,0.9c0.4,0.2,0.5,0.6,0.4,1.1l-0.5,1.4c-0.1,0.3,0.1,0.6,0.4,0.6c0.1,0.1,0.4,0,0.4-0.1l1.2-0.9
	C715.6,100.8,715.8,100.8,716,100.8z"/>
<g>
	<circle class="st3" cx="381.6" cy="22.4" r="13.2"/>
	<path class="st6" d="M349.1,83.9c-0.2,1.9-0.4,3.8-0.6,5.6h5.3c0.2-1.9,0.4-3.7,0.7-5.6H349.1z"/>
	<path class="st6" d="M353.5,103.7c-0.1-1.9-0.2-3.7-0.1-5.6H348c-0.1,2.1-0.1,4-0.1,5.6H353.5z"/>
	<path class="st6" d="M362.6,54.1c4.4-11.8,8.7-19.7,8.7-19.7l-4.5-2.7c-4.7,7.1-8.2,14.7-10.9,22.4L362.6,54.1z"/>
	<path class="st6" d="M348.4,91c-0.2,2-0.3,3.9-0.4,5.6h5.3c0.1-1.9,0.2-3.7,0.3-5.6H348.4z"/>
	<path class="st6" d="M350.2,76.8c-0.3,1.9-0.6,3.8-0.9,5.6h5.5c0.3-1.9,0.7-3.7,1.1-5.6H350.2z"/>
	<path class="st6" d="M355.4,55.6c-0.6,1.9-1.2,3.7-1.7,5.6h6.4c0.6-1.9,1.3-3.8,1.9-5.6H355.4z"/>
	<path class="st6" d="M351.5,69.8c-0.4,1.9-0.8,3.8-1.1,5.6h5.8c0.4-1.9,0.9-3.8,1.4-5.6H351.5z"/>
	<path class="st6" d="M347.8,105.1c0,2.4,0.1,3.8,0.1,3.8l-0.1,1.1h6.3c-0.3-1.6-0.4-3.2-0.6-4.9H347.8z"/>
	<path class="st6" d="M353.3,62.7c-0.5,1.9-1,3.7-1.4,5.6h6.1c0.5-1.9,1.1-3.8,1.7-5.6H353.3z"/>
	<path class="st4" d="M398.3,39.6c-2.2-4.7-4.5-8.2-6.7-10.7l-1.1,1.8l0.1-2.9c-0.8-0.8-1.6-1.5-2.4-2.2l-1.6,2.4l0.1-3.4
		c-0.9-0.6-1.9-1.1-3-1.5l-1.2,1.8l0.1-2.1c-4-1-7.3,0.4-9.2,1.5l-1.1-0.2l2-0.8c-0.2-1.1-0.5-2.2-0.9-3.2l-3.4-0.5l2.6-1.1
		c-0.5-1-1.1-1.9-1.7-2.8l-2.9-0.4l1.9-0.8c-2.1-2.6-5.2-5.5-9.3-8.5c0,0-0.3,2.7-0.5,6.5l2.8,2.9l-2.9-0.8c0,1.2,0,2.4,0,3.6
		l2.1,2.1l-2.1-0.5c0,1,0.1,1.9,0.1,2.9c-1.8-0.4-3.6-0.4-5.4,0l0.1,2.1l-1.2-1.8c-1,0.4-2,0.9-3,1.5l0.1,3.4l-1.6-2.4
		c-0.9,0.7-1.7,1.4-2.4,2.2l0.1,2.9l-1.1-1.8c-2.2,2.6-4.4,6.1-6.7,10.7c0,0,2.7-0.2,6.5-0.7l2.3-3.3l-0.2,3
		c1.1-0.2,2.3-0.4,3.6-0.6l1.7-2.4l-0.2,2.1c1.7-0.4,3.4-0.8,5-1.3l1.2,1.1l-2.1-0.4c-0.5,1-0.8,2.1-1.1,3.1l2.5,2.3l-2.8-0.6
		c-0.1,1.1-0.2,2.2-0.1,3.3l2.1,2l-2.1-0.4c0.3,3.4,1.2,7.4,2.9,12.3c0,0,1.8-2.1,4.1-5.1l-0.7-4l2,2.3c0.7-0.9,1.4-1.9,2.1-3
		l-0.5-2.9l1.4,1.6c1.4-2.2,2.7-4.5,3.7-6.7c1.2,1.6,2.6,3.2,4,4.7l1.1-1.8v3c0.9,0.9,1.8,1.7,2.6,2.5l1.5-2.6l0.1,4.1
		c2.8,2.5,4.9,4.2,4.9,4.2c0.8-5.1,0.9-9.3,0.5-12.6l-1.9,0.8l1.7-2.4c-0.2-1.1-0.4-2.1-0.7-3.2l-2.6,1.1l1.3-1.7
		c0.5,0.1,1.1,0.3,1.6,0.4l-0.2-2.1l1.7,2.4c1.2,0.2,2.4,0.4,3.6,0.6l-0.2-3l2.3,3.3C395.5,39.4,398.3,39.6,398.3,39.6z"/>
	<path class="st6" d="M339.7,80.5c0.2,1.4,0.3,2.7,0.4,3.9h-3.7c-0.1-1.3-0.3-2.6-0.5-3.9H339.7z"/>
	<path class="st6" d="M336.7,94.4c0.1-1.3,0.1-2.6,0.1-3.9h3.8c0.1,1.5,0.1,2.8,0.1,3.9H336.7z"/>
	<path class="st6" d="M330.2,59.5c-3.1-8.3-6.2-13.9-6.2-13.9l3.2-1.9c3.3,5,5.8,10.4,7.7,15.8C334.9,59.5,330.2,59.5,330.2,59.5z"
		/>
	<path class="st6" d="M340.2,85.5c0.1,1.4,0.2,2.7,0.3,3.9h-3.8c0-1.3-0.1-2.6-0.2-3.9H340.2z"/>
	<path class="st6" d="M339,75.5c0.2,1.4,0.4,2.7,0.6,3.9h-3.9c-0.2-1.3-0.5-2.6-0.8-3.9H339z"/>
	<path class="st6" d="M335.3,60.5c0.4,1.3,0.9,2.6,1.2,3.9H332c-0.4-1.4-0.9-2.7-1.4-3.9H335.3z"/>
	<path class="st6" d="M338,70.5c0.3,1.3,0.6,2.7,0.8,3.9h-4.1c-0.3-1.3-0.6-2.7-1-3.9H338z"/>
	<path class="st6" d="M340.6,95.5c0,1.7-0.1,2.7-0.1,2.7V99h-4.4c0.2-1.1,0.3-2.3,0.4-3.4L340.6,95.5z"/>
	<path class="st6" d="M336.8,65.5c0.4,1.3,0.7,2.6,1,3.9h-4.3c-0.4-1.3-0.8-2.7-1.2-3.9H336.8z"/>
	<path class="st4" d="M305,49.2c1.6-3.3,3.2-5.8,4.7-7.6l0.8,1.2l-0.1-2.1c0.5-0.6,1.1-1.1,1.7-1.6l1.1,1.7l-0.1-2.4
		c0.7-0.4,1.4-0.8,2.1-1l0.8,1.3v-1.5c2.8-0.7,5.1,0.3,6.5,1.1l0.8-0.1l-1.4-0.6c0.1-0.8,0.3-1.5,0.6-2.2l2.4-0.4l-1.9-0.8
		c0.4-0.7,0.8-1.3,1.2-2l2-0.3l-1.4-0.6c1.5-1.8,3.6-3.9,6.6-6c0,0,0.2,1.9,0.3,4.6l-2,2l2.1-0.5c0,0.8,0,1.7,0,2.6l-1.5,1.5
		l1.5-0.4c0,0.7-0.1,1.3-0.1,2c1.3-0.3,2.6-0.3,3.8,0v1.5l0.8-1.3c0.7,0.3,1.4,0.6,2.1,1l-0.1,2.4l1.1-1.7c0.6,0.5,1.2,1,1.7,1.6
		l-0.1,2.1l0.8-1.2c1.5,1.8,3.1,4.3,4.7,7.6c0,0-1.9-0.1-4.6-0.5l-1.7-2.3l0.2,2.1c-0.8-0.1-1.7-0.3-2.5-0.4l-1.2-1.7l0.1,1.5
		c-1.2-0.3-2.4-0.6-3.6-0.9l-0.8,0.8l1.5-0.3c0.3,0.7,0.6,1.5,0.7,2.2l-1.8,1.7l2-0.4c0.1,0.8,0.1,1.5,0.1,2.3l-1.5,1.4l1.4-0.3
		c-0.2,2.4-0.8,5.2-2,8.7c0,0-1.3-1.5-2.9-3.6l0.5-2.8l-1.4,1.6c-0.5-0.7-1-1.4-1.5-2.1l0.4-2.1l-1,1.1c-1-1.5-1.9-3.1-2.6-4.7
		c-0.9,1.2-1.8,2.3-2.8,3.3l-0.8-1.3v2.1c-0.6,0.6-1.2,1.2-1.8,1.8l-0.8-1.9v2.9c-2,1.8-3.5,3-3.5,3c-0.6-3.6-0.6-6.5-0.4-8.9
		l1.4,0.6l-1.2-1.7c0.1-0.8,0.3-1.5,0.5-2.3l1.9,0.8l-0.9-1.2c-0.4,0.1-0.8,0.2-1.1,0.3l0.1-1.5l-1.2,1.7c-0.9,0.2-1.7,0.3-2.5,0.4
		l0.2-2.1l-1.7,2.3C307,49.1,305,49.2,305,49.2z"/>
	<ellipse class="st6" cx="295.8" cy="110.4" rx="21.4" ry="2"/>
	<ellipse class="st6" cx="347.3" cy="110.4" rx="21.4" ry="2"/>
	<path class="st4" d="M363.5,89.7c0,0,1.5,10.7-5.9,17.1c-4.8,4.1-11.6,4.8-17.3,1.9c-2.1-1.1-4.3-2.7-6.4-5.2
		c-0.8-0.9-1.5-1.9-2.2-2.9c-1-1.5-1.8-3.1-2.6-4.7c-0.5-1-0.9-2.1-1.3-3.3c-0.1-0.2-0.2-0.4-0.2-0.7c-3.8-11.4,3.6-14.8,10.5-15.6
		c1.4-0.2,2.9-0.2,4.3-0.2c1.7,0,3.4,0.1,5.1,0.4c0,0,0.1,0,0.4,0c1.3,0.1,2.6,0.2,3.9,0.4C357.2,77.9,365.3,80.8,363.5,89.7z"/>
	<path class="st4" d="M316.3,92.6c-3.4,9.3-8.3,13.8-12.5,16c-5.6,2.9-12.5,2.2-17.3-1.9c-0.5-0.4-0.9-0.8-1.3-1.3
		c-0.8-0.9-1.6-1.9-2.2-3c-0.8-1.4-1.4-2.8-1.8-4.4c-0.4-1.7-0.7-3.4-0.7-5.1c-0.1-1.1,0-2.2,0.1-3.3c-1.7-8.4,5.3-11.4,10.6-12.5
		c1.5-0.3,3.1-0.5,4.6-0.6c0.5,0,0.7,0,0.7,0c2.8-0.4,5.6-0.5,8.3-0.2C312.2,76.9,320.9,80,316.3,92.6z"/>
	<path class="st7" d="M295.8,76.5l-14.6,21.6c-0.4-1.7-0.7-3.4-0.7-5.1l10.7-15.9C292.7,76.8,294.3,76.6,295.8,76.5z"/>
	<path class="st7" d="M304.9,76.3l-19.7,29.2c-0.8-0.9-1.6-1.9-2.2-3l17.8-26.3C302.2,76.1,303.5,76.2,304.9,76.3z"/>
	<path class="st7" d="M342.5,76.2l-13.3,19.7c-0.5-1-0.9-2.1-1.3-3.3c-0.1-0.2-0.2-0.4-0.2-0.7l10.5-15.5
		C339.6,76.2,341,76.1,342.5,76.2z"/>
	<path class="st7" d="M351.9,77L334,103.5c-0.8-0.9-1.5-1.9-2.2-2.9l16.2-24C349.3,76.6,350.6,76.7,351.9,77z"/>
	<path class="st6" d="M367,88.7h-3.3c1.5-12-16.1-12.2-16.1-12.2c-2.8-0.4-5.6-0.5-8.4-0.2l0,0h-34.4l0,0c-2.8-0.2-5.5-0.1-8.3,0.3
		c0,0-17.6,0.1-16.1,12.2h-3.2V92h3.2c0,3.5,0.7,10.3,6,14.9c4.8,4.1,11.6,4.8,17.3,1.9c4.3-2.2,9.2-6.8,12.5-16
		c1.2-3.2,1.5-5.8,1.2-7.9c3.1-0.2,6.2-0.2,9.3,0c-0.3,2.1,0,4.7,1.2,7.9c3.4,9.3,8.3,13.8,12.5,16c5.6,2.9,12.5,2.2,17.3-1.9
		c5.3-4.6,6-11.4,6-14.9h3.3V88.7z M314.7,92.7c-3.2,8.8-7.9,13-11.9,14.9c-4.9,2.3-10.7,1.7-15-1.7c-5.1-4.1-5.8-10.5-5.7-13.7
		c0-1.3,0-2.6-0.1-3.9c-0.4-10.1,14.8-10.2,14.8-10.2S321.5,74.2,314.7,92.7L314.7,92.7z M326.8,84c-3.2-0.2-6.4-0.2-9.5,0
		c-0.8-3.6-3.5-5.6-6.7-6.6h22.8C330.3,78.5,327.6,80.5,326.8,84z M362.3,88.2c-0.1,1.3-0.1,2.6-0.1,3.9c0,3.3-0.7,9.7-5.8,13.9
		c-4.2,3.5-10.1,4.1-15.1,1.8c-4.1-1.9-8.8-6.1-12.1-15C322.4,74.1,347.3,78,347.3,78S362.7,78,362.3,88.2z"/>
	<path class="st6" d="M299.4,109.2c0,0-0.4-0.7-0.5-2c-0.1-1.2,0-3.3,1-6.2c2-5.5-0.5-9.9-0.5-10l0.1-0.1c0.5,0.9,0.8,1.9,1,2.9
		c0.5,2.4,0.3,4.9-0.5,7.1c-2,5.5-0.5,8.1-0.5,8.1L299.4,109.2z"/>
	<circle class="st6" cx="298.6" cy="89.8" r="0.9"/>
	<circle class="st6" cx="301.5" cy="93.3" r="0.9"/>
	<circle class="st8" cx="299.5" cy="95.5" r="0.9"/>
	<circle class="st8" cx="301.9" cy="97.5" r="0.9"/>
	<circle class="st6" cx="298.8" cy="100.5" r="0.9"/>
	<path class="st6" d="M299.9,109.3c0,0-0.9-2.3,1.9-4L299.9,109.3z"/>
	<path class="st6" d="M298.8,109.2c0,0-0.4-2.4-3.7-2.4L298.8,109.2z"/>
	<path class="st8" d="M289.9,55.4c0,0.3-0.2,0.6-0.4,0.8l0,0H274l0.1-0.2c0,0,1.1-3.3,6.2-2.7c0.5-0.2,5.1-1.7,7.9,0
		C289.3,54,289.9,54.7,289.9,55.4z"/>
	<path class="st8" d="M318.6,66.5c0,0.3-0.2,0.6-0.4,0.8l0,0h-15.5l0.1-0.2c0,0,1.1-3.3,6.2-2.7c0.5-0.2,5.1-1.7,7.9,0
		C318,65.2,318.6,65.9,318.6,66.5z"/>
	<path class="st8" d="M325.2,21.6c0,0.3-0.2,0.6-0.4,0.8l0,0h-15.5l0.1-0.2c0,0,1.1-3.3,6.2-2.7c0.5-0.2,5.1-1.7,7.9,0
		C324.5,20.3,325.2,21,325.2,21.6z"/>
</g>
<path class="st4" d="M91.2,28c-2.3-6.8-9.2-10.5-13.8-9c-4.6,1.5-7.9,8.7-5.6,15.5c2.1,6.3,8.4,9.9,12.8,9.2c0,0.1-0.1,0.1-0.1,0.2
	L84.3,45c0,0.3,0.2,0.5,0.4,0.6c0.1,0,0.2,0,0.2,0l2.2-0.8c0.3-0.1,0.4-0.4,0.3-0.6c0-0.1-0.1-0.1-0.1-0.2l-0.8-0.8
	c0,0-0.1,0-0.1-0.1C90.3,41,93.2,34.2,91.2,28z"/>
<path class="st8" d="M83,23c3.9,2,5.5,6.7,3.7,10.7c-0.2,0.4,0.5,0.7,0.7,0.2c1.9-4.3,0.1-9.4-4-11.6C83,22.2,82.5,22.8,83,23z"/>
<path class="st9" d="M182.6,40.1c-2.3-6.8-9.2-10.5-13.8-9c-4.6,1.5-7.9,8.7-5.6,15.5c2.1,6.3,8.4,9.9,12.8,9.2
	c0,0.1-0.1,0.1-0.1,0.2l-0.1,1.1c0,0.3,0.2,0.5,0.4,0.6c0.1,0,0.2,0,0.2,0l2.2-0.8c0.3-0.1,0.4-0.4,0.3-0.6c0-0.1-0.1-0.1-0.1-0.2
	l-0.8-0.8c0,0-0.1,0-0.1-0.1C181.8,53.1,184.7,46.4,182.6,40.1z"/>
<path class="st8" d="M174.5,35.2c3.9,2,5.5,6.7,3.7,10.7c-0.2,0.4,0.5,0.7,0.7,0.2c1.9-4.3,0.1-9.4-4-11.6
	C174.4,34.3,174,34.9,174.5,35.2z"/>
<path class="st4" d="M129.5,15.3c-2.3-6.8-9.2-10.5-13.8-9c-4.6,1.5-7.9,8.7-5.6,15.5c2.1,6.3,8.4,9.9,12.8,9.2
	c0,0.1-0.1,0.1-0.1,0.2l-0.1,1.1c0,0.3,0.2,0.5,0.4,0.6c0.1,0,0.2,0,0.2,0l2.2-0.8c0.3-0.1,0.4-0.4,0.3-0.6c0-0.1-0.1-0.1-0.1-0.2
	l-0.8-0.8c0,0-0.1,0-0.1-0.1C128.7,28.2,131.6,21.5,129.5,15.3z"/>
<path class="st8" d="M121.3,10.3c3.9,2,5.5,6.7,3.7,10.7c-0.2,0.4,0.5,0.7,0.7,0.2c1.9-4.3,0.1-9.4-4-11.6
	C121.3,9.4,120.9,10.1,121.3,10.3z"/>
<circle class="st8" cx="118.2" cy="51.2" r="0.5"/>
<circle class="st8" cx="127" cy="92.3" r="1.1"/>
<circle class="st8" cx="79.2" cy="78.7" r="0.6"/>
<circle class="st8" cx="99.8" cy="81.1" r="0.7"/>
<circle class="st8" cx="151.3" cy="97.6" r="0.5"/>
<circle class="st8" cx="83.7" cy="106" r="1.1"/>
<circle class="st8" cx="113.8" cy="72.5" r="0.6"/>
<circle class="st8" cx="139.8" cy="85.6" r="0.7"/>
<path class="st4" d="M177.3,61.2c-0.3-9.1-6.5-16.2-13.9-16c-16.4,0.5-16.8,30.5-1,32.7l-0.3,2.7l4.9-0.2l-0.5-2.6
	C172.8,76.4,177.5,69.4,177.3,61.2z"/>
<path class="st8" d="M155.3,66.2l-1.8,0.1c-0.7-3.4-0.8-7-0.3-10.5l1.8-0.1C154.2,59.4,154.3,62.9,155.3,66.2z"/>
<rect x="161.7" y="77.8" transform="matrix(0.9995 -3.235869e-02 3.235869e-02 0.9995 -2.4516 5.3633)" class="st6" width="5.5" height="1.2"/>
<path class="st1" d="M188.6,68.8c3.3-8.4,0.5-17.5-6.3-20.2c-15.2-6.1-27.6,21.3-13.9,29.6l-1.4,2.3l4.5,1.8l0.6-2.6
	C178.5,81,185.6,76.5,188.6,68.8z"/>
<path class="st8" d="M166.4,64.7l-1.7-0.7c0.7-3.4,2-6.7,3.9-9.7l1.7,0.7C168.2,58,166.9,61.3,166.4,64.7z"/>
<rect x="169.4" y="76.8" transform="matrix(0.3693 -0.9293 0.9293 0.3693 33.2924 208.1548)" class="st6" width="1.2" height="5.5"/>
<path class="st1" d="M84.6,39.8c-3.6-8.3-12-12.7-18.8-9.7c-15,6.5-4.3,34.6,11.2,30.7l0.7,2.6l4.5-2l-1.4-2.3
	C86.1,55.5,87.9,47.3,84.6,39.8z"/>
<path class="st8" d="M66,52.6l-1.7,0.7c-1.9-2.9-3.4-6.2-4.2-9.6l1.7-0.7C62.5,46.6,63.9,49.8,66,52.6z"/>
<rect x="76.3" y="59.9" transform="matrix(0.9167 -0.3995 0.3995 0.9167 -17.5903 36.6439)" class="st6" width="5.5" height="1.2"/>
</svg>
