<?xml version="1.0" encoding="utf-8"?>
<!-- Generator: Adobe Illustrator 22.0.0, SVG Export Plug-In . SVG Version: 6.00 Build 0)  -->
<svg version="1.1" id="Ebene_1" xmlns="http://www.w3.org/2000/svg" xmlns:xlink="http://www.w3.org/1999/xlink" x="0px" y="0px"
	 viewBox="0 0 750 120" style="enable-background:new 0 0 750 120;" xml:space="preserve">
<style type="text/css">
	.st0{fill:#233033;}
	.st1{fill:#F9CE64;}
	.st2{fill:#F2F2F2;}
	.st3{fill:#F8C143;}
	.st4{fill:#E1A61A;}
	.st5{opacity:0.1;fill:#233033;enable-background:new    ;}
</style>
<rect class="st0" width="750" height="120"/>
<circle class="st1" cx="323.3" cy="17.8" r="5.1"/>
<circle class="st2" cx="282.7" cy="56.3" r="3.1"/>
<circle class="st2" cx="38.3" cy="92.3" r="1.5"/>
<circle class="st2" cx="199.6" cy="17.5" r="1.5"/>
<circle class="st2" cx="608.8" cy="28.8" r="1.5"/>
<circle class="st2" cx="418.4" cy="54.2" r="1.5"/>
<circle class="st2" cx="295" cy="97.4" r="1.5"/>
<circle class="st2" cx="231" cy="54.6" r="1.5"/>
<circle class="st2" cx="105.6" cy="19.5" r="1.5"/>
<circle class="st2" cx="49" cy="24.1" r="1.5"/>
<circle class="st3" cx="20.6" cy="59.3" r="4.6"/>
<circle class="st2" cx="491.5" cy="14.4" r="3.1"/>
<circle class="st2" cx="629.6" cy="75.6" r="1.5"/>
<circle class="st2" cx="668.9" cy="64.4" r="1.5"/>
<circle class="st1" cx="246.2" cy="85.8" r="5.1"/>
<circle class="st2" cx="693.5" cy="35.4" r="3.1"/>
<circle class="st2" cx="391.7" cy="95.3" r="3.1"/>
<circle class="st1" cx="477.3" cy="56.8" r="5.1"/>
<circle class="st2" cx="337.6" cy="45.5" r="1.5"/>
<circle class="st2" cx="348" cy="88.4" r="1.5"/>
<circle class="st2" cx="428" cy="85.4" r="1.5"/>
<circle class="st2" cx="508" cy="35.4" r="1.5"/>
<circle class="st2" cx="524" cy="82.4" r="1.5"/>
<g>
	<path class="st4" d="M592.4,53.4c0,0-0.4,4.3-1,10.5c-0.2,2-0.5,4.2-0.8,6.6c-0.4,3.3-0.9,6.7-1.4,10.2c-0.3,2.2-0.7,4.3-1,6.4
		c-1.9,11.3-4.5,21.3-7.5,22.2c-6.7,1.8-31.6-40.1-34.4-44.8c-0.2-0.3-0.2-0.4-0.2-0.4L592.4,53.4z"/>
	<path class="st5" d="M591.3,63.9c-0.2,2-0.5,4.2-0.8,6.6l-21.6-11.7l9-2.1L591.3,63.9z"/>
	<path class="st5" d="M589.1,80.7c-0.3,2.2-0.7,4.3-1,6.4l-41.8-22.6c-0.2-0.3-0.2-0.4-0.2-0.4l8.7-2L589.1,80.7z"/>
	<path class="st1" d="M560.8,18.4c-1.7,2.2-5.2,2.3-6.9,4.6c-1.1,1.5-1,3.7-0.2,5.4c0.8,1.7,2.2,3.1,3.6,4.4
		c0.9,0.9,1.9,1.8,3.1,2.4c1.6,0.8,3.5,0.9,5.4,1c4,0,8-0.3,11.9-1c1.7-0.3,3.7-0.9,4.6-2.4c0.5-0.9,0.5-2,0.5-3
		c0-1.6-0.3-3.3-1.2-4.6c-0.8-1.1-2-1.7-3.3-2.3c-3.8-1.7-8.1-2.9-10.9-6c-1.1-1.2-2-2.8-3.4-3.6c-1.9-1.1-5.5-0.9-7.1,0.5
		C557.3,14.3,561.8,17.1,560.8,18.4z"/>
	<path class="st1" d="M546.8,39.2c-0.1,2.3-0.2,4.8,0.9,6.9c1.4,2.7,4.4,4.3,7.5,4.8c3.1,0.4,6.1-0.2,9.1-0.7l15.8-3
		c2-0.4,4-0.8,6-0.5c1.7,0.2,3.7,0.7,4.7-0.6c0.5-0.6,0.6-1.4,0.6-2.1c0.1-2.5-0.1-5.1-1.5-7.1c-1.6-2.3-4.5-3.4-7.3-3.6
		c-2.8-0.2-5.6,0.4-8.4,0.7c-2.8,0.3-5.7,0.4-8.6,0.3c-2.4-0.1-4.8-0.5-6.9-1.7c-1.1-0.7-2-1.6-3.1-2.3
		C549.6,25.8,547,34.8,546.8,39.2z"/>
	<path class="st1" d="M545.6,50c-4.4,3.3-5.3,9.6-1.9,13.9c1,1.3,2.2,2.3,3.7,3c2.8,1.3,6.1,1.3,9.2,0.8c3-0.5,5.9-1.3,8.9-2.1
		l25.9-7.4c1.5-0.4,3.2-1,3.9-2.4c0.5-1.1,0.2-2.3-0.2-3.4c-1.5-3.9-5.5-6.9-9.7-7.2c-1.6-0.1-3.2,0.1-4.8,0.3L569.1,47
		c-1.5,0.2-3.1,0.4-4.6,0.3c-4.7-0.2-9.5-2.8-13.9-1.2c-3,1.1-5.1,3.8-6.8,6.5"/>
	<path class="st5" d="M556.2,29c0,0,5.2,5.8,24.6,4.1"/>
	<path class="st5" d="M549.8,48.7c0,0,8.4,5.3,36.5-1.2"/>
	<ellipse transform="matrix(0.9745 -0.2244 0.2244 0.9745 8.9593 126.4281)" class="st4" cx="560.7" cy="23.8" rx="1.8" ry="0.6"/>
	<ellipse transform="matrix(0.9745 -0.2244 0.2244 0.9745 8.5509 128.0434)" class="st4" cx="567.6" cy="26.4" rx="1.8" ry="0.6"/>
	<ellipse transform="matrix(0.9745 -0.2244 0.2244 0.9745 8.1662 129.8596)" class="st4" cx="575.4" cy="29" rx="1.8" ry="0.6"/>
	<ellipse transform="matrix(0.9745 -0.2244 0.2244 0.9745 5.9288 124.7721)" class="st4" cx="551.9" cy="36.3" rx="1.8" ry="0.6"/>
	<ellipse transform="matrix(0.9745 -0.2244 0.2244 0.9745 5.8818 128.5511)" class="st4" cx="568.5" cy="38.4" rx="1.8" ry="0.6"/>
	<ellipse transform="matrix(0.9745 -0.2244 0.2244 0.9745 1.6746 124.7325)" class="st4" cx="549.6" cy="55" rx="1.8" ry="0.6"/>
	<ellipse transform="matrix(0.9745 -0.2244 0.2244 0.9745 4.9501 126.3605)" class="st4" cx="558.4" cy="41.4" rx="1.8" ry="0.6"/>
	<ellipse transform="matrix(0.9745 -0.2244 0.2244 0.9745 1.0288 126.056)" class="st4" cx="555.1" cy="58.5" rx="1.8" ry="0.6"/>
	<ellipse transform="matrix(0.9745 -0.2244 0.2244 0.9745 2.5243 128.4098)" class="st4" cx="566.2" cy="53.1" rx="1.8" ry="0.6"/>
	<ellipse transform="matrix(0.9745 -0.2244 0.2244 0.9745 0.6792 130.7785)" class="st1" cx="575.7" cy="62.4" rx="2" ry="4.1"/>
	<ellipse transform="matrix(0.9745 -0.2244 0.2244 0.9745 0.5467 131.4068)" class="st1" cx="578.4" cy="63.3" rx="2" ry="4.1"/>
	<path class="st4" d="M583.4,103.1c0-0.1,0-2.1,1.4-5.3c1.4-3,4.3-7.7,10.6-12.9c11.9-9.9,12-23.4,12-23.6h0.4c0,0,0,3.5-1.5,8.1
		c-2,6.2-5.7,11.6-10.7,15.7c-11.9,9.9-11.9,17.9-11.9,18C583.7,103.1,583.4,103.1,583.4,103.1z"/>
	<ellipse class="st1" cx="607.3" cy="57.4" rx="2.5" ry="2.5"/>
	<ellipse class="st4" cx="609.5" cy="69.1" rx="2.5" ry="2.5"/>
	<ellipse class="st1" cx="601.8" cy="71.8" rx="2.5" ry="2.5"/>
	<ellipse class="st1" cx="604.9" cy="79.4" rx="2.5" ry="2.5"/>
	<ellipse class="st4" cx="593.7" cy="82.2" rx="2.5" ry="2.5"/>
	<path class="st4" d="M584.6,104c0,0,0.9-6.5,9.6-6.8L584.6,104z"/>
	<path class="st4" d="M582.1,102.3c0,0,2.2-6.2-5.3-10.5L582.1,102.3z"/>
</g>
<path class="st4" d="M698,87.8c-0.2,0-0.5-0.1-0.7-0.2l-1.6-1.2c-0.3-0.2-0.6-0.2-0.9,0l-1.6,1.2c-0.5,0.4-1.2,0.3-1.6-0.3
	c-0.2-0.3-0.3-0.7-0.2-1.1l0.6-2c0.1-0.3,0-0.7-0.3-0.9l-1.6-1.2c-0.5-0.4-0.6-1.1-0.2-1.7c0.2-0.3,0.6-0.5,0.9-0.5h2
	c0.3,0,0.6-0.2,0.7-0.6l0.6-2c0.2-0.6,0.8-1,1.4-0.8c0.3,0.1,0.6,0.4,0.7,0.8l0.6,2c0.1,0.3,0.4,0.6,0.7,0.6h2
	c0.6,0,1.1,0.5,1.1,1.2c0,0.4-0.2,0.7-0.5,1l-1.6,1.2c-0.3,0.2-0.4,0.6-0.3,0.9l0.6,2c0.2,0.5,0,1-0.4,1.3
	C698.5,87.8,698.2,87.8,698,87.8z"/>
<path class="st4" d="M434.2,27.8c-0.2,0-0.5-0.1-0.7-0.2l-1.6-1.2c-0.3-0.2-0.6-0.2-0.9,0l-1.6,1.2c-0.5,0.4-1.2,0.3-1.6-0.3
	c-0.2-0.3-0.3-0.7-0.2-1.1l0.6-2c0.1-0.3,0-0.7-0.3-0.9l-1.6-1.2c-0.5-0.4-0.6-1.1-0.2-1.7c0.2-0.3,0.6-0.5,0.9-0.5h2
	c0.3,0,0.6-0.2,0.7-0.6l0.6-2c0.2-0.6,0.8-1,1.4-0.8c0.3,0.1,0.6,0.4,0.7,0.8l0.6,2c0.1,0.3,0.4,0.6,0.7,0.6h2
	c0.6,0,1.1,0.5,1.1,1.2c0,0.4-0.2,0.7-0.5,1l-1.6,1.2c-0.3,0.2-0.4,0.6-0.3,0.9l0.6,2c0.2,0.5,0,1-0.4,1.3
	C434.6,27.8,434.4,27.8,434.2,27.8z"/>
<path class="st4" d="M240.3,37.8c-0.2,0-0.5-0.1-0.7-0.2l-1.6-1.2c-0.3-0.2-0.6-0.2-0.9,0l-1.6,1.2c-0.5,0.4-1.2,0.3-1.6-0.3
	c-0.2-0.3-0.3-0.7-0.2-1.1l0.6-2c0.1-0.3,0-0.7-0.3-0.9l-1.6-1.2c-0.5-0.4-0.6-1.1-0.2-1.7c0.2-0.3,0.6-0.5,0.9-0.5h2
	c0.3,0,0.6-0.2,0.7-0.6l0.6-2c0.2-0.6,0.8-1,1.4-0.8c0.3,0.1,0.6,0.4,0.7,0.8l0.6,2c0.1,0.3,0.4,0.6,0.7,0.6h2
	c0.6,0,1.1,0.5,1.1,1.2c0,0.4-0.2,0.7-0.5,1l-1.6,1.2c-0.3,0.2-0.4,0.6-0.3,0.9l0.6,2c0.2,0.5,0,1-0.4,1.3
	C240.8,37.8,240.6,37.8,240.3,37.8z"/>
<path class="st4" d="M466.5,97.8c-0.2,0-0.5-0.1-0.7-0.2l-1.6-1.2c-0.3-0.2-0.6-0.2-0.9,0l-1.6,1.2c-0.5,0.4-1.2,0.3-1.6-0.3
	c-0.2-0.3-0.3-0.7-0.2-1.1l0.6-2c0.1-0.3,0-0.7-0.3-0.9l-1.6-1.2c-0.5-0.4-0.6-1.1-0.2-1.7c0.2-0.3,0.6-0.5,0.9-0.5h2
	c0.3,0,0.6-0.2,0.7-0.6l0.6-2c0.2-0.6,0.8-1,1.4-0.8c0.3,0.1,0.6,0.4,0.7,0.8l0.6,2c0.1,0.3,0.4,0.6,0.7,0.6h2
	c0.6,0,1.1,0.5,1.1,1.2c0,0.4-0.2,0.7-0.5,1l-1.6,1.2c-0.3,0.2-0.4,0.6-0.3,0.9l0.6,2c0.2,0.5,0,1-0.4,1.3
	C467,97.8,466.7,97.8,466.5,97.8z"/>
<path class="st1" d="M377.3,58c-0.3,0-0.5-0.1-0.7-0.3c-0.4-0.3-0.6-0.9-0.4-1.5l0.6-2c0.1-0.3,0-0.6-0.2-0.8l-1.6-1.2
	c-0.6-0.4-0.7-1.2-0.3-1.8c0.2-0.3,0.6-0.5,1-0.5h2c0.3,0,0.5-0.2,0.6-0.5l0.6-2c0.2-0.7,0.9-1.1,1.6-0.8c0.4,0.1,0.7,0.4,0.8,0.8
	l0.6,2c0.1,0.3,0.3,0.5,0.6,0.5h2c0.7,0,1.2,0.6,1.2,1.3c0,0.4-0.2,0.8-0.5,1.1l-1.6,1.2c-0.2,0.2-0.3,0.5-0.2,0.8l0.6,2
	c0.2,0.7-0.1,1.4-0.8,1.7c-0.4,0.1-0.8,0.1-1.1-0.2l-1.6-1.2c-0.2-0.2-0.5-0.2-0.8,0l-1.6,1.2C377.8,57.9,377.5,58,377.3,58z
	 M380,55.7c0.3,0,0.5,0.1,0.7,0.3l1.6,1.2c0.3,0.2,0.7,0.2,0.9-0.2c0.1-0.2,0.2-0.4,0.1-0.6l-0.6-2c-0.2-0.5,0-1.1,0.4-1.5l1.6-1.2
	c0.3-0.2,0.4-0.7,0.1-1c-0.1-0.2-0.3-0.3-0.5-0.3h-2c-0.5,0-1-0.4-1.2-0.9l-0.6-2c-0.1-0.4-0.5-0.6-0.8-0.5
	c-0.2,0.1-0.4,0.2-0.4,0.5l-0.6,2c-0.2,0.5-0.6,0.9-1.2,0.9h-2c-0.4,0-0.7,0.3-0.7,0.7c0,0.2,0.1,0.4,0.3,0.6l1.6,1.2
	c0.4,0.3,0.6,0.9,0.4,1.5l-0.6,2c-0.1,0.4,0.1,0.8,0.4,0.9c0.2,0.1,0.4,0,0.6-0.1l1.6-1.2C379.4,55.8,379.7,55.7,380,55.7z"/>
<g>
	<path class="st1" d="M196.3,84.6H65.7c-1.2,0-2.2-1-2.2-2.2V43.4c0-1.2,1-2.2,2.2-2.2h130.7c1.2,0,2.2,1,2.2,2.2v39.1
		C198.5,83.7,197.5,84.6,196.3,84.6z M65.7,41.9c-0.8,0-1.5,0.7-1.5,1.5v39.1c0,0.8,0.7,1.5,1.5,1.5h130.7c0.8,0,1.5-0.7,1.5-1.5
		V43.4c0-0.8-0.7-1.5-1.5-1.5H65.7z"/>
	<path class="st4" d="M122.8,101.1c-0.3,0-0.5-0.1-0.7-0.2l-1.7-1.2c-0.3-0.2-0.7-0.2-1,0l-1.7,1.2c-0.5,0.4-1.3,0.3-1.7-0.3
		c-0.2-0.3-0.3-0.7-0.2-1.1l0.7-2c0.1-0.3,0-0.7-0.3-0.9l-1.7-1.2c-0.5-0.4-0.7-1.2-0.3-1.7c0.2-0.3,0.6-0.5,1-0.5h2.1
		c0.4,0,0.7-0.2,0.8-0.6l0.7-2c0.2-0.6,0.9-1,1.5-0.8c0.4,0.1,0.7,0.4,0.8,0.8l0.7,2c0.1,0.3,0.4,0.6,0.8,0.6h2.1
		c0.7,0,1.2,0.5,1.2,1.2c0,0.4-0.2,0.8-0.5,1l-1.7,1.2c-0.3,0.2-0.4,0.6-0.3,0.9l0.7,2c0.2,0.5,0,1-0.4,1.4
		C123.3,101,123.1,101.1,122.8,101.1z"/>
	<path class="st4" d="M140.2,101.1c-0.3,0-0.5-0.1-0.7-0.2l-1.7-1.2c-0.3-0.2-0.7-0.2-1,0l-1.7,1.2c-0.5,0.4-1.3,0.3-1.7-0.3
		c-0.2-0.3-0.3-0.7-0.2-1.1l0.7-2c0.1-0.3,0-0.7-0.3-0.9l-1.7-1.2c-0.5-0.4-0.7-1.2-0.3-1.7c0.2-0.3,0.6-0.5,1-0.5h2.1
		c0.4,0,0.7-0.2,0.8-0.6l0.7-2c0.2-0.6,0.9-1,1.5-0.8c0.4,0.1,0.7,0.4,0.8,0.8l0.7,2c0.1,0.3,0.4,0.6,0.8,0.6h2.1
		c0.7,0,1.2,0.5,1.2,1.2c0,0.4-0.2,0.8-0.5,1l-1.7,1.2c-0.3,0.2-0.4,0.6-0.3,0.9l0.7,2c0.2,0.5,0,1-0.4,1.4
		C140.7,101,140.5,101.1,140.2,101.1z"/>
	<path class="st4" d="M157.6,101.1c-0.3,0-0.5-0.1-0.7-0.2l-1.7-1.2c-0.3-0.2-0.7-0.2-1,0l-1.7,1.2c-0.5,0.4-1.3,0.3-1.7-0.3
		c-0.2-0.3-0.3-0.7-0.2-1.1l0.7-2c0.1-0.3,0-0.7-0.3-0.9l-1.7-1.2c-0.5-0.4-0.7-1.2-0.3-1.7c0.2-0.3,0.6-0.5,1-0.5h2.1
		c0.4,0,0.7-0.2,0.8-0.6l0.7-2c0.2-0.6,0.9-1,1.5-0.8c0.4,0.1,0.7,0.4,0.8,0.8l0.7,2c0.1,0.3,0.4,0.6,0.8,0.6h2.1
		c0.7,0,1.2,0.5,1.2,1.2c0,0.4-0.2,0.8-0.5,1l-1.7,1.2c-0.3,0.2-0.4,0.6-0.3,0.9l0.7,2c0.2,0.5,0,1-0.4,1.4
		C158.1,101,157.9,101.1,157.6,101.1z"/>
	<path class="st1" d="M186.5,101.2c-0.3,0-0.6-0.1-0.8-0.3c-0.5-0.3-0.7-0.9-0.5-1.5l0.7-2c0.1-0.3,0-0.6-0.3-0.8l-1.7-1.2
		c-0.6-0.4-0.7-1.3-0.3-1.9c0.3-0.3,0.7-0.5,1.1-0.5h2.1c0.3,0,0.6-0.2,0.7-0.5l0.7-2c0.2-0.7,1-1.1,1.7-0.9
		c0.4,0.1,0.7,0.4,0.9,0.9l0.7,2c0.1,0.3,0.4,0.5,0.7,0.5h2.1c0.7,0,1.3,0.6,1.3,1.3c0,0.4-0.2,0.8-0.5,1.1l-1.7,1.2
		c-0.3,0.2-0.4,0.5-0.3,0.8l0.7,2c0.2,0.7-0.2,1.4-0.9,1.7c-0.4,0.1-0.8,0.1-1.2-0.2l-1.7-1.2c-0.3-0.2-0.6-0.2-0.8,0l-1.7,1.2
		C187.1,101.1,186.8,101.2,186.5,101.2z M189.4,99c0.3,0,0.6,0.1,0.8,0.3l1.7,1.2c0.3,0.2,0.8,0.2,1-0.2c0.1-0.2,0.2-0.4,0.1-0.6
		l-0.7-2c-0.2-0.5,0-1.1,0.5-1.5l1.7-1.2c0.3-0.2,0.4-0.7,0.2-1c-0.1-0.2-0.3-0.3-0.6-0.3H192c-0.6,0-1.1-0.4-1.3-0.9l-0.7-2
		c-0.1-0.4-0.5-0.6-0.9-0.5c-0.2,0.1-0.4,0.2-0.5,0.5l-0.7,2c-0.2,0.5-0.7,0.9-1.3,0.9h-2.1c-0.4,0-0.7,0.3-0.7,0.7
		c0,0.2,0.1,0.4,0.3,0.6l1.7,1.2c0.5,0.3,0.7,0.9,0.5,1.5l-0.7,2c-0.1,0.4,0.1,0.8,0.5,0.9c0.2,0.1,0.5,0,0.6-0.1l1.7-1.2
		C188.9,99,189.2,99,189.4,99z"/>
	<path class="st1" d="M169,101.2c-0.3,0-0.6-0.1-0.8-0.3c-0.5-0.3-0.7-0.9-0.5-1.5l0.7-2c0.1-0.3,0-0.6-0.3-0.8l-1.7-1.2
		c-0.6-0.4-0.7-1.3-0.3-1.9c0.3-0.3,0.7-0.5,1.1-0.5h2.1c0.3,0,0.6-0.2,0.7-0.5l0.7-2c0.2-0.7,1-1.1,1.7-0.9
		c0.4,0.1,0.7,0.4,0.9,0.9l0.7,2c0.1,0.3,0.4,0.5,0.7,0.5h2.1c0.7,0,1.3,0.6,1.3,1.3c0,0.4-0.2,0.8-0.5,1.1l-1.7,1.2
		c-0.3,0.2-0.4,0.5-0.3,0.8l0.7,2c0.2,0.7-0.2,1.4-0.9,1.7c-0.4,0.1-0.8,0.1-1.2-0.2l-1.7-1.2c-0.3-0.2-0.6-0.2-0.8,0l-1.7,1.2
		C169.5,101.1,169.3,101.2,169,101.2z M171.9,98.9c0.3,0,0.6,0.1,0.8,0.3l1.7,1.2c0.3,0.2,0.8,0.2,1-0.2c0.1-0.2,0.2-0.4,0.1-0.6
		l-0.7-2c-0.2-0.5,0-1.1,0.5-1.5l1.7-1.2c0.3-0.2,0.4-0.7,0.2-1c-0.1-0.2-0.3-0.3-0.6-0.3h-2.1c-0.6,0-1.1-0.4-1.3-0.9l-0.7-2
		c-0.1-0.4-0.5-0.6-0.9-0.5c-0.2,0.1-0.4,0.2-0.5,0.5l-0.7,2c-0.2,0.5-0.7,0.9-1.3,0.9h-2.1c-0.4,0-0.7,0.3-0.7,0.7
		c0,0.2,0.1,0.4,0.3,0.6l1.7,1.2c0.5,0.3,0.7,0.9,0.5,1.5l-0.7,2c-0.1,0.4,0.1,0.8,0.5,0.9c0.2,0.1,0.5,0,0.6-0.1l1.7-1.2
		C171.4,99,171.6,98.9,171.9,98.9z"/>
	<path class="st2" d="M80.4,50.5c-1.1,0-2,0.9-2,2c0,1.1,0.9,2,2,2h101.2c1.1,0,2-0.9,2-2c0-1.1-0.9-2-2-2H80.4z"/>
	<path class="st2" d="M80.4,61c-1.1,0-2,0.9-2,2s0.9,2,2,2h101.2c1.1,0,2-0.9,2-2s-0.9-2-2-2H80.4z"/>
	<path class="st2" d="M80.4,71.4c-1.1,0-2,0.9-2,2s0.9,2,2,2h101.2c1.1,0,2-0.9,2-2s-0.9-2-2-2H80.4z"/>
	<path class="st2" d="M80.4,50.5c-1.1,0-2,0.9-2,2c0,1.1,0.9,2,2,2h101.2c1.1,0,2-0.9,2-2c0-1.1-0.9-2-2-2H80.4z"/>
	<path class="st2" d="M80.4,61c-1.1,0-2,0.9-2,2s0.9,2,2,2h101.2c1.1,0,2-0.9,2-2s-0.9-2-2-2H80.4z"/>
	<path class="st2" d="M80.4,71.4c-1.1,0-2,0.9-2,2s0.9,2,2,2h101.2c1.1,0,2-0.9,2-2s-0.9-2-2-2H80.4z"/>
</g>
<path class="st1" d="M144.3,27c-0.3,0-0.5-0.1-0.7-0.3c-0.4-0.3-0.6-0.9-0.4-1.5l0.6-2c0.1-0.3,0-0.6-0.2-0.8l-1.6-1.2
	c-0.6-0.4-0.7-1.2-0.3-1.8c0.2-0.3,0.6-0.5,1-0.5h2c0.3,0,0.5-0.2,0.6-0.5l0.6-2c0.2-0.7,0.9-1.1,1.6-0.8c0.4,0.1,0.7,0.4,0.8,0.8
	l0.6,2c0.1,0.3,0.3,0.5,0.6,0.5h2c0.7,0,1.2,0.6,1.2,1.3c0,0.4-0.2,0.8-0.5,1.1l-1.6,1.2c-0.2,0.2-0.3,0.5-0.2,0.8l0.6,2
	c0.2,0.7-0.1,1.4-0.8,1.7c-0.4,0.1-0.8,0.1-1.1-0.2l-1.6-1.2c-0.2-0.2-0.5-0.2-0.8,0l-1.6,1.2C144.8,26.9,144.5,27,144.3,27z
	 M147,24.7c0.3,0,0.5,0.1,0.7,0.3l1.6,1.2c0.3,0.2,0.7,0.2,0.9-0.2c0.1-0.2,0.2-0.4,0.1-0.6l-0.6-2c-0.2-0.5,0-1.1,0.4-1.5l1.6-1.2
	c0.3-0.2,0.4-0.7,0.1-1c-0.1-0.2-0.3-0.3-0.5-0.3h-2c-0.5,0-1-0.4-1.2-0.9l-0.6-2c-0.1-0.4-0.5-0.6-0.8-0.5
	c-0.2,0.1-0.4,0.2-0.4,0.5l-0.6,2c-0.2,0.5-0.6,0.9-1.2,0.9h-2c-0.4,0-0.7,0.3-0.7,0.7c0,0.2,0.1,0.4,0.3,0.6l1.6,1.2
	c0.4,0.3,0.6,0.9,0.4,1.5l-0.6,2c-0.1,0.4,0.1,0.8,0.4,0.9c0.2,0.1,0.4,0,0.6-0.1l1.6-1.2C146.4,24.8,146.7,24.7,147,24.7z"/>
</svg>
