<?xml version="1.0" encoding="utf-8"?>
<!-- Generator: Adobe Illustrator 22.0.0, SVG Export Plug-In . SVG Version: 6.00 Build 0)  -->
<svg version="1.1" id="ee5053fc-ea24-484a-861d-c80bd2ae1a91"
	 xmlns="http://www.w3.org/2000/svg" xmlns:xlink="http://www.w3.org/1999/xlink" x="0px" y="0px" viewBox="0 0 982.5 600"
	 style="enable-background:new 0 0 982.5 600;" xml:space="preserve">
<style type="text/css">
	.st0{fill:#233033;}
	.st1{fill:#F8C143;}
	.st2{fill:#F2F2F2;}
	.st3{fill:#F9CE64;}
	.st4{opacity:0.1;fill:#233033;enable-background:new    ;}
	.st5{fill:#E1A61A;}
</style>
<path class="st0" d="M950.7,487.2c0,0.5,0,1,0,1.5c-0.6,15.8-9.4,31.5-25.4,42.6c-17,11.7-39.8,17.9-63.3,21.9
	c-3.7,0.6-7.3,1.2-11,1.7c-1.9,0.3-3.7,0.5-5.6,0.8c-52.1,6.8-105.4,8.2-158.4,9.4c-55.4,1.4-110.9,2.7-166.4,3.4l-11,0.1
	c-84.2,0.9-168.4,0.1-252.2-4.6c-26-1.5-52.3-3.4-78.1-6.7c-3.7-0.5-7.3-0.9-11-1.5c-34.2-4.9-67.4-12.4-97.7-24.6
	c-7.1-2.9-14.1-6.1-20.9-9.7c-19-10.1-35-22.8-43-38.5c-4.6-9.2-6.5-19.5-5.5-29.7c0.3-3.7,1-7.4,1.9-11c2.4-8.9,6-17.5,10.8-25.4
	c12.4-20.9,30.9-39.6,46.9-59.3C95,315.7,117.3,262.9,85.8,220c-9-12.3-22.1-23.1-29.5-36c-3.9-7-6.4-14.7-7.2-22.6
	c-0.4-3.7-0.6-7.3-0.5-11c0.3-8.6,1.4-17.1,3.2-25.5c5.1-26.3,14.7-54.6,44.4-71c20.2-11.2,46-14.7,72.1-14c3.7,0.1,7.3,0.3,11,0.5
	c10,0.7,20,1.9,29.6,3.4c59.4,9.5,114.3,29.3,169.6,47.2c42.2,13.6,85.8,26.4,131.1,32.4c3.7,0.5,7.3,0.9,11,1.3
	c10.6,1.2,21.3,1.9,32.1,2.3c53.8,1.5,116.5-10.1,152.2-40.3c34.5-29.2,99.1-31.6,146.1-14.1l0.7,0.3c3.5,1.3,7,2.8,10.3,4.3
	c34.6,16.3,57.7,44.1,61,73.2c0.4,3.6,0.5,7.3,0.3,10.9c0,0,0,0.1,0,0.1c-2.2,35.8-31.5,66-61.3,96.1c-3.7,3.7-7.4,7.4-11,11.2
	c-9.7,9.9-19,19.9-27.1,30.2c-3.7,4.7-7.1,9.5-10.2,14.6c-2.8,4.7-5.3,9.6-7.2,14.7c-2.1,5.3-3.4,10.9-4,16.5
	c-0.8,8.1,0.6,16.3,4.3,23.6l0.1,0.2c7.9,15.7,24.7,26.9,44.2,36.8c3.6,1.8,7.3,3.6,11,5.4c21.1,10,43.8,19.2,61.1,31.5
	c4.7,3.2,9,6.9,13,11c1.6,1.7,3.2,3.4,4.6,5.3c6.3,8,9.8,17.8,10,28C950.7,486.8,950.7,487,950.7,487.2z"/>
<g>
	<path class="st1" d="M773.7,188c0,24.5-37.8,81.4-48.8,97.5c-1.1,1.7-3.4,2.1-5,0.9c-0.4-0.2-0.7-0.6-0.9-0.9
		c-11-16.1-48.8-73.1-48.8-97.5c0-28.6,23.2-51.9,51.9-51.9C750.5,136.2,773.7,159.4,773.7,188L773.7,188z"/>
	<circle class="st2" cx="721.9" cy="184.4" r="26.3"/>
	<ellipse class="st3" cx="721.4" cy="309.4" rx="30.4" ry="5.9"/>
</g>
<g>
	<circle class="st2" cx="531.4" cy="399.7" r="52.3"/>
	<path class="st3" d="M659.6,466.9L605,412.2c17.3-26.9,9.5-62.7-17.4-80c-0.5-0.3-0.9-0.6-1.5-0.9c-25.9-15.5-59.4-8.6-77,16
		c-18.6,26-12.5,62.2,13.5,80.8c19.3,13.8,45,14.4,65,1.5l54.7,54.7c4.8,4.8,12.6,4.8,17.4,0C664.4,479.5,664.4,471.7,659.6,466.9z
		 M585.5,410.3c-16.2,16.2-42.4,16.2-58.5,0c-16.2-16.2-16.2-42.4,0-58.5c16.2-16.2,42.4-16.2,58.5,0c7.8,7.8,12.2,18.3,12.2,29.3
		S593.3,402.5,585.5,410.3z"/>
</g>
<g>
	<path class="st1" d="M401.1,187.7c0,0-1.5,16.9-4.1,41.2c-0.9,7.9-1.9,16.6-3,25.8c-1.5,12.8-3.3,26.4-5.4,40.1
		c-1.3,8.5-2.6,16.9-4,25.2c-7.6,44.4-17.5,83.6-29.3,86.9c-26.3,7.2-124.1-157.4-134.9-175.6c-0.6-1-0.9-1.6-0.9-1.6L401.1,187.7z"
		/>
	<path class="st4" d="M396.9,228.8c-0.9,7.9-1.9,16.6-3,25.8l-84.6-45.8l35.4-8.1L396.9,228.8z"/>
	<path class="st4" d="M388.6,294.6c-1.3,8.5-2.6,16.9-4,25.2l-164.1-88.7c-0.6-1-0.9-1.6-0.9-1.6l34.1-7.9L388.6,294.6z"/>
	<path class="st3" d="M277.2,50.5c-6.8,8.5-20.5,9.1-27,17.9c-4.4,6.1-3.9,14.5-0.9,21.3c3.2,6.8,8.6,12.2,13.9,17.3
		c3.7,3.6,7.5,7.1,12.2,9.4c6.4,3.2,13.9,3.7,21.1,3.8c15.7,0.2,31.3-1.1,46.7-3.9c6.8-1.2,14.5-3.3,17.9-9.4
		c2-3.5,2.1-7.8,2.1-11.9c-0.2-6.3-1-13.1-4.8-18.1c-3.2-4.2-8-6.8-12.8-8.9c-14.9-6.8-31.7-11.4-42.6-23.6
		c-4.4-4.9-7.7-10.9-13.4-14.1c-7.4-4.2-21.5-3.4-27.7,2C263.6,34.5,281.3,45.3,277.2,50.5z"/>
	<path class="st3" d="M222.4,132.1c-0.5,9.2-0.7,18.7,3.4,26.9c5.4,10.8,17.4,17,29.3,18.7c12,1.6,24-0.7,35.9-2.9l62-11.9
		c7.8-1.5,15.7-3,23.6-2c6.5,0.8,14.5,2.7,18.5-2.3c1.9-2.3,2.2-5.5,2.4-8.4c0.5-9.7-0.3-19.9-5.8-27.8
		c-6.3-9.1-17.8-13.4-28.8-14.1c-11-0.8-22,1.5-32.9,2.7c-11.1,1.3-22.3,1.6-33.5,1c-9.3-0.5-19-1.8-27-6.8c-4.3-2.7-8-6.3-12.1-9.2
		C233.3,79.4,223.3,114.8,222.4,132.1z"/>
	<path class="st3" d="M217.9,174.6c-17.2,13-20.6,37.5-7.6,54.7c3.9,5,8.8,9.1,14.5,11.8c11,5.2,23.9,5,35.9,3.1
		c11.8-1.8,23.3-5,34.7-8.3L397,207c5.9-1.7,12.6-3.9,15.1-9.6c1.9-4.2,0.9-9.2-0.8-13.4c-6.1-15.5-21.4-26.9-37.9-28.2
		c-6.2-0.5-12.5,0.3-18.7,1.2l-44.9,6c-6.1,0.8-12.2,1.6-18.2,1.4c-18.5-0.7-37.2-11-54.7-4.8c-11.8,4.2-19.9,15-26.8,25.5"/>
	<path class="st4" d="M259.4,92c0,0,20.4,22.6,96.4,16.1"/>
	<path class="st4" d="M234.3,169.3c0,0,32.9,20.9,143-4.5"/>
	<ellipse transform="matrix(0.9745 -0.2244 0.2244 0.9745 -9.0641 63.98)" class="st1" cx="276.9" cy="71.9" rx="7.2" ry="2.4"/>
	<ellipse transform="matrix(0.9745 -0.2244 0.2244 0.9745 -10.5838 70.2804)" class="st1" cx="303.9" cy="81.7" rx="7.2" ry="2.4"/>
	<ellipse transform="matrix(0.9745 -0.2244 0.2244 0.9745 -12.0854 77.4337)" class="st1" cx="334.6" cy="91.9" rx="7.2" ry="2.4"/>
	<ellipse transform="matrix(0.9745 -0.2244 0.2244 0.9745 -20.866 57.5043)" class="st1" cx="242.6" cy="120.6" rx="7.2" ry="2.4"/>
	<ellipse transform="matrix(0.9745 -0.2244 0.2244 0.9745 -21.113 72.2756)" class="st1" cx="307.4" cy="129" rx="7.2" ry="2.4"/>
	
		<ellipse transform="matrix(0.9745 -0.2244 0.2244 0.9745 -37.6123 57.3649)" class="st1" cx="233.6" cy="194.2" rx="7.2" ry="2.4"/>
	
		<ellipse transform="matrix(0.9745 -0.2244 0.2244 0.9745 -24.7066 63.7575)" class="st1" cx="268.1" cy="140.6" rx="7.2" ry="2.4"/>
	
		<ellipse transform="matrix(0.9745 -0.2244 0.2244 0.9745 -40.0927 62.5678)" class="st1" cx="255.2" cy="207.7" rx="7.2" ry="2.4"/>
	
		<ellipse transform="matrix(0.9745 -0.2244 0.2244 0.9745 -34.2681 71.7299)" class="st1" cx="298.4" cy="186.6" rx="7.2" ry="2.4"/>
	<ellipse transform="matrix(0.9745 -0.2244 0.2244 0.9745 -41.4754 81.0471)" class="st3" cx="335.8" cy="223" rx="7.8" ry="16.3"/>
	
		<ellipse transform="matrix(0.9745 -0.2244 0.2244 0.9745 -42.0479 83.5472)" class="st3" cx="346.5" cy="226.8" rx="7.8" ry="16.3"/>
	<path class="st1" d="M366,382.8c0-0.3-0.2-8.1,5.6-21c5.3-11.7,16.8-30.1,41.5-50.7c46.8-38.9,47.2-91.9,47.2-92.4h1.5
		c0,0.2,0,13.7-5.9,31.9c-7.8,24.1-22.3,45.5-41.8,61.7c-46.8,38.9-46.6,70.1-46.6,70.4H366z"/>
	<ellipse class="st3" cx="459.6" cy="203.3" rx="9.7" ry="9.7"/>
	<ellipse class="st1" cx="468.2" cy="249.5" rx="9.7" ry="9.7"/>
	<ellipse class="st3" cx="438.3" cy="259.8" rx="9.7" ry="9.7"/>
	<ellipse class="st3" cx="450.3" cy="289.8" rx="9.7" ry="9.7"/>
	<ellipse class="st1" cx="406.3" cy="300.6" rx="9.7" ry="9.7"/>
	<path class="st1" d="M370.9,386c0,0,3.5-25.5,37.6-26.5L370.9,386z"/>
	<path class="st1" d="M360.8,379.7c0,0,8.8-24.1-20.9-41L360.8,379.7z"/>
</g>
<circle class="st3" cx="309" cy="100.4" r="8.6"/>
<circle class="st2" cx="171.4" cy="355.7" r="5.1"/>
<circle class="st2" cx="475" cy="542" r="5.1"/>
<circle class="st2" cx="140.4" cy="269" r="2.6"/>
<circle class="st2" cx="352.6" cy="460.7" r="2.6"/>
<circle class="st2" cx="788.6" cy="415.9" r="2.6"/>
<circle class="st2" cx="258.5" cy="392.3" r="2.6"/>
<circle class="st2" cx="602.1" cy="209.6" r="2.6"/>
<circle class="st2" cx="849.5" cy="156.3" r="2.6"/>
<circle class="st2" cx="328.1" cy="522.8" r="2.6"/>
<circle class="st2" cx="211.4" cy="518.9" r="2.6"/>
<circle class="st2" cx="510.7" cy="167.1" r="2.6"/>
<circle class="st1" cx="137.4" cy="170.5" r="7.7"/>
<circle class="st2" cx="792.6" cy="121.1" r="3"/>
<circle class="st2" cx="677.3" cy="365.8" r="5"/>
<circle class="st2" cx="778.1" cy="326.2" r="5.3"/>
<circle class="st2" cx="561.3" cy="287.9" r="5.4"/>
<circle class="st2" cx="736.3" cy="440" r="5.4"/>
<circle class="st3" cx="726.3" cy="521.2" r="11.3"/>
<path class="st5" d="M854.5,479.8c-0.5,0-1-0.3-1.3-0.3l-3.1-2.3c-0.5-0.3-1.3-0.3-1.8,0l-3.1,2.3c-1,0.8-2.3,0.5-3.1-0.5
	c-0.3-0.5-0.5-1.3-0.3-2.1l1.3-3.6c0.3-0.5,0-1.3-0.5-1.6l-3.1-2.3c-1-0.8-1.3-2.3-0.5-3.1c0.3-0.5,1-1,1.8-1h3.9
	c0.8,0,1.3-0.3,1.6-1l1.3-3.6c0.3-1,1.6-1.8,2.9-1.6c0.8,0.3,1.3,0.8,1.6,1.6l1.3,3.6c0.3,0.5,0.8,1,1.6,1h3.9c1.3,0,2.3,1,2.3,2.3
	c0,0.8-0.3,1.6-1,1.8l-3.1,2.3c-0.5,0.3-0.8,1-0.5,1.6l1.3,3.6c0.3,1,0,1.8-0.8,2.6C855.5,479.5,855,479.8,854.5,479.8z"/>
<circle class="st2" cx="98.6" cy="447.4" r="5.4"/>
<circle class="st2" cx="447.9" cy="470.3" r="3.9"/>
<path class="st5" d="M201.7,439c-0.5,0-1-0.3-1.3-0.3l-3.1-2.3c-0.5-0.3-1.3-0.3-1.8,0l-3.1,2.3c-1,0.8-2.3,0.5-3.1-0.5
	c-0.3-0.5-0.5-1.3-0.3-2.1l1.3-3.6c0.3-0.5,0-1.3-0.5-1.6l-3.1-2.3c-1-0.8-1.3-2.3-0.5-3.1c0.3-0.5,1-1,1.8-1h3.9
	c0.8,0,1.3-0.3,1.6-1l1.3-3.6c0.3-1,1.6-1.8,2.9-1.6c0.8,0.3,1.3,0.8,1.6,1.6l1.3,3.6c0.3,0.5,0.8,1,1.6,1h3.9c1.3,0,2.3,1,2.3,2.3
	c0,0.8-0.3,1.6-1,1.8l-3.1,2.3c-0.5,0.3-0.8,1-0.5,1.6l1.3,3.6c0.3,1,0,1.8-0.8,2.6C202.7,439,202.4,439,201.7,439z"/>
</svg>
