<?xml version="1.0" encoding="utf-8"?>
<!-- Generator: Adobe Illustrator 22.0.0, SVG Export Plug-In . SVG Version: 6.00 Build 0)  -->
<svg version="1.1" id="ee5053fc-ea24-484a-861d-c80bd2ae1a91"
	 xmlns="http://www.w3.org/2000/svg" xmlns:xlink="http://www.w3.org/1999/xlink" x="0px" y="0px" viewBox="0 0 982.5 763"
	 style="enable-background:new 0 0 982.5 763;" xml:space="preserve">
<style type="text/css">
	.st0{fill:#F9F9F9;}
	.st1{fill:#FCE6B3;}
	.st2{fill:#F9CE64;}
	.st3{fill:#F8C143;}
	.st4{fill:#CACACA;}
	.st5{fill:#E1A61A;}
	.st6{opacity:0.1;fill:#233033;enable-background:new    ;}
</style>
<path class="st0" d="M960.8,446.2C1067.8,564.5,757.6,735,507.1,735S83.1,602.9,53.3,446.2C-18.9,66.3,668.4-175.2,507.1,157.4
	C271.9,642.2,876.5,353,960.8,446.2z"/>
<path class="st1" d="M912.8,474.2C1019.8,592.5,709.6,763,459.1,763S35.1,630.9,5.3,474.2C-66.9,94.3,620.4-147.2,459.1,185.4
	C223.9,670.2,828.5,381,912.8,474.2z"/>
<circle class="st2" cx="348.9" cy="142.9" r="10"/>
<circle class="st0" cx="82.9" cy="452.9" r="6"/>
<circle class="st0" cx="542.9" cy="658.9" r="6"/>
<circle class="st0" cx="151.9" cy="339.9" r="3"/>
<circle class="st0" cx="399.9" cy="563.9" r="3"/>
<circle class="st0" cx="850.9" cy="534.9" r="3"/>
<circle class="st0" cx="289.9" cy="483.9" r="3"/>
<circle class="st0" cx="562.9" cy="515.9" r="3"/>
<circle class="st0" cx="372.9" cy="219.9" r="3"/>
<circle class="st0" cx="396.9" cy="71.9" r="3"/>
<circle class="st0" cx="382.9" cy="694.9" r="3"/>
<circle class="st0" cx="234.9" cy="631.9" r="3"/>
<circle class="st0" cx="304.1" cy="185.7" r="3"/>
<circle class="st3" cx="148.4" cy="224.8" r="9"/>
<g>
	<path class="st3" d="M765.9,542.4c0,23.5-36.3,78.2-46.9,93.6c-1.1,1.6-3.3,2-4.8,0.9c-0.4-0.2-0.7-0.6-0.9-0.9
		c-10.6-15.5-46.9-70.2-46.9-93.6c0-27.5,22.3-49.8,49.8-49.8C743.6,492.7,765.9,515,765.9,542.4L765.9,542.4z"/>
	<circle class="st0" cx="716.2" cy="539" r="25.3"/>
	<ellipse class="st2" cx="715.7" cy="659" rx="29.2" ry="5.7"/>
</g>
<ellipse transform="matrix(0.8419 -0.5397 0.5397 0.8419 -147.2288 305.3296)" class="st4" cx="447.4" cy="403.9" rx="12.2" ry="47.5"/>
<g>
	<path class="st5" d="M265.8,245.5c0,0-1.7,19.7-4.8,48.1c-1,9.2-2.2,19.4-3.5,30.1c-1.8,14.9-3.9,30.9-6.3,46.9
		c-1.5,9.9-3,19.7-4.7,29.4c-8.9,51.9-20.5,97.7-34.2,101.5c-30.7,8.4-145-183.9-157.6-205.2c-0.7-1.2-1.1-1.9-1.1-1.9L265.8,245.5z
		"/>
	<path class="st6" d="M260.9,293.6c-1,9.2-2.2,19.4-3.5,30.1l-98.9-53.5l41.4-9.5L260.9,293.6z"/>
	<path class="st6" d="M251.1,370.5c-1.5,9.9-3,19.7-4.7,29.4L54.7,296.3c-0.7-1.2-1.1-1.9-1.1-1.9l39.8-9.2L251.1,370.5z"/>
	<path class="st2" d="M121,85.2c-8,9.9-24,10.6-31.5,20.9c-5.1,7.1-4.6,17-1,24.9c3.7,7.9,10,14.2,16.3,20.2
		c4.3,4.2,8.8,8.3,14.2,11c7.5,3.7,16.2,4.3,24.6,4.4c18.3,0.2,36.6-1.3,54.6-4.5c8-1.4,16.9-3.9,20.9-11c2.3-4.1,2.5-9.1,2.4-13.9
		c-0.2-7.4-1.2-15.3-5.6-21.2c-3.7-4.9-9.3-7.9-14.9-10.4C183.6,97.7,164,92.3,151.2,78c-5.1-5.7-9-12.7-15.7-16.5
		c-8.6-4.9-25.1-4-32.4,2.3C105.1,66.6,125.8,79.2,121,85.2z"/>
	<path class="st2" d="M56.9,180.6c-0.6,10.7-0.8,21.9,4,31.4c6.3,12.6,20.3,19.9,34.2,21.8c14,1.9,28.1-0.8,41.9-3.4l72.4-13.9
		c9.1-1.7,18.4-3.5,27.6-2.3c7.6,0.9,16.9,3.2,21.6-2.7c2.2-2.7,2.6-6.4,2.8-9.8c0.6-11.3-0.3-23.2-6.8-32.5
		c-7.4-10.6-20.8-15.6-33.6-16.5s-25.7,1.7-38.5,3.2c-13,1.5-26.1,1.9-39.2,1.2c-10.9-0.6-22.2-2.1-31.5-7.9
		c-5-3.1-9.3-7.4-14.1-10.7C69.7,119,58,160.4,56.9,180.6z"/>
	<path class="st2" d="M51.7,230.2c-20.1,15.2-24.1,43.8-8.9,63.9c4.5,5.9,10.3,10.6,17,13.8c12.9,6.1,27.9,5.8,42,3.6
		c13.8-2.1,27.2-5.9,40.6-9.7L261,268.1c6.9-2,14.7-4.6,17.7-11.2c2.2-4.9,1.1-10.7-0.9-15.7c-7.1-18.1-25-31.4-44.3-32.9
		c-7.3-0.6-14.6,0.4-21.9,1.4l-52.5,7c-7.1,0.9-14.2,1.9-21.3,1.6c-21.6-0.8-43.5-12.8-63.9-5.6c-13.8,4.9-23.2,17.5-31.3,29.8"/>
	<path class="st6" d="M100.2,133.7c0,0,23.8,26.4,112.6,18.8"/>
	<path class="st6" d="M70.9,224c0,0,38.4,24.4,167.1-5.3"/>
	
		<ellipse transform="matrix(0.9745 -0.2244 0.2244 0.9745 -21.6579 29.9029)" class="st5" cx="120.7" cy="110.2" rx="8.4" ry="2.8"/>
	
		<ellipse transform="matrix(0.9745 -0.2244 0.2244 0.9745 -23.4337 37.2583)" class="st5" cx="152.2" cy="121.7" rx="8.4" ry="2.8"/>
	
		<ellipse transform="matrix(0.9745 -0.2244 0.2244 0.9745 -25.1918 45.6167)" class="st5" cx="188.1" cy="133.6" rx="8.4" ry="2.8"/>
	<ellipse transform="matrix(0.9745 -0.2244 0.2244 0.9745 -35.4369 22.3215)" class="st5" cx="80.5" cy="167.1" rx="8.4" ry="2.8"/>
	<ellipse transform="matrix(0.9745 -0.2244 0.2244 0.9745 -35.7329 39.5832)" class="st5" cx="156.3" cy="177" rx="8.4" ry="2.8"/>
	<ellipse transform="matrix(0.9745 -0.2244 0.2244 0.9745 -55.0036 22.1667)" class="st5" cx="70" cy="253.1" rx="8.4" ry="2.8"/>
	
		<ellipse transform="matrix(0.9745 -0.2244 0.2244 0.9745 -39.9226 29.6246)" class="st5" cx="110.4" cy="190.5" rx="8.4" ry="2.8"/>
	<ellipse transform="matrix(0.9745 -0.2244 0.2244 0.9745 -57.9059 28.2378)" class="st5" cx="95.3" cy="268.9" rx="8.4" ry="2.8"/>
	
		<ellipse transform="matrix(0.9745 -0.2244 0.2244 0.9745 -51.0943 38.9525)" class="st5" cx="145.8" cy="244.3" rx="8.4" ry="2.8"/>
	<ellipse transform="matrix(0.9745 -0.2244 0.2244 0.9745 -59.5296 49.8372)" class="st2" cx="189.5" cy="286.8" rx="9.1" ry="19"/>
	<ellipse transform="matrix(0.9745 -0.2244 0.2244 0.9745 -60.1801 52.7582)" class="st2" cx="202" cy="291.2" rx="9.1" ry="19"/>
	<path class="st5" d="M224.8,473.5c0-0.4-0.2-9.5,6.5-24.5c6.2-13.7,19.6-35.2,48.5-59.2c54.7-45.5,55.1-107.4,55.1-108l1.7,0
		c0,0.2,0,16-6.9,37.3c-9.1,28.2-26,53.2-48.9,72.1c-54.7,45.4-54.4,81.9-54.4,82.3L224.8,473.5z"/>
	
		<ellipse transform="matrix(0.9745 -0.2244 0.2244 0.9745 -50.675 81.6922)" class="st2" cx="334.1" cy="263.8" rx="11.3" ry="11.3"/>
	
		<ellipse transform="matrix(0.9745 -0.2244 0.2244 0.9745 -62.5326 85.3435)" class="st5" cx="344.2" cy="317.8" rx="11.3" ry="11.3"/>
	
		<ellipse transform="matrix(0.9745 -0.2244 0.2244 0.9745 -66.1207 77.7958)" class="st2" cx="309.2" cy="329.8" rx="11.3" ry="11.3"/>
	
		<ellipse transform="matrix(0.9745 -0.2244 0.2244 0.9745 -73.644 81.8227)" class="st2" cx="323.2" cy="364.9" rx="11.3" ry="11.3"/>
	
		<ellipse transform="matrix(0.9745 -0.2244 0.2244 0.9745 -77.7877 70.6086)" class="st5" cx="271.8" cy="377.5" rx="11.3" ry="11.3"/>
	<path class="st5" d="M230.5,477.3c0,0,4.1-29.8,43.9-31L230.5,477.3z"/>
	<path class="st5" d="M218.7,469.9c0,0,10.3-28.2-24.4-47.9L218.7,469.9z"/>
</g>
<circle class="st0" cx="356.5" cy="594.4" r="61.1"/>
<path class="st2" d="M506.3,672.9l-63.9-63.9c20.2-31.4,11.1-73.3-20.3-93.5c-0.6-0.4-1.1-0.7-1.7-1.1c-30.3-18.1-69.4-10-90,18.7
	c-21.7,30.4-14.6,72.7,15.8,94.4c22.5,16.1,52.6,16.8,75.9,1.8l63.9,63.9c5.6,5.6,14.7,5.6,20.3,0
	C511.9,687.6,511.9,678.5,506.3,672.9z M419.7,606.7c-18.9,18.9-49.5,18.9-68.4,0c-18.9-18.9-18.9-49.5,0-68.4
	c18.9-18.9,49.5-18.9,68.4,0c9.1,9.1,14.2,21.4,14.2,34.2C433.9,585.3,428.8,597.6,419.7,606.7z"/>
</svg>
