<?xml version="1.0" encoding="utf-8"?>
<!-- Generator: Adobe Illustrator 22.0.0, SVG Export Plug-In . SVG Version: 6.00 Build 0)  -->
<svg version="1.1" id="ee5053fc-ea24-484a-861d-c80bd2ae1a91"
	 xmlns="http://www.w3.org/2000/svg" xmlns:xlink="http://www.w3.org/1999/xlink" x="0px" y="0px" viewBox="0 0 982.5 600"
	 style="enable-background:new 0 0 982.5 600;" xml:space="preserve">
<style type="text/css">
	.st0{fill:#FCE6B3;}
	.st1{fill:#E1A61A;}
	.st2{fill:#FFFFFF;}
	.st3{fill:#F9CE64;}
	.st4{fill:#F8C143;}
	.st5{opacity:0.1;fill:#233033;enable-background:new    ;}
</style>
<path class="st0" d="M950.7,487.2c0,0.5,0,1,0,1.5c-0.6,15.8-9.4,31.5-25.4,42.6c-17,11.7-39.8,17.9-63.3,21.9
	c-3.7,0.6-7.3,1.2-11,1.7c-1.9,0.3-3.7,0.5-5.6,0.8c-52.1,6.8-105.4,8.2-158.4,9.4c-55.4,1.4-110.9,2.7-166.4,3.4l-11,0.1
	c-84.2,0.9-168.4,0.1-252.2-4.6c-26-1.5-52.3-3.4-78.1-6.7c-3.7-0.5-7.3-0.9-11-1.5c-34.2-4.9-67.4-12.4-97.7-24.6
	c-7.1-2.9-14.1-6.1-20.9-9.7c-19-10.1-35-22.8-43-38.5c-4.6-9.2-6.5-19.5-5.5-29.7c0.3-3.7,1-7.4,1.9-11c2.4-8.9,6-17.5,10.8-25.4
	c12.4-20.9,30.9-39.6,46.9-59.3c34.2-41.9,56.5-94.7,25-137.6c-9-12.3-22.1-23.1-29.5-36c-3.9-7-6.4-14.7-7.2-22.6
	c-0.4-3.7-0.6-7.3-0.5-11c0.3-8.6,1.4-17.1,3.2-25.5c5.1-26.3,14.7-54.6,44.4-71c20.2-11.2,46-14.7,72.1-14c3.7,0.1,7.3,0.3,11,0.5
	c10,0.7,20,1.9,29.6,3.4c59.4,9.5,114.3,29.3,169.6,47.2c42.2,13.6,85.8,26.4,131.1,32.4c3.7,0.5,7.3,0.9,11,1.3
	c10.6,1.2,21.3,1.9,32.1,2.3c53.8,1.5,116.5-10.1,152.2-40.3C739.4,57.5,804,55.1,851,72.6l0.7,0.3c3.5,1.3,7,2.8,10.3,4.3
	c34.6,16.3,57.7,44.1,61,73.2c0.4,3.6,0.5,7.3,0.3,10.9v0.1c-2.2,35.8-31.5,66-61.3,96.1c-3.7,3.7-7.4,7.4-11,11.2
	c-9.7,9.9-19,19.9-27.1,30.2c-3.7,4.7-7.1,9.5-10.2,14.6c-2.8,4.7-5.3,9.6-7.2,14.7c-2.1,5.3-3.4,10.9-4,16.5
	c-0.8,8.1,0.6,16.3,4.3,23.6l0.1,0.2c7.9,15.7,24.7,26.9,44.2,36.8c3.6,1.8,7.3,3.6,11,5.4c21.1,10,43.8,19.2,61.1,31.5
	c4.7,3.2,9,6.9,13,11c1.6,1.7,3.2,3.4,4.6,5.3c6.3,8,9.8,17.8,10,28C950.7,486.8,950.7,487,950.7,487.2z"/>
<g>
	<path class="st1" d="M773.7,188c0,24.5-37.8,81.4-48.8,97.5c-1.1,1.7-3.4,2.1-5,0.9c-0.4-0.2-0.7-0.6-0.9-0.9
		c-11-16.1-48.8-73.1-48.8-97.5c0-28.6,23.2-51.9,51.9-51.9C750.5,136.2,773.7,159.4,773.7,188L773.7,188z"/>
	<circle class="st2" cx="721.9" cy="184.4" r="26.3"/>
	<ellipse class="st1" cx="721.4" cy="309.4" rx="30.4" ry="5.9"/>
</g>
<g>
	<circle class="st2" cx="531.4" cy="399.7" r="52.3"/>
	<path class="st1" d="M659.6,466.9L605,412.2c17.3-26.9,9.5-62.7-17.4-80c-0.5-0.3-0.9-0.6-1.5-0.9c-25.9-15.5-59.4-8.6-77,16
		c-18.6,26-12.5,62.2,13.5,80.8c19.3,13.8,45,14.4,65,1.5l54.7,54.7c4.8,4.8,12.6,4.8,17.4,0C664.4,479.5,664.4,471.7,659.6,466.9z
		 M585.5,410.3c-16.2,16.2-42.4,16.2-58.5,0c-16.2-16.2-16.2-42.4,0-58.5c16.2-16.2,42.4-16.2,58.5,0c7.8,7.8,12.2,18.3,12.2,29.3
		S593.3,402.5,585.5,410.3z"/>
</g>
<circle class="st3" cx="309" cy="100.4" r="8.6"/>
<circle class="st2" cx="171.4" cy="355.7" r="5.1"/>
<circle class="st2" cx="475" cy="542" r="5.1"/>
<circle class="st2" cx="140.4" cy="269" r="2.6"/>
<circle class="st2" cx="352.6" cy="460.7" r="2.6"/>
<circle class="st2" cx="788.6" cy="415.9" r="2.6"/>
<circle class="st2" cx="258.5" cy="392.3" r="2.6"/>
<circle class="st2" cx="602.1" cy="209.6" r="2.6"/>
<circle class="st2" cx="849.5" cy="156.3" r="2.6"/>
<circle class="st2" cx="328.1" cy="522.8" r="2.6"/>
<circle class="st2" cx="211.4" cy="518.9" r="2.6"/>
<ellipse transform="matrix(0.1602 -0.9871 0.9871 0.1602 263.9524 644.439)" class="st2" cx="510.7" cy="167.1" rx="2.6" ry="2.6"/>
<circle class="st4" cx="137.4" cy="170.5" r="7.7"/>
<circle class="st2" cx="792.6" cy="121.1" r="3"/>
<circle class="st2" cx="677.3" cy="365.8" r="5"/>
<circle class="st2" cx="778.1" cy="326.2" r="5.3"/>
<circle class="st2" cx="561.3" cy="287.9" r="5.4"/>
<circle class="st2" cx="736.3" cy="440" r="5.4"/>
<circle class="st3" cx="726.3" cy="521.2" r="11.3"/>
<path class="st1" d="M854.5,479.8c-0.5,0-1-0.3-1.3-0.3l-3.1-2.3c-0.5-0.3-1.3-0.3-1.8,0l-3.1,2.3c-1,0.8-2.3,0.5-3.1-0.5
	c-0.3-0.5-0.5-1.3-0.3-2.1l1.3-3.6c0.3-0.5,0-1.3-0.5-1.6l-3.1-2.3c-1-0.8-1.3-2.3-0.5-3.1c0.3-0.5,1-1,1.8-1h3.9
	c0.8,0,1.3-0.3,1.6-1l1.3-3.6c0.3-1,1.6-1.8,2.9-1.6c0.8,0.3,1.3,0.8,1.6,1.6l1.3,3.6c0.3,0.5,0.8,1,1.6,1h3.9c1.3,0,2.3,1,2.3,2.3
	c0,0.8-0.3,1.6-1,1.8l-3.1,2.3c-0.5,0.3-0.8,1-0.5,1.6l1.3,3.6c0.3,1,0,1.8-0.8,2.6C855.5,479.5,855,479.8,854.5,479.8z"/>
<circle class="st2" cx="98.6" cy="447.4" r="5.4"/>
<circle class="st2" cx="447.9" cy="470.3" r="3.9"/>
<path class="st1" d="M201.7,439c-0.5,0-1-0.3-1.3-0.3l-3.1-2.3c-0.5-0.3-1.3-0.3-1.8,0l-3.1,2.3c-1,0.8-2.3,0.5-3.1-0.5
	c-0.3-0.5-0.5-1.3-0.3-2.1l1.3-3.6c0.3-0.5,0-1.3-0.5-1.6l-3.1-2.3c-1-0.8-1.3-2.3-0.5-3.1c0.3-0.5,1-1,1.8-1h3.9
	c0.8,0,1.3-0.3,1.6-1l1.3-3.6c0.3-1,1.6-1.8,2.9-1.6c0.8,0.3,1.3,0.8,1.6,1.6l1.3,3.6c0.3,0.5,0.8,1,1.6,1h3.9c1.3,0,2.3,1,2.3,2.3
	c0,0.8-0.3,1.6-1,1.8l-3.1,2.3c-0.5,0.3-0.8,1-0.5,1.6l1.3,3.6c0.3,1,0,1.8-0.8,2.6C202.7,439,202.4,439,201.7,439z"/>
<g>
	<path class="st1" d="M399.2,188.3c0,0-1.6,17-3.9,41.4c-0.8,7.9-2,16.6-3.2,26c-1.6,13-3.5,26.4-5.5,40.2c-1.2,8.7-2.8,17-3.9,25.2
		c-7.5,44.6-17.7,84-29.6,87.6c-26.4,7.1-124.6-158.1-135.7-176.7c-0.8-1.2-0.8-1.6-0.8-1.6L399.2,188.3z"/>
	<path class="st5" d="M394.9,229.7c-0.8,7.9-2,16.6-3.2,26l-85.2-46.1l35.5-8.3L394.9,229.7z"/>
	<path class="st5" d="M386.2,296c-1.2,8.7-2.8,17-3.9,25.2l-164.9-89.1c-0.8-1.2-0.8-1.6-0.8-1.6l34.3-7.9L386.2,296z"/>
	<path class="st3" d="M274.6,50.3c-6.7,8.7-20.5,9.1-27.2,18.1c-4.3,5.9-3.9,14.6-0.8,21.3c3.2,6.7,8.7,12.2,14.2,17.4
		c3.5,3.5,7.5,7.1,12.2,9.5c6.3,3.2,13.8,3.5,21.3,3.9c15.8,0,31.6-1.2,46.9-3.9c6.7-1.2,14.6-3.5,18.1-9.5c2-3.5,2-7.9,2-11.8
		c0-6.3-1.2-13-4.7-18.1c-3.2-4.3-7.9-6.7-13-9.1c-15-6.7-31.9-11.4-43-23.7c-4.3-4.7-7.9-11-13.4-14.2c-7.5-4.3-21.7-3.5-28,2
		C260.8,34.1,278.5,45.2,274.6,50.3z"/>
	<path class="st3" d="M219.4,132.3c-0.4,9.1-0.8,18.9,3.5,27.2c5.5,10.6,17.4,17,29.6,18.9c12.2,1.6,24.1-0.8,35.9-2.8l62.3-11.8
		c7.9-1.6,15.8-3.2,23.7-2c6.7,0.8,14.6,2.8,18.5-2.4c2-2.4,2.4-5.5,2.4-8.3c0.4-9.9-0.4-20.1-5.9-28c-6.3-9.1-17.7-13.4-28.8-14.2
		c-11-0.8-22.1,1.6-33.1,2.8s-22.5,1.6-33.9,1.2c-9.5-0.4-18.9-2-27.2-6.7c-4.3-2.8-7.9-6.3-12.2-9.1
		C230.4,79.5,220.2,115,219.4,132.3z"/>
	<path class="st3" d="M214.7,174.9c-17.4,13-20.9,37.9-7.5,54.8c3.9,5.1,8.7,9.1,14.6,11.8c11,5.1,24.1,5.1,36.3,3.2
		c11.8-2,23.3-5.1,35.1-8.3l102.1-29.2c5.9-1.6,12.6-3.9,15.4-9.5c2-4.3,0.8-9.1-0.8-13.4c-5.9-15.4-21.7-27.2-38.3-28.4
		c-6.3-0.4-12.6,0.4-18.9,1.2l-45.4,5.9c-5.9,0.8-12.2,1.6-18.1,1.2c-18.5-0.8-37.5-11-54.8-4.7c-11.8,4.3-20.1,15-26.8,25.6"/>
	<path class="st5" d="M256.5,92.1c0,0,20.5,22.9,97,16.2"/>
	<path class="st5" d="M231.2,169.8c0,0,33.1,20.9,144-4.7"/>
	<ellipse transform="matrix(0.9745 -0.2244 0.2244 0.9745 -9.0672 63.3585)" class="st1" cx="274.2" cy="71.6" rx="7.1" ry="2.4"/>
	<ellipse transform="matrix(0.9745 -0.2244 0.2244 0.9745 -10.6742 69.7265)" class="st1" cx="301.4" cy="81.8" rx="7.1" ry="2.4"/>
	<ellipse transform="matrix(0.9745 -0.2244 0.2244 0.9745 -12.1906 76.8911)" class="st1" cx="332.2" cy="92.1" rx="7.1" ry="2.4"/>
	
		<ellipse transform="matrix(0.9745 -0.2244 0.2244 0.9745 -21.0148 56.8278)" class="st1" cx="239.5" cy="120.9" rx="7.1" ry="2.4"/>
	<ellipse transform="matrix(0.9745 -0.2244 0.2244 0.9745 -21.2037 71.73)" class="st1" cx="305" cy="129.2" rx="7.1" ry="2.4"/>
	<ellipse transform="matrix(0.9745 -0.2244 0.2244 0.9745 -37.7957 56.673)" class="st1" cx="230.4" cy="194.6" rx="7.1" ry="2.4"/>
	<ellipse transform="matrix(0.9745 -0.2244 0.2244 0.9745 -24.8746 63.0932)" class="st1" cx="265.1" cy="141" rx="7.1" ry="2.4"/>
	
		<ellipse transform="matrix(0.9745 -0.2244 0.2244 0.9745 -40.3401 61.8926)" class="st1" cx="252.1" cy="208.4" rx="7.1" ry="2.4"/>
	<ellipse transform="matrix(0.9745 -0.2244 0.2244 0.9745 -34.4446 71.173)" class="st1" cx="295.9" cy="187.1" rx="7.1" ry="2.4"/>
	
		<ellipse transform="matrix(0.9745 -0.2244 0.2244 0.9745 -41.7197 80.516)" class="st3" cx="333.4" cy="223.8" rx="7.9" ry="16.2"/>
	<ellipse transform="matrix(0.9745 -0.2244 0.2244 0.9745 -42.2446 82.996)" class="st3" cx="344" cy="227.4" rx="7.9" ry="16.2"/>
	<path class="st1" d="M363.7,384.3c0-0.4,0-8.3,5.5-20.9c5.5-11.8,17-30.4,41.8-50.9c46.9-39,47.3-92.3,47.3-93.1h1.6
		c0,0,0,13.8-5.9,31.9c-7.9,24.5-22.5,45.7-42.2,61.9c-46.9,39-46.9,70.6-46.9,71C364.9,384.3,363.7,384.3,363.7,384.3z"/>
	<ellipse class="st3" cx="458" cy="204.1" rx="9.9" ry="9.9"/>
	<ellipse class="st1" cx="466.7" cy="250.2" rx="9.9" ry="9.9"/>
	<ellipse class="st3" cx="436.3" cy="260.9" rx="9.9" ry="9.9"/>
	<ellipse class="st3" cx="448.5" cy="290.9" rx="9.9" ry="9.9"/>
	<ellipse class="st1" cx="404.4" cy="301.9" rx="9.9" ry="9.9"/>
	<path class="st1" d="M368.5,387.9c0,0,3.5-25.6,37.9-26.8L368.5,387.9z"/>
	<path class="st1" d="M358.6,381.2c0,0,8.7-24.5-20.9-41.4L358.6,381.2z"/>
</g>
</svg>
