<?xml version="1.0" encoding="utf-8"?>
<!-- Generator: Adobe Illustrator 22.0.0, SVG Export Plug-In . SVG Version: 6.00 Build 0)  -->
<svg version="1.1" id="Ebene_1" xmlns="http://www.w3.org/2000/svg" xmlns:xlink="http://www.w3.org/1999/xlink" x="0px" y="0px"
	 viewBox="0 0 750 120" style="enable-background:new 0 0 750 120;" xml:space="preserve">
<style type="text/css">
	.st0{fill:#FCE6B3;}
	.st1{fill:#F9CE64;}
	.st2{fill:#233033;}
	.st3{fill:#F8C143;}
	.st4{fill:#FFFFFF;}
	.st5{fill:#E1A61A;}
	.st6{opacity:0.1;fill:#233033;enable-background:new    ;}
	.st7{fill:#E1A61A;stroke:#E1A61A;stroke-miterlimit:10;}
</style>
<rect class="st0" width="750" height="120"/>
<circle class="st1" cx="153.3" cy="27.8" r="5.1"/>
<circle class="st2" cx="282.7" cy="56.3" r="3.1"/>
<circle class="st2" cx="68.3" cy="82.3" r="1.5"/>
<circle class="st2" cx="199.6" cy="38.5" r="1.5"/>
<circle class="st2" cx="608.8" cy="28.8" r="1.5"/>
<circle class="st2" cx="267.4" cy="24.2" r="1.5"/>
<circle class="st2" cx="135" cy="87.4" r="1.5"/>
<circle class="st2" cx="191" cy="74.6" r="1.5"/>
<circle class="st2" cx="115.6" cy="42.5" r="1.5"/>
<circle class="st2" cx="49" cy="24.1" r="1.5"/>
<circle class="st3" cx="20.6" cy="59.3" r="4.6"/>
<circle class="st2" cx="441.5" cy="34.4" r="3.1"/>
<circle class="st2" cx="629.6" cy="75.6" r="1.5"/>
<circle class="st2" cx="668.9" cy="64.4" r="1.5"/>
<circle class="st1" cx="246.2" cy="85.8" r="5.1"/>
<circle class="st2" cx="693.5" cy="35.4" r="3.1"/>
<circle class="st2" cx="377.7" cy="75.3" r="3.1"/>
<circle class="st1" cx="477.3" cy="56.8" r="5.1"/>
<circle class="st2" cx="327.6" cy="45.5" r="1.5"/>
<circle class="st2" cx="348" cy="88.4" r="1.5"/>
<circle class="st2" cx="428" cy="85.4" r="1.5"/>
<circle class="st2" cx="508" cy="35.4" r="1.5"/>
<circle class="st2" cx="524" cy="82.4" r="1.5"/>
<g>
	<circle class="st4" cx="96" cy="50.1" r="25.5"/>
	<path class="st5" d="M158.5,82.9l-26.7-26.7c8.4-13.1,4.6-30.6-8.5-39c-0.3-0.2-0.5-0.3-0.7-0.5c-12.7-7.6-29-4.2-37.6,7.8
		c-9,12.7-6,30.4,6.7,39.4c9.4,6.7,22,7,31.7,0.8l26.7,26.7c2.3,2.3,6.1,2.3,8.5,0C160.9,89,160.9,85.2,158.5,82.9z M122.4,55.2
		c-7.9,7.9-20.7,7.9-28.6,0s-7.9-20.7,0-28.6s20.7-7.9,28.6,0c3.8,3.8,5.9,8.9,5.9,14.3S126.2,51.4,122.4,55.2z"/>
</g>
<g>
	<path class="st5" d="M345.4,48.2c0,10.5-16.2,34.9-20.9,41.8c-0.5,0.7-1.5,0.9-2.1,0.4c-0.2-0.1-0.3-0.3-0.4-0.4
		c-4.7-6.9-20.9-31.3-20.9-41.8C301,36,311,26,323.2,26C335.4,26,345.4,36,345.4,48.2L345.4,48.2z"/>
	<circle class="st4" cx="323.2" cy="46.7" r="11.3"/>
	<ellipse class="st5" cx="323" cy="100.3" rx="13" ry="2.5"/>
</g>
<g>
	<path class="st5" d="M590.7,54.4c0,0-0.4,4.3-1,10.5c-0.2,2-0.5,4.2-0.8,6.6c-0.4,3.3-0.9,6.8-1.4,10.2c-0.3,2.2-0.7,4.3-1,6.4
		c-1.9,11.3-4.5,21.3-7.5,22.2c-6.7,1.8-31.7-40.2-34.4-44.8c-0.2-0.3-0.2-0.4-0.2-0.4L590.7,54.4z"/>
	<path class="st6" d="M589.7,64.9c-0.2,2-0.5,4.2-0.8,6.6l-21.6-11.7l9-2.1L589.7,64.9z"/>
	<path class="st6" d="M587.5,81.7c-0.3,2.2-0.7,4.3-1,6.4l-41.9-22.6c-0.2-0.3-0.2-0.4-0.2-0.4l8.7-2L587.5,81.7z"/>
	<path class="st1" d="M559.1,19.3c-1.7,2.2-5.2,2.3-6.9,4.6c-1.1,1.6-1,3.7-0.2,5.4c0.8,1.7,2.2,3.1,3.6,4.4
		c0.9,0.9,1.9,1.8,3.1,2.4c1.6,0.8,3.5,0.9,5.4,1c4,0,8-0.3,11.9-1c1.7-0.3,3.7-0.9,4.6-2.4c0.5-0.9,0.5-2,0.5-3
		c0-1.6-0.3-3.3-1.2-4.6c-0.8-1.1-2-1.7-3.3-2.3c-3.8-1.7-8.1-2.9-10.9-6c-1.1-1.2-2-2.8-3.4-3.6c-1.9-1.1-5.5-0.9-7.1,0.5
		C555.6,15.3,560.2,18,559.1,19.3z"/>
	<path class="st1" d="M545.1,40.2c-0.1,2.3-0.2,4.8,0.9,6.9c1.4,2.8,4.4,4.3,7.5,4.8c3.1,0.4,6.1-0.2,9.2-0.7l15.8-3
		c2-0.4,4-0.8,6-0.5c1.7,0.2,3.7,0.7,4.7-0.6c0.5-0.6,0.6-1.4,0.6-2.1c0.1-2.5-0.1-5.1-1.5-7.1c-1.6-2.3-4.5-3.4-7.3-3.6
		s-5.6,0.4-8.4,0.7c-2.8,0.3-5.7,0.4-8.6,0.3c-2.4-0.1-4.8-0.5-6.9-1.7c-1.1-0.7-2-1.6-3.1-2.3C547.9,26.7,545.3,35.8,545.1,40.2z"
		/>
	<path class="st1" d="M544,51c-4.4,3.3-5.3,9.6-1.9,14c1,1.3,2.3,2.3,3.7,3c2.8,1.3,6.1,1.3,9.2,0.8c3-0.5,5.9-1.3,8.9-2.1l25.9-7.4
		c1.5-0.4,3.2-1,3.9-2.4c0.5-1.1,0.2-2.3-0.2-3.4c-1.6-4-5.5-6.9-9.7-7.2c-1.6-0.1-3.2,0.1-4.8,0.3l-11.5,1.5
		c-1.6,0.2-3.1,0.4-4.7,0.3c-4.7-0.2-9.5-2.8-14-1.2c-3,1.1-5.1,3.8-6.8,6.5"/>
	<path class="st6" d="M548.2,49.7c0,0,8.4,5.3,36.5-1.2"/>
	<ellipse transform="matrix(0.9745 -0.2244 0.2244 0.9745 5.6882 124.4344)" class="st5" cx="550.3" cy="37.2" rx="1.8" ry="0.6"/>
	<ellipse transform="matrix(0.9745 -0.2244 0.2244 0.9745 5.6129 128.1957)" class="st5" cx="566.8" cy="39.4" rx="1.8" ry="0.6"/>
	<ellipse transform="matrix(0.9745 -0.2244 0.2244 0.9745 1.4107 124.3984)" class="st5" cx="548" cy="56" rx="1.8" ry="0.6"/>
	<ellipse transform="matrix(0.9745 -0.2244 0.2244 0.9745 4.7078 126.0229)" class="st5" cx="556.8" cy="42.3" rx="1.8" ry="0.6"/>
	<ellipse transform="matrix(0.9745 -0.2244 0.2244 0.9745 0.7648 125.7246)" class="st5" cx="553.5" cy="59.5" rx="1.8" ry="0.6"/>
	<ellipse transform="matrix(0.9745 -0.2244 0.2244 0.9745 2.2551 128.0543)" class="st5" cx="564.5" cy="54.1" rx="1.8" ry="0.6"/>
	<ellipse transform="matrix(0.9745 -0.2244 0.2244 0.9745 0.416 130.4459)" class="st1" cx="574.1" cy="63.4" rx="2" ry="4.2"/>
	<ellipse transform="matrix(0.9745 -0.2244 0.2244 0.9745 0.2805 131.072)" class="st1" cx="576.8" cy="64.3" rx="2" ry="4.2"/>
	<path class="st5" d="M581.8,104.2c0-0.1,0-2.1,1.4-5.4c1.4-3,4.3-7.7,10.6-12.9c11.9-9.9,12-23.5,12-23.6h0.4c0,0,0,3.5-1.5,8.1
		c-2,6.2-5.7,11.6-10.7,15.8c-11.9,9.9-11.9,17.9-11.9,18H581.8z"/>
	<ellipse class="st1" cx="605.7" cy="58.3" rx="2.5" ry="2.5"/>
	<ellipse class="st5" cx="607.9" cy="70.1" rx="2.5" ry="2.5"/>
	<ellipse class="st1" cx="600.2" cy="72.8" rx="2.5" ry="2.5"/>
	<ellipse class="st1" cx="603.3" cy="80.4" rx="2.5" ry="2.5"/>
	<ellipse class="st5" cx="592.1" cy="83.2" rx="2.5" ry="2.5"/>
	<path class="st5" d="M583,105c0,0,0.9-6.5,9.6-6.8L583,105z"/>
	<path class="st5" d="M580.5,103.4c0,0,2.3-6.2-5.3-10.5L580.5,103.4z"/>
</g>
<path class="st5" d="M231.4,57.4c-0.3,0-0.5-0.1-0.7-0.2L229,56c-0.3-0.2-0.7-0.2-1,0l-1.7,1.2c-0.5,0.4-1.3,0.3-1.7-0.3
	c-0.2-0.3-0.3-0.7-0.2-1.1l0.7-2c0.1-0.3,0-0.7-0.3-0.9l-1.7-1.2c-0.5-0.4-0.7-1.2-0.3-1.7c0.2-0.3,0.6-0.5,1-0.5h2.1
	c0.4,0,0.7-0.2,0.8-0.6l0.7-2c0.2-0.6,0.9-1,1.5-0.8c0.4,0.1,0.7,0.4,0.8,0.8l0.7,2c0.1,0.3,0.4,0.6,0.8,0.6h2.1
	c0.7,0,1.2,0.5,1.2,1.2c0,0.4-0.2,0.8-0.5,1l-1.7,1.2c-0.3,0.2-0.4,0.6-0.3,0.9l0.7,2c0.2,0.5,0,1-0.4,1.4
	C231.9,57.3,231.7,57.4,231.4,57.4z"/>
<path class="st5" d="M38.4,103.5c-0.3,0-0.5-0.1-0.7-0.2l-1.7-1.2c-0.3-0.2-0.7-0.2-1,0l-1.7,1.2c-0.5,0.4-1.3,0.3-1.7-0.3
	c-0.2-0.3-0.3-0.7-0.2-1.1l0.7-2c0.1-0.3,0-0.7-0.3-0.9l-1.7-1.2c-0.5-0.4-0.7-1.2-0.3-1.7c0.2-0.3,0.6-0.5,1-0.5h2.1
	c0.4,0,0.7-0.2,0.8-0.6l0.7-2c0.2-0.6,0.9-1,1.5-0.8c0.4,0.1,0.7,0.4,0.8,0.8l0.7,2c0.1,0.3,0.4,0.6,0.8,0.6h2.1
	c0.7,0,1.2,0.5,1.2,1.2c0,0.4-0.2,0.8-0.5,1L39.3,99c-0.3,0.2-0.4,0.6-0.3,0.9l0.7,2c0.2,0.5,0,1-0.4,1.4
	C38.9,103.4,38.7,103.5,38.4,103.5z"/>
<path class="st5" d="M395,31c-0.3,0-0.5-0.1-0.7-0.2l-1.7-1.2c-0.3-0.2-0.7-0.2-1,0l-1.7,1.2c-0.5,0.4-1.3,0.3-1.7-0.3
	c-0.2-0.3-0.3-0.7-0.2-1.1l0.7-2c0.1-0.3,0-0.7-0.3-0.9l-1.7-1.2c-0.5-0.4-0.7-1.2-0.3-1.7c0.2-0.3,0.6-0.5,1-0.5h2.1
	c0.4,0,0.7-0.2,0.8-0.6l0.7-2c0.2-0.6,0.9-1,1.5-0.8c0.4,0.1,0.7,0.4,0.8,0.8l0.7,2c0.1,0.3,0.4,0.6,0.8,0.6h2.1
	c0.7,0,1.2,0.5,1.2,1.2c0,0.4-0.2,0.8-0.5,1l-1.7,1.2c-0.3,0.2-0.4,0.6-0.3,0.9l0.7,2c0.2,0.5,0,1-0.4,1.4
	C395.5,30.9,395.3,31,395,31z"/>
<path class="st7" d="M712.8,103.7c-0.3,0-0.6-0.1-0.8-0.3c-0.5-0.3-0.7-0.8-0.5-1.4l0.7-1.9c0.1-0.3,0-0.6-0.3-0.8l-1.7-1.1
	c-0.6-0.4-0.7-1.2-0.3-1.8c0.3-0.3,0.7-0.5,1.1-0.5h2.1c0.3,0,0.6-0.2,0.7-0.5l0.7-1.9c0.2-0.7,1-1,1.7-0.8c0.4,0.1,0.7,0.4,0.9,0.8
	l0.7,1.9c0.1,0.3,0.4,0.5,0.7,0.5h2.1c0.7,0,1.3,0.6,1.3,1.2c0,0.4-0.2,0.8-0.5,1l-1.7,1.1c-0.3,0.2-0.4,0.5-0.3,0.8l0.7,1.9
	c0.2,0.7-0.2,1.3-0.9,1.6c-0.4,0.1-0.8,0.1-1.2-0.2l-1.7-1.1c-0.3-0.2-0.6-0.2-0.8,0l-1.7,1.1C713.4,103.6,713.1,103.7,712.8,103.7z
	 M715.7,101.6c0.3,0,0.6,0.1,0.8,0.3l1.7,1.1c0.3,0.2,0.8,0.2,1-0.2c0.1-0.2,0.2-0.4,0.1-0.6l-0.7-1.9c-0.2-0.5,0-1,0.5-1.4l1.7-1.1
	c0.3-0.2,0.4-0.7,0.2-0.9c-0.1-0.2-0.3-0.3-0.6-0.3h-2.1c-0.6,0-1.1-0.4-1.3-0.8l-0.7-1.9c-0.1-0.4-0.5-0.6-0.9-0.5
	c-0.2,0.1-0.4,0.2-0.5,0.5l-0.7,1.9c-0.2,0.5-0.7,0.8-1.3,0.8h-2.1c-0.4,0-0.7,0.3-0.7,0.7c0,0.2,0.1,0.4,0.3,0.6l1.7,1.1
	c0.5,0.3,0.7,0.8,0.5,1.4l-0.7,1.9c-0.1,0.4,0.1,0.8,0.5,0.8c0.2,0.1,0.5,0,0.6-0.1l1.7-1.1C715.2,101.6,715.5,101.6,715.7,101.6z"
	/>
<path class="st7" d="M189.2,109.2c-0.3,0-0.6-0.1-0.8-0.3c-0.5-0.3-0.7-0.9-0.4-1.5l0.8-2c0.1-0.3,0-0.6-0.3-0.8l-1.6-1.3
	c-0.6-0.4-0.6-1.3-0.2-1.9c0.3-0.3,0.7-0.5,1.1-0.5l2.1,0.1c0.3,0,0.6-0.2,0.7-0.5l0.8-2c0.2-0.7,1-1.1,1.7-0.8
	c0.4,0.1,0.7,0.4,0.9,0.9l0.6,2c0.1,0.3,0.4,0.5,0.7,0.5l2.1,0.1c0.7,0,1.3,0.7,1.2,1.4c0,0.4-0.2,0.8-0.5,1.1l-1.7,1.1
	c-0.3,0.2-0.4,0.5-0.3,0.8l0.6,2c0.2,0.7-0.3,1.4-1,1.7c-0.4,0.1-0.8,0.1-1.2-0.3l-1.6-1.3c-0.3-0.2-0.6-0.2-0.8,0l-1.7,1.1
	C189.7,109.1,189.5,109.2,189.2,109.2z M192.2,107c0.3,0,0.6,0.1,0.8,0.3l1.6,1.3c0.3,0.2,0.8,0.2,1-0.2c0.1-0.2,0.2-0.4,0.1-0.6
	l-0.6-2c-0.2-0.5,0-1.1,0.6-1.5l1.7-1.1c0.3-0.2,0.4-0.7,0.2-1c-0.1-0.2-0.3-0.3-0.6-0.3l-2.1-0.1c-0.6,0-1.1-0.4-1.3-1l-0.6-2
	c-0.1-0.4-0.5-0.6-0.9-0.5c-0.2,0.1-0.4,0.2-0.5,0.5l-0.8,2c-0.2,0.5-0.7,0.9-1.3,0.8l-2.1-0.1c-0.4,0-0.7,0.3-0.7,0.7
	c0,0.2,0.1,0.4,0.3,0.6l1.6,1.3c0.5,0.3,0.7,0.9,0.4,1.5l-0.8,2c-0.1,0.4,0.1,0.8,0.5,0.9c0.2,0.1,0.5,0,0.6-0.1l1.7-1.1
	C191.6,107.1,191.9,107,192.2,107z"/>
<path class="st5" d="M500.2,102c-0.3,0-0.5-0.1-0.7-0.2l-1.7-1.2c-0.3-0.2-0.7-0.2-1,0l-1.7,1.2c-0.5,0.4-1.3,0.3-1.7-0.3
	c-0.2-0.3-0.3-0.7-0.2-1.1l0.7-2c0.1-0.3,0-0.7-0.3-0.9l-1.7-1.2c-0.5-0.4-0.7-1.2-0.3-1.7c0.2-0.3,0.6-0.5,1-0.5h2.1
	c0.4,0,0.7-0.2,0.8-0.6l0.7-2c0.2-0.6,0.9-1,1.5-0.8c0.4,0.1,0.7,0.4,0.8,0.8l0.7,2c0.1,0.3,0.4,0.6,0.8,0.6h2.1
	c0.7,0,1.2,0.5,1.2,1.2c0,0.4-0.2,0.8-0.5,1l-1.7,1.2c-0.3,0.2-0.4,0.6-0.3,0.9l0.7,2c0.2,0.5,0,1-0.4,1.4
	C500.7,101.9,500.5,102,500.2,102z"/>
<path class="st5" d="M651.2,23c-0.3,0-0.5-0.1-0.7-0.2l-1.7-1.2c-0.3-0.2-0.7-0.2-1,0l-1.7,1.2c-0.5,0.4-1.3,0.3-1.7-0.3
	c-0.2-0.3-0.3-0.7-0.2-1.1l0.7-2c0.1-0.3,0-0.7-0.3-0.9l-1.7-1.2c-0.5-0.4-0.7-1.2-0.3-1.7c0.2-0.3,0.6-0.5,1-0.5h2.1
	c0.4,0,0.7-0.2,0.8-0.6l0.7-2c0.2-0.6,0.9-1,1.5-0.8c0.4,0.1,0.7,0.4,0.8,0.8l0.7,2c0.1,0.3,0.4,0.6,0.8,0.6h2.1
	c0.7,0,1.2,0.5,1.2,1.2c0,0.4-0.2,0.8-0.5,1l-1.7,1.2c-0.3,0.2-0.4,0.6-0.3,0.9l0.7,2c0.2,0.5,0,1-0.4,1.4
	C651.7,22.9,651.5,23,651.2,23z"/>
</svg>
