<?xml version="1.0" encoding="utf-8"?>
<!-- Generator: Adobe Illustrator 22.0.0, SVG Export Plug-In . SVG Version: 6.00 Build 0)  -->
<svg version="1.1" id="Ebene_1" xmlns="http://www.w3.org/2000/svg" xmlns:xlink="http://www.w3.org/1999/xlink" x="0px" y="0px"
	 viewBox="0 0 750 120" style="enable-background:new 0 0 750 120;" xml:space="preserve">
<style type="text/css">
	.st0{fill:#FCE6B3;}
	.st1{fill:#E1A61A;}
	.st2{fill:#233033;}
	.st3{fill:#F8C143;}
	.st4{fill:#FFFFFF;}
</style>
<rect class="st0" width="750" height="120"/>
<circle class="st1" cx="153.3" cy="27.8" r="5.1"/>
<circle class="st2" cx="282.7" cy="56.3" r="3.1"/>
<circle class="st2" cx="68.3" cy="82.3" r="1.5"/>
<circle class="st2" cx="199.6" cy="38.5" r="1.5"/>
<circle class="st2" cx="608.8" cy="28.8" r="1.5"/>
<circle class="st2" cx="267.4" cy="24.2" r="1.5"/>
<circle class="st2" cx="135" cy="87.4" r="1.5"/>
<circle class="st2" cx="191" cy="74.6" r="1.5"/>
<circle class="st2" cx="115.6" cy="42.5" r="1.5"/>
<circle class="st2" cx="49" cy="24.1" r="1.5"/>
<circle class="st3" cx="20.6" cy="59.3" r="4.6"/>
<g>
	<path class="st1" d="M577,43c0,9.5-14.7,31.7-19,37.9c-0.4,0.6-1.3,0.8-1.9,0.4c-0.2-0.1-0.3-0.2-0.4-0.4c-4.3-6.3-19-28.4-19-37.9
		c0-11.1,9-20.2,20.2-20.2C568,22.9,577,31.9,577,43L577,43z"/>
	<circle class="st4" cx="556.9" cy="41.6" r="10.2"/>
	<ellipse class="st1" cx="556.7" cy="90.2" rx="11.8" ry="2.3"/>
</g>
<circle class="st2" cx="441.5" cy="34.4" r="3.1"/>
<circle class="st2" cx="629.6" cy="75.6" r="1.5"/>
<circle class="st2" cx="668.9" cy="64.4" r="1.5"/>
<circle class="st1" cx="246.2" cy="85.8" r="5.1"/>
<circle class="st2" cx="693.5" cy="35.4" r="3.1"/>
<ellipse class="st2" cx="377.7" cy="71.1" rx="3.1" ry="1.5"/>
<circle class="st1" cx="477.3" cy="56.8" r="5.1"/>
<circle class="st2" cx="327.6" cy="45.5" r="1.5"/>
<circle class="st2" cx="348" cy="88.4" r="1.5"/>
<circle class="st2" cx="428" cy="85.4" r="1.5"/>
<circle class="st2" cx="508" cy="35.4" r="1.5"/>
<circle class="st2" cx="524" cy="82.4" r="1.5"/>
</svg>
