<?xml version="1.0" encoding="utf-8"?>
<!-- Generator: Adobe Illustrator 22.0.0, SVG Export Plug-In . SVG Version: 6.00 Build 0)  -->
<svg version="1.1" id="Ebene_1" xmlns="http://www.w3.org/2000/svg" xmlns:xlink="http://www.w3.org/1999/xlink" x="0px" y="0px"
	 viewBox="0 0 350 140" style="enable-background:new 0 0 350 140;" xml:space="preserve">
<style type="text/css">
	.st0{fill:#F04141;}
	.st1{fill:#10DC60;}
	.st2{fill:#3880FF;}
	.st3{fill:#FFCE00;}
	.st4{fill:#7044FF;}
	.st5{fill:#11D3EA;}
	.st6{fill:#0CD1E8;}
</style>
<g>
	<path class="st0" d="M61.9-34.2l96.2,54.5l-67,54.5L22,34.9L61.9-34.2z"/>
	<circle class="st1" cx="155.5" cy="135.5" r="57.5"/>
	<path class="st2" d="M208.5,9.5L293,24.9l-69,69L208.5,9.5z"/>
	<path class="st3" d="M268.6,106.6L315,79.8l46.3,26.8v53.5L315,186.8l-46.3-26.8V106.6z"/>
	<circle class="st4" cx="299.5" cy="9.5" r="38.5"/>
	<path class="st5" d="M109.5,15.4L109.5,15.4c1.4-2.4,4.5-3.3,7-1.9l69,39.8c2.4,1.4,3.3,4.5,1.9,7l0,0c-1.4,2.4-4.5,3.3-7,1.9
		l-69-39.8C109,21,108.1,17.9,109.5,15.4z"/>
	<path class="st4" d="M-25.4,74.3l84.9,8.1c5.5,0.5,9.5,5.4,9,10.9c0,0.2,0,0.3-0.1,0.5l-12.4,85.7c-0.8,5.5-5.9,9.3-11.3,8.5
		c-0.1,0-0.2,0-0.3,0l-86.4-15.2c-5.4-1-9.1-6.1-8.1-11.6l13.9-78.6C-35.3,77.3-30.6,73.8-25.4,74.3z"/>
	<circle class="st6" cx="273.5" cy="106.5" r="20.5"/>
</g>
</svg>
