<?xml version="1.0" encoding="utf-8"?>
<!-- Generator: Adobe Illustrator 22.0.0, SVG Export Plug-In . SVG Version: 6.00 Build 0)  -->
<svg version="1.1" id="Ebene_1" focusable="false" xmlns="http://www.w3.org/2000/svg" xmlns:xlink="http://www.w3.org/1999/xlink"
	 x="0px" y="0px" viewBox="0 0 1240 1240" style="enable-background:new 0 0 1240 1240;" xml:space="preserve">
<style type="text/css">
	.st0{fill:#F9CE64;}
	.st1{fill:#233033;}
	.st2{fill:#F8C143;}
	.st3{opacity:0.1;fill:#233033;enable-background:new    ;}
</style>
<rect y="0.4" class="st0" width="1239.6" height="1239.6"/>
<g>
	<circle class="st1" cx="620.5" cy="621" r="556.8"/>
	<g>
		<path class="st2" d="M815.7,541.8c0,0-3.6,41.2-10,100.6c-2.1,19.1-4.6,40.6-7.3,63c-3.9,31.2-8.2,64.6-13.2,98.1
			c-3.1,20.8-6.4,41.2-9.8,61.5c-18.7,108.6-42.9,204.3-71.6,212.3c-64.3,17.5-303.3-384.7-329.8-429.4c-1.3-2.5-2.3-3.9-2.3-3.9
			L815.7,541.8z"/>
		<path class="st3" d="M805.7,642.4c-2.1,19.1-4.6,40.6-7.3,63l-206.9-112l86.7-19.8L805.7,642.4z"/>
		<path class="st3" d="M785.1,803.4c-3.1,20.8-6.4,41.2-9.8,61.5L374.2,648.3c-1.3-2.5-2.3-3.9-2.3-3.9l83.3-19.1L785.1,803.4z"/>
		<path class="st0" d="M512.9,206.3c-16.7,20.8-50.2,22.1-65.9,43.8c-10.8,14.9-9.6,35.5-2.1,52c7.7,16.4,21,29.6,34.2,42.2
			c8.9,8.9,18.5,17.3,29.6,23.1c15.7,7.7,34,8.9,51.5,9.1c38.3,0.5,76.7-2.8,114.3-9.3c16.7-3,35.3-8.2,43.8-23.1
			c4.8-8.7,5.2-19,5-29.1c-0.5-15.5-2.5-31.9-11.6-44.2c-7.7-10.3-19.3-16.4-31.2-21.6c-36.5-16.4-77.3-27.8-104.2-57.7
			c-10.8-11.8-19-26.7-32.9-34.5c-18-10.3-52.5-8.5-67.7,4.8C479.6,167.6,522.9,193.8,512.9,206.3z"/>
		<path class="st0" d="M378.8,405.9c-1.3,22.4-1.6,45.8,8.5,65.6c13.2,26.5,42.4,41.7,71.6,45.6c29.1,3.9,58.9-1.6,87.5-7L697.8,481
			c19-3.6,38.6-7.3,57.7-4.8c16,1.8,35.3,6.6,45.1-5.7c4.6-5.7,5.4-13.4,5.9-20.6c1.3-23.7-0.7-48.6-14.1-67.9
			c-15.5-22.1-43.5-32.6-70.2-34.5c-26.7-1.8-53.8,3.6-80.5,6.6c-27.1,3.1-54.5,3.9-82.1,2.5c-22.9-1.3-46.5-4.4-65.9-16.4
			c-10.5-6.4-19.3-15.5-29.4-22.4C405.4,277,381.1,363.7,378.8,405.9z"/>
		<path class="st0" d="M367.8,509.9c-42,31.7-50.4,91.6-18.7,133.6c9.3,12.3,21.4,22.1,35.5,29c27,12.8,58.4,12.1,87.8,7.5
			c29-4.4,57.1-12.3,84.9-20.3l248.1-70.5c14.4-4.1,30.8-9.6,37-23.5c4.6-10.3,2.3-22.4-1.8-32.9c-14.9-37.8-52.2-65.6-92.6-68.9
			c-15.2-1.3-30.6,1-45.8,3l-109.9,14.6c-14.9,1.8-29.6,3.9-44.5,3.4c-45.1-1.6-91-26.7-133.6-11.6c-29,10.3-48.6,36.8-65.4,62.3"/>
		<path class="st3" d="M469.3,307.9c0,0,49.7,55.1,235.6,39.2"/>
		<path class="st3" d="M407.9,496.9c0,0,80.3,51.1,349.6-11.1"/>
		
			<ellipse transform="matrix(0.9745 -0.2244 0.2244 0.9745 -45.0079 121.5219)" class="st2" cx="512.1" cy="258.8" rx="17.5" ry="5.9"/>
		
			<ellipse transform="matrix(0.9745 -0.2244 0.2244 0.9745 -48.7004 136.9182)" class="st2" cx="578" cy="282.7" rx="17.5" ry="5.9"/>
		
			<ellipse transform="matrix(0.9745 -0.2244 0.2244 0.9745 -52.3648 154.4571)" class="st2" cx="653.4" cy="307.6" rx="17.5" ry="5.9"/>
		
			<ellipse transform="matrix(0.9745 -0.2244 0.2244 0.9745 -73.8696 105.7323)" class="st2" cx="428.2" cy="377.9" rx="17.5" ry="5.9"/>
		
			<ellipse transform="matrix(0.9745 -0.2244 0.2244 0.9745 -74.4393 141.8257)" class="st2" cx="586.7" cy="398.4" rx="17.5" ry="5.9"/>
		
			<ellipse transform="matrix(0.9745 -0.2244 0.2244 0.9745 -114.8042 105.3536)" class="st2" cx="406.1" cy="557.8" rx="17.5" ry="5.9"/>
		
			<ellipse transform="matrix(0.9745 -0.2244 0.2244 0.9745 -83.2349 121.0061)" class="st2" cx="490.8" cy="426.7" rx="17.5" ry="5.9"/>
		
			<ellipse transform="matrix(0.9745 -0.2244 0.2244 0.9745 -120.8844 118.0839)" class="st2" cx="459.1" cy="590.9" rx="17.5" ry="5.9"/>
		
			<ellipse transform="matrix(0.9745 -0.2244 0.2244 0.9745 -106.6046 140.5024)" class="st2" cx="564.8" cy="539.3" rx="17.5" ry="5.9"/>
		
			<ellipse transform="matrix(0.9745 -0.2244 0.2244 0.9745 -124.2411 163.2565)" class="st0" cx="656.1" cy="628.2" rx="19" ry="39.7"/>
		
			<ellipse transform="matrix(0.9745 -0.2244 0.2244 0.9745 -125.642 169.3555)" class="st0" cx="682.3" cy="637.4" rx="19" ry="39.7"/>
		<path class="st2" d="M730,1018.9c0-1-0.5-19.8,13.7-51.3c13.1-28.8,41.1-73.6,101.4-123.8c114.5-95.1,115.2-224.6,115.2-226h3.6
			c0,0.5,0,33.5-14.4,78c-19,59.1-54.5,111.3-102.4,150.8c-114.5,95.1-113.8,171.3-113.8,172.2L730,1018.9L730,1018.9z"/>
		<ellipse class="st0" cx="958.7" cy="580.1" rx="23.7" ry="23.7"/>
		<ellipse class="st2" cx="979.9" cy="693" rx="23.7" ry="23.7"/>
		<ellipse class="st0" cx="906.8" cy="718.1" rx="23.7" ry="23.7"/>
		<ellipse class="st0" cx="935.9" cy="791.6" rx="23.7" ry="23.7"/>
		<ellipse class="st2" cx="828.3" cy="818.1" rx="23.7" ry="23.7"/>
		<path class="st2" d="M742.1,1026.7c0,0,8.7-62.3,91.9-64.8L742.1,1026.7z"/>
		<path class="st2" d="M717.2,1011.4c0,0,21.4-59.1-51.1-100.1L717.2,1011.4z"/>
	</g>
</g>
</svg>
