<?xml version="1.0" encoding="utf-8"?>
<!-- Generator: Adobe Illustrator 22.0.0, SVG Export Plug-In . SVG Version: 6.00 Build 0)  -->
<svg version="1.1" id="Ebene_1" xmlns="http://www.w3.org/2000/svg" xmlns:xlink="http://www.w3.org/1999/xlink" x="0px" y="0px"
	 viewBox="0 0 2732 2732" style="enable-background:new 0 0 2732 2732;" xml:space="preserve">
<style type="text/css">
	.st0{fill:#F9CE64;}
	.st1{fill:#233033;}
	.st2{fill:#F8C143;}
	.st3{opacity:0.1;fill:#233033;enable-background:new    ;}
	.st4{fill:#FCE3AB;}
	.st5{fill:#4A4A4A;}
	.st6{fill:#E1A61A;}
	.st7{fill:#FFFFFF;}
</style>
<rect x="-1" y="1" class="st0" width="2732" height="2732"/>
<g>
	<circle class="st1" cx="1366" cy="693.9" r="439.7"/>
	<g>
		<path class="st2" d="M1520.2,631.4c0,0-2.9,32.6-7.9,79.4c-1.6,15.1-3.6,32.1-5.8,49.7c-3.1,24.7-6.5,51-10.4,77.5
			c-2.5,16.4-5,32.6-7.7,48.6c-14.8,85.7-33.9,161.4-56.6,167.7c-50.8,13.9-239.6-303.9-260.5-339.2c-1.1-2-1.8-3.1-1.8-3.1
			L1520.2,631.4z"/>
		<path class="st3" d="M1512.3,710.8c-1.6,15.1-3.6,32.1-5.8,49.7l-163.4-88.4l68.5-15.7L1512.3,710.8z"/>
		<path class="st3" d="M1496.1,838c-2.5,16.4-5,32.6-7.7,48.6l-316.9-171.1c-1.1-2-1.8-3.1-1.8-3.1l65.8-15.1L1496.1,838z"/>
		<path class="st0" d="M1281,366.4c-13.2,16.4-39.6,17.5-52.1,34.6c-8.5,11.7-7.6,28.1-1.6,41.1c6.1,13,16.6,23.4,27,33.3
			c7,7,14.6,13.7,23.4,18.2c12.4,6.1,26.8,7,40.7,7.2c30.3,0.4,60.5-2.2,90.2-7.4c13.2-2.3,27.9-6.5,34.6-18.2
			c3.8-6.8,4.1-15,4-23.1c-0.4-12.2-2-25.2-9.2-34.9c-6.1-8.1-15.3-13-24.7-17.1c-28.8-13-61.1-22-82.3-45.6
			c-8.5-9.4-15-21.1-25.9-27.2c-14.2-8.1-41.4-6.7-53.5,3.8C1254.7,335.8,1288.9,356.5,1281,366.4z"/>
		<path class="st0" d="M1175.1,524c-1.1,17.7-1.3,36.2,6.7,51.9c10.4,20.9,33.5,33,56.6,36c23.1,3.1,46.5-1.3,69.2-5.6l119.6-23.1
			c15-2.9,30.4-5.8,45.6-3.8c12.6,1.4,27.9,5.2,35.7-4.5c3.6-4.5,4.3-10.6,4.7-16.2c1.1-18.7-0.5-38.4-11.2-53.7
			c-12.2-17.5-34.4-25.8-55.5-27.2s-42.5,2.9-63.6,5.2c-21.4,2.5-43.1,3.1-64.8,2c-18-1.1-36.7-3.4-52.1-13
			c-8.3-5-15.3-12.2-23.2-17.7C1196.1,422.3,1176.9,490.7,1175.1,524z"/>
		<path class="st0" d="M1166.4,606.2c-33.1,25-39.8,72.4-14.8,105.6c7.4,9.7,16.9,17.5,28.1,22.9c21.3,10.1,46.1,9.5,69.4,5.9
			c22.9-3.4,45-9.7,67-16l196-55.7c11.3-3.2,24.3-7.6,29.2-18.6c3.6-8.1,1.8-17.7-1.4-25.9c-11.7-29.9-41.3-51.9-73.1-54.4
			c-12.1-1.1-24.1,0.7-36.2,2.3l-86.8,11.5c-11.7,1.4-23.4,3.1-35.1,2.7c-35.7-1.3-71.9-21.1-105.6-9.2c-22.9,8.1-38.4,29-51.7,49.2
			"/>
		<path class="st3" d="M1246.6,446.6c0,0,39.3,43.6,186.1,31"/>
		<path class="st3" d="M1198.1,595.9c0,0,63.4,40.4,276.2-8.8"/>
		
			<ellipse transform="matrix(0.9745 -0.2244 0.2244 0.9745 -58.8647 297.7299)" class="st2" cx="1280.4" cy="407.8" rx="13.9" ry="4.7"/>
		
			<ellipse transform="matrix(0.9745 -0.2244 0.2244 0.9745 -61.7813 309.8946)" class="st2" cx="1332.5" cy="426.8" rx="13.9" ry="4.7"/>
		
			<ellipse transform="matrix(0.9745 -0.2244 0.2244 0.9745 -64.6717 323.7351)" class="st2" cx="1391.9" cy="446.4" rx="13.9" ry="4.7"/>
		
			<ellipse transform="matrix(0.9745 -0.2244 0.2244 0.9745 -81.6563 285.2525)" class="st2" cx="1214.1" cy="501.9" rx="13.9" ry="4.7"/>
		
			<ellipse transform="matrix(0.9745 -0.2244 0.2244 0.9745 -82.1012 313.76)" class="st2" cx="1339.3" cy="518.1" rx="13.9" ry="4.7"/>
		
			<ellipse transform="matrix(0.9745 -0.2244 0.2244 0.9745 -113.9952 284.956)" class="st2" cx="1196.7" cy="644" rx="13.9" ry="4.7"/>
		
			<ellipse transform="matrix(0.9745 -0.2244 0.2244 0.9745 -89.0478 297.3116)" class="st2" cx="1263.5" cy="540.4" rx="13.9" ry="4.7"/>
		
			<ellipse transform="matrix(0.9745 -0.2244 0.2244 0.9745 -118.7907 295.0001)" class="st2" cx="1238.5" cy="670.1" rx="13.9" ry="4.7"/>
		
			<ellipse transform="matrix(0.9745 -0.2244 0.2244 0.9745 -107.5237 312.7184)" class="st2" cx="1322" cy="629.4" rx="13.9" ry="4.7"/>
		
			<ellipse transform="matrix(0.9745 -0.2244 0.2244 0.9745 -121.4507 330.679)" class="st0" cx="1394.1" cy="699.7" rx="15" ry="31.3"/>
		
			<ellipse transform="matrix(0.9745 -0.2244 0.2244 0.9745 -122.5393 335.5115)" class="st0" cx="1414.8" cy="706.9" rx="15" ry="31.3"/>
		<path class="st2" d="M1452.5,1008.2c0-0.7-0.4-15.7,10.8-40.5c10.3-22.7,32.4-58.2,80.2-97.8c90.4-75.1,91-177.4,91-178.5h2.9
			c0,0.4,0,26.5-11.3,61.6c-15,46.7-43.1,87.9-80.9,119.1c-90.4,75.1-89.9,135.3-89.9,136L1452.5,1008.2L1452.5,1008.2z"/>
		<ellipse class="st0" cx="1633.1" cy="661.7" rx="18.7" ry="18.7"/>
		<ellipse class="st2" cx="1649.9" cy="750.8" rx="18.7" ry="18.7"/>
		<ellipse class="st0" cx="1592.1" cy="770.6" rx="18.7" ry="18.7"/>
		<ellipse class="st0" cx="1615.1" cy="828.6" rx="18.7" ry="18.7"/>
		<ellipse class="st2" cx="1530.1" cy="849.5" rx="18.7" ry="18.7"/>
		<path class="st2" d="M1462,1014.4c0,0,6.8-49.2,72.6-51.2L1462,1014.4z"/>
		<path class="st2" d="M1442.4,1002.3c0,0,16.9-46.7-40.4-79.1L1442.4,1002.3z"/>
	</g>
</g>
<circle class="st4" cx="557.7" cy="682.5" r="17.4"/>
<circle class="st4" cx="675" cy="642.1" r="8.3"/>
<circle class="st4" cx="427.2" cy="582" r="8.5"/>
<circle class="st4" cx="859.6" cy="212" r="8.5"/>
<circle class="st4" cx="530.9" cy="836.5" r="8.5"/>
<circle class="st4" cx="715.4" cy="422.8" r="8.3"/>
<circle class="st4" cx="623.8" cy="266.2" r="8.3"/>
<circle class="st4" cx="522.4" cy="405" r="25.4"/>
<circle class="st4" cx="921.3" cy="279.4" r="6.1"/>
<circle class="st4" cx="302.5" cy="291.5" r="28.7"/>
<circle class="st4" cx="628.1" cy="919.9" r="20.7"/>
<circle class="st4" cx="334.2" cy="99.6" r="8.5"/>
<circle class="st4" cx="223.5" cy="228.8" r="8.5"/>
<path class="st4" d="M606,1318.9c-1.1,0-2.2-0.6-2.8-0.6l-6.8-5c-1.1-0.6-2.8-0.6-3.9,0l-6.8,5c-2.2,1.7-5,1.1-6.8-1.1
	c-0.6-1.1-1.1-2.8-0.6-4.6l2.8-7.9c0.6-1.1,0-2.8-1.1-3.5l-6.8-5c-2.2-1.7-2.8-5-1.1-6.8c0.6-1.1,2.2-2.2,3.9-2.2h8.5
	c1.7,0,2.8-0.6,3.5-2.2l2.8-7.9c0.6-2.2,3.5-3.9,6.3-3.5c1.7,0.6,2.8,1.7,3.5,3.5l2.8,7.9c0.6,1.1,1.7,2.2,3.5,2.2h8.5
	c2.8,0,5,2.2,5,5c0,1.7-0.6,3.5-2.2,3.9l-6.8,5c-1.1,0.6-1.7,2.2-1.1,3.5l2.8,7.9c0.6,2.2,0,3.9-1.7,5.7
	C608.2,1318.9,607.1,1318.9,606,1318.9z"/>
<path class="st4" d="M447,1205.8c-0.8,0-1.6-0.5-2-0.5l-4.9-3.6c-0.8-0.5-2-0.5-2.8,0l-4.9,3.6c-1.6,1.3-3.6,0.8-4.9-0.8
	c-0.5-0.8-0.8-2-0.5-3.3l2-5.7c0.5-0.8,0-2-0.8-2.5l-4.9-3.6c-1.6-1.3-2-3.6-0.8-4.9c0.5-0.8,1.6-1.6,2.8-1.6h6.1
	c1.3,0,2-0.5,2.5-1.6l2-5.7c0.5-1.6,2.5-2.8,4.6-2.5c1.3,0.5,2,1.3,2.5,2.5l2,5.7c0.5,0.8,1.3,1.6,2.5,1.6h6.1c2,0,3.6,1.6,3.6,3.6
	c0,1.3-0.5,2.5-1.6,2.8l-4.9,3.6c-0.8,0.5-1.3,1.6-0.8,2.5l2,5.7c0.5,1.6,0,2.8-1.3,4.1C448.5,1205.3,447.8,1205.8,447,1205.8z"/>
<path class="st4" d="M637.2,1187.6c-0.8,0-1.6-0.5-2-0.5l-4.9-3.6c-0.8-0.5-2-0.5-2.8,0l-4.9,3.6c-1.6,1.3-3.6,0.8-4.9-0.8
	c-0.5-0.8-0.8-2-0.5-3.3l2-5.7c0.5-0.8,0-2-0.8-2.5l-4.9-3.6c-1.6-1.3-2-3.6-0.8-4.9c0.5-0.8,1.6-1.6,2.8-1.6h6.1
	c1.3,0,2-0.5,2.5-1.6l2-5.7c0.5-1.6,2.5-2.8,4.6-2.5c1.3,0.5,2,1.3,2.5,2.5l2,5.7c0.5,0.8,1.3,1.6,2.5,1.6h6.1c2,0,3.6,1.6,3.6,3.6
	c0,1.3-0.5,2.5-1.6,2.8l-4.9,3.6c-0.8,0.5-1.3,1.6-0.8,2.5l2,5.7c0.5,1.6,0,2.8-1.3,4.1C638.8,1187.6,638.3,1187.6,637.2,1187.6z"/>
<g>
	<path class="st5" d="M1505.6,2112.4c-2.1,20.6-4.2,41.7-6.7,61.1h58.1c2.1-20.6,4.2-40.4,7.6-61.1H1505.6z"/>
	<path class="st5" d="M1553.7,2328.9c-1.3-20.6-2.1-40.4-1.3-61.1h-59c-1.3,22.7-1.3,43.8-1.3,61.1H1553.7z"/>
	<path class="st5" d="M1653.1,1786.3c48-128.9,95.2-215.7,95.2-215.7l-49.3-29.5c-51.4,77.5-89.7,160.9-119.2,245.2H1653.1z"/>
	<path class="st5" d="M1497.6,2189.9c-2.1,21.9-3.4,42.5-4.2,61.1h58.1c1.3-20.6,2.1-40.4,3.4-61.1H1497.6z"/>
	<path class="st5" d="M1517.4,2034.9c-3.4,20.6-6.7,41.7-9.7,61.1h60.2c3.4-20.6,7.6-40.4,12.2-61.1H1517.4z"/>
	<path class="st5" d="M1574.3,1802.8c-6.7,20.6-13.1,40.4-18.5,61.1h69.9c6.7-20.6,14.3-41.7,20.6-61.1H1574.3z"/>
	<path class="st5" d="M1531.8,1958.2c-4.2,20.6-8.8,41.7-12.2,61.1h63.6c4.2-20.6,9.7-41.7,15.2-61.1H1531.8z"/>
	<path class="st5" d="M1491.3,2344.5c0,26.1,1.3,41.7,1.3,41.7l-1.3,12.2h69.1c-3.4-17.7-4.2-35-6.7-53.5L1491.3,2344.5
		L1491.3,2344.5z"/>
	<path class="st5" d="M1551.6,1880.7c-5.5,20.6-11,40.4-15.2,61.1h66.6c5.5-20.6,12.2-41.7,18.5-61.1H1551.6z"/>
	<path class="st6" d="M2043.6,1627.9c-24-51.4-49.3-89.7-73.3-117.1l-12.2,19.8l1.3-31.6c-8.8-8.8-17.7-16.4-26.1-24l-17.7,26.1
		l1.3-37.1c-9.7-6.7-20.6-12.2-32.9-16.4l-13.1,19.8l1.3-23.2c-43.8-11-80,4.2-100.7,16.4l-12.2-2.1l21.9-8.8
		c-2.1-12.2-5.5-24-9.7-35l-37.1-5.5l28.6-12.2c-5.5-11-12.2-20.6-18.5-30.8l-31.6-4.2l20.6-8.8c-23.2-28.6-56.9-60.2-101.5-93.1
		c0,0-3.4,29.5-5.5,71.2l30.8,31.6l-31.6-8.8c0,13.1,0,26.1,0,39.2l23.2,23.2l-23.2-5.5c0,11,1.3,20.6,1.3,31.6
		c-19.8-4.2-39.2-4.2-59,0l1.3,23.2l-13.1-19.8c-11,4.2-21.9,9.7-32.9,16.4l1.3,37.1l-17.7-26.1c-9.7,7.6-18.5,15.2-26.1,24
		l1.3,31.6l-12.2-19.8c-24,28.6-48,66.6-73.3,117.1c0,0,29.5-2.1,71.2-7.6l25.3-36.2l-2.1,32.9c12.2-2.1,25.3-4.2,39.2-6.7
		l18.5-26.1l-2.1,23.2c18.5-4.2,37.1-8.8,54.8-14.3l13.1,12.2l-23.2-4.2c-5.5,11-8.8,23.2-12.2,33.7l27.4,25.3l-30.8-6.7
		c-1.3,12.2-2.1,24-1.3,36.2l23.2,21.9l-23.2-4.2c3.4,37.1,13.1,80.9,31.6,134.4c0,0,19.8-23.2,44.7-55.6l-7.6-43.8l21.9,25.3
		c7.6-9.7,15.2-20.6,23.2-32.9l-5.5-31.6l15.2,17.7c15.2-24,29.5-49.3,40.4-73.3c13.1,17.7,28.6,35,43.8,51.4l12.2-19.8v32.9
		c9.7,9.7,19.8,18.5,28.6,27.4l16.4-28.6l1.3,44.7c30.8,27.4,53.5,45.9,53.5,45.9c8.8-55.6,9.7-101.5,5.5-137.7l-20.6,8.8l18.5-26.1
		c-2.1-12.2-4.2-23.2-7.6-35l-28.6,12.2l14.3-18.5c5.5,1.3,12.2,3.4,17.7,4.2l-2.1-23.2l18.5,26.1c13.1,2.1,26.1,4.2,39.2,6.7
		l-2.1-32.9l25.3,36.2C2012.8,1625.8,2043.6,1627.9,2043.6,1627.9z"/>
	<path class="st5" d="M1402.9,2075.3c2.1,15.2,3.4,29.5,4.2,42.5h-40.4c-1.3-14.3-3.4-28.6-5.5-42.5H1402.9z"/>
	<path class="st5" d="M1370,2227.4c1.3-14.3,1.3-28.6,1.3-42.5h41.7c1.3,16.4,1.3,30.8,1.3,42.5H1370z"/>
	<path class="st5" d="M1298.8,1845.3c-33.7-91-67.8-152.1-67.8-152.1l35-20.6c36.2,54.8,63.6,113.7,84.3,172.7H1298.8z"/>
	<path class="st5" d="M1408.3,2130.1c1.3,15.2,2.1,29.5,3.4,42.5H1370c0-14.3-1.3-28.6-2.1-42.5H1408.3z"/>
	<path class="st5" d="M1394.9,2020.6c2.1,15.2,4.2,29.5,6.7,42.5H1359c-2.1-14.3-5.5-28.6-8.8-42.5H1394.9z"/>
	<path class="st5" d="M1354.4,1856.3c4.2,14.3,9.7,28.6,13.1,42.5h-49.3c-4.2-15.2-9.7-29.5-15.2-42.5H1354.4z"/>
	<path class="st5" d="M1383.9,1965.8c3.4,14.3,6.7,29.5,8.8,42.5h-44.7c-3.4-14.3-6.7-29.5-11-42.5H1383.9z"/>
	<path class="st5" d="M1412.5,2239.2c0,18.5-1.3,29.5-1.3,29.5v8.8h-48c2.1-12.2,3.4-25.3,4.2-37.1L1412.5,2239.2z"/>
	<path class="st5" d="M1370.8,1911c4.2,14.3,7.6,28.6,11,42.5h-47.2c-4.2-14.3-8.8-29.5-13.1-42.5H1370.8z"/>
	<path class="st6" d="M1023.3,1732.8c17.7-36.2,35-63.6,51.4-83l8.8,13.1l-1.3-23.2c5.5-6.7,12.2-12.2,18.5-17.7l12.2,18.5
		l-1.3-26.1c7.6-4.2,15.2-8.8,23.2-11l8.8,14.3v-16.4c30.8-7.6,55.6,3.4,71.2,12.2l8.8-1.3l-15.2-6.7c1.3-8.8,3.4-16.4,6.7-24
		l26.1-4.2l-20.6-8.8c4.2-7.6,8.8-14.3,13.1-21.9l21.9-3.4l-15.2-6.7c16.4-19.8,39.2-42.5,72-65.7c0,0,2.1,20.6,3.4,50.1l-21.9,21.9
		l23.2-5.5c0,8.8,0,18.5,0,28.6l-16.4,16.4l16.4-4.2c0,7.6-1.3,14.3-1.3,21.9c14.3-3.4,28.6-3.4,41.7,0v16.4l8.8-14.3
		c7.6,3.4,15.2,6.7,23.2,11l-1.3,26.1l12.2-18.5c6.7,5.5,13.1,11,18.5,17.7l-1.3,23.2l8.8-13.1c16.4,19.8,33.7,47.2,51.4,83
		c0,0-20.6-1.3-50.1-5.5l-18.5-25.3l2.1,23.2c-8.8-1.3-18.5-3.4-27.4-4.2l-13.1-18.5l1.3,16.4c-13.1-3.4-26.1-6.7-39.2-9.7l-8.8,8.8
		l16.4-3.4c3.4,7.6,6.7,16.4,7.6,24l-19.8,18.5l21.9-4.2c1.3,8.8,1.3,16.4,1.3,25.3l-16.4,15.2l15.2-3.4
		c-2.1,26.1-8.8,56.9-21.9,95.2c0,0-14.3-16.4-31.6-39.2l5.5-30.8l-16.9,17.3c-5.5-7.6-11-15.2-16.4-23.2l4.2-23.2l-11,12.2
		c-11-16.4-20.6-33.7-28.6-51.4c-9.7,13.1-19.8,25.3-30.8,36.2l-8.8-14.3v23.2c-6.7,6.7-13.1,13.1-19.8,19.8l-8.8-20.6v31.6
		c-21.9,19.8-38.3,32.9-38.3,32.9c-6.7-39.2-6.7-71.2-4.2-97.3l15.2,6.7l-13.1-18.5c1.3-8.8,3.4-16.4,5.5-25.3l20.6,8.8l-9.7-13.1
		c-4.2,1.3-8.8,2.1-12.2,3.4l1.3-16.4l-13.1,18.5c-9.7,2.1-18.5,3.4-27.4,4.2l2.1-23.2l-18.5,25.3
		C1044.8,1731.6,1023.3,1732.8,1023.3,1732.8z"/>
	<ellipse class="st5" cx="922.6" cy="2402.2" rx="234.2" ry="21.9"/>
	<ellipse class="st5" cx="1485.8" cy="2402.2" rx="234.2" ry="21.9"/>
	<path class="st0" d="M1663.2,2176c0,0,16.4,117.1-64.5,187c-52.7,44.7-126.8,52.7-189.1,20.6c-23.2-12.2-47.2-29.5-69.9-56.9
		c-8.8-9.7-16.4-20.6-24-31.6c-11-16.4-19.8-33.7-28.6-51.4c-5.5-11-9.7-23.2-14.3-36.2c-1.3-2.1-2.1-4.2-2.1-7.6
		c-41.7-124.7,39.2-161.8,115-170.6c15.2-2.1,31.6-2.1,47.2-2.1c18.5,0,37.1,1.3,55.6,4.2c0,0,1.3,0,4.2,0
		c14.3,1.3,28.6,2.1,42.5,4.2C1594.1,2046.7,1682.6,2078.7,1663.2,2176z"/>
	<path class="st0" d="M1146.7,2207.6c-37.1,101.5-91,150.8-136.9,174.8c-61.1,31.6-136.9,24-189.1-20.6c-5.5-4.2-9.7-8.8-14.3-14.3
		c-8.8-9.7-17.7-20.6-24-32.9c-8.8-15.2-15.2-30.8-19.8-48c-4.2-18.5-7.6-37.1-7.6-55.6c-1.3-12.2,0-24,1.3-36.2
		c-18.5-91.8,58.1-124.7,115.8-136.9c16.4-3.4,33.7-5.5,50.1-6.7c5.5,0,7.6,0,7.6,0c30.8-4.2,61.1-5.5,91-2.1
		C1102.1,2035.7,1196.9,2069.8,1146.7,2207.6z"/>
	<path class="st6" d="M922.6,2031.5L763,2267.8c-4.2-18.5-7.6-37.1-7.6-55.6l117.1-174C888.5,2034.9,906.2,2032.8,922.6,2031.5z"/>
	<path class="st6" d="M1022,2029.4l-215.7,319.3c-8.8-9.7-17.7-20.6-24-32.9L977,2028.1C992.6,2027.3,1006.9,2028.1,1022,2029.4z"/>
	<path class="st6" d="M1433.2,2028.1l-145.3,215.7c-5.5-11-9.7-23.2-14.3-36.2c-1.3-2.1-2.1-4.2-2.1-7.6l115-169.3
		C1401.6,2028.1,1416.8,2027.3,1433.2,2028.1z"/>
	<path class="st6" d="M1536,2037l-195.5,289.8c-8.8-9.7-16.4-20.6-24-31.6l177.3-262.4C1507.8,2032.8,1522.1,2033.6,1536,2037z"/>
	<path class="st5" d="M1701.1,2165h-36.2c16.4-131.4-176.1-133.5-176.1-133.5c-30.8-4.2-61.1-5.5-91.8-2.1l0,0h-376.2l0,0
		c-30.8-2.1-60.2-1.3-91,3.4c0,0-192.5,1.3-176.1,133.5h-35v35h35c0,38.3,7.6,112.5,65.7,163c52.7,44.7,126.8,52.7,189.1,20.6
		c47.2-24,100.7-74.6,136.9-174.8c13.1-35,16.4-63.6,13.1-86.4c33.7-2.1,67.8-2.1,101.5,0c-3.4,23.2,0,51.4,13.1,86.4
		c37.1,101.5,91,150.8,136.9,174.8c61.1,31.6,136.9,24,189.1-20.6c58.1-50.1,65.7-124.7,65.7-163h36.2V2165z M1129,2208.9
		c-35,96-86.4,142.4-130.2,163c-53.5,25.3-117.1,18.5-163.9-18.5c-55.6-44.7-63.6-115-62.3-150c0-14.3,0-28.6-1.3-42.5
		c-4.2-110.4,161.8-111.6,161.8-111.6S1203.6,2006.2,1129,2208.9L1129,2208.9z M1261.7,2113.7c-35-2.1-69.9-2.1-104,0
		c-8.8-39.2-38.3-61.1-73.3-72h249.4C1299.7,2053.4,1270.2,2075.3,1261.7,2113.7z M1649.7,2159.6c-1.3,14.3-1.3,28.6-1.3,42.5
		c0,36.2-7.6,106.2-63.6,152.1c-45.9,38.3-110.4,44.7-165.1,19.8c-44.7-20.6-96-66.6-132.3-163.9c-74.6-204.7,198-161.8,198-161.8
		S1654.3,2047.9,1649.7,2159.6z"/>
	<path class="st5" d="M961.8,2389.2c0,0-4.2-7.6-5.5-21.9c-1.3-13.1,0-36.2,11-67.8c21.9-60.2-5.5-108.3-5.5-109.5l1.3-1.3
		c5.5,9.7,8.8,20.6,11,31.6c5.5,26.1,3.4,53.5-5.5,77.5c-21.9,60.2-5.5,88.5-5.5,88.5L961.8,2389.2z"/>
	<circle class="st5" cx="953" cy="2176.8" r="9.7"/>
	<circle class="st5" cx="985" cy="2215.2" r="9.7"/>
	<circle class="st3" cx="963.1" cy="2239.2" r="9.7"/>
	<circle class="st3" cx="989.2" cy="2261.1" r="9.7"/>
	<circle class="st5" cx="955.5" cy="2293.9" r="9.7"/>
	<path class="st5" d="M967.3,2390.4c0,0-9.7-25.3,20.6-43.8L967.3,2390.4z"/>
	<path class="st5" d="M955.5,2389.2c0,0-4.2-26.1-40.4-26.1L955.5,2389.2z"/>
	<path class="st7" d="M1910.9,1969.2c0,3.4-2.1,6.7-4.2,8.8l0,0h-169.3l1.3-2.1c0,0,12.2-36.2,67.8-29.5c5.5-2.1,55.6-18.5,86.4,0
		C1904.6,1954,1910.9,1961.6,1910.9,1969.2z"/>
	<path class="st7" d="M1172,1922c0,3.4-2.1,6.7-4.2,8.8l0,0H998.5l1.3-2.1c0,0,12.2-36.2,67.8-29.5c5.5-2.1,55.6-18.5,86.4,0
		C1165.3,1907.7,1172,1915.7,1172,1922z"/>
	<path class="st7" d="M1244,1430.8c0,3.4-2.1,6.7-4.2,8.8l0,0h-169.3l1.3-2.1c0,0,12.2-36.2,67.8-29.5c5.5-2.1,55.6-18.5,86.4,0
		C1236.5,1416.9,1244,1424.5,1244,1430.8z"/>
</g>
<circle class="st4" cx="560.8" cy="1603.9" r="9.5"/>
<circle class="st4" cx="351.2" cy="1652" r="5.2"/>
<circle class="st4" cx="767.1" cy="1649.1" r="4.3"/>
<circle class="st4" cx="193.3" cy="1584.3" r="9.5"/>
<circle class="st4" cx="669.6" cy="1547.1" r="5.9"/>
<circle class="st4" cx="2253.6" cy="1637.9" r="17.4"/>
<circle class="st4" cx="2370.9" cy="1597.5" r="8.3"/>
<circle class="st4" cx="2123.1" cy="1537.4" r="8.5"/>
<circle class="st4" cx="2555.5" cy="1167.4" r="8.5"/>
<circle class="st4" cx="2226.7" cy="1791.9" r="8.5"/>
<circle class="st4" cx="2411.3" cy="1378.2" r="8.3"/>
<circle class="st4" cx="2319.7" cy="1221.6" r="8.3"/>
<circle class="st4" cx="2218.3" cy="1360.4" r="25.4"/>
<circle class="st4" cx="2617.2" cy="1234.8" r="6.1"/>
<circle class="st4" cx="1998.4" cy="1246.8" r="28.7"/>
<circle class="st4" cx="2323.9" cy="1875.3" r="20.7"/>
<circle class="st4" cx="2030.1" cy="1055" r="8.5"/>
<circle class="st4" cx="1919.4" cy="1184.2" r="8.5"/>
<path class="st4" d="M2142.9,2161.2c-0.8,0-1.6-0.5-2-0.5l-4.9-3.6c-0.8-0.5-2-0.5-2.8,0l-4.9,3.6c-1.6,1.3-3.6,0.8-4.9-0.8
	c-0.5-0.8-0.8-2-0.5-3.3l2-5.7c0.5-0.8,0-2-0.8-2.5l-4.9-3.6c-1.6-1.3-2-3.6-0.8-4.9c0.5-0.8,1.6-1.6,2.8-1.6h6.1
	c1.3,0,2-0.5,2.5-1.6l2-5.7c0.5-1.6,2.5-2.8,4.6-2.5c1.3,0.5,2,1.3,2.5,2.5l2,5.7c0.5,0.8,1.3,1.6,2.5,1.6h6.1c2,0,3.6,1.6,3.6,3.6
	c0,1.3-0.5,2.5-1.6,2.8l-4.9,3.6c-0.8,0.5-1.3,1.6-0.8,2.5l2,5.7c0.5,1.6,0,2.8-1.3,4.1C2144.4,2160.7,2143.6,2161.2,2142.9,2161.2z
	"/>
<path class="st4" d="M2333.1,2142.9c-0.8,0-1.6-0.5-2-0.5l-4.9-3.6c-0.8-0.5-2-0.5-2.8,0l-4.9,3.6c-1.6,1.3-3.6,0.8-4.9-0.8
	c-0.5-0.8-0.8-2-0.5-3.3l2-5.7c0.5-0.8,0-2-0.8-2.5l-4.9-3.6c-1.6-1.3-2-3.6-0.8-4.9c0.5-0.8,1.6-1.6,2.8-1.6h6.1
	c1.3,0,2-0.5,2.5-1.6l2-5.7c0.5-1.6,2.5-2.8,4.6-2.5c1.3,0.5,2,1.3,2.5,2.5l2,5.7c0.5,0.8,1.3,1.6,2.5,1.6h6.1c2,0,3.6,1.6,3.6,3.6
	c0,1.3-0.5,2.5-1.6,2.8l-4.9,3.6c-0.8,0.5-1.3,1.6-0.8,2.5l2,5.7c0.5,1.6,0,2.8-1.3,4.1C2334.7,2142.9,2334.2,2142.9,2333.1,2142.9z
	"/>
<circle class="st4" cx="2204.8" cy="661.5" r="17.4"/>
<circle class="st4" cx="2322.1" cy="621.1" r="8.3"/>
<circle class="st4" cx="2074.3" cy="561" r="8.5"/>
<circle class="st4" cx="2506.6" cy="191" r="8.5"/>
<circle class="st4" cx="2177.9" cy="815.5" r="8.5"/>
<circle class="st4" cx="2362.4" cy="401.8" r="8.3"/>
<circle class="st4" cx="2270.9" cy="245.2" r="8.3"/>
<circle class="st4" cx="2169.4" cy="384" r="25.4"/>
<circle class="st4" cx="2568.4" cy="258.4" r="6.1"/>
<circle class="st4" cx="1949.5" cy="270.5" r="28.7"/>
<circle class="st4" cx="2275.1" cy="898.9" r="20.7"/>
<circle class="st4" cx="1981.2" cy="78.6" r="8.5"/>
<circle class="st4" cx="1870.5" cy="207.8" r="8.5"/>
<path class="st4" d="M2094,1184.8c-0.8,0-1.6-0.5-2-0.5l-4.9-3.6c-0.8-0.5-2-0.5-2.8,0l-4.9,3.6c-1.6,1.3-3.6,0.8-4.9-0.8
	c-0.5-0.8-0.8-2-0.5-3.3l2-5.7c0.5-0.8,0-2-0.8-2.5l-4.9-3.6c-1.6-1.3-2-3.6-0.8-4.9c0.5-0.8,1.6-1.6,2.8-1.6h6.1
	c1.3,0,2-0.5,2.5-1.6l2-5.7c0.5-1.6,2.5-2.8,4.6-2.5c1.3,0.5,2,1.3,2.5,2.5l2,5.7c0.5,0.8,1.3,1.6,2.5,1.6h6.1c2,0,3.6,1.6,3.6,3.6
	c0,1.3-0.5,2.5-1.6,2.8l-4.9,3.6c-0.8,0.5-1.3,1.6-0.8,2.5l2,5.7c0.5,1.6,0,2.8-1.3,4.1C2095.6,1184.3,2094.8,1184.8,2094,1184.8z"
	/>
<path class="st4" d="M2284.3,1166.6c-0.8,0-1.6-0.5-2-0.5l-4.9-3.6c-0.8-0.5-2-0.5-2.8,0l-4.9,3.6c-1.6,1.3-3.6,0.8-4.9-0.8
	c-0.5-0.8-0.8-2-0.5-3.3l2-5.7c0.5-0.8,0-2-0.8-2.5l-4.9-3.6c-1.6-1.3-2-3.6-0.8-4.9c0.5-0.8,1.6-1.6,2.8-1.6h6.1
	c1.3,0,2-0.5,2.5-1.6l2-5.7c0.5-1.6,2.5-2.8,4.6-2.5c1.3,0.5,2,1.3,2.5,2.5l2,5.7c0.5,0.8,1.3,1.6,2.5,1.6h6.1c2,0,3.6,1.6,3.6,3.6
	c0,1.3-0.5,2.5-1.6,2.8l-4.9,3.6c-0.8,0.5-1.3,1.6-0.8,2.5l2,5.7c0.5,1.6,0,2.8-1.3,4.1C2285.9,1166.6,2285.4,1166.6,2284.3,1166.6z
	"/>
<circle class="st4" cx="461.9" cy="2327.9" r="17.4"/>
<circle class="st4" cx="579.2" cy="2287.5" r="8.3"/>
<circle class="st4" cx="331.4" cy="2227.4" r="8.5"/>
<circle class="st4" cx="763.8" cy="1857.4" r="8.5"/>
<circle class="st4" cx="435.1" cy="2481.9" r="8.5"/>
<circle class="st4" cx="619.6" cy="2068.2" r="8.3"/>
<circle class="st4" cx="528" cy="1911.6" r="8.3"/>
<circle class="st4" cx="426.6" cy="2050.4" r="25.4"/>
<circle class="st4" cx="825.5" cy="1924.8" r="6.1"/>
<circle class="st4" cx="206.7" cy="1936.8" r="28.7"/>
<circle class="st4" cx="532.3" cy="2565.3" r="20.7"/>
<circle class="st4" cx="238.4" cy="1745" r="8.5"/>
<circle class="st4" cx="127.7" cy="1874.2" r="8.5"/>
<path class="st4" d="M857.9,1198.5c-0.8,0-1.6-0.5-2-0.5l-4.9-3.6c-0.8-0.5-2-0.5-2.8,0l-4.9,3.6c-1.6,1.3-3.6,0.8-4.9-0.8
	c-0.5-0.8-0.8-2-0.5-3.3l2-5.7c0.5-0.8,0-2-0.8-2.5l-4.9-3.6c-1.6-1.3-2-3.6-0.8-4.9c0.5-0.8,1.6-1.6,2.8-1.6h6.1
	c1.3,0,2-0.5,2.5-1.6l2-5.7c0.5-1.6,2.5-2.8,4.6-2.5c1.3,0.5,2,1.3,2.5,2.5l2,5.7c0.5,0.8,1.3,1.6,2.5,1.6h6.1c2,0,3.6,1.6,3.6,3.6
	c0,1.3-0.5,2.5-1.6,2.8l-4.9,3.6c-0.8,0.5-1.3,1.6-0.8,2.5l2,5.7c0.5,1.6,0,2.8-1.3,4.1C859.5,1198,858.7,1198.5,857.9,1198.5z"/>
<path class="st4" d="M1048.2,1180.3c-0.8,0-1.6-0.5-2-0.5l-4.9-3.6c-0.8-0.5-2-0.5-2.8,0l-4.9,3.6c-1.6,1.3-3.6,0.8-4.9-0.8
	c-0.5-0.8-0.8-2-0.5-3.3l2-5.7c0.5-0.8,0-2-0.8-2.5l-4.9-3.6c-1.6-1.3-2-3.6-0.8-4.9c0.5-0.8,1.6-1.6,2.8-1.6h6.1
	c1.3,0,2-0.5,2.5-1.6l2-5.7c0.5-1.6,2.5-2.8,4.6-2.5c1.3,0.5,2,1.3,2.5,2.5l2,5.7c0.5,0.8,1.3,1.6,2.5,1.6h6.1c2,0,3.6,1.6,3.6,3.6
	c0,1.3-0.5,2.5-1.6,2.8l-4.9,3.6c-0.8,0.5-1.3,1.6-0.8,2.5l2,5.7c0.5,1.6,0,2.8-1.3,4.1C1049.8,1180.3,1049.3,1180.3,1048.2,1180.3z
	"/>
<circle class="st4" cx="323.6" cy="782.9" r="8.5"/>
<circle class="st4" cx="179.3" cy="993.7" r="8.3"/>
<circle class="st4" cx="87.8" cy="837.1" r="8.3"/>
<circle class="st4" cx="385.3" cy="850.3" r="6.1"/>
<circle class="st4" cx="990.3" cy="1343.4" r="8.5"/>
<circle class="st4" cx="846.1" cy="1554.2" r="8.3"/>
<circle class="st4" cx="754.6" cy="1397.7" r="8.3"/>
<circle class="st4" cx="1052" cy="1410.8" r="6.1"/>
<path class="st4" d="M2579.3,2143.8c-1.1,0-2.2-0.6-2.8-0.6l-6.8-5c-1.1-0.6-2.8-0.6-3.9,0l-6.8,5c-2.2,1.7-5,1.1-6.8-1.1
	c-0.6-1.1-1.1-2.8-0.6-4.6l2.8-7.9c0.6-1.1,0-2.8-1.1-3.5l-6.8-5c-2.2-1.7-2.8-5-1.1-6.8c0.6-1.1,2.2-2.2,3.9-2.2h8.5
	c1.7,0,2.8-0.6,3.5-2.2l2.8-7.9c0.6-2.2,3.5-3.9,6.3-3.5c1.7,0.6,2.8,1.7,3.5,3.5l2.8,7.9c0.6,1.1,1.7,2.2,3.5,2.2h8.5
	c2.8,0,5,2.2,5,5c0,1.7-0.6,3.5-2.2,3.9l-6.8,5c-1.1,0.6-1.7,2.2-1.1,3.5l2.8,7.9c0.6,2.2,0,3.9-1.7,5.7
	C2581.5,2143.8,2580.4,2143.8,2579.3,2143.8z"/>
<path class="st4" d="M2420.3,2030.8c-0.8,0-1.6-0.5-2-0.5l-4.9-3.6c-0.8-0.5-2-0.5-2.8,0l-4.9,3.6c-1.6,1.3-3.6,0.8-4.9-0.8
	c-0.5-0.8-0.8-2-0.5-3.3l2-5.7c0.5-0.8,0-2-0.8-2.5l-4.9-3.6c-1.6-1.3-2-3.6-0.8-4.9c0.5-0.8,1.6-1.6,2.8-1.6h6.1
	c1.3,0,2-0.5,2.5-1.6l2-5.7c0.5-1.6,2.5-2.8,4.6-2.5c1.3,0.5,2,1.3,2.5,2.5l2,5.7c0.5,0.8,1.3,1.6,2.5,1.6h6.1c2,0,3.6,1.6,3.6,3.6
	c0,1.3-0.5,2.5-1.6,2.8l-4.9,3.6c-0.8,0.5-1.3,1.6-0.8,2.5l2,5.7c0.5,1.6,0,2.8-1.3,4.1C2421.8,2030.3,2421,2030.8,2420.3,2030.8z"
	/>
<path class="st4" d="M2610.5,2012.5c-0.8,0-1.6-0.5-2-0.5l-4.9-3.6c-0.8-0.5-2-0.5-2.8,0l-4.9,3.6c-1.6,1.3-3.6,0.8-4.9-0.8
	c-0.5-0.8-0.8-2-0.5-3.3l2-5.7c0.5-0.8,0-2-0.8-2.5l-4.9-3.6c-1.6-1.3-2-3.6-0.8-4.9c0.5-0.8,1.6-1.6,2.8-1.6h6.1
	c1.3,0,2-0.5,2.5-1.6l2-5.7c0.5-1.6,2.5-2.8,4.6-2.5c1.3,0.5,2,1.3,2.5,2.5l2,5.7c0.5,0.8,1.3,1.6,2.5,1.6h6.1c2,0,3.6,1.6,3.6,3.6
	c0,1.3-0.5,2.5-1.6,2.8l-4.9,3.6c-0.8,0.5-1.3,1.6-0.8,2.5l2,5.7c0.5,1.6,0,2.8-1.3,4.1C2612.1,2012.5,2611.6,2012.5,2610.5,2012.5z
	"/>
<circle class="st4" cx="2534" cy="2428.9" r="9.5"/>
<circle class="st4" cx="2324.5" cy="2477" r="5.2"/>
<circle class="st4" cx="2166.5" cy="2409.3" r="9.5"/>
<circle class="st4" cx="2642.9" cy="2372" r="5.9"/>
<circle class="st4" cx="2211.7" cy="2569.9" r="8.5"/>
<path class="st4" d="M1877.4,2654.3c-1.1,0-2.2-0.6-2.8-0.6l-6.8-5c-1.1-0.6-2.8-0.6-3.9,0l-6.8,5c-2.2,1.7-5,1.1-6.8-1.1
	c-0.6-1.1-1.1-2.8-0.6-4.6l2.8-7.9c0.6-1.1,0-2.8-1.1-3.5l-6.8-5c-2.2-1.7-2.8-5-1.1-6.8c0.6-1.1,2.2-2.2,3.9-2.2h8.5
	c1.7,0,2.8-0.6,3.5-2.2l2.8-7.9c0.6-2.2,3.5-3.9,6.3-3.5c1.7,0.6,2.8,1.7,3.5,3.5l2.8,7.9c0.6,1.1,1.7,2.2,3.5,2.2h8.5
	c2.8,0,5,2.2,5,5c0,1.7-0.6,3.5-2.2,3.9l-6.8,5c-1.1,0.6-1.7,2.2-1.1,3.5l2.8,7.9c0.6,2.2,0,3.9-1.7,5.7
	C1879.6,2654.3,1878.5,2654.3,1877.4,2654.3z"/>
<path class="st4" d="M1718.4,2541.2c-0.8,0-1.6-0.5-2-0.5l-4.9-3.6c-0.8-0.5-2-0.5-2.8,0l-4.9,3.6c-1.6,1.3-3.6,0.8-4.9-0.8
	c-0.5-0.8-0.8-2-0.5-3.3l2-5.7c0.5-0.8,0-2-0.8-2.5l-4.9-3.6c-1.6-1.3-2-3.6-0.8-4.9c0.5-0.8,1.6-1.6,2.8-1.6h6.1
	c1.3,0,2-0.5,2.5-1.6l2-5.7c0.5-1.6,2.5-2.8,4.6-2.5c1.3,0.5,2,1.3,2.5,2.5l2,5.7c0.5,0.8,1.3,1.6,2.5,1.6h6.1c2,0,3.6,1.6,3.6,3.6
	c0,1.3-0.5,2.5-1.6,2.8l-4.9,3.6c-0.8,0.5-1.3,1.6-0.8,2.5l2,5.7c0.5,1.6,0,2.8-1.3,4.1C1720,2540.7,1719.2,2541.2,1718.4,2541.2z"
	/>
<path class="st4" d="M1908.7,2523c-0.8,0-1.6-0.5-2-0.5l-4.9-3.6c-0.8-0.5-2-0.5-2.8,0l-4.9,3.6c-1.6,1.3-3.6,0.8-4.9-0.8
	c-0.5-0.8-0.8-2-0.5-3.3l2-5.7c0.5-0.8,0-2-0.8-2.5l-4.9-3.6c-1.6-1.3-2-3.6-0.8-4.9c0.5-0.8,1.6-1.6,2.8-1.6h6.1
	c1.3,0,2-0.5,2.5-1.6l2-5.7c0.5-1.6,2.5-2.8,4.6-2.5c1.3,0.5,2,1.3,2.5,2.5l2,5.7c0.5,0.8,1.3,1.6,2.5,1.6h6.1c2,0,3.6,1.6,3.6,3.6
	c0,1.3-0.5,2.5-1.6,2.8l-4.9,3.6c-0.8,0.5-1.3,1.6-0.8,2.5l2,5.7c0.5,1.6,0,2.8-1.3,4.1C1910.3,2523,1909.8,2523,1908.7,2523z"/>
<circle class="st4" cx="1314.2" cy="2521.9" r="9.5"/>
<circle class="st4" cx="1104.6" cy="2570" r="5.2"/>
<circle class="st4" cx="946.7" cy="2502.3" r="9.5"/>
<circle class="st4" cx="1423.1" cy="2465" r="5.9"/>
<circle class="st4" cx="991.9" cy="2663" r="8.5"/>
</svg>
