<?xml version="1.0" encoding="utf-8"?>
<!-- Generator: Adobe Illustrator 22.0.0, SVG Export Plug-In . SVG Version: 6.00 Build 0)  -->
<svg version="1.1" id="Ebene_1" xmlns="http://www.w3.org/2000/svg" xmlns:xlink="http://www.w3.org/1999/xlink" x="0px" y="0px"
	 viewBox="0 0 2732 2732" style="enable-background:new 0 0 2732 2732;" xml:space="preserve">
<style type="text/css">
	.st0{fill:#F9CE64;}
	.st1{fill:#233033;}
	.st2{fill:#F8C143;}
	.st3{opacity:0.1;fill:#233033;enable-background:new    ;}
	.st4{fill:#FCE3AB;}
	.st5{fill:#4A4A4A;}
	.st6{fill:#E1A61A;}
	.st7{fill:#FFFFFF;}
</style>
<rect class="st0" width="2732" height="2732"/>
<g>
	<circle class="st1" cx="1366" cy="692.9" r="439.7"/>
	<g>
		<path class="st2" d="M1520.2,630.4c0,0-2.9,32.6-7.9,79.4c-1.6,15.1-3.6,32.1-5.8,49.7c-3.1,24.7-6.5,51-10.4,77.5
			c-2.5,16.4-5,32.6-7.7,48.6c-14.8,85.7-33.9,161.4-56.6,167.7c-50.8,13.9-239.6-303.9-260.5-339.2c-1.1-2-1.8-3.1-1.8-3.1
			L1520.2,630.4z"/>
		<path class="st3" d="M1512.3,709.8c-1.6,15.1-3.6,32.1-5.8,49.7l-163.4-88.4l68.5-15.7L1512.3,709.8z"/>
		<path class="st3" d="M1496.1,837c-2.5,16.4-5,32.6-7.7,48.6l-316.9-171.1c-1.1-2-1.8-3.1-1.8-3.1l65.8-15.1L1496.1,837z"/>
		<path class="st0" d="M1281,365.4c-13.2,16.4-39.6,17.5-52.1,34.6c-8.5,11.7-7.6,28.1-1.6,41.1c6.1,13,16.6,23.4,27,33.3
			c7,7,14.6,13.7,23.4,18.2c12.4,6.1,26.8,7,40.7,7.2c30.3,0.4,60.5-2.2,90.2-7.4c13.2-2.3,27.9-6.5,34.6-18.2
			c3.8-6.8,4.1-15,4-23.1c-0.4-12.2-2-25.2-9.2-34.9c-6.1-8.1-15.3-13-24.7-17.1c-28.8-13-61.1-22-82.3-45.6
			c-8.5-9.4-15-21.1-25.9-27.2c-14.2-8.1-41.4-6.7-53.5,3.8C1254.7,334.8,1288.9,355.5,1281,365.4z"/>
		<path class="st0" d="M1175.1,523c-1.1,17.7-1.3,36.2,6.7,51.9c10.4,20.9,33.5,33,56.6,36c23.1,3.1,46.5-1.3,69.2-5.6l119.6-23.1
			c15-2.9,30.4-5.8,45.6-3.8c12.6,1.4,27.9,5.2,35.7-4.5c3.6-4.5,4.3-10.6,4.7-16.2c1.1-18.7-0.5-38.4-11.2-53.7
			c-12.2-17.5-34.4-25.8-55.5-27.2s-42.5,2.9-63.6,5.2c-21.4,2.5-43.1,3.1-64.8,2c-18-1.1-36.7-3.4-52.1-13
			c-8.3-5-15.3-12.2-23.2-17.7C1196.1,421.3,1176.9,489.7,1175.1,523z"/>
		<path class="st0" d="M1166.4,605.2c-33.1,25-39.8,72.4-14.8,105.6c7.4,9.7,16.9,17.5,28.1,22.9c21.3,10.1,46.1,9.5,69.4,5.9
			c22.9-3.4,45-9.7,67-16l196-55.7c11.3-3.2,24.3-7.6,29.2-18.6c3.6-8.1,1.8-17.7-1.4-25.9c-11.7-29.9-41.3-51.9-73.1-54.4
			c-12.1-1.1-24.1,0.7-36.2,2.3l-86.8,11.5c-11.7,1.4-23.4,3.1-35.1,2.7c-35.7-1.3-71.9-21.1-105.6-9.2c-22.9,8.1-38.4,29-51.7,49.2
			"/>
		<path class="st3" d="M1246.6,445.6c0,0,39.3,43.6,186.1,31"/>
		<path class="st3" d="M1198.1,594.9c0,0,63.4,40.4,276.2-8.8"/>
		
			<ellipse transform="matrix(0.9745 -0.2244 0.2244 0.9745 -58.6341 297.6947)" class="st2" cx="1280.4" cy="406.8" rx="13.9" ry="4.7"/>
		
			<ellipse transform="matrix(0.9745 -0.2244 0.2244 0.9745 -61.5661 309.8743)" class="st2" cx="1332.5" cy="425.8" rx="13.9" ry="4.7"/>
		
			<ellipse transform="matrix(0.9745 -0.2244 0.2244 0.9745 -64.4522 323.7022)" class="st2" cx="1391.9" cy="445.4" rx="13.9" ry="4.7"/>
		
			<ellipse transform="matrix(0.9745 -0.2244 0.2244 0.9745 -81.4408 285.2202)" class="st2" cx="1214.1" cy="500.9" rx="13.9" ry="4.7"/>
		
			<ellipse transform="matrix(0.9745 -0.2244 0.2244 0.9745 -81.883 313.7277)" class="st2" cx="1339.3" cy="517.1" rx="13.9" ry="4.7"/>
		
			<ellipse transform="matrix(0.9745 -0.2244 0.2244 0.9745 -113.7684 284.9374)" class="st2" cx="1196.7" cy="643" rx="13.9" ry="4.7"/>
		
			<ellipse transform="matrix(0.9745 -0.2244 0.2244 0.9745 -88.8188 297.2845)" class="st2" cx="1263.5" cy="539.4" rx="13.9" ry="4.7"/>
		
			<ellipse transform="matrix(0.9745 -0.2244 0.2244 0.9745 -118.559 294.9819)" class="st2" cx="1238.5" cy="669.1" rx="13.9" ry="4.7"/>
		
			<ellipse transform="matrix(0.9745 -0.2244 0.2244 0.9745 -107.3006 312.6828)" class="st2" cx="1322" cy="628.4" rx="13.9" ry="4.7"/>
		
			<ellipse transform="matrix(0.9745 -0.2244 0.2244 0.9745 -121.2343 330.6567)" class="st0" cx="1394.1" cy="698.7" rx="15" ry="31.3"/>
		
			<ellipse transform="matrix(0.9745 -0.2244 0.2244 0.9745 -122.3229 335.4854)" class="st0" cx="1414.8" cy="705.9" rx="15" ry="31.3"/>
		<path class="st2" d="M1452.5,1007.2c0-0.7-0.4-15.7,10.8-40.5c10.3-22.7,32.4-58.2,80.2-97.8c90.4-75.1,91-177.4,91-178.5h2.9
			c0,0.4,0,26.5-11.3,61.6c-15,46.7-43.1,87.9-80.9,119.1c-90.4,75.1-89.9,135.3-89.9,136L1452.5,1007.2L1452.5,1007.2z"/>
		<ellipse class="st0" cx="1633.1" cy="660.7" rx="18.7" ry="18.7"/>
		<ellipse class="st2" cx="1649.9" cy="749.8" rx="18.7" ry="18.7"/>
		<ellipse class="st0" cx="1592.1" cy="769.6" rx="18.7" ry="18.7"/>
		<ellipse class="st0" cx="1615.1" cy="827.6" rx="18.7" ry="18.7"/>
		<ellipse class="st2" cx="1530.1" cy="848.5" rx="18.7" ry="18.7"/>
		<path class="st2" d="M1462,1013.4c0,0,6.8-49.2,72.6-51.2L1462,1013.4z"/>
		<path class="st2" d="M1442.4,1001.3c0,0,16.9-46.7-40.4-79.1L1442.4,1001.3z"/>
	</g>
</g>
<circle class="st4" cx="557.7" cy="682.5" r="17.4"/>
<circle class="st4" cx="675" cy="642.1" r="8.3"/>
<circle class="st4" cx="427.2" cy="582" r="8.5"/>
<circle class="st4" cx="859.6" cy="212" r="8.5"/>
<circle class="st4" cx="530.9" cy="836.5" r="8.5"/>
<circle class="st4" cx="715.4" cy="422.8" r="8.3"/>
<circle class="st4" cx="623.8" cy="266.2" r="8.3"/>
<ellipse transform="matrix(0.1602 -0.9871 0.9871 0.1602 38.9504 855.7808)" class="st4" cx="522.4" cy="405" rx="25.4" ry="25.4"/>
<circle class="st4" cx="921.3" cy="279.4" r="6.1"/>
<circle class="st4" cx="302.5" cy="291.5" r="28.7"/>
<circle class="st4" cx="628.1" cy="919.9" r="20.7"/>
<circle class="st4" cx="334.2" cy="99.6" r="8.5"/>
<circle class="st4" cx="223.5" cy="228.8" r="8.5"/>
<path class="st4" d="M606,1318.9c-1.1,0-2.2-0.6-2.8-0.6l-6.8-5c-1.1-0.6-2.8-0.6-3.9,0l-6.8,5c-2.2,1.7-5,1.1-6.8-1.1
	c-0.6-1.1-1.1-2.8-0.6-4.6l2.8-7.9c0.6-1.1,0-2.8-1.1-3.5l-6.8-5c-2.2-1.7-2.8-5-1.1-6.8c0.6-1.1,2.2-2.2,3.9-2.2h8.5
	c1.7,0,2.8-0.6,3.5-2.2l2.8-7.9c0.6-2.2,3.5-3.9,6.3-3.5c1.7,0.6,2.8,1.7,3.5,3.5l2.8,7.9c0.6,1.1,1.7,2.2,3.5,2.2h8.5
	c2.8,0,5,2.2,5,5c0,1.7-0.6,3.5-2.2,3.9l-6.8,5c-1.1,0.6-1.7,2.2-1.1,3.5l2.8,7.9c0.6,2.2,0,3.9-1.7,5.7
	C608.2,1318.9,607.1,1318.9,606,1318.9z"/>
<path class="st4" d="M447,1205.8c-0.8,0-1.6-0.5-2-0.5l-4.9-3.6c-0.8-0.5-2-0.5-2.8,0l-4.9,3.6c-1.6,1.3-3.6,0.8-4.9-0.8
	c-0.5-0.8-0.8-2-0.5-3.3l2-5.7c0.5-0.8,0-2-0.8-2.5l-4.9-3.6c-1.6-1.3-2-3.6-0.8-4.9c0.5-0.8,1.6-1.6,2.8-1.6h6.1
	c1.3,0,2-0.5,2.5-1.6l2-5.7c0.5-1.6,2.5-2.8,4.6-2.5c1.3,0.5,2,1.3,2.5,2.5l2,5.7c0.5,0.8,1.3,1.6,2.5,1.6h6.1c2,0,3.6,1.6,3.6,3.6
	c0,1.3-0.5,2.5-1.6,2.8l-4.9,3.6c-0.8,0.5-1.3,1.6-0.8,2.5l2,5.7c0.5,1.6,0,2.8-1.3,4.1C448.5,1205.3,447.8,1205.8,447,1205.8z"/>
<path class="st4" d="M637.2,1187.6c-0.8,0-1.6-0.5-2-0.5l-4.9-3.6c-0.8-0.5-2-0.5-2.8,0l-4.9,3.6c-1.6,1.3-3.6,0.8-4.9-0.8
	c-0.5-0.8-0.8-2-0.5-3.3l2-5.7c0.5-0.8,0-2-0.8-2.5l-4.9-3.6c-1.6-1.3-2-3.6-0.8-4.9c0.5-0.8,1.6-1.6,2.8-1.6h6.1
	c1.3,0,2-0.5,2.5-1.6l2-5.7c0.5-1.6,2.5-2.8,4.6-2.5c1.3,0.5,2,1.3,2.5,2.5l2,5.7c0.5,0.8,1.3,1.6,2.5,1.6h6.1c2,0,3.6,1.6,3.6,3.6
	c0,1.3-0.5,2.5-1.6,2.8l-4.9,3.6c-0.8,0.5-1.3,1.6-0.8,2.5l2,5.7c0.5,1.6,0,2.8-1.3,4.1C638.8,1187.6,638.3,1187.6,637.2,1187.6z"/>
<g>
	<path class="st5" d="M1473.2,1913.3c-1.6,15.8-3.2,32-5.1,46.9h44.6c1.6-15.8,3.2-31,5.8-46.9H1473.2z"/>
	<path class="st5" d="M1510.1,2079.5c-1-15.8-1.6-31-1-46.9h-45.3c-1,17.4-1,33.6-1,46.9H1510.1z"/>
	<path class="st5" d="M1586.4,1663c36.8-98.9,73.1-165.6,73.1-165.6l-37.8-22.6c-39.5,59.5-68.9,123.5-91.5,188.2H1586.4z"/>
	<path class="st5" d="M1467,1972.8c-1.6,16.8-2.6,32.6-3.2,46.9h44.6c1-15.8,1.6-31,2.6-46.9H1467z"/>
	<path class="st5" d="M1482.2,1853.8c-2.6,15.8-5.1,32-7.4,46.9h46.2c2.6-15.8,5.8-31,9.4-46.9H1482.2z"/>
	<path class="st5" d="M1525.9,1675.7c-5.1,15.8-10.1,31-14.2,46.9h53.7c5.1-15.8,11-32,15.8-46.9H1525.9z"/>
	<path class="st5" d="M1493.3,1794.9c-3.2,15.8-6.8,32-9.4,46.9h48.8c3.2-15.8,7.4-32,11.7-46.9H1493.3z"/>
	<path class="st5" d="M1462.2,2091.4c0,20,1,32,1,32l-1,9.4h53c-2.6-13.6-3.2-26.9-5.1-41.1L1462.2,2091.4L1462.2,2091.4z"/>
	<path class="st5" d="M1508.5,1735.4c-4.2,15.8-8.4,31-11.7,46.9h51.1c4.2-15.8,9.4-32,14.2-46.9H1508.5z"/>
	<path class="st6" d="M1886.1,1541.4c-18.4-39.5-37.8-68.9-56.3-89.9l-9.4,15.2l1-24.3c-6.8-6.8-13.6-12.6-20-18.4l-13.6,20l1-28.5
		c-7.4-5.1-15.8-9.4-25.3-12.6l-10.1,15.2l1-17.8c-33.6-8.4-61.4,3.2-77.3,12.6l-9.4-1.6l16.8-6.8c-1.6-9.4-4.2-18.4-7.4-26.9
		l-28.5-4.2l22-9.4c-4.2-8.4-9.4-15.8-14.2-23.6l-24.3-3.2l15.8-6.8c-17.8-22-43.7-46.2-77.9-71.5c0,0-2.6,22.6-4.2,54.7l23.6,24.3
		l-24.3-6.8c0,10.1,0,20,0,30.1l17.8,17.8l-17.8-4.2c0,8.4,1,15.8,1,24.3c-15.2-3.2-30.1-3.2-45.3,0l1,17.8l-10.1-15.2
		c-8.4,3.2-16.8,7.4-25.3,12.6l1,28.5l-13.6-20c-7.4,5.8-14.2,11.7-20,18.4l1,24.3l-9.4-15.2c-18.4,22-36.8,51.1-56.3,89.9
		c0,0,22.6-1.6,54.7-5.8l19.4-27.8l-1.6,25.3c9.4-1.6,19.4-3.2,30.1-5.1l14.2-20l-1.6,17.8c14.2-3.2,28.5-6.8,42.1-11l10.1,9.4
		l-17.8-3.2c-4.2,8.4-6.8,17.8-9.4,25.9l21,19.4l-23.6-5.1c-1,9.4-1.6,18.4-1,27.8l17.8,16.8l-17.8-3.2
		c2.6,28.5,10.1,62.1,24.3,103.2c0,0,15.2-17.8,34.3-42.7l-5.8-33.6l16.8,19.4c5.8-7.4,11.7-15.8,17.8-25.3l-4.2-24.3l11.7,13.6
		c11.7-18.4,22.6-37.8,31-56.3c10.1,13.6,22,26.9,33.6,39.5l9.4-15.2v25.3c7.4,7.4,15.2,14.2,22,21l12.6-22l1,34.3
		c23.6,21,41.1,35.2,41.1,35.2c6.8-42.7,7.4-77.9,4.2-105.7l-15.8,6.8l14.2-20c-1.6-9.4-3.2-17.8-5.8-26.9l-22,9.4l11-14.2
		c4.2,1,9.4,2.6,13.6,3.2l-1.6-17.8l14.2,20c10.1,1.6,20,3.2,30.1,5.1l-1.6-25.3l19.4,27.8
		C1862.5,1539.8,1886.1,1541.4,1886.1,1541.4z"/>
	<path class="st5" d="M1394.3,1884.8c1.6,11.7,2.6,22.6,3.2,32.6h-31c-1-11-2.6-22-4.2-32.6H1394.3z"/>
	<path class="st5" d="M1369.1,2001.6c1-11,1-22,1-32.6h32c1,12.6,1,23.6,1,32.6H1369.1z"/>
	<path class="st5" d="M1314.4,1708.3c-25.9-69.8-52-116.7-52-116.7l26.9-15.8c27.8,42.1,48.8,87.3,64.7,132.6H1314.4z"/>
	<path class="st5" d="M1398.5,1926.9c1,11.7,1.6,22.6,2.6,32.6h-32c0-11-1-22-1.6-32.6H1398.5z"/>
	<path class="st5" d="M1388.2,1842.8c1.6,11.7,3.2,22.6,5.1,32.6h-32.7c-1.6-11-4.2-22-6.8-32.6L1388.2,1842.8L1388.2,1842.8z"/>
	<path class="st5" d="M1357.1,1716.7c3.2,11,7.4,22,10.1,32.6h-37.8c-3.2-11.7-7.4-22.6-11.7-32.6H1357.1z"/>
	<path class="st5" d="M1379.7,1800.8c2.6,11,5.1,22.6,6.8,32.6h-34.3c-2.6-11-5.1-22.6-8.4-32.6H1379.7z"/>
	<path class="st5" d="M1401.7,2010.6c0,14.2-1,22.6-1,22.6v6.8h-36.8c1.6-9.4,2.6-19.4,3.2-28.5L1401.7,2010.6z"/>
	<path class="st5" d="M1369.7,1758.7c3.2,11,5.8,22,8.4,32.6h-36.2c-3.2-11-6.8-22.6-10.1-32.6H1369.7z"/>
	<path class="st6" d="M1103,1621.9c13.6-27.8,26.9-48.8,39.5-63.7l6.8,10.1l-1-17.8c4.2-5.1,9.4-9.4,14.2-13.6l9.4,14.2l-1-20
		c5.8-3.2,11.7-6.8,17.8-8.4l6.8,11V1521c23.6-5.8,42.7,2.6,54.7,9.4l6.8-1l-11.7-5.1c1-6.8,2.6-12.6,5.1-18.4l20-3.2l-15.8-6.8
		c3.2-5.8,6.8-11,10.1-16.8l16.8-2.6l-11.7-5.1c12.6-15.2,30.1-32.6,55.3-50.4c0,0,1.6,15.8,2.6,38.5l-16.8,16.8l17.8-4.2
		c0,6.8,0,14.2,0,22l-12.6,12.6l12.6-3.2c0,5.8-1,11-1,16.8c11-2.6,22-2.6,32,0v12.6l6.8-11c5.8,2.6,11.7,5.1,17.8,8.4l-1,20
		l9.4-14.2c5.1,4.2,10.1,8.4,14.2,13.6l-1,17.8l6.8-10.1c12.6,15.2,25.9,36.2,39.5,63.7c0,0-15.8-1-38.5-4.2l-14.2-19.4l1.6,17.8
		c-6.8-1-14.2-2.6-21-3.2l-10.1-14.2l1,12.6c-10.1-2.6-20-5.1-30.1-7.4l-6.8,6.8l12.6-2.6c2.6,5.8,5.1,12.6,5.8,18.4l-15.2,14.2
		l16.8-3.2c1,6.8,1,12.6,1,19.4l-12.6,11.7l11.7-2.6c-1.6,20-6.8,43.7-16.8,73.1c0,0-11-12.6-24.3-30.1l4.2-23.6l-13,13.3
		c-4.2-5.8-8.4-11.7-12.6-17.8l3.2-17.8l-8.4,9.4c-8.4-12.6-15.8-25.9-22-39.5c-7.4,10.1-15.2,19.4-23.6,27.8l-6.8-11v17.8
		c-5.1,5.1-10.1,10.1-15.2,15.2l-6.8-15.8v24.3c-16.8,15.2-29.4,25.3-29.4,25.3c-5.1-30.1-5.1-54.7-3.2-74.7l11.7,5.1l-10.1-14.2
		c1-6.8,2.6-12.6,4.2-19.4l15.8,6.8l-7.4-10.1c-3.2,1-6.8,1.6-9.4,2.6l1-12.6l-10.1,14.2c-7.4,1.6-14.2,2.6-21,3.2l1.6-17.8
		l-14.2,19.4C1119.5,1621,1103,1621.9,1103,1621.9z"/>
	<ellipse class="st5" cx="1025.7" cy="2135.7" rx="179.8" ry="16.8"/>
	<ellipse class="st5" cx="1458" cy="2135.7" rx="179.8" ry="16.8"/>
	<path class="st0" d="M1594.1,1962.1c0,0,12.6,89.9-49.5,143.5c-40.5,34.3-97.3,40.5-145.1,15.8c-17.8-9.4-36.2-22.6-53.7-43.7
		c-6.8-7.4-12.6-15.8-18.4-24.3c-8.4-12.6-15.2-25.9-22-39.5c-4.2-8.4-7.4-17.8-11-27.8c-1-1.6-1.6-3.2-1.6-5.8
		c-32-95.7,30.1-124.2,88.3-130.9c11.7-1.6,24.3-1.6,36.2-1.6c14.2,0,28.5,1,42.7,3.2c0,0,1,0,3.2,0c11,1,22,1.6,32.6,3.2
		C1541.1,1862.9,1609,1887.4,1594.1,1962.1z"/>
	<path class="st0" d="M1197.7,1986.4c-28.5,77.9-69.8,115.7-105.1,134.2c-46.9,24.3-105.1,18.4-145.1-15.8c-4.2-3.2-7.4-6.8-11-11
		c-6.8-7.4-13.6-15.8-18.4-25.3c-6.8-11.7-11.7-23.6-15.2-36.8c-3.2-14.2-5.8-28.5-5.8-42.7c-1-9.4,0-18.4,1-27.8
		c-14.2-70.5,44.6-95.7,88.9-105.1c12.6-2.6,25.9-4.2,38.5-5.1c4.2,0,5.8,0,5.8,0c23.6-3.2,46.9-4.2,69.8-1.6
		C1163.4,1854.4,1236.2,1880.6,1197.7,1986.4z"/>
	<path class="st6" d="M1025.7,1851.2l-122.5,181.4c-3.2-14.2-5.8-28.5-5.8-42.7l89.9-133.6
		C999.5,1853.8,1013.1,1852.2,1025.7,1851.2z"/>
	<path class="st6" d="M1102,1849.6l-165.6,245.1c-6.8-7.4-13.6-15.8-18.4-25.3l149.4-220.8C1079.4,1848,1090.4,1848.6,1102,1849.6z"
		/>
	<path class="st6" d="M1417.6,1848.6l-111.5,165.6c-4.2-8.4-7.4-17.8-11-27.8c-1-1.6-1.6-3.2-1.6-5.8l88.3-129.9
		C1393.3,1848.6,1405,1848,1417.6,1848.6z"/>
	<path class="st6" d="M1496.5,1855.4l-150.1,222.4c-6.8-7.4-12.6-15.8-18.4-24.3l136.1-201.4
		C1474.8,1852.2,1485.8,1852.8,1496.5,1855.4z"/>
	<path class="st5" d="M1623.2,1953.7h-27.8c12.6-100.9-135.2-102.5-135.2-102.5c-23.6-3.2-46.9-4.2-70.5-1.6l0,0H1101l0,0
		c-23.6-1.6-46.2-1-69.8,2.6c0,0-147.8,1-135.2,102.5h-26.9v26.9H896c0,29.4,5.8,86.4,50.4,125.1c40.5,34.3,97.3,40.5,145.1,15.8
		c36.2-18.4,77.3-57.3,105.1-134.2c10.1-26.9,12.6-48.8,10.1-66.3c25.9-1.6,52-1.6,77.9,0c-2.6,17.8,0,39.5,10.1,66.3
		c28.5,77.9,69.8,115.7,105.1,134.2c46.9,24.3,105.1,18.4,145.1-15.8c44.6-38.5,50.4-95.7,50.4-125.1h27.8L1623.2,1953.7
		L1623.2,1953.7z M1184.1,1987.4c-26.9,73.7-66.3,109.3-99.9,125.1c-41.1,19.4-89.9,14.2-125.8-14.2
		c-42.7-34.3-48.8-88.3-47.8-115.1c0-11,0-22-1-32.6c-3.2-84.7,124.2-85.7,124.2-85.7S1241.3,1831.8,1184.1,1987.4L1184.1,1987.4z
		 M1285.9,1914.3c-26.9-1.6-53.7-1.6-79.8,0c-6.8-30.1-29.4-46.9-56.3-55.3h191.4C1315.1,1868,1292.5,1884.8,1285.9,1914.3z
		 M1583.8,1949.5c-1,11-1,22-1,32.6c0,27.8-5.8,81.5-48.8,116.7c-35.2,29.4-84.7,34.3-126.7,15.2c-34.3-15.8-73.7-51.1-101.5-125.8
		c-57.3-157.1,152-124.2,152-124.2S1587.3,1863.8,1583.8,1949.5z"/>
	<path class="st5" d="M1055.8,2125.8c0,0-3.2-5.8-4.2-16.8c-1-10.1,0-27.8,8.4-52c16.8-46.2-4.2-83.1-4.2-84l1-1
		c4.2,7.4,6.8,15.8,8.4,24.3c4.2,20,2.6,41.1-4.2,59.5c-16.8,46.2-4.2,67.9-4.2,67.9L1055.8,2125.8z"/>
	<circle class="st5" cx="1049" cy="1962.7" r="7.4"/>
	<circle class="st5" cx="1073.6" cy="1992.2" r="7.4"/>
	<circle class="st3" cx="1056.7" cy="2010.6" r="7.4"/>
	<circle class="st3" cx="1076.8" cy="2027.4" r="7.4"/>
	<circle class="st5" cx="1050.9" cy="2052.6" r="7.4"/>
	<path class="st5" d="M1060,2126.7c0,0-7.4-19.4,15.8-33.6L1060,2126.7z"/>
	<path class="st5" d="M1050.9,2125.8c0,0-3.2-20-31-20L1050.9,2125.8z"/>
	<path class="st7" d="M1784.2,1803.4c0,2.6-1.6,5.1-3.2,6.8l0,0h-129.9l1-1.6c0,0,9.4-27.8,52-22.6c4.2-1.6,42.7-14.2,66.3,0
		C1779.4,1791.7,1784.2,1797.5,1784.2,1803.4z"/>
	<path class="st7" d="M1217.1,1767.1c0,2.6-1.6,5.1-3.2,6.8l0,0h-129.9l1-1.6c0,0,9.4-27.8,52-22.6c4.2-1.6,42.7-14.2,66.3,0
		C1212,1756.2,1217.1,1762.3,1217.1,1767.1z"/>
	<path class="st7" d="M1272.4,1390.1c0,2.6-1.6,5.1-3.2,6.8l0,0h-129.9l1-1.6c0,0,9.4-27.8,52-22.6c4.2-1.6,42.7-14.2,66.3,0
		C1266.6,1379.5,1272.4,1385.3,1272.4,1390.1z"/>
</g>
<circle class="st4" cx="560.8" cy="1603.9" r="9.5"/>
<circle class="st4" cx="351.2" cy="1652" r="5.2"/>
<circle class="st4" cx="767.1" cy="1649.1" r="4.3"/>
<circle class="st4" cx="193.3" cy="1584.3" r="9.5"/>
<circle class="st4" cx="669.6" cy="1547.1" r="5.9"/>
<circle class="st4" cx="2253.6" cy="1637.9" r="17.4"/>
<circle class="st4" cx="2370.9" cy="1597.5" r="8.3"/>
<circle class="st4" cx="2123.1" cy="1537.4" r="8.5"/>
<circle class="st4" cx="2555.5" cy="1167.4" r="8.5"/>
<circle class="st4" cx="2226.7" cy="1791.9" r="8.5"/>
<circle class="st4" cx="2411.3" cy="1378.2" r="8.3"/>
<circle class="st4" cx="2319.7" cy="1221.6" r="8.3"/>
<circle class="st4" cx="2218.3" cy="1360.4" r="25.4"/>
<circle class="st4" cx="2617.2" cy="1234.8" r="6.1"/>
<circle class="st4" cx="1998.4" cy="1246.8" r="28.7"/>
<circle class="st4" cx="2323.9" cy="1875.3" r="20.7"/>
<circle class="st4" cx="2030.1" cy="1055" r="8.5"/>
<circle class="st4" cx="1919.4" cy="1184.2" r="8.5"/>
<path class="st4" d="M2142.9,2161.2c-0.8,0-1.6-0.5-2-0.5l-4.9-3.6c-0.8-0.5-2-0.5-2.8,0l-4.9,3.6c-1.6,1.3-3.6,0.8-4.9-0.8
	c-0.5-0.8-0.8-2-0.5-3.3l2-5.7c0.5-0.8,0-2-0.8-2.5l-4.9-3.6c-1.6-1.3-2-3.6-0.8-4.9c0.5-0.8,1.6-1.6,2.8-1.6h6.1
	c1.3,0,2-0.5,2.5-1.6l2-5.7c0.5-1.6,2.5-2.8,4.6-2.5c1.3,0.5,2,1.3,2.5,2.5l2,5.7c0.5,0.8,1.3,1.6,2.5,1.6h6.1c2,0,3.6,1.6,3.6,3.6
	c0,1.3-0.5,2.5-1.6,2.8l-4.9,3.6c-0.8,0.5-1.3,1.6-0.8,2.5l2,5.7c0.5,1.6,0,2.8-1.3,4.1C2144.4,2160.7,2143.6,2161.2,2142.9,2161.2z
	"/>
<path class="st4" d="M2333.1,2142.9c-0.8,0-1.6-0.5-2-0.5l-4.9-3.6c-0.8-0.5-2-0.5-2.8,0l-4.9,3.6c-1.6,1.3-3.6,0.8-4.9-0.8
	c-0.5-0.8-0.8-2-0.5-3.3l2-5.7c0.5-0.8,0-2-0.8-2.5l-4.9-3.6c-1.6-1.3-2-3.6-0.8-4.9c0.5-0.8,1.6-1.6,2.8-1.6h6.1
	c1.3,0,2-0.5,2.5-1.6l2-5.7c0.5-1.6,2.5-2.8,4.6-2.5c1.3,0.5,2,1.3,2.5,2.5l2,5.7c0.5,0.8,1.3,1.6,2.5,1.6h6.1c2,0,3.6,1.6,3.6,3.6
	c0,1.3-0.5,2.5-1.6,2.8l-4.9,3.6c-0.8,0.5-1.3,1.6-0.8,2.5l2,5.7c0.5,1.6,0,2.8-1.3,4.1C2334.7,2142.9,2334.2,2142.9,2333.1,2142.9z
	"/>
<circle class="st4" cx="2204.8" cy="661.5" r="17.4"/>
<circle class="st4" cx="2322.1" cy="621.1" r="8.3"/>
<circle class="st4" cx="2074.3" cy="561" r="8.5"/>
<circle class="st4" cx="2506.6" cy="191" r="8.5"/>
<circle class="st4" cx="2177.9" cy="815.5" r="8.5"/>
<circle class="st4" cx="2362.4" cy="401.8" r="8.3"/>
<circle class="st4" cx="2270.9" cy="245.2" r="8.3"/>
<circle class="st4" cx="2169.4" cy="384" r="25.4"/>
<circle class="st4" cx="2568.4" cy="258.4" r="6.1"/>
<circle class="st4" cx="1949.5" cy="270.5" r="28.7"/>
<circle class="st4" cx="2275.1" cy="898.9" r="20.7"/>
<circle class="st4" cx="1981.2" cy="78.6" r="8.5"/>
<circle class="st4" cx="1870.5" cy="207.8" r="8.5"/>
<path class="st4" d="M2094,1184.8c-0.8,0-1.6-0.5-2-0.5l-4.9-3.6c-0.8-0.5-2-0.5-2.8,0l-4.9,3.6c-1.6,1.3-3.6,0.8-4.9-0.8
	c-0.5-0.8-0.8-2-0.5-3.3l2-5.7c0.5-0.8,0-2-0.8-2.5l-4.9-3.6c-1.6-1.3-2-3.6-0.8-4.9c0.5-0.8,1.6-1.6,2.8-1.6h6.1
	c1.3,0,2-0.5,2.5-1.6l2-5.7c0.5-1.6,2.5-2.8,4.6-2.5c1.3,0.5,2,1.3,2.5,2.5l2,5.7c0.5,0.8,1.3,1.6,2.5,1.6h6.1c2,0,3.6,1.6,3.6,3.6
	c0,1.3-0.5,2.5-1.6,2.8l-4.9,3.6c-0.8,0.5-1.3,1.6-0.8,2.5l2,5.7c0.5,1.6,0,2.8-1.3,4.1C2095.6,1184.3,2094.8,1184.8,2094,1184.8z"
	/>
<path class="st4" d="M2284.3,1166.6c-0.8,0-1.6-0.5-2-0.5l-4.9-3.6c-0.8-0.5-2-0.5-2.8,0l-4.9,3.6c-1.6,1.3-3.6,0.8-4.9-0.8
	c-0.5-0.8-0.8-2-0.5-3.3l2-5.7c0.5-0.8,0-2-0.8-2.5l-4.9-3.6c-1.6-1.3-2-3.6-0.8-4.9c0.5-0.8,1.6-1.6,2.8-1.6h6.1
	c1.3,0,2-0.5,2.5-1.6l2-5.7c0.5-1.6,2.5-2.8,4.6-2.5c1.3,0.5,2,1.3,2.5,2.5l2,5.7c0.5,0.8,1.3,1.6,2.5,1.6h6.1c2,0,3.6,1.6,3.6,3.6
	c0,1.3-0.5,2.5-1.6,2.8l-4.9,3.6c-0.8,0.5-1.3,1.6-0.8,2.5l2,5.7c0.5,1.6,0,2.8-1.3,4.1C2285.9,1166.6,2285.4,1166.6,2284.3,1166.6z
	"/>
<circle class="st4" cx="461.9" cy="2327.9" r="17.4"/>
<circle class="st4" cx="579.2" cy="2287.5" r="8.3"/>
<circle class="st4" cx="331.4" cy="2227.4" r="8.5"/>
<circle class="st4" cx="763.8" cy="1857.4" r="8.5"/>
<circle class="st4" cx="435.1" cy="2481.9" r="8.5"/>
<circle class="st4" cx="619.6" cy="2068.2" r="8.3"/>
<circle class="st4" cx="528" cy="1911.6" r="8.3"/>
<circle class="st4" cx="426.6" cy="2050.4" r="25.4"/>
<circle class="st4" cx="825.5" cy="1924.8" r="6.1"/>
<circle class="st4" cx="206.7" cy="1936.8" r="28.7"/>
<circle class="st4" cx="532.3" cy="2565.3" r="20.7"/>
<circle class="st4" cx="238.4" cy="1745" r="8.5"/>
<circle class="st4" cx="127.7" cy="1874.2" r="8.5"/>
<path class="st4" d="M857.9,1198.5c-0.8,0-1.6-0.5-2-0.5l-4.9-3.6c-0.8-0.5-2-0.5-2.8,0l-4.9,3.6c-1.6,1.3-3.6,0.8-4.9-0.8
	c-0.5-0.8-0.8-2-0.5-3.3l2-5.7c0.5-0.8,0-2-0.8-2.5l-4.9-3.6c-1.6-1.3-2-3.6-0.8-4.9c0.5-0.8,1.6-1.6,2.8-1.6h6.1
	c1.3,0,2-0.5,2.5-1.6l2-5.7c0.5-1.6,2.5-2.8,4.6-2.5c1.3,0.5,2,1.3,2.5,2.5l2,5.7c0.5,0.8,1.3,1.6,2.5,1.6h6.1c2,0,3.6,1.6,3.6,3.6
	c0,1.3-0.5,2.5-1.6,2.8l-4.9,3.6c-0.8,0.5-1.3,1.6-0.8,2.5l2,5.7c0.5,1.6,0,2.8-1.3,4.1C859.5,1198,858.7,1198.5,857.9,1198.5z"/>
<path class="st4" d="M1048.2,1180.3c-0.8,0-1.6-0.5-2-0.5l-4.9-3.6c-0.8-0.5-2-0.5-2.8,0l-4.9,3.6c-1.6,1.3-3.6,0.8-4.9-0.8
	c-0.5-0.8-0.8-2-0.5-3.3l2-5.7c0.5-0.8,0-2-0.8-2.5l-4.9-3.6c-1.6-1.3-2-3.6-0.8-4.9c0.5-0.8,1.6-1.6,2.8-1.6h6.1
	c1.3,0,2-0.5,2.5-1.6l2-5.7c0.5-1.6,2.5-2.8,4.6-2.5c1.3,0.5,2,1.3,2.5,2.5l2,5.7c0.5,0.8,1.3,1.6,2.5,1.6h6.1c2,0,3.6,1.6,3.6,3.6
	c0,1.3-0.5,2.5-1.6,2.8l-4.9,3.6c-0.8,0.5-1.3,1.6-0.8,2.5l2,5.7c0.5,1.6,0,2.8-1.3,4.1C1049.8,1180.3,1049.3,1180.3,1048.2,1180.3z
	"/>
<circle class="st4" cx="323.6" cy="782.9" r="8.5"/>
<circle class="st4" cx="179.3" cy="993.7" r="8.3"/>
<circle class="st4" cx="87.8" cy="837.1" r="8.3"/>
<circle class="st4" cx="385.3" cy="850.3" r="6.1"/>
<circle class="st4" cx="990.3" cy="1343.4" r="8.5"/>
<circle class="st4" cx="846.1" cy="1554.2" r="8.3"/>
<circle class="st4" cx="754.6" cy="1397.7" r="8.3"/>
<circle class="st4" cx="1052" cy="1410.8" r="6.1"/>
<path class="st4" d="M2579.3,2143.8c-1.1,0-2.2-0.6-2.8-0.6l-6.8-5c-1.1-0.6-2.8-0.6-3.9,0l-6.8,5c-2.2,1.7-5,1.1-6.8-1.1
	c-0.6-1.1-1.1-2.8-0.6-4.6l2.8-7.9c0.6-1.1,0-2.8-1.1-3.5l-6.8-5c-2.2-1.7-2.8-5-1.1-6.8c0.6-1.1,2.2-2.2,3.9-2.2h8.5
	c1.7,0,2.8-0.6,3.5-2.2l2.8-7.9c0.6-2.2,3.5-3.9,6.3-3.5c1.7,0.6,2.8,1.7,3.5,3.5l2.8,7.9c0.6,1.1,1.7,2.2,3.5,2.2h8.5
	c2.8,0,5,2.2,5,5c0,1.7-0.6,3.5-2.2,3.9l-6.8,5c-1.1,0.6-1.7,2.2-1.1,3.5l2.8,7.9c0.6,2.2,0,3.9-1.7,5.7
	C2581.5,2143.8,2580.4,2143.8,2579.3,2143.8z"/>
<path class="st4" d="M2420.3,2030.8c-0.8,0-1.6-0.5-2-0.5l-4.9-3.6c-0.8-0.5-2-0.5-2.8,0l-4.9,3.6c-1.6,1.3-3.6,0.8-4.9-0.8
	c-0.5-0.8-0.8-2-0.5-3.3l2-5.7c0.5-0.8,0-2-0.8-2.5l-4.9-3.6c-1.6-1.3-2-3.6-0.8-4.9c0.5-0.8,1.6-1.6,2.8-1.6h6.1
	c1.3,0,2-0.5,2.5-1.6l2-5.7c0.5-1.6,2.5-2.8,4.6-2.5c1.3,0.5,2,1.3,2.5,2.5l2,5.7c0.5,0.8,1.3,1.6,2.5,1.6h6.1c2,0,3.6,1.6,3.6,3.6
	c0,1.3-0.5,2.5-1.6,2.8l-4.9,3.6c-0.8,0.5-1.3,1.6-0.8,2.5l2,5.7c0.5,1.6,0,2.8-1.3,4.1C2421.8,2030.3,2421,2030.8,2420.3,2030.8z"
	/>
<path class="st4" d="M2610.5,2012.5c-0.8,0-1.6-0.5-2-0.5l-4.9-3.6c-0.8-0.5-2-0.5-2.8,0l-4.9,3.6c-1.6,1.3-3.6,0.8-4.9-0.8
	c-0.5-0.8-0.8-2-0.5-3.3l2-5.7c0.5-0.8,0-2-0.8-2.5l-4.9-3.6c-1.6-1.3-2-3.6-0.8-4.9c0.5-0.8,1.6-1.6,2.8-1.6h6.1
	c1.3,0,2-0.5,2.5-1.6l2-5.7c0.5-1.6,2.5-2.8,4.6-2.5c1.3,0.5,2,1.3,2.5,2.5l2,5.7c0.5,0.8,1.3,1.6,2.5,1.6h6.1c2,0,3.6,1.6,3.6,3.6
	c0,1.3-0.5,2.5-1.6,2.8l-4.9,3.6c-0.8,0.5-1.3,1.6-0.8,2.5l2,5.7c0.5,1.6,0,2.8-1.3,4.1C2612.1,2012.5,2611.6,2012.5,2610.5,2012.5z
	"/>
<circle class="st4" cx="2534" cy="2428.9" r="9.5"/>
<circle class="st4" cx="2324.5" cy="2477" r="5.2"/>
<circle class="st4" cx="2166.5" cy="2409.3" r="9.5"/>
<circle class="st4" cx="2642.9" cy="2372" r="5.9"/>
<circle class="st4" cx="2211.7" cy="2569.9" r="8.5"/>
<path class="st4" d="M1877.4,2654.3c-1.1,0-2.2-0.6-2.8-0.6l-6.8-5c-1.1-0.6-2.8-0.6-3.9,0l-6.8,5c-2.2,1.7-5,1.1-6.8-1.1
	c-0.6-1.1-1.1-2.8-0.6-4.6l2.8-7.9c0.6-1.1,0-2.8-1.1-3.5l-6.8-5c-2.2-1.7-2.8-5-1.1-6.8c0.6-1.1,2.2-2.2,3.9-2.2h8.5
	c1.7,0,2.8-0.6,3.5-2.2l2.8-7.9c0.6-2.2,3.5-3.9,6.3-3.5c1.7,0.6,2.8,1.7,3.5,3.5l2.8,7.9c0.6,1.1,1.7,2.2,3.5,2.2h8.5
	c2.8,0,5,2.2,5,5c0,1.7-0.6,3.5-2.2,3.9l-6.8,5c-1.1,0.6-1.7,2.2-1.1,3.5l2.8,7.9c0.6,2.2,0,3.9-1.7,5.7
	C1879.6,2654.3,1878.5,2654.3,1877.4,2654.3z"/>
<path class="st4" d="M1718.4,2541.2c-0.8,0-1.6-0.5-2-0.5l-4.9-3.6c-0.8-0.5-2-0.5-2.8,0l-4.9,3.6c-1.6,1.3-3.6,0.8-4.9-0.8
	c-0.5-0.8-0.8-2-0.5-3.3l2-5.7c0.5-0.8,0-2-0.8-2.5l-4.9-3.6c-1.6-1.3-2-3.6-0.8-4.9c0.5-0.8,1.6-1.6,2.8-1.6h6.1
	c1.3,0,2-0.5,2.5-1.6l2-5.7c0.5-1.6,2.5-2.8,4.6-2.5c1.3,0.5,2,1.3,2.5,2.5l2,5.7c0.5,0.8,1.3,1.6,2.5,1.6h6.1c2,0,3.6,1.6,3.6,3.6
	c0,1.3-0.5,2.5-1.6,2.8l-4.9,3.6c-0.8,0.5-1.3,1.6-0.8,2.5l2,5.7c0.5,1.6,0,2.8-1.3,4.1C1720,2540.7,1719.2,2541.2,1718.4,2541.2z"
	/>
<path class="st4" d="M1908.7,2523c-0.8,0-1.6-0.5-2-0.5l-4.9-3.6c-0.8-0.5-2-0.5-2.8,0l-4.9,3.6c-1.6,1.3-3.6,0.8-4.9-0.8
	c-0.5-0.8-0.8-2-0.5-3.3l2-5.7c0.5-0.8,0-2-0.8-2.5l-4.9-3.6c-1.6-1.3-2-3.6-0.8-4.9c0.5-0.8,1.6-1.6,2.8-1.6h6.1
	c1.3,0,2-0.5,2.5-1.6l2-5.7c0.5-1.6,2.5-2.8,4.6-2.5c1.3,0.5,2,1.3,2.5,2.5l2,5.7c0.5,0.8,1.3,1.6,2.5,1.6h6.1c2,0,3.6,1.6,3.6,3.6
	c0,1.3-0.5,2.5-1.6,2.8l-4.9,3.6c-0.8,0.5-1.3,1.6-0.8,2.5l2,5.7c0.5,1.6,0,2.8-1.3,4.1C1910.3,2523,1909.8,2523,1908.7,2523z"/>
<circle class="st4" cx="1314.2" cy="2521.9" r="9.5"/>
<circle class="st4" cx="1104.6" cy="2570" r="5.2"/>
<circle class="st4" cx="946.7" cy="2502.3" r="9.5"/>
<circle class="st4" cx="1423.1" cy="2465" r="5.9"/>
<circle class="st4" cx="991.9" cy="2663" r="8.5"/>
</svg>
