<?xml version="1.0" encoding="utf-8"?>
<!-- Generator: Adobe Illustrator 22.0.0, SVG Export Plug-In . SVG Version: 6.00 Build 0)  -->
<svg version="1.1" id="Ebene_1" focusable="false" xmlns="http://www.w3.org/2000/svg" xmlns:xlink="http://www.w3.org/1999/xlink"
	 x="0px" y="0px" viewBox="0 0 500 800" style="enable-background:new 0 0 500 800;" xml:space="preserve">
<style type="text/css">
	.st0{fill:#F9CE64;stroke:#233033;stroke-miterlimit:10;}
	.st1{opacity:0.1;}
	.st2{opacity:0.1;enable-background:new    ;}
	.st3{fill:#6C63FF;}
	.st4{fill:#FFFFFF;}
	.st5{fill:#58555D;}
	.st6{fill:#F9CE64;}
	.st7{opacity:0.5;fill:#58555D;enable-background:new    ;}
	.st8{fill:#4D8AF0;}
	.st9{fill:#9F2B2E;}
	.st10{opacity:0.1;fill:url(#SVGID_1_);enable-background:new    ;}
	.st11{fill:#E05A61;}
	.st12{fill:#BC4648;stroke:#FFFFFF;stroke-width:5;stroke-miterlimit:10;}
	.st13{fill:#B53134;stroke:#E05A61;stroke-width:52;stroke-miterlimit:10;}
</style>
<g>
	<path class="st0" d="M360.9,410.1c14.4-0.9,28.1-6.5,41.1-12.7c25.8-12.3,51.9-29.5,61.9-56.3c3.7-9.8,4.9-20.3,6.2-30.6
		c2.5-20.9,5-42.1,2.5-63.1c-2.8-23-11.4-45-25.2-63.6c-2-2.8-5-4.8-8.4-5.6c-5.9-1.3-8.4,2.2-10.4,5.7
		c-11.6,21.2-5.8,47.1-3.1,71.1c2.7,24.1,1.9,48.4-2.4,72.2c-1.8,10.1-4.6,20.8-12.3,27.6c-4.7,4.2-10.8,6.4-16.7,8.5
		c-8.8,3.2-18.5,6.4-27.4,3.4c-9.1-3.1-16.6-13.9-26.5-14.2c-9.9-0.3-21.3,11.8-24.2,21C308.1,398.1,341.6,411.3,360.9,410.1z"/>
	<g class="st1">
		<path d="M410.7,354.7c-4.7,4.2-10.8,6.4-16.7,8.5c-6.1,2.2-12.5,4.4-18.9,4.6c8.3,2,17.2-1,25.4-3.9c5.9-2.1,12-4.4,16.7-8.5
			c7.7-6.8,10.5-17.5,12.3-27.6c4.3-23.8,5.1-48.1,2.4-72.2c-2.7-24-8.5-49.9,3.1-71.1c1.3-2.5,3-4.9,5.9-5.7
			c-0.7-0.3-1.4-0.5-2.1-0.7c-5.9-1.3-8.4,2.2-10.4,5.7c-11.6,21.2-5.8,47.1-3.1,71.1c2.7,24.1,1.9,48.4-2.4,72.2
			C421.3,337.2,418.4,347.9,410.7,354.7z"/>
		<path d="M322.4,374c2.7-8.4,12.6-19.5,21.9-20.8c-1.4-0.5-2.8-0.7-4.2-0.8c-9.9-0.3-21.3,11.8-24.2,21
			c-7.3,23.1,21.4,36.1,40.9,36.8C338.1,407.2,315.9,394.6,322.4,374z"/>
	</g>
	
		<rect x="261.3" y="180.9" transform="matrix(0.2949 -0.9555 0.9555 0.2949 -58.6373 468.6323)" class="st2" width="53.9" height="186.2"/>
	
		<rect x="264.5" y="178.6" transform="matrix(0.2949 -0.9555 0.9555 0.2949 -55.8907 467.6721)" class="st3" width="49" height="186.2"/>
	<circle class="st3" cx="317" cy="230.8" r="29.4"/>
	<path class="st0" d="M270.1,83.1c0,0,52.5,5.4,74.1,22.9c0,0,25.5-30,40.3-25.4c14.8,4.6,3,60.5,3,60.5l-4.6,85.2
		c0,0,42,197-79.3,257S64.5,398.5,84.3,334.3C104.1,270,175,145.8,175,145.8s63.2-99.6,76.1-106.4S270.1,83.1,270.1,83.1z"/>
	<g class="st1">
		<path class="st4" d="M389,329.2c2.3-34.5,0.3-69.1-6.1-103l-0.7,13.5C387.7,269.2,390,299.2,389,329.2z"/>
		<path class="st4" d="M97.3,323.7c19.8-64.2,77-164.5,77-164.5s63.2-99.6,76.1-106.4c12.9-6.8,19,43.7,19,43.7s52.5,5.4,74.1,22.9
			c0,0,25.5-30,40.3-25.4c5.8,1.8,7.5,11.3,7.5,22.3c1.5-15.6,1.3-33.2-6.7-35.7C369.7,76,344.2,106,344.2,106
			c-21.7-17.5-74.1-22.9-74.1-22.9s-6-50.6-19-43.7C238.2,46.2,175,145.8,175,145.8S117.8,246,98,310.3
			C96.2,316.1,96.7,325.6,97.3,323.7z"/>
	</g>
	
		<ellipse transform="matrix(0.9868 -0.162 0.162 0.9868 -27.8061 57.6795)" class="st5" cx="339.8" cy="199.3" rx="10.3" ry="10.3"/>
	<circle class="st5" cx="226.1" cy="164.3" r="10.3"/>
	
		<ellipse transform="matrix(0.2949 -0.9555 0.9555 0.2949 15.1958 405.4779)" class="st5" cx="282.4" cy="192.4" rx="10.3" ry="15.5"/>
	
		<rect x="390.6" y="186.6" transform="matrix(8.085680e-02 -0.9967 0.9967 8.085680e-02 151.671 585.3019)" class="st6" width="5.2" height="47.7"/>
	
		<rect x="387" y="204.6" transform="matrix(0.1026 -0.9947 0.9947 0.1026 119.8649 594.7542)" class="st6" width="5.2" height="52.7"/>
	
		<rect x="168.8" y="103.3" transform="matrix(0.6287 -0.7776 0.7776 0.6287 -38.334 181.9491)" class="st6" width="5.2" height="55.7"/>
	
		<rect x="155.3" y="114.6" transform="matrix(0.4368 -0.8996 0.8996 0.4368 -44.7674 225.6937)" class="st6" width="5.2" height="68"/>
	<path class="st2" d="M216.1,333.5c0,0,11.3,85.3-35.8,77.8s-5.2-70.2-5.2-70.2s1.8-21.9-8.8-26.4"/>
	<path class="st2" d="M258.1,344.5c0,0-62.9,58.8-21.7,82.8s48.6-50.9,48.6-50.9s12.5-18,23.6-14.8"/>
	<path class="st6" d="M212.7,330.1c0,0,11.3,85.3-35.8,77.8s-5.2-70.2-5.2-70.2s1.8-21.9-8.8-26.4"/>
	<path class="st6" d="M262.2,342.3c0,0-62.9,58.8-21.7,82.8s48.6-50.9,48.6-50.9s12.5-18,23.6-14.8"/>
	
		<rect x="157.7" y="395" transform="matrix(0.2949 -0.9555 0.9555 0.2949 -261.2464 436.7165)" class="st7" width="15.3" height="0.8"/>
	
		<rect x="170.2" y="398.8" transform="matrix(0.2949 -0.9555 0.9555 0.2949 -256.1256 451.3652)" class="st7" width="15.3" height="0.8"/>
	
		<rect x="160.9" y="395" transform="matrix(0.2949 -0.9555 0.9555 0.2949 -256.8663 442.7024)" class="st7" width="21.4" height="0.8"/>
	
		<rect x="239.8" y="416.9" transform="matrix(0.2949 -0.9555 0.9555 0.2949 -224.299 530.6529)" class="st7" width="15.3" height="0.8"/>
	
		<rect x="252.3" y="420.8" transform="matrix(0.2949 -0.9555 0.9555 0.2949 -219.1782 545.3016)" class="st7" width="15.3" height="0.8"/>
	
		<rect x="243" y="416.9" transform="matrix(0.2949 -0.9555 0.9555 0.2949 -219.919 536.6387)" class="st7" width="21.4" height="0.8"/>
	<path class="st2" d="M250.5,251.9c-12.9-4-25.5-9.1-37.6-15.2c-38-19.4-61.1-45.6-61.9-46.6l4.2-7.5c0.2,0.2,25.6,27.6,62.2,46.2
		c33.7,17.1,95.4,34.1,168.2,19l1.8,8.8C334.6,267.6,284.2,262.3,250.5,251.9z"/>
	<path class="st8" d="M250.7,257.7l-0.2-0.4c2.8-1,4.3-4.1,3.2-6.9c-0.2-0.5-0.4-0.9-0.7-1.3l0.4-0.3c1.9,2.7,1.3,6.4-1.4,8.2
		C251.6,257.3,251.1,257.5,250.7,257.7z"/>
	<path class="st2" d="M250.7,257.7l-0.2-0.4c2.8-1,4.3-4.1,3.2-6.9c-0.2-0.5-0.4-0.9-0.7-1.3l0.4-0.3c1.9,2.7,1.3,6.4-1.4,8.2
		C251.6,257.3,251.1,257.5,250.7,257.7z"/>
	<path class="st9" d="M386.2,245.9c-72.8,15.1-134.6-1.9-168.2-19c-36.6-18.6-62-46-62.2-46.2l-6.8,5.9c0.8,1,26.5,28.8,64.6,48.1
		c12.1,6.1,24.6,11.2,37.6,15.2c33.7,10.4,84.1,15.8,136.9,4.8L386.2,245.9z M252.9,249.8c-0.5-0.2-0.8-0.7-0.7-1.3
		c0.2-0.5,0.7-0.8,1.3-0.7s0.8,0.7,0.7,1.3C254,249.7,253.4,250,252.9,249.8C252.9,249.8,252.9,249.8,252.9,249.8z"/>
	
		<linearGradient id="SVGID_1_" gradientUnits="userSpaceOnUse" x1="577.1725" y1="63.1967" x2="577.1725" y2="83.1967" gradientTransform="matrix(0.9555 0.2949 0.2949 -0.9555 -324.3052 162.8878)">
		<stop  offset="0" style="stop-color:#FFFFFF"/>
		<stop  offset="1" style="stop-color:#000000"/>
	</linearGradient>
	<path class="st10" d="M239.2,260.2L239.2,260.2c-1.6,5.3,1.3,10.9,6.6,12.5l0,0c5.3,1.6,10.9-1.3,12.5-6.6l0,0l0,0
		c1.6-5.3-1.3-10.9-6.6-12.5l0,0C246.5,252,240.9,255,239.2,260.2C239.2,260.2,239.2,260.2,239.2,260.2z M250.3,258.4
		c-0.9-0.3-1.4-1.2-1.1-2.1c0.3-0.9,1.2-1.4,2.1-1.1c0.9,0.3,1.4,1.2,1.1,2.1v0C252.1,258.2,251.1,258.7,250.3,258.4L250.3,258.4z"
		/>
	<path class="st11" d="M240.2,260.5L240.2,260.5c-1.5,4.7,1.2,9.8,5.9,11.3l0,0c4.7,1.5,9.8-1.2,11.3-5.9l0,0
		c1.5-4.7-1.2-9.8-5.9-11.3l0,0C246.7,253.1,241.6,255.8,240.2,260.5z M250.1,258.9c-0.8-0.2-1.2-1.1-1-1.9c0.2-0.8,1.1-1.2,1.9-1
		c0.8,0.2,1.2,1.1,1,1.9c0,0,0,0,0,0C251.7,258.7,250.9,259.1,250.1,258.9C250.1,258.9,250.1,258.9,250.1,258.9L250.1,258.9z"/>
	<path class="st8" d="M250.3,257.6c-1.9-2.7-1.2-6.4,1.4-8.2c0.4-0.3,0.9-0.5,1.4-0.7l0.2,0.5c-2.8,1-4.2,4.1-3.2,7
		c0.2,0.5,0.4,0.9,0.7,1.3L250.3,257.6z"/>
	<polyline class="st8" points="253.2,248.9 253.2,248.9 253.2,248.9 253.2,248.9 	"/>
	<path class="st6" d="M372.7,244.9c-155.4,36.8-209.1-58.3-209.1-58.3L372.7,244.9z"/>
</g>
<circle class="st12" cx="251.2" cy="530.3" r="244.1"/>
<circle class="st13" cx="251.2" cy="530.3" r="178.5"/>
<circle class="st9" cx="251.2" cy="530.3" r="82.3"/>
</svg>
