<?xml version="1.0" encoding="utf-8"?>
<!-- Generator: Adobe Illustrator 22.0.0, SVG Export Plug-In . SVG Version: 6.00 Build 0)  -->
<svg version="1.1" id="Ebene_1" focusable="false" xmlns="http://www.w3.org/2000/svg" xmlns:xlink="http://www.w3.org/1999/xlink"
	 x="0px" y="0px" viewBox="0 0 448 512" style="enable-background:new 0 0 448 512;" xml:space="preserve">
<style type="text/css">
	.st0{fill:#BC4648;stroke:#F9CF65;stroke-width:25;stroke-miterlimit:10;}
</style>
<path class="st0" d="M368,160h-0.9c9-79-47.7-150.4-126.7-159.5S90,48.1,80.9,127.1c-1.3,10.9-1.3,21.9,0,32.9H80
	c-26.5,0-48,21.5-48,48s21.5,48,48,48h288c26.5,0,48-21.5,48-48S394.5,160,368,160z M195.4,493.7c7.3,15.8,26,22.7,41.8,15.4
	c6.8-3.1,12.3-8.6,15.4-15.4L352,288H96L195.4,493.7z"/>
</svg>
