<?xml version="1.0" encoding="utf-8"?>
<!-- Generator: Adobe Illustrator 22.0.0, SVG Export Plug-In . SVG Version: 6.00 Build 0)  -->
<svg version="1.1" id="Ebene_1" focusable="false" xmlns="http://www.w3.org/2000/svg" xmlns:xlink="http://www.w3.org/1999/xlink"
	 x="0px" y="0px" viewBox="0 0 500 500" style="enable-background:new 0 0 500 500;" xml:space="preserve">
<style type="text/css">
	.st0{fill:#233033;}
	.st1{fill:#F8C143;}
	.st2{opacity:0.1;fill:#233033;enable-background:new    ;}
	.st3{fill:#F9CE64;}
</style>
<circle class="st0" cx="250" cy="249.8" r="244.1"/>
<g>
	<path class="st1" d="M335.6,215.1c0,0-1.6,18.1-4.4,44.1c-0.9,8.4-2,17.8-3.2,27.6c-1.7,13.7-3.6,28.3-5.8,43
		c-1.4,9.1-2.8,18.1-4.3,27c-8.2,47.6-18.8,89.6-31.4,93.1c-28.2,7.7-133-168.7-144.6-188.3c-0.6-1.1-1-1.7-1-1.7L335.6,215.1z"/>
	<path class="st2" d="M331.2,259.2c-0.9,8.4-2,17.8-3.2,27.6l-90.7-49.1l38-8.7L331.2,259.2z"/>
	<path class="st2" d="M322.2,329.8c-1.4,9.1-2.8,18.1-4.3,27l-175.9-95c-0.6-1.1-1-1.7-1-1.7l36.5-8.4L322.2,329.8z"/>
	<path class="st3" d="M202.8,68c-7.3,9.1-22,9.7-28.9,19.2c-4.7,6.5-4.2,15.6-0.9,22.8c3.4,7.2,9.2,13,15,18.5
		c3.9,3.9,8.1,7.6,13,10.1c6.9,3.4,14.9,3.9,22.6,4c16.8,0.2,33.6-1.2,50.1-4.1c7.3-1.3,15.5-3.6,19.2-10.1
		c2.1-3.8,2.3-8.3,2.2-12.8c-0.2-6.8-1.1-14-5.1-19.4c-3.4-4.5-8.5-7.2-13.7-9.5c-16-7.2-33.9-12.2-45.7-25.3
		c-4.7-5.2-8.3-11.7-14.4-15.1c-7.9-4.5-23-3.7-29.7,2.1C188.2,51,207.2,62.5,202.8,68z"/>
	<path class="st3" d="M144,155.5c-0.6,9.8-0.7,20.1,3.7,28.8c5.8,11.6,18.6,18.3,31.4,20c12.8,1.7,25.8-0.7,38.4-3.1l66.4-12.8
		c8.3-1.6,16.9-3.2,25.3-2.1c7,0.8,15.5,2.9,19.8-2.5c2-2.5,2.4-5.9,2.6-9c0.6-10.4-0.3-21.3-6.2-29.8c-6.8-9.7-19.1-14.3-30.8-15.1
		s-23.6,1.6-35.3,2.9c-11.9,1.4-23.9,1.7-36,1.1c-10-0.6-20.4-1.9-28.9-7.2c-4.6-2.8-8.5-6.8-12.9-9.8C155.7,99,145,137,144,155.5z"
		/>
	<path class="st3" d="M139.2,201.1c-18.4,13.9-22.1,40.2-8.2,58.6c4.1,5.4,9.4,9.7,15.6,12.7c11.8,5.6,25.6,5.3,38.5,3.3
		c12.7-1.9,25-5.4,37.2-8.9l108.8-30.9c6.3-1.8,13.5-4.2,16.2-10.3c2-4.5,1-9.8-0.8-14.4c-6.5-16.6-22.9-28.8-40.6-30.2
		c-6.7-0.6-13.4,0.4-20.1,1.3l-48.2,6.4c-6.5,0.8-13,1.7-19.5,1.5c-19.8-0.7-39.9-11.7-58.6-5.1c-12.7,4.5-21.3,16.1-28.7,27.3"/>
	<path class="st2" d="M183.7,112.5c0,0,21.8,24.2,103.3,17.2"/>
	<path class="st2" d="M156.8,195.4c0,0,35.2,22.4,153.3-4.9"/>
	<ellipse transform="matrix(0.9745 -0.2244 0.2244 0.9745 -15.249 47.7673)" class="st1" cx="202.5" cy="91" rx="7.7" ry="2.6"/>
	
		<ellipse transform="matrix(0.9745 -0.2244 0.2244 0.9745 -16.8781 54.5212)" class="st1" cx="231.4" cy="101.5" rx="7.7" ry="2.6"/>
	
		<ellipse transform="matrix(0.9745 -0.2244 0.2244 0.9745 -18.4878 62.1895)" class="st1" cx="264.4" cy="112.4" rx="7.7" ry="2.6"/>
	
		<ellipse transform="matrix(0.9745 -0.2244 0.2244 0.9745 -27.9005 40.8255)" class="st1" cx="165.7" cy="143.2" rx="7.7" ry="2.6"/>
	
		<ellipse transform="matrix(0.9745 -0.2244 0.2244 0.9745 -28.1652 56.6601)" class="st1" cx="235.2" cy="152.2" rx="7.7" ry="2.6"/>
	<ellipse transform="matrix(0.9745 -0.2244 0.2244 0.9745 -45.8523 40.676)" class="st1" cx="156" cy="222.1" rx="7.7" ry="2.6"/>
	
		<ellipse transform="matrix(0.9745 -0.2244 0.2244 0.9745 -32.0175 47.5288)" class="st1" cx="193.1" cy="164.6" rx="7.7" ry="2.6"/>
	
		<ellipse transform="matrix(0.9745 -0.2244 0.2244 0.9745 -48.5112 46.2535)" class="st1" cx="179.2" cy="236.6" rx="7.7" ry="2.6"/>
	<ellipse transform="matrix(0.9745 -0.2244 0.2244 0.9745 -42.2673 56.075)" class="st1" cx="225.6" cy="214" rx="7.7" ry="2.6"/>
	<ellipse transform="matrix(0.9745 -0.2244 0.2244 0.9745 -49.9933 66.0629)" class="st3" cx="265.6" cy="253" rx="8.3" ry="17.4"/>
	<ellipse transform="matrix(0.9745 -0.2244 0.2244 0.9745 -50.607 68.743)" class="st3" cx="277.1" cy="257" rx="8.3" ry="17.4"/>
	<path class="st1" d="M298,424.3c0-0.4-0.2-8.7,6-22.5c5.7-12.6,18-32.3,44.5-54.3c50.2-41.7,50.5-98.5,50.5-99.1h1.6
		c0,0.2,0,14.7-6.3,34.2c-8.3,25.9-23.9,48.8-44.9,66.1c-50.2,41.7-49.9,75.1-49.9,75.5H298z"/>
	<ellipse class="st3" cx="398.3" cy="231.9" rx="10.4" ry="10.4"/>
	<ellipse class="st1" cx="407.6" cy="281.4" rx="10.4" ry="10.4"/>
	<ellipse class="st3" cx="375.5" cy="292.4" rx="10.4" ry="10.4"/>
	<ellipse class="st3" cx="388.3" cy="324.6" rx="10.4" ry="10.4"/>
	<ellipse class="st1" cx="341.1" cy="336.2" rx="10.4" ry="10.4"/>
	<path class="st1" d="M303.3,427.7c0,0,3.8-27.3,40.3-28.4L303.3,427.7z"/>
	<path class="st1" d="M292.4,421c0,0,9.4-25.9-22.4-43.9L292.4,421z"/>
</g>
</svg>
