<?xml version="1.0" encoding="utf-8"?>
<!-- Generator: Adobe Illustrator 22.0.0, SVG Export Plug-In . SVG Version: 6.00 Build 0)  -->
<svg version="1.1" id="Ebene_1" focusable="false" xmlns="http://www.w3.org/2000/svg" xmlns:xlink="http://www.w3.org/1999/xlink"
	 x="0px" y="0px" viewBox="0 0 500 500" style="enable-background:new 0 0 500 500;" xml:space="preserve">
<style type="text/css">
	.st0{fill:#649225;}
	.st1{fill:#F8C143;}
</style>
<circle class="st0" cx="250.3" cy="250.9" r="244.1"/>
<path class="st1" d="M400.8,234.2v70.5c0,2.3-0.3,4.5-0.8,6.7l-23.5,99.9c-3.1,13.3-15,22.6-28.6,22.6H195.2
	c-9.4,0-18.2-4.5-23.8-12.1l-94-129.3c-9.5-13.1-6.6-31.5,6.5-41c13.1-9.5,31.5-6.6,41,6.5l23.2,32V87.3c0-16.2,13.2-29.4,29.4-29.4
	S207,71.1,207,87.3v146.9h5.9v-29.4c0-16.2,13.2-29.4,29.4-29.4s29.4,13.2,29.4,29.4v29.4h5.9v-17.6c0-16.2,13.2-29.4,29.4-29.4
	s29.4,13.2,29.4,29.4v17.6h5.9c0-16.2,13.2-29.4,29.4-29.4S400.8,217.9,400.8,234.2z M212.8,292.9H207v70.5h5.9V292.9z M277.5,292.9
	h-5.9v70.5h5.9V292.9z M342.1,292.9h-5.9v70.5h5.9V292.9z"/>
</svg>
