<?xml version="1.0" encoding="utf-8"?>
<!-- Generator: Adobe Illustrator 22.0.0, SVG Export Plug-In . SVG Version: 6.00 Build 0)  -->
<svg version="1.1" id="Ebene_1" focusable="false" xmlns="http://www.w3.org/2000/svg" xmlns:xlink="http://www.w3.org/1999/xlink"
	 x="0px" y="0px" viewBox="0 0 500 500" style="enable-background:new 0 0 500 500;" xml:space="preserve">
<style type="text/css">
	.st0{fill:#588021;}
	.st1{fill:#F8C143;}
</style>
<circle class="st0" cx="250.3" cy="250.9" r="244.1"/>
<path class="st1" d="M396.5,221.2v65.3c0,2.1-0.3,4.2-0.7,6.2L374,385.2c-2.9,12.3-13.9,20.9-26.5,20.9H206.1
	c-8.7,0-16.9-4.2-22-11.2L97,275.2c-8.8-12.1-6.1-29.2,6-38c12.1-8.8,29.2-6.1,38,6l21.5,29.6V85.1c0-15,12.2-27.2,27.2-27.2
	c15,0,27.3,12.2,27.3,27.2v136h5.5v-27.2c0-15,12.2-27.2,27.2-27.2c15,0,27.2,12.2,27.2,27.2v27.2h5.5v-16.3
	c0-15,12.2-27.2,27.2-27.2c15,0,27.2,12.2,27.2,27.2v16.3h5.5c0-15,12.2-27.2,27.2-27.2C384.5,193.9,396.5,206.1,396.5,221.2z
	 M222.4,275.5H217v65.3h5.5L222.4,275.5L222.4,275.5z M282.3,275.5h-5.5v65.3h5.5V275.5z M342.1,275.5h-5.5v65.3h5.5V275.5z"/>
</svg>
