<?xml version="1.0" standalone="no"?>
<!DOCTYPE svg PUBLIC "-//W3C//DTD SVG 20010904//EN"
 "http://www.w3.org/TR/2001/REC-SVG-20010904/DTD/svg10.dtd">
<svg version="1.0" xmlns="http://www.w3.org/2000/svg"
 width="700.000000pt" height="700.000000pt" viewBox="0 0 700.000000 700.000000"
 preserveAspectRatio="xMidYMid meet">
<metadata>
Created by potrace 1.14, written by Peter Selinger 2001-2017
</metadata>
<g transform="translate(0.000000,700.000000) scale(0.100000,-0.100000)"
fill="#000000" stroke="none">
<path d="M3215 6910 c-554 -51 -1093 -233 -1547 -523 -1111 -710 -1709 -1966
-1562 -3277 115 -1021 691 -1937 1571 -2496 449 -286 975 -464 1516 -515 190
-17 613 -7 792 21 620 94 1175 335 1655 719 131 105 363 333 479 471 667 794
934 1843 730 2865 -137 687 -480 1312 -986 1795 -546 522 -1218 837 -1983 930
-118 15 -544 21 -665 10z m-266 -531 c75 -16 127 -56 221 -171 135 -163 241
-232 545 -358 251 -104 312 -142 360 -225 55 -92 73 -323 32 -404 -9 -19 -17
-35 -17 -36 0 -1 29 -5 66 -9 162 -17 312 -93 390 -199 61 -82 85 -165 91
-309 7 -165 0 -204 -48 -250 l-38 -36 49 -32 c77 -49 182 -168 223 -252 94
-190 59 -310 -108 -374 -41 -15 -44 -19 -49 -63 -3 -25 -17 -152 -31 -281 -67
-616 -161 -1270 -239 -1660 -14 -68 -24 -126 -22 -127 1 -1 31 36 65 83 98
131 218 262 348 375 171 150 296 273 366 359 228 282 384 650 427 1010 6 52
13 96 15 99 13 12 14 -13 4 -95 -41 -363 -189 -720 -419 -1009 -90 -113 -150
-175 -270 -278 -221 -190 -392 -372 -499 -531 -46 -68 -54 -90 -96 -251 -87
-341 -166 -537 -249 -613 -34 -32 -54 -42 -78 -42 -201 1 -643 515 -1290 1500
-144 220 -437 684 -557 882 -47 80 -57 90 -114 120 -134 70 -252 221 -292 373
-19 75 -19 204 0 280 32 128 79 199 232 353 l142 144 -29 51 c-57 102 -78 251
-61 434 37 379 198 625 383 586 l46 -10 -26 56 c-37 81 -42 189 -12 259 32 73
88 120 225 186 131 63 202 114 211 152 11 42 -40 101 -183 213 -24 18 -43 37
-43 42 0 12 71 47 117 58 54 13 154 13 212 0z m2681 -2495 c98 -39 119 -171
39 -238 -85 -72 -214 -25 -234 86 -11 56 24 120 78 147 51 25 65 26 117 5z
m160 -710 c77 -66 80 -154 6 -223 -36 -34 -118 -40 -163 -12 -47 29 -67 66
-67 121 0 28 7 58 18 74 44 68 148 88 206 40z m-470 -142 c124 -62 96 -241
-43 -267 -27 -5 -47 -2 -79 14 -77 37 -104 116 -66 190 38 74 115 100 188 63z
m174 -446 c96 -40 114 -178 32 -241 -48 -37 -93 -42 -150 -16 -38 16 -50 29
-67 67 -55 123 60 242 185 190z m-642 -172 c15 -8 37 -33 49 -56 37 -73 11
-153 -62 -190 -87 -45 -190 8 -205 104 -5 27 0 49 15 82 38 78 120 103 203 60z
m-54 -1009 c-16 -16 -543 -384 -545 -381 -9 9 43 121 75 165 66 88 152 147
267 185 65 21 216 44 203 31z"/>
</g>
</svg>
