<?xml version="1.0" encoding="utf-8"?>
<!-- Generator: Adobe Illustrator 22.0.0, SVG Export Plug-In . SVG Version: 6.00 Build 0)  -->
<svg version="1.1" id="Ebene_1" xmlns="http://www.w3.org/2000/svg" xmlns:xlink="http://www.w3.org/1999/xlink" x="0px" y="0px"
	 viewBox="0 0 2500 2432" style="enable-background:new 0 0 2500 2432;" xml:space="preserve">
<style type="text/css">
	.st0{fill-rule:evenodd;clip-rule:evenodd;fill:#FFFFFF;}
</style>
<path class="st0" d="M1252.6,4C565.3,4,7.9,561.3,7.9,1248.8c0,549.9,356.6,1016.4,851.3,1181.1c62.2,11.4,85-27,85-60
	c0-29.5-1.1-107.8-1.7-211.7c-346.2,75.2-419.3-166.9-419.3-166.9C466.6,1847.5,385,1809.2,385,1809.2c-113-77.2,8.6-75.7,8.6-75.7
	c124.9,8.8,190.7,128.3,190.7,128.3c111,190.2,291.3,135.3,362.3,103.4c11.3-80.4,43.5-135.3,79-166.4
	c-276.4-31.4-567-138.2-567-615.2c0-135.9,48.5-247,128.1-334c-12.8-31.5-55.5-158,12.2-329.4c0,0,104.5-33.5,342.3,127.6
	c99.3-27.6,205.8-41.4,311.6-41.9c105.7,0.5,212.2,14.3,311.6,41.9c237.6-161.1,342-127.6,342-127.6
	c67.9,171.4,25.2,297.9,12.4,329.4c79.8,87,127.9,198.1,127.9,334c0,478.2-291,583.4-568.3,614.2c44.7,38.4,84.5,114.4,84.5,230.5
	c0,166.4-1.5,300.7-1.5,341.5c0,33.3,22.4,72,85.6,59.9c494.2-164.9,850.5-631.2,850.5-1180.9C2497.4,561.3,1940.1,4,1252.6,4z"/>
</svg>
